<?xml version="1.0" encoding="UTF-8"?>
<svg id="Layer_2" data-name="Layer 2" xmlns="http://www.w3.org/2000/svg" xmlns:xlink="http://www.w3.org/1999/xlink" viewBox="0 0 16.03 16.03">
  <defs>
    <style>
      .cls-1 {
        fill: url(#New_Gradient_Swatch_2-2);
      }

      .cls-2 {
        fill: url(#New_Gradient_Swatch_2);
      }

      .cls-3 {
        fill: url(#New_Gradient_Swatch_2-4);
      }

      .cls-4 {
        fill: #fbf9f2;
      }

      .cls-5 {
        fill: url(#New_Gradient_Swatch_2-5);
      }

      .cls-6 {
        fill: #2d2b70;
        stroke: #2b388f;
        stroke-miterlimit: 10;
        stroke-width: .03px;
      }

      .cls-7 {
        fill: url(#New_Gradient_Swatch_2-3);
      }
    </style>
    <linearGradient id="New_Gradient_Swatch_2" data-name="New Gradient Swatch 2" x1="-2083.17" y1="-1292.1" x2="-2082.41" y2="-1292.1" gradientTransform="translate(2090.86 1299.9)" gradientUnits="userSpaceOnUse">
      <stop offset="0" stop-color="#af7f2c"/>
      <stop offset=".45" stop-color="#f5dc7b"/>
      <stop offset="1" stop-color="#af7f2c"/>
    </linearGradient>
    <linearGradient id="New_Gradient_Swatch_2-2" data-name="New Gradient Swatch 2" x1="-2082.4" y1="-1291.49" x2="-2080.23" y2="-1291.49" xlink:href="#New_Gradient_Swatch_2"/>
    <linearGradient id="New_Gradient_Swatch_2-3" data-name="New Gradient Swatch 2" x1="-2081.93" y1="-1291.72" x2="-2080.23" y2="-1291.72" xlink:href="#New_Gradient_Swatch_2"/>
    <linearGradient id="New_Gradient_Swatch_2-4" data-name="New Gradient Swatch 2" x1="-2085.42" y1="-1291.11" x2="-2083.26" y2="-1291.11" xlink:href="#New_Gradient_Swatch_2"/>
    <linearGradient id="New_Gradient_Swatch_2-5" data-name="New Gradient Swatch 2" x1="-2085.42" y1="-1291.34" x2="-2083.69" y2="-1291.34" xlink:href="#New_Gradient_Swatch_2"/>
  </defs>
  <g id="Layer_1-2" data-name="Layer 1">
    <g>
      <rect class="cls-6" x=".01" y=".01" width="16" height="16" rx="1.54" ry="1.54"/>
      <g>
        <g>
          <path class="cls-2" d="M7.99,1c0,4.4-.09,9.18-.31,13.61h.76c-.19-4.37-.34-9.16-.34-13.61h-.11Z"/>
          <path class="cls-1" d="M8.69,2.22h-.11c-.03,3.61-.75,9.47,1.76,12.38l.29-.76c-2.49-2.54-1.93-8.14-1.94-11.62Z"/>
          <path class="cls-7" d="M10.62,11.86c-.72-.84-1.74-3.73-1.49-8.12h-.18c-.06,2.4-.18,6.88,1.38,8.88l.29-.76Z"/>
          <path class="cls-3" d="M7.41,2.98c0,3.31.37,8.47-1.98,10.86l.29.76c2.38-2.75,1.83-8.17,1.8-11.62h-.11Z"/>
          <path class="cls-5" d="M5.72,12.62c1.56-2,1.47-5.73,1.41-8.13h-.18c.25,4.39-.8,6.53-1.52,7.37l.29.76Z"/>
        </g>
        <g>
          <g>
            <path class="cls-4" d="M7.99,1c0,4.4-.09,9.18-.31,13.61h.76c-.19-4.37-.34-9.16-.34-13.61h-.11Z"/>
            <path class="cls-4" d="M8.69,2.22h-.11c-.03,3.61-.75,9.47,1.76,12.38l.29-.76c-2.49-2.54-1.93-8.14-1.94-11.62Z"/>
            <path class="cls-4" d="M10.62,11.86c-.72-.84-1.74-3.73-1.49-8.12h-.18c-.06,2.4-.18,6.88,1.38,8.88l.29-.76Z"/>
            <path class="cls-4" d="M7.41,2.98c0,3.31.37,8.47-1.98,10.86l.29.76c2.38-2.75,1.83-8.17,1.8-11.62h-.11Z"/>
            <path class="cls-4" d="M5.72,12.62c1.56-2,1.47-5.73,1.41-8.13h-.18c.25,4.39-.8,6.53-1.52,7.37l.29.76Z"/>
          </g>
          <g>
            <path class="cls-4" d="M7.99,1c0,4.4-.09,9.18-.31,13.61h.76c-.19-4.37-.34-9.16-.34-13.61h-.11Z"/>
            <path class="cls-4" d="M8.69,2.22h-.11c-.03,3.61-.75,9.47,1.76,12.38l.29-.76c-2.49-2.54-1.93-8.14-1.94-11.62Z"/>
            <path class="cls-4" d="M10.62,11.86c-.72-.84-1.74-3.73-1.49-8.12h-.18c-.06,2.4-.18,6.88,1.38,8.88l.29-.76Z"/>
            <path class="cls-4" d="M7.41,2.98c0,3.31.37,8.47-1.98,10.86l.29.76c2.38-2.75,1.83-8.17,1.8-11.62h-.11Z"/>
            <path class="cls-4" d="M5.72,12.62c1.56-2,1.47-5.73,1.41-8.13h-.18c.25,4.39-.8,6.53-1.52,7.37l.29.76Z"/>
          </g>
          <g>
            <path class="cls-4" d="M7.99,1c0,4.4-.09,9.18-.31,13.61h.76c-.19-4.37-.34-9.16-.34-13.61h-.11Z"/>
            <path class="cls-4" d="M8.69,2.22h-.11c-.03,3.61-.75,9.47,1.76,12.38l.29-.76c-2.49-2.54-1.93-8.14-1.94-11.62Z"/>
            <path class="cls-4" d="M10.62,11.86c-.72-.84-1.74-3.73-1.49-8.12h-.18c-.06,2.4-.18,6.88,1.38,8.88l.29-.76Z"/>
            <path class="cls-4" d="M7.41,2.98c0,3.31.37,8.47-1.98,10.86l.29.76c2.38-2.75,1.83-8.17,1.8-11.62h-.11Z"/>
            <path class="cls-4" d="M5.72,12.62c1.56-2,1.47-5.73,1.41-8.13h-.18c.25,4.39-.8,6.53-1.52,7.37l.29.76Z"/>
          </g>
        </g>
      </g>
    </g>
  </g>
</svg>