<?xml version="1.0" encoding="UTF-8"?>
<svg id="Layer_2" xmlns="http://www.w3.org/2000/svg" version="1.1" viewBox="0 0 1334.4 2701.1">
  <!-- Generator: Adobe Illustrator 30.1.0, SVG Export Plug-In . SVG Version: 2.1.1 Build 136)  -->
  <defs>
    <style>
      .st0 {
        fill: #00aeef;
      }

      .st1 {
        fill: #2e3192;
      }
    </style>
  </defs>
  <g id="Layer_1-2">
    <g>
      <g>
        <path class="st1" d="M671.7,2650.2l-5.1,17.9-17.9,5.1c-.6.2-1.1.6-1.3,1.3-.3,1,.3,2,1.3,2.3l17.9,5.1,5.1,17.9c.2.6.6,1.1,1.3,1.3,1,.3,2-.3,2.3-1.3l5.1-17.9,17.9-5.1c.6-.2,1.1-.6,1.3-1.3.3-1-.3-2-1.3-2.3l-17.9-5.1-5.1-17.9c-.2-.6-.6-1.1-1.3-1.3-1-.3-2,.3-2.3,1.3h0Z"/>
        <path class="st1" d="M724.6,2598l-5.1,17.9-17.9,5.1c-.6.2-1.1.6-1.3,1.3-.3,1,.3,2,1.3,2.3l17.9,5.1,5.1,17.9c.2.6.6,1.1,1.3,1.3,1,.3,2-.3,2.3-1.3l5.1-17.9,17.9-5.1c.6-.2,1.1-.6,1.3-1.3.3-1-.3-2-1.3-2.3l-17.9-5.1-5.1-17.9c-.2-.6-.6-1.1-1.3-1.3-1-.3-2,.3-2.3,1.3h0Z"/>
        <path class="st1" d="M671.7,2598l-5.1,17.9-17.9,5.1c-.6.2-1.1.6-1.3,1.3-.3,1,.3,2,1.3,2.3l17.9,5.1,5.1,17.9c.2.6.6,1.1,1.3,1.3,1,.3,2-.3,2.3-1.3l5.1-17.9,17.9-5.1c.6-.2,1.1-.6,1.3-1.3.3-1-.3-2-1.3-2.3l-17.9-5.1-5.1-17.9c-.2-.6-.6-1.1-1.3-1.3-1-.3-2,.3-2.3,1.3h0Z"/>
        <path class="st1" d="M618.8,2598l-5.1,17.9-17.9,5.1c-.6.2-1.1.6-1.3,1.3-.3,1,.3,2,1.3,2.3l17.9,5.1,5.1,17.9c.2.6.6,1.1,1.3,1.3,1,.3,2-.3,2.3-1.3l5.1-17.9,17.9-5.1c.6-.2,1.1-.6,1.3-1.3.3-1-.3-2-1.3-2.3l-17.9-5.1-5.1-17.9c-.2-.6-.6-1.1-1.3-1.3-1-.3-2,.3-2.3,1.3h0Z"/>
        <path class="st1" d="M777.5,2545.8l-5.1,17.9-17.9,5.1c-.6.2-1.1.6-1.3,1.3-.3,1,.3,2,1.3,2.3l17.9,5.1,5.1,17.9c.2.6.6,1.1,1.3,1.3,1,.3,2-.3,2.3-1.3l5.1-17.9,17.9-5.1c.6-.2,1.1-.6,1.3-1.3.3-1-.3-2-1.3-2.3l-17.9-5.1-5.1-17.9c-.2-.6-.6-1.1-1.3-1.3-1-.3-2,.3-2.3,1.3h0Z"/>
        <path class="st1" d="M724.6,2545.8l-5.1,17.9-17.9,5.1c-.6.2-1.1.6-1.3,1.3-.3,1,.3,2,1.3,2.3l17.9,5.1,5.1,17.9c.2.6.6,1.1,1.3,1.3,1,.3,2-.3,2.3-1.3l5.1-17.9,17.9-5.1c.6-.2,1.1-.6,1.3-1.3.3-1-.3-2-1.3-2.3l-17.9-5.1-5.1-17.9c-.2-.6-.6-1.1-1.3-1.3-1-.3-2,.3-2.3,1.3h0Z"/>
        <path class="st1" d="M618.8,2545.8l-5.1,17.9-17.9,5.1c-.6.2-1.1.6-1.3,1.3-.3,1,.3,2,1.3,2.3l17.9,5.1,5.1,17.9c.2.6.6,1.1,1.3,1.3,1,.3,2-.3,2.3-1.3l5.1-17.9,17.9-5.1c.6-.2,1.1-.6,1.3-1.3.3-1-.3-2-1.3-2.3l-17.9-5.1-5.1-17.9c-.2-.6-.6-1.1-1.3-1.3-1-.3-2,.3-2.3,1.3h0Z"/>
        <path class="st1" d="M565.9,2545.8l-5.1,17.9-17.9,5.1c-.6.2-1.1.6-1.3,1.3-.3,1,.3,2,1.3,2.3l17.9,5.1,5.1,17.9c.2.6.6,1.1,1.3,1.3,1,.3,2-.3,2.3-1.3l5.1-17.9,17.9-5.1c.6-.2,1.1-.6,1.3-1.3.3-1-.3-2-1.3-2.3l-17.9-5.1-5.1-17.9c-.2-.6-.6-1.1-1.3-1.3-1-.3-2,.3-2.3,1.3h0Z"/>
        <path class="st1" d="M830.4,2493.6l-5.1,17.9-17.9,5.1c-.6.2-1.1.6-1.3,1.3-.3,1,.3,2,1.3,2.3l17.9,5.1,5.1,17.9c.2.6.6,1.1,1.3,1.3,1,.3,2-.3,2.3-1.3l5.1-17.9,17.9-5.1c.6-.2,1.1-.6,1.3-1.3.3-1-.3-2-1.3-2.3l-17.9-5.1-5.1-17.9c-.2-.6-.6-1.1-1.3-1.3-1-.3-2,.3-2.3,1.3h0Z"/>
        <path class="st1" d="M777.5,2493.6l-5.1,17.9-17.9,5.1c-.6.2-1.1.6-1.3,1.3-.3,1,.3,2,1.3,2.3l17.9,5.1,5.1,17.9c.2.6.6,1.1,1.3,1.3,1,.3,2-.3,2.3-1.3l5.1-17.9,17.9-5.1c.6-.2,1.1-.6,1.3-1.3.3-1-.3-2-1.3-2.3l-17.9-5.1-5.1-17.9c-.2-.6-.6-1.1-1.3-1.3-1-.3-2,.3-2.3,1.3h0Z"/>
        <path class="st1" d="M565.9,2493.6l-5.1,17.9-17.9,5.1c-.6.2-1.1.6-1.3,1.3-.3,1,.3,2,1.3,2.3l17.9,5.1,5.1,17.9c.2.6.6,1.1,1.3,1.3,1,.3,2-.3,2.3-1.3l5.1-17.9,17.9-5.1c.6-.2,1.1-.6,1.3-1.3.3-1-.3-2-1.3-2.3l-17.9-5.1-5.1-17.9c-.2-.6-.6-1.1-1.3-1.3-1-.3-2,.3-2.3,1.3h0Z"/>
        <path class="st1" d="M513,2493.6l-5.1,17.9-17.9,5.1c-.6.2-1.1.6-1.3,1.3-.3,1,.3,2,1.3,2.3l17.9,5.1,5.1,17.9c.2.6.6,1.1,1.3,1.3,1,.3,2-.3,2.3-1.3l5.1-17.9,17.9-5.1c.6-.2,1.1-.6,1.3-1.3.3-1-.3-2-1.3-2.3l-17.9-5.1-5.1-17.9c-.2-.6-.6-1.1-1.3-1.3-1-.3-2,.3-2.3,1.3h0Z"/>
        <path class="st1" d="M883.3,2441.4l-5.1,17.9-17.9,5.1c-.6.2-1.1.6-1.3,1.3-.3,1,.3,2,1.3,2.3l17.9,5.1,5.1,17.9c.2.6.6,1.1,1.3,1.3,1,.3,2-.3,2.3-1.3l5.1-17.9,17.9-5.1c.6-.2,1.1-.6,1.3-1.3.3-1-.3-2-1.3-2.3l-17.9-5.1-5.1-17.9c-.2-.6-.6-1.1-1.3-1.3-1-.3-2,.3-2.3,1.3h0Z"/>
        <path class="st1" d="M830.4,2441.4l-5.1,17.9-17.9,5.1c-.6.2-1.1.6-1.3,1.3-.3,1,.3,2,1.3,2.3l17.9,5.1,5.1,17.9c.2.6.6,1.1,1.3,1.3,1,.3,2-.3,2.3-1.3l5.1-17.9,17.9-5.1c.6-.2,1.1-.6,1.3-1.3.3-1-.3-2-1.3-2.3l-17.9-5.1-5.1-17.9c-.2-.6-.6-1.1-1.3-1.3-1-.3-2,.3-2.3,1.3h0Z"/>
        <path class="st1" d="M671.7,2441.4l-5.1,17.9-17.9,5.1c-.6.2-1.1.6-1.3,1.3-.3,1,.3,2,1.3,2.3l17.9,5.1,5.1,17.9c.2.6.6,1.1,1.3,1.3,1,.3,2-.3,2.3-1.3l5.1-17.9,17.9-5.1c.6-.2,1.1-.6,1.3-1.3.3-1-.3-2-1.3-2.3l-17.9-5.1-5.1-17.9c-.2-.6-.6-1.1-1.3-1.3-1-.3-2,.3-2.3,1.3h0Z"/>
        <path class="st1" d="M513,2441.4l-5.1,17.9-17.9,5.1c-.6.2-1.1.6-1.3,1.3-.3,1,.3,2,1.3,2.3l17.9,5.1,5.1,17.9c.2.6.6,1.1,1.3,1.3,1,.3,2-.3,2.3-1.3l5.1-17.9,17.9-5.1c.6-.2,1.1-.6,1.3-1.3.3-1-.3-2-1.3-2.3l-17.9-5.1-5.1-17.9c-.2-.6-.6-1.1-1.3-1.3-1-.3-2,.3-2.3,1.3h0Z"/>
        <path class="st1" d="M460.1,2441.4l-5.1,17.9-17.9,5.1c-.6.2-1.1.6-1.3,1.3-.3,1,.3,2,1.3,2.3l17.9,5.1,5.1,17.9c.2.6.6,1.1,1.3,1.3,1,.3,2-.3,2.3-1.3l5.1-17.9,17.9-5.1c.6-.2,1.1-.6,1.3-1.3.3-1-.3-2-1.3-2.3l-17.9-5.1-5.1-17.9c-.2-.6-.6-1.1-1.3-1.3-1-.3-2,.3-2.3,1.3h0Z"/>
        <path class="st1" d="M883.3,2389.1l-5.1,17.9-17.9,5.1c-.6.2-1.1.6-1.3,1.3-.3,1,.3,2,1.3,2.3l17.9,5.1,5.1,17.9c.2.6.6,1.1,1.3,1.3,1,.3,2-.3,2.3-1.3l5.1-17.9,17.9-5.1c.6-.2,1.1-.6,1.3-1.3.3-1-.3-2-1.3-2.3l-17.9-5.1-5.1-17.9c-.2-.6-.6-1.1-1.3-1.3-1-.3-2,.3-2.3,1.3h0Z"/>
        <path class="st1" d="M724.6,2389.1l-5.1,17.9-17.9,5.1c-.6.2-1.1.6-1.3,1.3-.3,1,.3,2,1.3,2.3l17.9,5.1,5.1,17.9c.2.6.6,1.1,1.3,1.3,1,.3,2-.3,2.3-1.3l5.1-17.9,17.9-5.1c.6-.2,1.1-.6,1.3-1.3.3-1-.3-2-1.3-2.3l-17.9-5.1-5.1-17.9c-.2-.6-.6-1.1-1.3-1.3-1-.3-2,.3-2.3,1.3h0Z"/>
        <path class="st1" d="M671.7,2389.1l-5.1,17.9-17.9,5.1c-.6.2-1.1.6-1.3,1.3-.3,1,.3,2,1.3,2.3l17.9,5.1,5.1,17.9c.2.6.6,1.1,1.3,1.3,1,.3,2-.3,2.3-1.3l5.1-17.9,17.9-5.1c.6-.2,1.1-.6,1.3-1.3.3-1-.3-2-1.3-2.3l-17.9-5.1-5.1-17.9c-.2-.6-.6-1.1-1.3-1.3-1-.3-2,.3-2.3,1.3h0Z"/>
        <path class="st1" d="M618.8,2389.1l-5.1,17.9-17.9,5.1c-.6.2-1.1.6-1.3,1.3-.3,1,.3,2,1.3,2.3l17.9,5.1,5.1,17.9c.2.6.6,1.1,1.3,1.3,1,.3,2-.3,2.3-1.3l5.1-17.9,17.9-5.1c.6-.2,1.1-.6,1.3-1.3.3-1-.3-2-1.3-2.3l-17.9-5.1-5.1-17.9c-.2-.6-.6-1.1-1.3-1.3-1-.3-2,.3-2.3,1.3h0Z"/>
        <path class="st1" d="M460.1,2389.1l-5.1,17.9-17.9,5.1c-.6.2-1.1.6-1.3,1.3-.3,1,.3,2,1.3,2.3l17.9,5.1,5.1,17.9c.2.6.6,1.1,1.3,1.3,1,.3,2-.3,2.3-1.3l5.1-17.9,17.9-5.1c.6-.2,1.1-.6,1.3-1.3.3-1-.3-2-1.3-2.3l-17.9-5.1-5.1-17.9c-.2-.6-.6-1.1-1.3-1.3-1-.3-2,.3-2.3,1.3h0Z"/>
        <path class="st1" d="M883.3,2336.9l-5.1,17.9-17.9,5.1c-.6.2-1.1.6-1.3,1.3-.3,1,.3,2,1.3,2.3l17.9,5.1,5.1,17.9c.2.6.6,1.1,1.3,1.3,1,.3,2-.3,2.3-1.3l5.1-17.9,17.9-5.1c.6-.2,1.1-.6,1.3-1.3.3-1-.3-2-1.3-2.3l-17.9-5.1-5.1-17.9c-.2-.6-.6-1.1-1.3-1.3-1-.3-2,.3-2.3,1.3h0Z"/>
        <path class="st1" d="M777.5,2336.9l-5.1,17.9-17.9,5.1c-.6.2-1.1.6-1.3,1.3-.3,1,.3,2,1.3,2.3l17.9,5.1,5.1,17.9c.2.6.6,1.1,1.3,1.3,1,.3,2-.3,2.3-1.3l5.1-17.9,17.9-5.1c.6-.2,1.1-.6,1.3-1.3.3-1-.3-2-1.3-2.3l-17.9-5.1-5.1-17.9c-.2-.6-.6-1.1-1.3-1.3-1-.3-2,.3-2.3,1.3h0Z"/>
        <path class="st1" d="M724.6,2336.9l-5.1,17.9-17.9,5.1c-.6.2-1.1.6-1.3,1.3-.3,1,.3,2,1.3,2.3l17.9,5.1,5.1,17.9c.2.6.6,1.1,1.3,1.3,1,.3,2-.3,2.3-1.3l5.1-17.9,17.9-5.1c.6-.2,1.1-.6,1.3-1.3.3-1-.3-2-1.3-2.3l-17.9-5.1-5.1-17.9c-.2-.6-.6-1.1-1.3-1.3-1-.3-2,.3-2.3,1.3h0Z"/>
        <path class="st1" d="M671.7,2336.9l-5.1,17.9-17.9,5.1c-.6.2-1.1.6-1.3,1.3-.3,1,.3,2,1.3,2.3l17.9,5.1,5.1,17.9c.2.6.6,1.1,1.3,1.3,1,.3,2-.3,2.3-1.3l5.1-17.9,17.9-5.1c.6-.2,1.1-.6,1.3-1.3.3-1-.3-2-1.3-2.3l-17.9-5.1-5.1-17.9c-.2-.6-.6-1.1-1.3-1.3-1-.3-2,.3-2.3,1.3h0Z"/>
        <path class="st1" d="M618.8,2336.9l-5.1,17.9-17.9,5.1c-.6.2-1.1.6-1.3,1.3-.3,1,.3,2,1.3,2.3l17.9,5.1,5.1,17.9c.2.6.6,1.1,1.3,1.3,1,.3,2-.3,2.3-1.3l5.1-17.9,17.9-5.1c.6-.2,1.1-.6,1.3-1.3.3-1-.3-2-1.3-2.3l-17.9-5.1-5.1-17.9c-.2-.6-.6-1.1-1.3-1.3-1-.3-2,.3-2.3,1.3h0Z"/>
        <path class="st1" d="M565.9,2336.9l-5.1,17.9-17.9,5.1c-.6.2-1.1.6-1.3,1.3-.3,1,.3,2,1.3,2.3l17.9,5.1,5.1,17.9c.2.6.6,1.1,1.3,1.3,1,.3,2-.3,2.3-1.3l5.1-17.9,17.9-5.1c.6-.2,1.1-.6,1.3-1.3.3-1-.3-2-1.3-2.3l-17.9-5.1-5.1-17.9c-.2-.6-.6-1.1-1.3-1.3-1-.3-2,.3-2.3,1.3h0Z"/>
        <path class="st1" d="M460.1,2336.9l-5.1,17.9-17.9,5.1c-.6.2-1.1.6-1.3,1.3-.3,1,.3,2,1.3,2.3l17.9,5.1,5.1,17.9c.2.6.6,1.1,1.3,1.3,1,.3,2-.3,2.3-1.3l5.1-17.9,17.9-5.1c.6-.2,1.1-.6,1.3-1.3.3-1-.3-2-1.3-2.3l-17.9-5.1-5.1-17.9c-.2-.6-.6-1.1-1.3-1.3-1-.3-2,.3-2.3,1.3h0Z"/>
        <path class="st1" d="M883.3,2284.7l-5.1,17.9-17.9,5.1c-.6.2-1.1.6-1.3,1.3-.3,1,.3,2,1.3,2.3l17.9,5.1,5.1,17.9c.2.6.6,1.1,1.3,1.3,1,.3,2-.3,2.3-1.3l5.1-17.9,17.9-5.1c.6-.2,1.1-.6,1.3-1.3.3-1-.3-2-1.3-2.3l-17.9-5.1-5.1-17.9c-.2-.6-.6-1.1-1.3-1.3-1-.3-2,.3-2.3,1.3h0Z"/>
        <path class="st1" d="M830.4,2284.7l-5.1,17.9-17.9,5.1c-.6.2-1.1.6-1.3,1.3-.3,1,.3,2,1.3,2.3l17.9,5.1,5.1,17.9c.2.6.6,1.1,1.3,1.3,1,.3,2-.3,2.3-1.3l5.1-17.9,17.9-5.1c.6-.2,1.1-.6,1.3-1.3.3-1-.3-2-1.3-2.3l-17.9-5.1-5.1-17.9c-.2-.6-.6-1.1-1.3-1.3-1-.3-2,.3-2.3,1.3h0Z"/>
        <path class="st1" d="M513,2284.7l-5.1,17.9-17.9,5.1c-.6.2-1.1.6-1.3,1.3-.3,1,.3,2,1.3,2.3l17.9,5.1,5.1,17.9c.2.6.6,1.1,1.3,1.3,1,.3,2-.3,2.3-1.3l5.1-17.9,17.9-5.1c.6-.2,1.1-.6,1.3-1.3.3-1-.3-2-1.3-2.3l-17.9-5.1-5.1-17.9c-.2-.6-.6-1.1-1.3-1.3-1-.3-2,.3-2.3,1.3h0Z"/>
        <path class="st1" d="M460.1,2284.7l-5.1,17.9-17.9,5.1c-.6.2-1.1.6-1.3,1.3-.3,1,.3,2,1.3,2.3l17.9,5.1,5.1,17.9c.2.6.6,1.1,1.3,1.3,1,.3,2-.3,2.3-1.3l5.1-17.9,17.9-5.1c.6-.2,1.1-.6,1.3-1.3.3-1-.3-2-1.3-2.3l-17.9-5.1-5.1-17.9c-.2-.6-.6-1.1-1.3-1.3-1-.3-2,.3-2.3,1.3h0Z"/>
        <path class="st1" d="M1094.9,2232.5l-5.1,17.9-17.9,5.1c-.6.2-1.1.6-1.3,1.3-.3,1,.3,2,1.3,2.3l17.9,5.1,5.1,17.9c.2.6.6,1.1,1.3,1.3,1,.3,2-.3,2.3-1.3l5.1-17.9,17.9-5.1c.6-.2,1.1-.6,1.3-1.3.3-1-.3-2-1.3-2.3l-17.9-5.1-5.1-17.9c-.2-.6-.6-1.1-1.3-1.3-1-.3-2,.3-2.3,1.3h0Z"/>
        <path class="st1" d="M1042,2232.5l-5.1,17.9-17.9,5.1c-.6.2-1.1.6-1.3,1.3-.3,1,.3,2,1.3,2.3l17.9,5.1,5.1,17.9c.2.6.6,1.1,1.3,1.3,1,.3,2-.3,2.3-1.3l5.1-17.9,17.9-5.1c.6-.2,1.1-.6,1.3-1.3.3-1-.3-2-1.3-2.3l-17.9-5.1-5.1-17.9c-.2-.6-.6-1.1-1.3-1.3-1-.3-2,.3-2.3,1.3h0Z"/>
        <path class="st1" d="M989.1,2232.5l-5.1,17.9-17.9,5.1c-.6.2-1.1.6-1.3,1.3-.3,1,.3,2,1.3,2.3l17.9,5.1,5.1,17.9c.2.6.6,1.1,1.3,1.3,1,.3,2-.3,2.3-1.3l5.1-17.9,17.9-5.1c.6-.2,1.1-.6,1.3-1.3.3-1-.3-2-1.3-2.3l-17.9-5.1-5.1-17.9c-.2-.6-.6-1.1-1.3-1.3-1-.3-2,.3-2.3,1.3h0Z"/>
        <path class="st1" d="M936.2,2232.5l-5.1,17.9-17.9,5.1c-.6.2-1.1.6-1.3,1.3-.3,1,.3,2,1.3,2.3l17.9,5.1,5.1,17.9c.2.6.6,1.1,1.3,1.3,1,.3,2-.3,2.3-1.3l5.1-17.9,17.9-5.1c.6-.2,1.1-.6,1.3-1.3.3-1-.3-2-1.3-2.3l-17.9-5.1-5.1-17.9c-.2-.6-.6-1.1-1.3-1.3-1-.3-2,.3-2.3,1.3h0Z"/>
        <path class="st1" d="M830.4,2232.5l-5.1,17.9-17.9,5.1c-.6.2-1.1.6-1.3,1.3-.3,1,.3,2,1.3,2.3l17.9,5.1,5.1,17.9c.2.6.6,1.1,1.3,1.3,1,.3,2-.3,2.3-1.3l5.1-17.9,17.9-5.1c.6-.2,1.1-.6,1.3-1.3.3-1-.3-2-1.3-2.3l-17.9-5.1-5.1-17.9c-.2-.6-.6-1.1-1.3-1.3-1-.3-2,.3-2.3,1.3h0Z"/>
        <path class="st1" d="M407.2,2232.5l-5.1,17.9-17.9,5.1c-.6.2-1.1.6-1.3,1.3-.3,1,.3,2,1.3,2.3l17.9,5.1,5.1,17.9c.2.6.6,1.1,1.3,1.3,1,.3,2-.3,2.3-1.3l5.1-17.9,17.9-5.1c.6-.2,1.1-.6,1.3-1.3.3-1-.3-2-1.3-2.3l-17.9-5.1-5.1-17.9c-.2-.6-.6-1.1-1.3-1.3-1-.3-2,.3-2.3,1.3h0Z"/>
        <path class="st1" d="M354.3,2232.5l-5.1,17.9-17.9,5.1c-.6.2-1.1.6-1.3,1.3-.3,1,.3,2,1.3,2.3l17.9,5.1,5.1,17.9c.2.6.6,1.1,1.3,1.3,1,.3,2-.3,2.3-1.3l5.1-17.9,17.9-5.1c.6-.2,1.1-.6,1.3-1.3.3-1-.3-2-1.3-2.3l-17.9-5.1-5.1-17.9c-.2-.6-.6-1.1-1.3-1.3-1-.3-2,.3-2.3,1.3h0Z"/>
        <path class="st1" d="M301.4,2232.5l-5.1,17.9-17.9,5.1c-.6.2-1.1.6-1.3,1.3-.3,1,.3,2,1.3,2.3l17.9,5.1,5.1,17.9c.2.6.6,1.1,1.3,1.3,1,.3,2-.3,2.3-1.3l5.1-17.9,17.9-5.1c.6-.2,1.1-.6,1.3-1.3.3-1-.3-2-1.3-2.3l-17.9-5.1-5.1-17.9c-.2-.6-.6-1.1-1.3-1.3-1-.3-2,.3-2.3,1.3h0Z"/>
        <path class="st1" d="M248.5,2232.5l-5.1,17.9-17.9,5.1c-.6.2-1.1.6-1.3,1.3-.3,1,.3,2,1.3,2.3l17.9,5.1,5.1,17.9c.2.6.6,1.1,1.3,1.3,1,.3,2-.3,2.3-1.3l5.1-17.9,17.9-5.1c.6-.2,1.1-.6,1.3-1.3.3-1-.3-2-1.3-2.3l-17.9-5.1-5.1-17.9c-.2-.6-.6-1.1-1.3-1.3-1-.3-2,.3-2.3,1.3h0Z"/>
        <path class="st1" d="M1147.8,2180.3l-5.1,17.9-17.9,5.1c-.6.2-1.1.6-1.3,1.3-.3,1,.3,2,1.3,2.3l17.9,5.1,5.1,17.9c.2.6.6,1.1,1.3,1.3,1,.3,2-.3,2.3-1.3l5.1-17.9,17.9-5.1c.6-.2,1.1-.6,1.3-1.3.3-1-.3-2-1.3-2.3l-17.9-5.1-5.1-17.9c-.2-.6-.6-1.1-1.3-1.3-1-.3-2,.3-2.3,1.3h0Z"/>
        <path class="st1" d="M1094.9,2180.3l-5.1,17.9-17.9,5.1c-.6.2-1.1.6-1.3,1.3-.3,1,.3,2,1.3,2.3l17.9,5.1,5.1,17.9c.2.6.6,1.1,1.3,1.3,1,.3,2-.3,2.3-1.3l5.1-17.9,17.9-5.1c.6-.2,1.1-.6,1.3-1.3.3-1-.3-2-1.3-2.3l-17.9-5.1-5.1-17.9c-.2-.6-.6-1.1-1.3-1.3-1-.3-2,.3-2.3,1.3h0Z"/>
        <path class="st1" d="M936.2,2180.3l-5.1,17.9-17.9,5.1c-.6.2-1.1.6-1.3,1.3-.3,1,.3,2,1.3,2.3l17.9,5.1,5.1,17.9c.2.6.6,1.1,1.3,1.3,1,.3,2-.3,2.3-1.3l5.1-17.9,17.9-5.1c.6-.2,1.1-.6,1.3-1.3.3-1-.3-2-1.3-2.3l-17.9-5.1-5.1-17.9c-.2-.6-.6-1.1-1.3-1.3-1-.3-2,.3-2.3,1.3h0Z"/>
        <path class="st1" d="M883.3,2180.3l-5.1,17.9-17.9,5.1c-.6.2-1.1.6-1.3,1.3-.3,1,.3,2,1.3,2.3l17.9,5.1,5.1,17.9c.2.6.6,1.1,1.3,1.3,1,.3,2-.3,2.3-1.3l5.1-17.9,17.9-5.1c.6-.2,1.1-.6,1.3-1.3.3-1-.3-2-1.3-2.3l-17.9-5.1-5.1-17.9c-.2-.6-.6-1.1-1.3-1.3-1-.3-2,.3-2.3,1.3h0Z"/>
        <path class="st1" d="M460.1,2180.3l-5.1,17.9-17.9,5.1c-.6.2-1.1.6-1.3,1.3-.3,1,.3,2,1.3,2.3l17.9,5.1,5.1,17.9c.2.6.6,1.1,1.3,1.3,1,.3,2-.3,2.3-1.3l5.1-17.9,17.9-5.1c.6-.2,1.1-.6,1.3-1.3.3-1-.3-2-1.3-2.3l-17.9-5.1-5.1-17.9c-.2-.6-.6-1.1-1.3-1.3-1-.3-2,.3-2.3,1.3h0Z"/>
        <path class="st1" d="M407.2,2180.3l-5.1,17.9-17.9,5.1c-.6.2-1.1.6-1.3,1.3-.3,1,.3,2,1.3,2.3l17.9,5.1,5.1,17.9c.2.6.6,1.1,1.3,1.3,1,.3,2-.3,2.3-1.3l5.1-17.9,17.9-5.1c.6-.2,1.1-.6,1.3-1.3.3-1-.3-2-1.3-2.3l-17.9-5.1-5.1-17.9c-.2-.6-.6-1.1-1.3-1.3-1-.3-2,.3-2.3,1.3h0Z"/>
        <path class="st1" d="M248.5,2180.3l-5.1,17.9-17.9,5.1c-.6.2-1.1.6-1.3,1.3-.3,1,.3,2,1.3,2.3l17.9,5.1,5.1,17.9c.2.6.6,1.1,1.3,1.3,1,.3,2-.3,2.3-1.3l5.1-17.9,17.9-5.1c.6-.2,1.1-.6,1.3-1.3.3-1-.3-2-1.3-2.3l-17.9-5.1-5.1-17.9c-.2-.6-.6-1.1-1.3-1.3-1-.3-2,.3-2.3,1.3h0Z"/>
        <path class="st1" d="M195.6,2180.3l-5.1,17.9-17.9,5.1c-.6.2-1.1.6-1.3,1.3-.3,1,.3,2,1.3,2.3l17.9,5.1,5.1,17.9c.2.6.6,1.1,1.3,1.3,1,.3,2-.3,2.3-1.3l5.1-17.9,17.9-5.1c.6-.2,1.1-.6,1.3-1.3.3-1-.3-2-1.3-2.3l-17.9-5.1-5.1-17.9c-.2-.6-.6-1.1-1.3-1.3-1-.3-2,.3-2.3,1.3h0Z"/>
        <path class="st1" d="M1200.7,2128.1l-5.1,17.9-17.9,5.1c-.6.2-1.1.6-1.3,1.3-.3,1,.3,2,1.3,2.3l17.9,5.1,5.1,17.9c.2.6.6,1.1,1.3,1.3,1,.3,2-.3,2.3-1.3l5.1-17.9,17.9-5.1c.6-.2,1.1-.6,1.3-1.3.3-1-.3-2-1.3-2.3l-17.9-5.1-5.1-17.9c-.2-.6-.6-1.1-1.3-1.3-1-.3-2,.3-2.3,1.3h0Z"/>
        <path class="st1" d="M1147.8,2128.1l-5.1,17.9-17.9,5.1c-.6.2-1.1.6-1.3,1.3-.3,1,.3,2,1.3,2.3l17.9,5.1,5.1,17.9c.2.6.6,1.1,1.3,1.3,1,.3,2-.3,2.3-1.3l5.1-17.9,17.9-5.1c.6-.2,1.1-.6,1.3-1.3.3-1-.3-2-1.3-2.3l-17.9-5.1-5.1-17.9c-.2-.6-.6-1.1-1.3-1.3-1-.3-2,.3-2.3,1.3h0Z"/>
        <path class="st1" d="M354.3,2128.1l-5.1,17.9-17.9,5.1c-.6.2-1.1.6-1.3,1.3-.3,1,.3,2,1.3,2.3l17.9,5.1,5.1,17.9c.2.6.6,1.1,1.3,1.3,1,.3,2-.3,2.3-1.3l5.1-17.9,17.9-5.1c.6-.2,1.1-.6,1.3-1.3.3-1-.3-2-1.3-2.3l-17.9-5.1-5.1-17.9c-.2-.6-.6-1.1-1.3-1.3-1-.3-2,.3-2.3,1.3h0Z"/>
        <path class="st1" d="M195.6,2128.1l-5.1,17.9-17.9,5.1c-.6.2-1.1.6-1.3,1.3-.3,1,.3,2,1.3,2.3l17.9,5.1,5.1,17.9c.2.6.6,1.1,1.3,1.3,1,.3,2-.3,2.3-1.3l5.1-17.9,17.9-5.1c.6-.2,1.1-.6,1.3-1.3.3-1-.3-2-1.3-2.3l-17.9-5.1-5.1-17.9c-.2-.6-.6-1.1-1.3-1.3-1-.3-2,.3-2.3,1.3h0Z"/>
        <path class="st1" d="M142.7,2128.1l-5.1,17.9-17.9,5.1c-.6.2-1.1.6-1.3,1.3-.3,1,.3,2,1.3,2.3l17.9,5.1,5.1,17.9c.2.6.6,1.1,1.3,1.3,1,.3,2-.3,2.3-1.3l5.1-17.9,17.9-5.1c.6-.2,1.1-.6,1.3-1.3.3-1-.3-2-1.3-2.3l-17.9-5.1-5.1-17.9c-.2-.6-.6-1.1-1.3-1.3-1-.3-2,.3-2.3,1.3h0Z"/>
        <path class="st1" d="M1253.6,2075.9l-5.1,17.9-17.9,5.1c-.6.2-1.1.6-1.3,1.3-.3,1,.3,2,1.3,2.3l17.9,5.1,5.1,17.9c.2.6.6,1.1,1.3,1.3,1,.3,2-.3,2.3-1.3l5.1-17.9,17.9-5.1c.6-.2,1.1-.6,1.3-1.3.3-1-.3-2-1.3-2.3l-17.9-5.1-5.1-17.9c-.2-.6-.6-1.1-1.3-1.3-1-.3-2,.3-2.3,1.3h0Z"/>
        <path class="st1" d="M1200.7,2075.9l-5.1,17.9-17.9,5.1c-.6.2-1.1.6-1.3,1.3-.3,1,.3,2,1.3,2.3l17.9,5.1,5.1,17.9c.2.6.6,1.1,1.3,1.3,1,.3,2-.3,2.3-1.3l5.1-17.9,17.9-5.1c.6-.2,1.1-.6,1.3-1.3.3-1-.3-2-1.3-2.3l-17.9-5.1-5.1-17.9c-.2-.6-.6-1.1-1.3-1.3-1-.3-2,.3-2.3,1.3h0Z"/>
        <path class="st1" d="M1042,2075.9l-5.1,17.9-17.9,5.1c-.6.2-1.1.6-1.3,1.3-.3,1,.3,2,1.3,2.3l17.9,5.1,5.1,17.9c.2.6.6,1.1,1.3,1.3,1,.3,2-.3,2.3-1.3l5.1-17.9,17.9-5.1c.6-.2,1.1-.6,1.3-1.3.3-1-.3-2-1.3-2.3l-17.9-5.1-5.1-17.9c-.2-.6-.6-1.1-1.3-1.3-1-.3-2,.3-2.3,1.3h0Z"/>
        <path class="st1" d="M989.1,2075.9l-5.1,17.9-17.9,5.1c-.6.2-1.1.6-1.3,1.3-.3,1,.3,2,1.3,2.3l17.9,5.1,5.1,17.9c.2.6.6,1.1,1.3,1.3,1,.3,2-.3,2.3-1.3l5.1-17.9,17.9-5.1c.6-.2,1.1-.6,1.3-1.3.3-1-.3-2-1.3-2.3l-17.9-5.1-5.1-17.9c-.2-.6-.6-1.1-1.3-1.3-1-.3-2,.3-2.3,1.3h0Z"/>
        <path class="st1" d="M989.1,2128.1l-5.1,17.9-17.9,5.1c-.6.2-1.1.6-1.3,1.3-.3,1,.3,2,1.3,2.3l17.9,5.1,5.1,17.9c.2.6.6,1.1,1.3,1.3,1,.3,2-.3,2.3-1.3l5.1-17.9,17.9-5.1c.6-.2,1.1-.6,1.3-1.3.3-1-.3-2-1.3-2.3l-17.9-5.1-5.1-17.9c-.2-.6-.6-1.1-1.3-1.3-1-.3-2,.3-2.3,1.3h0Z"/>
        <path class="st1" d="M354.3,2075.9l-5.1,17.9-17.9,5.1c-.6.2-1.1.6-1.3,1.3-.3,1,.3,2,1.3,2.3l17.9,5.1,5.1,17.9c.2.6.6,1.1,1.3,1.3,1,.3,2-.3,2.3-1.3l5.1-17.9,17.9-5.1c.6-.2,1.1-.6,1.3-1.3.3-1-.3-2-1.3-2.3l-17.9-5.1-5.1-17.9c-.2-.6-.6-1.1-1.3-1.3-1-.3-2,.3-2.3,1.3h0Z"/>
        <path class="st1" d="M301.4,2075.9l-5.1,17.9-17.9,5.1c-.6.2-1.1.6-1.3,1.3-.3,1,.3,2,1.3,2.3l17.9,5.1,5.1,17.9c.2.6.6,1.1,1.3,1.3,1,.3,2-.3,2.3-1.3l5.1-17.9,17.9-5.1c.6-.2,1.1-.6,1.3-1.3.3-1-.3-2-1.3-2.3l-17.9-5.1-5.1-17.9c-.2-.6-.6-1.1-1.3-1.3-1-.3-2,.3-2.3,1.3h0Z"/>
        <path class="st1" d="M142.7,2075.9l-5.1,17.9-17.9,5.1c-.6.2-1.1.6-1.3,1.3-.3,1,.3,2,1.3,2.3l17.9,5.1,5.1,17.9c.2.6.6,1.1,1.3,1.3,1,.3,2-.3,2.3-1.3l5.1-17.9,17.9-5.1c.6-.2,1.1-.6,1.3-1.3.3-1-.3-2-1.3-2.3l-17.9-5.1-5.1-17.9c-.2-.6-.6-1.1-1.3-1.3-1-.3-2,.3-2.3,1.3h0Z"/>
        <path class="st1" d="M89.8,2075.9l-5.1,17.9-17.9,5.1c-.6.2-1.1.6-1.3,1.3-.3,1,.3,2,1.3,2.3l17.9,5.1,5.1,17.9c.2.6.6,1.1,1.3,1.3,1,.3,2-.3,2.3-1.3l5.1-17.9,17.9-5.1c.6-.2,1.1-.6,1.3-1.3.3-1-.3-2-1.3-2.3l-17.9-5.1-5.1-17.9c-.2-.6-.6-1.1-1.3-1.3-1-.3-2,.3-2.3,1.3h0Z"/>
        <path class="st1" d="M1306.5,2023.6l-5.1,17.9-17.9,5.1c-.6.2-1.1.6-1.3,1.3-.3,1,.3,2,1.3,2.3l17.9,5.1,5.1,17.9c.2.6.6,1.1,1.3,1.3,1,.3,2-.3,2.3-1.3l5.1-17.9,17.9-5.1c.6-.2,1.1-.6,1.3-1.3.3-1-.3-2-1.3-2.3l-17.9-5.1-5.1-17.9c-.2-.6-.6-1.1-1.3-1.3-1-.3-2,.3-2.3,1.3h0Z"/>
        <path class="st1" d="M1253.6,2023.6l-5.1,17.9-17.9,5.1c-.6.2-1.1.6-1.3,1.3-.3,1,.3,2,1.3,2.3l17.9,5.1,5.1,17.9c.2.6.6,1.1,1.3,1.3,1,.3,2-.3,2.3-1.3l5.1-17.9,17.9-5.1c.6-.2,1.1-.6,1.3-1.3.3-1-.3-2-1.3-2.3l-17.9-5.1-5.1-17.9c-.2-.6-.6-1.1-1.3-1.3-1-.3-2,.3-2.3,1.3h0Z"/>
        <path class="st1" d="M1094.9,2023.6l-5.1,17.9-17.9,5.1c-.6.2-1.1.6-1.3,1.3-.3,1,.3,2,1.3,2.3l17.9,5.1,5.1,17.9c.2.6.6,1.1,1.3,1.3,1,.3,2-.3,2.3-1.3l5.1-17.9,17.9-5.1c.6-.2,1.1-.6,1.3-1.3.3-1-.3-2-1.3-2.3l-17.9-5.1-5.1-17.9c-.2-.6-.6-1.1-1.3-1.3-1-.3-2,.3-2.3,1.3h0Z"/>
        <path class="st1" d="M1042,2023.6l-5.1,17.9-17.9,5.1c-.6.2-1.1.6-1.3,1.3-.3,1,.3,2,1.3,2.3l17.9,5.1,5.1,17.9c.2.6.6,1.1,1.3,1.3,1,.3,2-.3,2.3-1.3l5.1-17.9,17.9-5.1c.6-.2,1.1-.6,1.3-1.3.3-1-.3-2-1.3-2.3l-17.9-5.1-5.1-17.9c-.2-.6-.6-1.1-1.3-1.3-1-.3-2,.3-2.3,1.3h0Z"/>
        <path class="st1" d="M989.1,2023.6l-5.1,17.9-17.9,5.1c-.6.2-1.1.6-1.3,1.3-.3,1,.3,2,1.3,2.3l17.9,5.1,5.1,17.9c.2.6.6,1.1,1.3,1.3,1,.3,2-.3,2.3-1.3l5.1-17.9,17.9-5.1c.6-.2,1.1-.6,1.3-1.3.3-1-.3-2-1.3-2.3l-17.9-5.1-5.1-17.9c-.2-.6-.6-1.1-1.3-1.3-1-.3-2,.3-2.3,1.3h0Z"/>
        <path class="st1" d="M354.3,2023.6l-5.1,17.9-17.9,5.1c-.6.2-1.1.6-1.3,1.3-.3,1,.3,2,1.3,2.3l17.9,5.1,5.1,17.9c.2.6.6,1.1,1.3,1.3,1,.3,2-.3,2.3-1.3l5.1-17.9,17.9-5.1c.6-.2,1.1-.6,1.3-1.3.3-1-.3-2-1.3-2.3l-17.9-5.1-5.1-17.9c-.2-.6-.6-1.1-1.3-1.3-1-.3-2,.3-2.3,1.3h0Z"/>
        <path class="st1" d="M301.4,2023.6l-5.1,17.9-17.9,5.1c-.6.2-1.1.6-1.3,1.3-.3,1,.3,2,1.3,2.3l17.9,5.1,5.1,17.9c.2.6.6,1.1,1.3,1.3,1,.3,2-.3,2.3-1.3l5.1-17.9,17.9-5.1c.6-.2,1.1-.6,1.3-1.3.3-1-.3-2-1.3-2.3l-17.9-5.1-5.1-17.9c-.2-.6-.6-1.1-1.3-1.3-1-.3-2,.3-2.3,1.3h0Z"/>
        <path class="st1" d="M248.5,2023.6l-5.1,17.9-17.9,5.1c-.6.2-1.1.6-1.3,1.3-.3,1,.3,2,1.3,2.3l17.9,5.1,5.1,17.9c.2.6.6,1.1,1.3,1.3,1,.3,2-.3,2.3-1.3l5.1-17.9,17.9-5.1c.6-.2,1.1-.6,1.3-1.3.3-1-.3-2-1.3-2.3l-17.9-5.1-5.1-17.9c-.2-.6-.6-1.1-1.3-1.3-1-.3-2,.3-2.3,1.3h0Z"/>
        <path class="st1" d="M89.8,2023.6l-5.1,17.9-17.9,5.1c-.6.2-1.1.6-1.3,1.3-.3,1,.3,2,1.3,2.3l17.9,5.1,5.1,17.9c.2.6.6,1.1,1.3,1.3,1,.3,2-.3,2.3-1.3l5.1-17.9,17.9-5.1c.6-.2,1.1-.6,1.3-1.3.3-1-.3-2-1.3-2.3l-17.9-5.1-5.1-17.9c-.2-.6-.6-1.1-1.3-1.3-1-.3-2,.3-2.3,1.3h0Z"/>
        <path class="st1" d="M36.9,2023.6l-5.1,17.9-17.9,5.1c-.6.2-1.1.6-1.3,1.3-.3,1,.3,2,1.3,2.3l17.9,5.1,5.1,17.9c.2.6.6,1.1,1.3,1.3,1,.3,2-.3,2.3-1.3l5.1-17.9,17.9-5.1c.6-.2,1.1-.6,1.3-1.3.3-1-.3-2-1.3-2.3l-17.9-5.1-5.1-17.9c-.2-.6-.6-1.1-1.3-1.3-1-.3-2,.3-2.3,1.3h0Z"/>
        <path class="st1" d="M1253.6,1971.4l-5.1,17.9-17.9,5.1c-.6.2-1.1.6-1.3,1.3-.3,1,.3,2,1.3,2.3l17.9,5.1,5.1,17.9c.2.6.6,1.1,1.3,1.3,1,.3,2-.3,2.3-1.3l5.1-17.9,17.9-5.1c.6-.2,1.1-.6,1.3-1.3.3-1-.3-2-1.3-2.3l-17.9-5.1-5.1-17.9c-.2-.6-.6-1.1-1.3-1.3-1-.3-2,.3-2.3,1.3h0Z"/>
        <path class="st1" d="M1200.7,1971.4l-5.1,17.9-17.9,5.1c-.6.2-1.1.6-1.3,1.3-.3,1,.3,2,1.3,2.3l17.9,5.1,5.1,17.9c.2.6.6,1.1,1.3,1.3,1,.3,2-.3,2.3-1.3l5.1-17.9,17.9-5.1c.6-.2,1.1-.6,1.3-1.3.3-1-.3-2-1.3-2.3l-17.9-5.1-5.1-17.9c-.2-.6-.6-1.1-1.3-1.3-1-.3-2,.3-2.3,1.3h0Z"/>
        <path class="st1" d="M1042,1971.4l-5.1,17.9-17.9,5.1c-.6.2-1.1.6-1.3,1.3-.3,1,.3,2,1.3,2.3l17.9,5.1,5.1,17.9c.2.6.6,1.1,1.3,1.3,1,.3,2-.3,2.3-1.3l5.1-17.9,17.9-5.1c.6-.2,1.1-.6,1.3-1.3.3-1-.3-2-1.3-2.3l-17.9-5.1-5.1-17.9c-.2-.6-.6-1.1-1.3-1.3-1-.3-2,.3-2.3,1.3h0Z"/>
        <path class="st1" d="M989.1,1971.4l-5.1,17.9-17.9,5.1c-.6.2-1.1.6-1.3,1.3-.3,1,.3,2,1.3,2.3l17.9,5.1,5.1,17.9c.2.6.6,1.1,1.3,1.3,1,.3,2-.3,2.3-1.3l5.1-17.9,17.9-5.1c.6-.2,1.1-.6,1.3-1.3.3-1-.3-2-1.3-2.3l-17.9-5.1-5.1-17.9c-.2-.6-.6-1.1-1.3-1.3-1-.3-2,.3-2.3,1.3h0Z"/>
        <path class="st1" d="M989.1,1919.2l-5.1,17.9-17.9,5.1c-.6.2-1.1.6-1.3,1.3-.3,1,.3,2,1.3,2.3l17.9,5.1,5.1,17.9c.2.6.6,1.1,1.3,1.3,1,.3,2-.3,2.3-1.3l5.1-17.9,17.9-5.1c.6-.2,1.1-.6,1.3-1.3.3-1-.3-2-1.3-2.3l-17.9-5.1-5.1-17.9c-.2-.6-.6-1.1-1.3-1.3-1-.3-2,.3-2.3,1.3h0Z"/>
        <path class="st1" d="M354.3,1971.4l-5.1,17.9-17.9,5.1c-.6.2-1.1.6-1.3,1.3-.3,1,.3,2,1.3,2.3l17.9,5.1,5.1,17.9c.2.6.6,1.1,1.3,1.3,1,.3,2-.3,2.3-1.3l5.1-17.9,17.9-5.1c.6-.2,1.1-.6,1.3-1.3.3-1-.3-2-1.3-2.3l-17.9-5.1-5.1-17.9c-.2-.6-.6-1.1-1.3-1.3-1-.3-2,.3-2.3,1.3h0Z"/>
        <path class="st1" d="M301.4,1971.4l-5.1,17.9-17.9,5.1c-.6.2-1.1.6-1.3,1.3-.3,1,.3,2,1.3,2.3l17.9,5.1,5.1,17.9c.2.6.6,1.1,1.3,1.3,1,.3,2-.3,2.3-1.3l5.1-17.9,17.9-5.1c.6-.2,1.1-.6,1.3-1.3.3-1-.3-2-1.3-2.3l-17.9-5.1-5.1-17.9c-.2-.6-.6-1.1-1.3-1.3-1-.3-2,.3-2.3,1.3h0Z"/>
        <path class="st1" d="M142.7,1971.4l-5.1,17.9-17.9,5.1c-.6.2-1.1.6-1.3,1.3-.3,1,.3,2,1.3,2.3l17.9,5.1,5.1,17.9c.2.6.6,1.1,1.3,1.3,1,.3,2-.3,2.3-1.3l5.1-17.9,17.9-5.1c.6-.2,1.1-.6,1.3-1.3.3-1-.3-2-1.3-2.3l-17.9-5.1-5.1-17.9c-.2-.6-.6-1.1-1.3-1.3-1-.3-2,.3-2.3,1.3h0Z"/>
        <path class="st1" d="M89.8,1971.4l-5.1,17.9-17.9,5.1c-.6.2-1.1.6-1.3,1.3-.3,1,.3,2,1.3,2.3l17.9,5.1,5.1,17.9c.2.6.6,1.1,1.3,1.3,1,.3,2-.3,2.3-1.3l5.1-17.9,17.9-5.1c.6-.2,1.1-.6,1.3-1.3.3-1-.3-2-1.3-2.3l-17.9-5.1-5.1-17.9c-.2-.6-.6-1.1-1.3-1.3-1-.3-2,.3-2.3,1.3h0Z"/>
        <path class="st1" d="M1200.7,1919.2l-5.1,17.9-17.9,5.1c-.6.2-1.1.6-1.3,1.3-.3,1,.3,2,1.3,2.3l17.9,5.1,5.1,17.9c.2.6.6,1.1,1.3,1.3,1,.3,2-.3,2.3-1.3l5.1-17.9,17.9-5.1c.6-.2,1.1-.6,1.3-1.3.3-1-.3-2-1.3-2.3l-17.9-5.1-5.1-17.9c-.2-.6-.6-1.1-1.3-1.3-1-.3-2,.3-2.3,1.3h0Z"/>
        <path class="st1" d="M1147.8,1919.2l-5.1,17.9-17.9,5.1c-.6.2-1.1.6-1.3,1.3-.3,1,.3,2,1.3,2.3l17.9,5.1,5.1,17.9c.2.6.6,1.1,1.3,1.3,1,.3,2-.3,2.3-1.3l5.1-17.9,17.9-5.1c.6-.2,1.1-.6,1.3-1.3.3-1-.3-2-1.3-2.3l-17.9-5.1-5.1-17.9c-.2-.6-.6-1.1-1.3-1.3-1-.3-2,.3-2.3,1.3h0Z"/>
        <path class="st1" d="M354.3,1919.2l-5.1,17.9-17.9,5.1c-.6.2-1.1.6-1.3,1.3-.3,1,.3,2,1.3,2.3l17.9,5.1,5.1,17.9c.2.6.6,1.1,1.3,1.3,1,.3,2-.3,2.3-1.3l5.1-17.9,17.9-5.1c.6-.2,1.1-.6,1.3-1.3.3-1-.3-2-1.3-2.3l-17.9-5.1-5.1-17.9c-.2-.6-.6-1.1-1.3-1.3-1-.3-2,.3-2.3,1.3h0Z"/>
        <path class="st1" d="M195.6,1919.2l-5.1,17.9-17.9,5.1c-.6.2-1.1.6-1.3,1.3-.3,1,.3,2,1.3,2.3l17.9,5.1,5.1,17.9c.2.6.6,1.1,1.3,1.3,1,.3,2-.3,2.3-1.3l5.1-17.9,17.9-5.1c.6-.2,1.1-.6,1.3-1.3.3-1-.3-2-1.3-2.3l-17.9-5.1-5.1-17.9c-.2-.6-.6-1.1-1.3-1.3-1-.3-2,.3-2.3,1.3h0Z"/>
        <path class="st1" d="M142.7,1919.2l-5.1,17.9-17.9,5.1c-.6.2-1.1.6-1.3,1.3-.3,1,.3,2,1.3,2.3l17.9,5.1,5.1,17.9c.2.6.6,1.1,1.3,1.3,1,.3,2-.3,2.3-1.3l5.1-17.9,17.9-5.1c.6-.2,1.1-.6,1.3-1.3.3-1-.3-2-1.3-2.3l-17.9-5.1-5.1-17.9c-.2-.6-.6-1.1-1.3-1.3-1-.3-2,.3-2.3,1.3h0Z"/>
        <path class="st1" d="M1147.8,1867l-5.1,17.9-17.9,5.1c-.6.2-1.1.6-1.3,1.3-.3,1,.3,2,1.3,2.3l17.9,5.1,5.1,17.9c.2.6.6,1.1,1.3,1.3,1,.3,2-.3,2.3-1.3l5.1-17.9,17.9-5.1c.6-.2,1.1-.6,1.3-1.3.3-1-.3-2-1.3-2.3l-17.9-5.1-5.1-17.9c-.2-.6-.6-1.1-1.3-1.3-1-.3-2,.3-2.3,1.3h0Z"/>
        <path class="st1" d="M1094.9,1867l-5.1,17.9-17.9,5.1c-.6.2-1.1.6-1.3,1.3-.3,1,.3,2,1.3,2.3l17.9,5.1,5.1,17.9c.2.6.6,1.1,1.3,1.3,1,.3,2-.3,2.3-1.3l5.1-17.9,17.9-5.1c.6-.2,1.1-.6,1.3-1.3.3-1-.3-2-1.3-2.3l-17.9-5.1-5.1-17.9c-.2-.6-.6-1.1-1.3-1.3-1-.3-2,.3-2.3,1.3h0Z"/>
        <path class="st1" d="M936.2,1867l-5.1,17.9-17.9,5.1c-.6.2-1.1.6-1.3,1.3-.3,1,.3,2,1.3,2.3l17.9,5.1,5.1,17.9c.2.6.6,1.1,1.3,1.3,1,.3,2-.3,2.3-1.3l5.1-17.9,17.9-5.1c.6-.2,1.1-.6,1.3-1.3.3-1-.3-2-1.3-2.3l-17.9-5.1-5.1-17.9c-.2-.6-.6-1.1-1.3-1.3-1-.3-2,.3-2.3,1.3h0Z"/>
        <path class="st1" d="M883.3,1867l-5.1,17.9-17.9,5.1c-.6.2-1.1.6-1.3,1.3-.3,1,.3,2,1.3,2.3l17.9,5.1,5.1,17.9c.2.6.6,1.1,1.3,1.3,1,.3,2-.3,2.3-1.3l5.1-17.9,17.9-5.1c.6-.2,1.1-.6,1.3-1.3.3-1-.3-2-1.3-2.3l-17.9-5.1-5.1-17.9c-.2-.6-.6-1.1-1.3-1.3-1-.3-2,.3-2.3,1.3h0Z"/>
        <path class="st1" d="M460.1,1867l-5.1,17.9-17.9,5.1c-.6.2-1.1.6-1.3,1.3-.3,1,.3,2,1.3,2.3l17.9,5.1,5.1,17.9c.2.6.6,1.1,1.3,1.3,1,.3,2-.3,2.3-1.3l5.1-17.9,17.9-5.1c.6-.2,1.1-.6,1.3-1.3.3-1-.3-2-1.3-2.3l-17.9-5.1-5.1-17.9c-.2-.6-.6-1.1-1.3-1.3-1-.3-2,.3-2.3,1.3h0Z"/>
        <path class="st1" d="M407.2,1867l-5.1,17.9-17.9,5.1c-.6.2-1.1.6-1.3,1.3-.3,1,.3,2,1.3,2.3l17.9,5.1,5.1,17.9c.2.6.6,1.1,1.3,1.3,1,.3,2-.3,2.3-1.3l5.1-17.9,17.9-5.1c.6-.2,1.1-.6,1.3-1.3.3-1-.3-2-1.3-2.3l-17.9-5.1-5.1-17.9c-.2-.6-.6-1.1-1.3-1.3-1-.3-2,.3-2.3,1.3h0Z"/>
        <path class="st1" d="M248.5,1867l-5.1,17.9-17.9,5.1c-.6.2-1.1.6-1.3,1.3-.3,1,.3,2,1.3,2.3l17.9,5.1,5.1,17.9c.2.6.6,1.1,1.3,1.3,1,.3,2-.3,2.3-1.3l5.1-17.9,17.9-5.1c.6-.2,1.1-.6,1.3-1.3.3-1-.3-2-1.3-2.3l-17.9-5.1-5.1-17.9c-.2-.6-.6-1.1-1.3-1.3-1-.3-2,.3-2.3,1.3h0Z"/>
        <path class="st1" d="M195.6,1867l-5.1,17.9-17.9,5.1c-.6.2-1.1.6-1.3,1.3-.3,1,.3,2,1.3,2.3l17.9,5.1,5.1,17.9c.2.6.6,1.1,1.3,1.3,1,.3,2-.3,2.3-1.3l5.1-17.9,17.9-5.1c.6-.2,1.1-.6,1.3-1.3.3-1-.3-2-1.3-2.3l-17.9-5.1-5.1-17.9c-.2-.6-.6-1.1-1.3-1.3-1-.3-2,.3-2.3,1.3h0Z"/>
        <path class="st1" d="M1094.9,1814.8l-5.1,17.9-17.9,5.1c-.6.2-1.1.6-1.3,1.3-.3,1,.3,2,1.3,2.3l17.9,5.1,5.1,17.9c.2.6.6,1.1,1.3,1.3,1,.3,2-.3,2.3-1.3l5.1-17.9,17.9-5.1c.6-.2,1.1-.6,1.3-1.3.3-1-.3-2-1.3-2.3l-17.9-5.1-5.1-17.9c-.2-.6-.6-1.1-1.3-1.3-1-.3-2,.3-2.3,1.3h0Z"/>
        <path class="st1" d="M1042,1814.8l-5.1,17.9-17.9,5.1c-.6.2-1.1.6-1.3,1.3-.3,1,.3,2,1.3,2.3l17.9,5.1,5.1,17.9c.2.6.6,1.1,1.3,1.3,1,.3,2-.3,2.3-1.3l5.1-17.9,17.9-5.1c.6-.2,1.1-.6,1.3-1.3.3-1-.3-2-1.3-2.3l-17.9-5.1-5.1-17.9c-.2-.6-.6-1.1-1.3-1.3-1-.3-2,.3-2.3,1.3h0Z"/>
        <path class="st1" d="M989.1,1814.8l-5.1,17.9-17.9,5.1c-.6.2-1.1.6-1.3,1.3-.3,1,.3,2,1.3,2.3l17.9,5.1,5.1,17.9c.2.6.6,1.1,1.3,1.3,1,.3,2-.3,2.3-1.3l5.1-17.9,17.9-5.1c.6-.2,1.1-.6,1.3-1.3.3-1-.3-2-1.3-2.3l-17.9-5.1-5.1-17.9c-.2-.6-.6-1.1-1.3-1.3-1-.3-2,.3-2.3,1.3h0Z"/>
        <path class="st1" d="M936.2,1814.8l-5.1,17.9-17.9,5.1c-.6.2-1.1.6-1.3,1.3-.3,1,.3,2,1.3,2.3l17.9,5.1,5.1,17.9c.2.6.6,1.1,1.3,1.3,1,.3,2-.3,2.3-1.3l5.1-17.9,17.9-5.1c.6-.2,1.1-.6,1.3-1.3.3-1-.3-2-1.3-2.3l-17.9-5.1-5.1-17.9c-.2-.6-.6-1.1-1.3-1.3-1-.3-2,.3-2.3,1.3h0Z"/>
        <path class="st1" d="M830.4,1814.8l-5.1,17.9-17.9,5.1c-.6.2-1.1.6-1.3,1.3-.3,1,.3,2,1.3,2.3l17.9,5.1,5.1,17.9c.2.6.6,1.1,1.3,1.3,1,.3,2-.3,2.3-1.3l5.1-17.9,17.9-5.1c.6-.2,1.1-.6,1.3-1.3.3-1-.3-2-1.3-2.3l-17.9-5.1-5.1-17.9c-.2-.6-.6-1.1-1.3-1.3-1-.3-2,.3-2.3,1.3h0Z"/>
        <path class="st1" d="M777.5,1710.4l-5.1,17.9-17.9,5.1c-.6.2-1.1.6-1.3,1.3-.3,1,.3,2,1.3,2.3l17.9,5.1,5.1,17.9c.2.6.6,1.1,1.3,1.3,1,.3,2-.3,2.3-1.3l5.1-17.9,17.9-5.1c.6-.2,1.1-.6,1.3-1.3.3-1-.3-2-1.3-2.3l-17.9-5.1-5.1-17.9c-.2-.6-.6-1.1-1.3-1.3-1-.3-2,.3-2.3,1.3h0Z"/>
        <path class="st1" d="M513,1814.8l-5.1,17.9-17.9,5.1c-.6.2-1.1.6-1.3,1.3-.3,1,.3,2,1.3,2.3l17.9,5.1,5.1,17.9c.2.6.6,1.1,1.3,1.3,1,.3,2-.3,2.3-1.3l5.1-17.9,17.9-5.1c.6-.2,1.1-.6,1.3-1.3.3-1-.3-2-1.3-2.3l-17.9-5.1-5.1-17.9c-.2-.6-.6-1.1-1.3-1.3-1-.3-2,.3-2.3,1.3h0Z"/>
        <path class="st1" d="M513,1867l-5.1,17.9-17.9,5.1c-.6.2-1.1.6-1.3,1.3-.3,1,.3,2,1.3,2.3l17.9,5.1,5.1,17.9c.2.6.6,1.1,1.3,1.3,1,.3,2-.3,2.3-1.3l5.1-17.9,17.9-5.1c.6-.2,1.1-.6,1.3-1.3.3-1-.3-2-1.3-2.3l-17.9-5.1-5.1-17.9c-.2-.6-.6-1.1-1.3-1.3-1-.3-2,.3-2.3,1.3h0Z"/>
        <path class="st1" d="M830.4,1867l-5.1,17.9-17.9,5.1c-.6.2-1.1.6-1.3,1.3-.3,1,.3,2,1.3,2.3l17.9,5.1,5.1,17.9c.2.6.6,1.1,1.3,1.3,1,.3,2-.3,2.3-1.3l5.1-17.9,17.9-5.1c.6-.2,1.1-.6,1.3-1.3.3-1-.3-2-1.3-2.3l-17.9-5.1-5.1-17.9c-.2-.6-.6-1.1-1.3-1.3-1-.3-2,.3-2.3,1.3h0Z"/>
        <path class="st1" d="M830.4,2180.3l-5.1,17.9-17.9,5.1c-.6.2-1.1.6-1.3,1.3-.3,1,.3,2,1.3,2.3l17.9,5.1,5.1,17.9c.2.6.6,1.1,1.3,1.3,1,.3,2-.3,2.3-1.3l5.1-17.9,17.9-5.1c.6-.2,1.1-.6,1.3-1.3.3-1-.3-2-1.3-2.3l-17.9-5.1-5.1-17.9c-.2-.6-.6-1.1-1.3-1.3-1-.3-2,.3-2.3,1.3h0Z"/>
        <path class="st1" d="M407.2,1814.8l-5.1,17.9-17.9,5.1c-.6.2-1.1.6-1.3,1.3-.3,1,.3,2,1.3,2.3l17.9,5.1,5.1,17.9c.2.6.6,1.1,1.3,1.3,1,.3,2-.3,2.3-1.3l5.1-17.9,17.9-5.1c.6-.2,1.1-.6,1.3-1.3.3-1-.3-2-1.3-2.3l-17.9-5.1-5.1-17.9c-.2-.6-.6-1.1-1.3-1.3-1-.3-2,.3-2.3,1.3h0Z"/>
        <path class="st1" d="M354.3,1814.8l-5.1,17.9-17.9,5.1c-.6.2-1.1.6-1.3,1.3-.3,1,.3,2,1.3,2.3l17.9,5.1,5.1,17.9c.2.6.6,1.1,1.3,1.3,1,.3,2-.3,2.3-1.3l5.1-17.9,17.9-5.1c.6-.2,1.1-.6,1.3-1.3.3-1-.3-2-1.3-2.3l-17.9-5.1-5.1-17.9c-.2-.6-.6-1.1-1.3-1.3-1-.3-2,.3-2.3,1.3h0Z"/>
        <path class="st1" d="M301.4,1814.8l-5.1,17.9-17.9,5.1c-.6.2-1.1.6-1.3,1.3-.3,1,.3,2,1.3,2.3l17.9,5.1,5.1,17.9c.2.6.6,1.1,1.3,1.3,1,.3,2-.3,2.3-1.3l5.1-17.9,17.9-5.1c.6-.2,1.1-.6,1.3-1.3.3-1-.3-2-1.3-2.3l-17.9-5.1-5.1-17.9c-.2-.6-.6-1.1-1.3-1.3-1-.3-2,.3-2.3,1.3h0Z"/>
        <path class="st1" d="M248.5,1814.8l-5.1,17.9-17.9,5.1c-.6.2-1.1.6-1.3,1.3-.3,1,.3,2,1.3,2.3l17.9,5.1,5.1,17.9c.2.6.6,1.1,1.3,1.3,1,.3,2-.3,2.3-1.3l5.1-17.9,17.9-5.1c.6-.2,1.1-.6,1.3-1.3.3-1-.3-2-1.3-2.3l-17.9-5.1-5.1-17.9c-.2-.6-.6-1.1-1.3-1.3-1-.3-2,.3-2.3,1.3h0Z"/>
        <path class="st1" d="M883.3,1762.6l-5.1,17.9-17.9,5.1c-.6.2-1.1.6-1.3,1.3-.3,1,.3,2,1.3,2.3l17.9,5.1,5.1,17.9c.2.6.6,1.1,1.3,1.3,1,.3,2-.3,2.3-1.3l5.1-17.9,17.9-5.1c.6-.2,1.1-.6,1.3-1.3.3-1-.3-2-1.3-2.3l-17.9-5.1-5.1-17.9c-.2-.6-.6-1.1-1.3-1.3-1-.3-2,.3-2.3,1.3h0Z"/>
        <path class="st1" d="M830.4,1762.6l-5.1,17.9-17.9,5.1c-.6.2-1.1.6-1.3,1.3-.3,1,.3,2,1.3,2.3l17.9,5.1,5.1,17.9c.2.6.6,1.1,1.3,1.3,1,.3,2-.3,2.3-1.3l5.1-17.9,17.9-5.1c.6-.2,1.1-.6,1.3-1.3.3-1-.3-2-1.3-2.3l-17.9-5.1-5.1-17.9c-.2-.6-.6-1.1-1.3-1.3-1-.3-2,.3-2.3,1.3h0Z"/>
        <path class="st1" d="M513,1762.6l-5.1,17.9-17.9,5.1c-.6.2-1.1.6-1.3,1.3-.3,1,.3,2,1.3,2.3l17.9,5.1,5.1,17.9c.2.6.6,1.1,1.3,1.3,1,.3,2-.3,2.3-1.3l5.1-17.9,17.9-5.1c.6-.2,1.1-.6,1.3-1.3.3-1-.3-2-1.3-2.3l-17.9-5.1-5.1-17.9c-.2-.6-.6-1.1-1.3-1.3-1-.3-2,.3-2.3,1.3h0Z"/>
        <path class="st1" d="M460.1,1762.6l-5.1,17.9-17.9,5.1c-.6.2-1.1.6-1.3,1.3-.3,1,.3,2,1.3,2.3l17.9,5.1,5.1,17.9c.2.6.6,1.1,1.3,1.3,1,.3,2-.3,2.3-1.3l5.1-17.9,17.9-5.1c.6-.2,1.1-.6,1.3-1.3.3-1-.3-2-1.3-2.3l-17.9-5.1-5.1-17.9c-.2-.6-.6-1.1-1.3-1.3-1-.3-2,.3-2.3,1.3h0Z"/>
        <path class="st1" d="M883.3,1710.4l-5.1,17.9-17.9,5.1c-.6.2-1.1.6-1.3,1.3-.3,1,.3,2,1.3,2.3l17.9,5.1,5.1,17.9c.2.6.6,1.1,1.3,1.3,1,.3,2-.3,2.3-1.3l5.1-17.9,17.9-5.1c.6-.2,1.1-.6,1.3-1.3.3-1-.3-2-1.3-2.3l-17.9-5.1-5.1-17.9c-.2-.6-.6-1.1-1.3-1.3-1-.3-2,.3-2.3,1.3h0Z"/>
        <path class="st1" d="M724.6,1710.4l-5.1,17.9-17.9,5.1c-.6.2-1.1.6-1.3,1.3-.3,1,.3,2,1.3,2.3l17.9,5.1,5.1,17.9c.2.6.6,1.1,1.3,1.3,1,.3,2-.3,2.3-1.3l5.1-17.9,17.9-5.1c.6-.2,1.1-.6,1.3-1.3.3-1-.3-2-1.3-2.3l-17.9-5.1-5.1-17.9c-.2-.6-.6-1.1-1.3-1.3-1-.3-2,.3-2.3,1.3h0Z"/>
        <path class="st1" d="M671.7,1710.4l-5.1,17.9-17.9,5.1c-.6.2-1.1.6-1.3,1.3-.3,1,.3,2,1.3,2.3l17.9,5.1,5.1,17.9c.2.6.6,1.1,1.3,1.3,1,.3,2-.3,2.3-1.3l5.1-17.9,17.9-5.1c.6-.2,1.1-.6,1.3-1.3.3-1-.3-2-1.3-2.3l-17.9-5.1-5.1-17.9c-.2-.6-.6-1.1-1.3-1.3-1-.3-2,.3-2.3,1.3h0Z"/>
        <path class="st1" d="M618.8,1710.4l-5.1,17.9-17.9,5.1c-.6.2-1.1.6-1.3,1.3-.3,1,.3,2,1.3,2.3l17.9,5.1,5.1,17.9c.2.6.6,1.1,1.3,1.3,1,.3,2-.3,2.3-1.3l5.1-17.9,17.9-5.1c.6-.2,1.1-.6,1.3-1.3.3-1-.3-2-1.3-2.3l-17.9-5.1-5.1-17.9c-.2-.6-.6-1.1-1.3-1.3-1-.3-2,.3-2.3,1.3h0Z"/>
        <path class="st1" d="M565.9,1710.4l-5.1,17.9-17.9,5.1c-.6.2-1.1.6-1.3,1.3-.3,1,.3,2,1.3,2.3l17.9,5.1,5.1,17.9c.2.6.6,1.1,1.3,1.3,1,.3,2-.3,2.3-1.3l5.1-17.9,17.9-5.1c.6-.2,1.1-.6,1.3-1.3.3-1-.3-2-1.3-2.3l-17.9-5.1-5.1-17.9c-.2-.6-.6-1.1-1.3-1.3-1-.3-2,.3-2.3,1.3h0Z"/>
        <path class="st1" d="M460.1,1710.4l-5.1,17.9-17.9,5.1c-.6.2-1.1.6-1.3,1.3-.3,1,.3,2,1.3,2.3l17.9,5.1,5.1,17.9c.2.6.6,1.1,1.3,1.3,1,.3,2-.3,2.3-1.3l5.1-17.9,17.9-5.1c.6-.2,1.1-.6,1.3-1.3.3-1-.3-2-1.3-2.3l-17.9-5.1-5.1-17.9c-.2-.6-.6-1.1-1.3-1.3-1-.3-2,.3-2.3,1.3h0Z"/>
        <path class="st1" d="M883.3,1658.1l-5.1,17.9-17.9,5.1c-.6.2-1.1.6-1.3,1.3-.3,1,.3,2,1.3,2.3l17.9,5.1,5.1,17.9c.2.6.6,1.1,1.3,1.3,1,.3,2-.3,2.3-1.3l5.1-17.9,17.9-5.1c.6-.2,1.1-.6,1.3-1.3.3-1-.3-2-1.3-2.3l-17.9-5.1-5.1-17.9c-.2-.6-.6-1.1-1.3-1.3-1-.3-2,.3-2.3,1.3h0Z"/>
        <path class="st1" d="M724.6,1658.1l-5.1,17.9-17.9,5.1c-.6.2-1.1.6-1.3,1.3-.3,1,.3,2,1.3,2.3l17.9,5.1,5.1,17.9c.2.6.6,1.1,1.3,1.3,1,.3,2-.3,2.3-1.3l5.1-17.9,17.9-5.1c.6-.2,1.1-.6,1.3-1.3.3-1-.3-2-1.3-2.3l-17.9-5.1-5.1-17.9c-.2-.6-.6-1.1-1.3-1.3-1-.3-2,.3-2.3,1.3h0Z"/>
        <path class="st1" d="M671.7,1658.1l-5.1,17.9-17.9,5.1c-.6.2-1.1.6-1.3,1.3-.3,1,.3,2,1.3,2.3l17.9,5.1,5.1,17.9c.2.6.6,1.1,1.3,1.3,1,.3,2-.3,2.3-1.3l5.1-17.9,17.9-5.1c.6-.2,1.1-.6,1.3-1.3.3-1-.3-2-1.3-2.3l-17.9-5.1-5.1-17.9c-.2-.6-.6-1.1-1.3-1.3-1-.3-2,.3-2.3,1.3h0Z"/>
        <path class="st1" d="M618.8,1658.1l-5.1,17.9-17.9,5.1c-.6.2-1.1.6-1.3,1.3-.3,1,.3,2,1.3,2.3l17.9,5.1,5.1,17.9c.2.6.6,1.1,1.3,1.3,1,.3,2-.3,2.3-1.3l5.1-17.9,17.9-5.1c.6-.2,1.1-.6,1.3-1.3.3-1-.3-2-1.3-2.3l-17.9-5.1-5.1-17.9c-.2-.6-.6-1.1-1.3-1.3-1-.3-2,.3-2.3,1.3h0Z"/>
        <path class="st1" d="M460.1,1658.1l-5.1,17.9-17.9,5.1c-.6.2-1.1.6-1.3,1.3-.3,1,.3,2,1.3,2.3l17.9,5.1,5.1,17.9c.2.6.6,1.1,1.3,1.3,1,.3,2-.3,2.3-1.3l5.1-17.9,17.9-5.1c.6-.2,1.1-.6,1.3-1.3.3-1-.3-2-1.3-2.3l-17.9-5.1-5.1-17.9c-.2-.6-.6-1.1-1.3-1.3-1-.3-2,.3-2.3,1.3h0Z"/>
        <path class="st1" d="M883.3,1605.9l-5.1,17.9-17.9,5.1c-.6.2-1.1.6-1.3,1.3-.3,1,.3,2,1.3,2.3l17.9,5.1,5.1,17.9c.2.6.6,1.1,1.3,1.3,1,.3,2-.3,2.3-1.3l5.1-17.9,17.9-5.1c.6-.2,1.1-.6,1.3-1.3.3-1-.3-2-1.3-2.3l-17.9-5.1-5.1-17.9c-.2-.6-.6-1.1-1.3-1.3-1-.3-2,.3-2.3,1.3h0Z"/>
        <path class="st1" d="M830.4,1605.9l-5.1,17.9-17.9,5.1c-.6.2-1.1.6-1.3,1.3-.3,1,.3,2,1.3,2.3l17.9,5.1,5.1,17.9c.2.6.6,1.1,1.3,1.3,1,.3,2-.3,2.3-1.3l5.1-17.9,17.9-5.1c.6-.2,1.1-.6,1.3-1.3.3-1-.3-2-1.3-2.3l-17.9-5.1-5.1-17.9c-.2-.6-.6-1.1-1.3-1.3-1-.3-2,.3-2.3,1.3h0Z"/>
        <path class="st1" d="M671.7,1605.9l-5.1,17.9-17.9,5.1c-.6.2-1.1.6-1.3,1.3-.3,1,.3,2,1.3,2.3l17.9,5.1,5.1,17.9c.2.6.6,1.1,1.3,1.3,1,.3,2-.3,2.3-1.3l5.1-17.9,17.9-5.1c.6-.2,1.1-.6,1.3-1.3.3-1-.3-2-1.3-2.3l-17.9-5.1-5.1-17.9c-.2-.6-.6-1.1-1.3-1.3-1-.3-2,.3-2.3,1.3h0Z"/>
        <path class="st1" d="M513,1605.9l-5.1,17.9-17.9,5.1c-.6.2-1.1.6-1.3,1.3-.3,1,.3,2,1.3,2.3l17.9,5.1,5.1,17.9c.2.6.6,1.1,1.3,1.3,1,.3,2-.3,2.3-1.3l5.1-17.9,17.9-5.1c.6-.2,1.1-.6,1.3-1.3.3-1-.3-2-1.3-2.3l-17.9-5.1-5.1-17.9c-.2-.6-.6-1.1-1.3-1.3-1-.3-2,.3-2.3,1.3h0Z"/>
        <path class="st1" d="M460.1,1605.9l-5.1,17.9-17.9,5.1c-.6.2-1.1.6-1.3,1.3-.3,1,.3,2,1.3,2.3l17.9,5.1,5.1,17.9c.2.6.6,1.1,1.3,1.3,1,.3,2-.3,2.3-1.3l5.1-17.9,17.9-5.1c.6-.2,1.1-.6,1.3-1.3.3-1-.3-2-1.3-2.3l-17.9-5.1-5.1-17.9c-.2-.6-.6-1.1-1.3-1.3-1-.3-2,.3-2.3,1.3h0Z"/>
        <path class="st1" d="M830.4,1553.7l-5.1,17.9-17.9,5.1c-.6.2-1.1.6-1.3,1.3-.3,1,.3,2,1.3,2.3l17.9,5.1,5.1,17.9c.2.6.6,1.1,1.3,1.3,1,.3,2-.3,2.3-1.3l5.1-17.9,17.9-5.1c.6-.2,1.1-.6,1.3-1.3.3-1-.3-2-1.3-2.3l-17.9-5.1-5.1-17.9c-.2-.6-.6-1.1-1.3-1.3-1-.3-2,.3-2.3,1.3h0Z"/>
        <path class="st1" d="M777.5,1553.7l-5.1,17.9-17.9,5.1c-.6.2-1.1.6-1.3,1.3-.3,1,.3,2,1.3,2.3l17.9,5.1,5.1,17.9c.2.6.6,1.1,1.3,1.3,1,.3,2-.3,2.3-1.3l5.1-17.9,17.9-5.1c.6-.2,1.1-.6,1.3-1.3.3-1-.3-2-1.3-2.3l-17.9-5.1-5.1-17.9c-.2-.6-.6-1.1-1.3-1.3-1-.3-2,.3-2.3,1.3h0Z"/>
        <path class="st1" d="M565.9,1553.7l-5.1,17.9-17.9,5.1c-.6.2-1.1.6-1.3,1.3-.3,1,.3,2,1.3,2.3l17.9,5.1,5.1,17.9c.2.6.6,1.1,1.3,1.3,1,.3,2-.3,2.3-1.3l5.1-17.9,17.9-5.1c.6-.2,1.1-.6,1.3-1.3.3-1-.3-2-1.3-2.3l-17.9-5.1-5.1-17.9c-.2-.6-.6-1.1-1.3-1.3-1-.3-2,.3-2.3,1.3h0Z"/>
        <path class="st1" d="M513,1553.7l-5.1,17.9-17.9,5.1c-.6.2-1.1.6-1.3,1.3-.3,1,.3,2,1.3,2.3l17.9,5.1,5.1,17.9c.2.6.6,1.1,1.3,1.3,1,.3,2-.3,2.3-1.3l5.1-17.9,17.9-5.1c.6-.2,1.1-.6,1.3-1.3.3-1-.3-2-1.3-2.3l-17.9-5.1-5.1-17.9c-.2-.6-.6-1.1-1.3-1.3-1-.3-2,.3-2.3,1.3h0Z"/>
        <path class="st1" d="M777.5,1501.5l-5.1,17.9-17.9,5.1c-.6.2-1.1.6-1.3,1.3-.3,1,.3,2,1.3,2.3l17.9,5.1,5.1,17.9c.2.6.6,1.1,1.3,1.3,1,.3,2-.3,2.3-1.3l5.1-17.9,17.9-5.1c.6-.2,1.1-.6,1.3-1.3.3-1-.3-2-1.3-2.3l-17.9-5.1-5.1-17.9c-.2-.6-.6-1.1-1.3-1.3-1-.3-2,.3-2.3,1.3h0Z"/>
        <path class="st1" d="M724.6,1501.5l-5.1,17.9-17.9,5.1c-.6.2-1.1.6-1.3,1.3-.3,1,.3,2,1.3,2.3l17.9,5.1,5.1,17.9c.2.6.6,1.1,1.3,1.3,1,.3,2-.3,2.3-1.3l5.1-17.9,17.9-5.1c.6-.2,1.1-.6,1.3-1.3.3-1-.3-2-1.3-2.3l-17.9-5.1-5.1-17.9c-.2-.6-.6-1.1-1.3-1.3-1-.3-2,.3-2.3,1.3h0Z"/>
        <path class="st1" d="M618.8,1501.5l-5.1,17.9-17.9,5.1c-.6.2-1.1.6-1.3,1.3-.3,1,.3,2,1.3,2.3l17.9,5.1,5.1,17.9c.2.6.6,1.1,1.3,1.3,1,.3,2-.3,2.3-1.3l5.1-17.9,17.9-5.1c.6-.2,1.1-.6,1.3-1.3.3-1-.3-2-1.3-2.3l-17.9-5.1-5.1-17.9c-.2-.6-.6-1.1-1.3-1.3-1-.3-2,.3-2.3,1.3h0Z"/>
        <path class="st1" d="M565.9,1501.5l-5.1,17.9-17.9,5.1c-.6.2-1.1.6-1.3,1.3-.3,1,.3,2,1.3,2.3l17.9,5.1,5.1,17.9c.2.6.6,1.1,1.3,1.3,1,.3,2-.3,2.3-1.3l5.1-17.9,17.9-5.1c.6-.2,1.1-.6,1.3-1.3.3-1-.3-2-1.3-2.3l-17.9-5.1-5.1-17.9c-.2-.6-.6-1.1-1.3-1.3-1-.3-2,.3-2.3,1.3h0Z"/>
        <path class="st1" d="M724.6,1449.3l-5.1,17.9-17.9,5.1c-.6.2-1.1.6-1.3,1.3-.3,1,.3,2,1.3,2.3l17.9,5.1,5.1,17.9c.2.6.6,1.1,1.3,1.3,1,.3,2-.3,2.3-1.3l5.1-17.9,17.9-5.1c.6-.2,1.1-.6,1.3-1.3.3-1-.3-2-1.3-2.3l-17.9-5.1-5.1-17.9c-.2-.6-.6-1.1-1.3-1.3-1-.3-2,.3-2.3,1.3h0Z"/>
        <path class="st1" d="M671.7,1449.3l-5.1,17.9-17.9,5.1c-.6.2-1.1.6-1.3,1.3-.3,1,.3,2,1.3,2.3l17.9,5.1,5.1,17.9c.2.6.6,1.1,1.3,1.3,1,.3,2-.3,2.3-1.3l5.1-17.9,17.9-5.1c.6-.2,1.1-.6,1.3-1.3.3-1-.3-2-1.3-2.3l-17.9-5.1-5.1-17.9c-.2-.6-.6-1.1-1.3-1.3-1-.3-2,.3-2.3,1.3h0Z"/>
        <path class="st1" d="M618.8,1449.3l-5.1,17.9-17.9,5.1c-.6.2-1.1.6-1.3,1.3-.3,1,.3,2,1.3,2.3l17.9,5.1,5.1,17.9c.2.6.6,1.1,1.3,1.3,1,.3,2-.3,2.3-1.3l5.1-17.9,17.9-5.1c.6-.2,1.1-.6,1.3-1.3.3-1-.3-2-1.3-2.3l-17.9-5.1-5.1-17.9c-.2-.6-.6-1.1-1.3-1.3-1-.3-2,.3-2.3,1.3h0Z"/>
        <path class="st1" d="M671.7,1397.1l-5.1,17.9-17.9,5.1c-.6.2-1.1.6-1.3,1.3-.3,1,.3,2,1.3,2.3l17.9,5.1,5.1,17.9c.2.6.6,1.1,1.3,1.3,1,.3,2-.3,2.3-1.3l5.1-17.9,17.9-5.1c.6-.2,1.1-.6,1.3-1.3.3-1-.3-2-1.3-2.3l-17.9-5.1-5.1-17.9c-.2-.6-.6-1.1-1.3-1.3-1-.3-2,.3-2.3,1.3h0Z"/>
        <g>
          <path class="st1" d="M672.1,1806.9h3.9c0,.9.2,1.8.2,2.7,0,19.7,0,39.4.2,59.1.2,27.6.6,55.2,1,82.8.3,19.8.7,39.6,1.2,59.3.8,29.9,1.6,59.8,2.4,89.8.7,24.2,1.5,48.5,2.4,72.7,1.5,38.5,3.1,77,4.7,115.5v4.7h-27.1c7.8-162.1,11.2-324.2,11-486.6h.1,0Z"/>
          <path class="st1" d="M756.1,2293.8c-8.7-10-15.8-20.3-22.1-31.3-15.4-27-25-56.2-31.7-86.4-6.4-29.4-9.8-59.2-11.8-89.2-2.3-34.8-2.2-69.6-1.5-104.4.7-33,2.1-65.9,3.1-98.9.3-10.8.6-21.7.9-32.7h4.1v11.1c-.2,12.1-.4,24.2-.6,36.2-.4,26.4-1.3,52.8-1.1,79.2.2,28.1,1.2,56.2,2.5,84.3,1.1,24.2,4.2,48.3,8.7,72.2,6.4,34.2,16.1,67.2,33.6,97.5,6.9,12,15,23.2,24.6,33.1,1.4,1.5,1.6,2.7.9,4.5-3.2,8.1-6.3,16.2-9.6,24.8h0Z"/>
          <path class="st1" d="M651.6,1878h4.1v15.4c.7,34.3,1.5,68.6,2.2,102.9.7,36.2,0,72.2-3.1,108.3-3.1,35.9-8.5,71.3-19.4,105.7-9,28.4-21.5,55.1-40.3,78.5-1.3,1.6-2.6,3.1-4.2,5-2.5-6.6-4.5-13-7.4-18.9-3-5.9-2-9.8,2.6-14.8,18.4-20.1,30.4-44.2,39.4-69.7,9-25.4,14.6-51.7,18.4-78.3,4.4-31,6.9-62.1,7.3-93.4.4-35.2.3-70.5.5-105.7v-35h-.1Z"/>
          <path class="st1" d="M756.1,2222.8c-9.9-12.8-17-26.6-22.7-41-8.8-22.2-14.2-45.2-18.2-68.6-5.1-30.1-7.9-60.3-8.6-90.8-.6-26.1-.8-52.2-.8-78.2s.6-24.8.9-37.1v-1.9h5.7v16.9c0,16.9-.5,33.9-.3,50.8.4,28.8,2.9,57.5,7.3,86,5.8,37.2,14.3,73.6,29.9,108,4.4,9.6,9.5,18.8,16,27.2.5.7.8,1.9.6,2.6-3.1,8.5-6.4,17-9.9,26.1h.1Z"/>
          <path class="st1" d="M591,2223.3c-3.7-9.6-6.9-18.2-10.2-26.8-.2-.6,0-1.6.4-2.1,19.8-24.5,31.1-53,39.3-82.9,7.2-26.3,11.7-53.1,13.4-80.3,1.3-20.4,1.9-40.9,2.2-61.4.2-12.6-.7-25.1-1.1-37.9h6.4c.2,5.1.4,10.2.5,15.3.2,19.8.7,39.6.5,59.4-.5,38.5-2.8,76.8-10.2,114.7-5.7,28.9-13.9,56.9-28.7,82.6-3.7,6.4-8,12.4-12.4,19.4h-.1,0Z"/>
        </g>
      </g>
      <g>
        <path class="st0" d="M659.2,1277.2l-5.1,17.9-17.9,5.1c-.6.2-1.1.6-1.3,1.3-.3,1,.3,2,1.3,2.3l17.9,5.1,5.1,17.9c.2.6.6,1.1,1.3,1.3,1,.3,2-.3,2.3-1.3l5.1-17.9,17.9-5.1c.6-.2,1.1-.6,1.3-1.3.3-1-.3-2-1.3-2.3l-17.9-5.1-5.1-17.9c-.2-.6-.6-1.1-1.3-1.3-1-.3-2,.3-2.3,1.3h0Z"/>
        <path class="st0" d="M712.1,1225l-5.1,17.9-17.9,5.1c-.6.2-1.1.6-1.3,1.3-.3,1,.3,2,1.3,2.3l17.9,5.1,5.1,17.9c.2.6.6,1.1,1.3,1.3,1,.3,2-.3,2.3-1.3l5.1-17.9,17.9-5.1c.6-.2,1.1-.6,1.3-1.3.3-1-.3-2-1.3-2.3l-17.9-5.1-5.1-17.9c-.2-.6-.6-1.1-1.3-1.3-1-.3-2,.3-2.3,1.3h0Z"/>
        <path class="st0" d="M659.2,1225l-5.1,17.9-17.9,5.1c-.6.2-1.1.6-1.3,1.3-.3,1,.3,2,1.3,2.3l17.9,5.1,5.1,17.9c.2.6.6,1.1,1.3,1.3,1,.3,2-.3,2.3-1.3l5.1-17.9,17.9-5.1c.6-.2,1.1-.6,1.3-1.3.3-1-.3-2-1.3-2.3l-17.9-5.1-5.1-17.9c-.2-.6-.6-1.1-1.3-1.3-1-.3-2,.3-2.3,1.3h0Z"/>
        <path class="st0" d="M606.3,1225l-5.1,17.9-17.9,5.1c-.6.2-1.1.6-1.3,1.3-.3,1,.3,2,1.3,2.3l17.9,5.1,5.1,17.9c.2.6.6,1.1,1.3,1.3,1,.3,2-.3,2.3-1.3l5.1-17.9,17.9-5.1c.6-.2,1.1-.6,1.3-1.3.3-1-.3-2-1.3-2.3l-17.9-5.1-5.1-17.9c-.2-.6-.6-1.1-1.3-1.3-1-.3-2,.3-2.3,1.3h0Z"/>
        <path class="st0" d="M765,1172.8l-5.1,17.9-17.9,5.1c-.6.2-1.1.6-1.3,1.3-.3,1,.3,2,1.3,2.3l17.9,5.1,5.1,17.9c.2.6.6,1.1,1.3,1.3,1,.3,2-.3,2.3-1.3l5.1-17.9,17.9-5.1c.6-.2,1.1-.6,1.3-1.3.3-1-.3-2-1.3-2.3l-17.9-5.1-5.1-17.9c-.2-.6-.6-1.1-1.3-1.3-1-.3-2,.3-2.3,1.3h0Z"/>
        <path class="st0" d="M712.1,1172.8l-5.1,17.9-17.9,5.1c-.6.2-1.1.6-1.3,1.3-.3,1,.3,2,1.3,2.3l17.9,5.1,5.1,17.9c.2.6.6,1.1,1.3,1.3,1,.3,2-.3,2.3-1.3l5.1-17.9,17.9-5.1c.6-.2,1.1-.6,1.3-1.3.3-1-.3-2-1.3-2.3l-17.9-5.1-5.1-17.9c-.2-.6-.6-1.1-1.3-1.3-1-.3-2,.3-2.3,1.3h0Z"/>
        <path class="st0" d="M606.3,1172.8l-5.1,17.9-17.9,5.1c-.6.2-1.1.6-1.3,1.3-.3,1,.3,2,1.3,2.3l17.9,5.1,5.1,17.9c.2.6.6,1.1,1.3,1.3,1,.3,2-.3,2.3-1.3l5.1-17.9,17.9-5.1c.6-.2,1.1-.6,1.3-1.3.3-1-.3-2-1.3-2.3l-17.9-5.1-5.1-17.9c-.2-.6-.6-1.1-1.3-1.3-1-.3-2,.3-2.3,1.3h0Z"/>
        <path class="st0" d="M553.4,1172.8l-5.1,17.9-17.9,5.1c-.6.2-1.1.6-1.3,1.3-.3,1,.3,2,1.3,2.3l17.9,5.1,5.1,17.9c.2.6.6,1.1,1.3,1.3,1,.3,2-.3,2.3-1.3l5.1-17.9,17.9-5.1c.6-.2,1.1-.6,1.3-1.3.3-1-.3-2-1.3-2.3l-17.9-5.1-5.1-17.9c-.2-.6-.6-1.1-1.3-1.3-1-.3-2,.3-2.3,1.3h0Z"/>
        <path class="st0" d="M817.9,1120.5l-5.1,17.9-17.9,5.1c-.6.2-1.1.6-1.3,1.3-.3,1,.3,2,1.3,2.3l17.9,5.1,5.1,17.9c.2.6.6,1.1,1.3,1.3,1,.3,2-.3,2.3-1.3l5.1-17.9,17.9-5.1c.6-.2,1.1-.6,1.3-1.3.3-1-.3-2-1.3-2.3l-17.9-5.1-5.1-17.9c-.2-.6-.6-1.1-1.3-1.3-1-.3-2,.3-2.3,1.3h0Z"/>
        <path class="st0" d="M765,1120.5l-5.1,17.9-17.9,5.1c-.6.2-1.1.6-1.3,1.3-.3,1,.3,2,1.3,2.3l17.9,5.1,5.1,17.9c.2.6.6,1.1,1.3,1.3,1,.3,2-.3,2.3-1.3l5.1-17.9,17.9-5.1c.6-.2,1.1-.6,1.3-1.3.3-1-.3-2-1.3-2.3l-17.9-5.1-5.1-17.9c-.2-.6-.6-1.1-1.3-1.3-1-.3-2,.3-2.3,1.3h0Z"/>
        <path class="st0" d="M553.4,1120.5l-5.1,17.9-17.9,5.1c-.6.2-1.1.6-1.3,1.3-.3,1,.3,2,1.3,2.3l17.9,5.1,5.1,17.9c.2.6.6,1.1,1.3,1.3,1,.3,2-.3,2.3-1.3l5.1-17.9,17.9-5.1c.6-.2,1.1-.6,1.3-1.3.3-1-.3-2-1.3-2.3l-17.9-5.1-5.1-17.9c-.2-.6-.6-1.1-1.3-1.3-1-.3-2,.3-2.3,1.3h0Z"/>
        <path class="st0" d="M500.5,1120.5l-5.1,17.9-17.9,5.1c-.6.2-1.1.6-1.3,1.3-.3,1,.3,2,1.3,2.3l17.9,5.1,5.1,17.9c.2.6.6,1.1,1.3,1.3,1,.3,2-.3,2.3-1.3l5.1-17.9,17.9-5.1c.6-.2,1.1-.6,1.3-1.3.3-1-.3-2-1.3-2.3l-17.9-5.1-5.1-17.9c-.2-.6-.6-1.1-1.3-1.3-1-.3-2,.3-2.3,1.3h0Z"/>
        <path class="st0" d="M870.8,1068.3l-5.1,17.9-17.9,5.1c-.6.2-1.1.6-1.3,1.3-.3,1,.3,2,1.3,2.3l17.9,5.1,5.1,17.9c.2.6.6,1.1,1.3,1.3,1,.3,2-.3,2.3-1.3l5.1-17.9,17.9-5.1c.6-.2,1.1-.6,1.3-1.3.3-1-.3-2-1.3-2.3l-17.9-5.1-5.1-17.9c-.2-.6-.6-1.1-1.3-1.3-1-.3-2,.3-2.3,1.3h0Z"/>
        <path class="st0" d="M817.9,1068.3l-5.1,17.9-17.9,5.1c-.6.2-1.1.6-1.3,1.3-.3,1,.3,2,1.3,2.3l17.9,5.1,5.1,17.9c.2.6.6,1.1,1.3,1.3,1,.3,2-.3,2.3-1.3l5.1-17.9,17.9-5.1c.6-.2,1.1-.6,1.3-1.3.3-1-.3-2-1.3-2.3l-17.9-5.1-5.1-17.9c-.2-.6-.6-1.1-1.3-1.3-1-.3-2,.3-2.3,1.3h0Z"/>
        <path class="st0" d="M659.2,1068.3l-5.1,17.9-17.9,5.1c-.6.2-1.1.6-1.3,1.3-.3,1,.3,2,1.3,2.3l17.9,5.1,5.1,17.9c.2.6.6,1.1,1.3,1.3,1,.3,2-.3,2.3-1.3l5.1-17.9,17.9-5.1c.6-.2,1.1-.6,1.3-1.3.3-1-.3-2-1.3-2.3l-17.9-5.1-5.1-17.9c-.2-.6-.6-1.1-1.3-1.3-1-.3-2,.3-2.3,1.3h0Z"/>
        <path class="st0" d="M500.5,1068.3l-5.1,17.9-17.9,5.1c-.6.2-1.1.6-1.3,1.3-.3,1,.3,2,1.3,2.3l17.9,5.1,5.1,17.9c.2.6.6,1.1,1.3,1.3,1,.3,2-.3,2.3-1.3l5.1-17.9,17.9-5.1c.6-.2,1.1-.6,1.3-1.3.3-1-.3-2-1.3-2.3l-17.9-5.1-5.1-17.9c-.2-.6-.6-1.1-1.3-1.3-1-.3-2,.3-2.3,1.3h0Z"/>
        <path class="st0" d="M447.6,1068.3l-5.1,17.9-17.9,5.1c-.6.2-1.1.6-1.3,1.3-.3,1,.3,2,1.3,2.3l17.9,5.1,5.1,17.9c.2.6.6,1.1,1.3,1.3,1,.3,2-.3,2.3-1.3l5.1-17.9,17.9-5.1c.6-.2,1.1-.6,1.3-1.3.3-1-.3-2-1.3-2.3l-17.9-5.1-5.1-17.9c-.2-.6-.6-1.1-1.3-1.3-1-.3-2,.3-2.3,1.3h0Z"/>
        <path class="st0" d="M870.8,1016.1l-5.1,17.9-17.9,5.1c-.6.2-1.1.6-1.3,1.3-.3,1,.3,2,1.3,2.3l17.9,5.1,5.1,17.9c.2.6.6,1.1,1.3,1.3,1,.3,2-.3,2.3-1.3l5.1-17.9,17.9-5.1c.6-.2,1.1-.6,1.3-1.3.3-1-.3-2-1.3-2.3l-17.9-5.1-5.1-17.9c-.2-.6-.6-1.1-1.3-1.3-1-.3-2,.3-2.3,1.3h0Z"/>
        <path class="st0" d="M712.1,1016.1l-5.1,17.9-17.9,5.1c-.6.2-1.1.6-1.3,1.3-.3,1,.3,2,1.3,2.3l17.9,5.1,5.1,17.9c.2.6.6,1.1,1.3,1.3,1,.3,2-.3,2.3-1.3l5.1-17.9,17.9-5.1c.6-.2,1.1-.6,1.3-1.3.3-1-.3-2-1.3-2.3l-17.9-5.1-5.1-17.9c-.2-.6-.6-1.1-1.3-1.3-1-.3-2,.3-2.3,1.3h0Z"/>
        <path class="st0" d="M659.2,1016.1l-5.1,17.9-17.9,5.1c-.6.2-1.1.6-1.3,1.3-.3,1,.3,2,1.3,2.3l17.9,5.1,5.1,17.9c.2.6.6,1.1,1.3,1.3,1,.3,2-.3,2.3-1.3l5.1-17.9,17.9-5.1c.6-.2,1.1-.6,1.3-1.3.3-1-.3-2-1.3-2.3l-17.9-5.1-5.1-17.9c-.2-.6-.6-1.1-1.3-1.3-1-.3-2,.3-2.3,1.3h0Z"/>
        <path class="st0" d="M606.3,1016.1l-5.1,17.9-17.9,5.1c-.6.2-1.1.6-1.3,1.3-.3,1,.3,2,1.3,2.3l17.9,5.1,5.1,17.9c.2.6.6,1.1,1.3,1.3,1,.3,2-.3,2.3-1.3l5.1-17.9,17.9-5.1c.6-.2,1.1-.6,1.3-1.3.3-1-.3-2-1.3-2.3l-17.9-5.1-5.1-17.9c-.2-.6-.6-1.1-1.3-1.3-1-.3-2,.3-2.3,1.3h0Z"/>
        <path class="st0" d="M447.6,1016.1l-5.1,17.9-17.9,5.1c-.6.2-1.1.6-1.3,1.3-.3,1,.3,2,1.3,2.3l17.9,5.1,5.1,17.9c.2.6.6,1.1,1.3,1.3,1,.3,2-.3,2.3-1.3l5.1-17.9,17.9-5.1c.6-.2,1.1-.6,1.3-1.3.3-1-.3-2-1.3-2.3l-17.9-5.1-5.1-17.9c-.2-.6-.6-1.1-1.3-1.3-1-.3-2,.3-2.3,1.3h0Z"/>
        <path class="st0" d="M870.8,963.9l-5.1,17.9-17.9,5.1c-.6.2-1.1.6-1.3,1.3-.3,1,.3,2,1.3,2.3l17.9,5.1,5.1,17.9c.2.6.6,1.1,1.3,1.3,1,.3,2-.3,2.3-1.3l5.1-17.9,17.9-5.1c.6-.2,1.1-.6,1.3-1.3.3-1-.3-2-1.3-2.3l-17.9-5.1-5.1-17.9c-.2-.6-.6-1.1-1.3-1.3-1-.3-2,.3-2.3,1.3h0Z"/>
        <path class="st0" d="M765,963.9l-5.1,17.9-17.9,5.1c-.6.2-1.1.6-1.3,1.3-.3,1,.3,2,1.3,2.3l17.9,5.1,5.1,17.9c.2.6.6,1.1,1.3,1.3,1,.3,2-.3,2.3-1.3l5.1-17.9,17.9-5.1c.6-.2,1.1-.6,1.3-1.3.3-1-.3-2-1.3-2.3l-17.9-5.1-5.1-17.9c-.2-.6-.6-1.1-1.3-1.3-1-.3-2,.3-2.3,1.3h0Z"/>
        <path class="st0" d="M712.1,963.9l-5.1,17.9-17.9,5.1c-.6.2-1.1.6-1.3,1.3-.3,1,.3,2,1.3,2.3l17.9,5.1,5.1,17.9c.2.6.6,1.1,1.3,1.3,1,.3,2-.3,2.3-1.3l5.1-17.9,17.9-5.1c.6-.2,1.1-.6,1.3-1.3.3-1-.3-2-1.3-2.3l-17.9-5.1-5.1-17.9c-.2-.6-.6-1.1-1.3-1.3-1-.3-2,.3-2.3,1.3h0Z"/>
        <path class="st0" d="M659.2,963.9l-5.1,17.9-17.9,5.1c-.6.2-1.1.6-1.3,1.3-.3,1,.3,2,1.3,2.3l17.9,5.1,5.1,17.9c.2.6.6,1.1,1.3,1.3,1,.3,2-.3,2.3-1.3l5.1-17.9,17.9-5.1c.6-.2,1.1-.6,1.3-1.3.3-1-.3-2-1.3-2.3l-17.9-5.1-5.1-17.9c-.2-.6-.6-1.1-1.3-1.3-1-.3-2,.3-2.3,1.3h0Z"/>
        <path class="st0" d="M606.3,963.9l-5.1,17.9-17.9,5.1c-.6.2-1.1.6-1.3,1.3-.3,1,.3,2,1.3,2.3l17.9,5.1,5.1,17.9c.2.6.6,1.1,1.3,1.3,1,.3,2-.3,2.3-1.3l5.1-17.9,17.9-5.1c.6-.2,1.1-.6,1.3-1.3.3-1-.3-2-1.3-2.3l-17.9-5.1-5.1-17.9c-.2-.6-.6-1.1-1.3-1.3-1-.3-2,.3-2.3,1.3h0Z"/>
        <path class="st0" d="M553.4,963.9l-5.1,17.9-17.9,5.1c-.6.2-1.1.6-1.3,1.3-.3,1,.3,2,1.3,2.3l17.9,5.1,5.1,17.9c.2.6.6,1.1,1.3,1.3,1,.3,2-.3,2.3-1.3l5.1-17.9,17.9-5.1c.6-.2,1.1-.6,1.3-1.3.3-1-.3-2-1.3-2.3l-17.9-5.1-5.1-17.9c-.2-.6-.6-1.1-1.3-1.3-1-.3-2,.3-2.3,1.3h0Z"/>
        <path class="st0" d="M447.6,963.9l-5.1,17.9-17.9,5.1c-.6.2-1.1.6-1.3,1.3-.3,1,.3,2,1.3,2.3l17.9,5.1,5.1,17.9c.2.6.6,1.1,1.3,1.3,1,.3,2-.3,2.3-1.3l5.1-17.9,17.9-5.1c.6-.2,1.1-.6,1.3-1.3.3-1-.3-2-1.3-2.3l-17.9-5.1-5.1-17.9c-.2-.6-.6-1.1-1.3-1.3-1-.3-2,.3-2.3,1.3h0Z"/>
        <path class="st0" d="M870.8,911.7l-5.1,17.9-17.9,5.1c-.6.2-1.1.6-1.3,1.3-.3,1,.3,2,1.3,2.3l17.9,5.1,5.1,17.9c.2.6.6,1.1,1.3,1.3,1,.3,2-.3,2.3-1.3l5.1-17.9,17.9-5.1c.6-.2,1.1-.6,1.3-1.3.3-1-.3-2-1.3-2.3l-17.9-5.1-5.1-17.9c-.2-.6-.6-1.1-1.3-1.3-1-.3-2,.3-2.3,1.3h0Z"/>
        <path class="st0" d="M817.9,911.7l-5.1,17.9-17.9,5.1c-.6.2-1.1.6-1.3,1.3-.3,1,.3,2,1.3,2.3l17.9,5.1,5.1,17.9c.2.6.6,1.1,1.3,1.3,1,.3,2-.3,2.3-1.3l5.1-17.9,17.9-5.1c.6-.2,1.1-.6,1.3-1.3.3-1-.3-2-1.3-2.3l-17.9-5.1-5.1-17.9c-.2-.6-.6-1.1-1.3-1.3-1-.3-2,.3-2.3,1.3h0Z"/>
        <path class="st0" d="M500.5,911.7l-5.1,17.9-17.9,5.1c-.6.2-1.1.6-1.3,1.3-.3,1,.3,2,1.3,2.3l17.9,5.1,5.1,17.9c.2.6.6,1.1,1.3,1.3,1,.3,2-.3,2.3-1.3l5.1-17.9,17.9-5.1c.6-.2,1.1-.6,1.3-1.3.3-1-.3-2-1.3-2.3l-17.9-5.1-5.1-17.9c-.2-.6-.6-1.1-1.3-1.3-1-.3-2,.3-2.3,1.3h0Z"/>
        <path class="st0" d="M447.6,911.7l-5.1,17.9-17.9,5.1c-.6.2-1.1.6-1.3,1.3-.3,1,.3,2,1.3,2.3l17.9,5.1,5.1,17.9c.2.6.6,1.1,1.3,1.3,1,.3,2-.3,2.3-1.3l5.1-17.9,17.9-5.1c.6-.2,1.1-.6,1.3-1.3.3-1-.3-2-1.3-2.3l-17.9-5.1-5.1-17.9c-.2-.6-.6-1.1-1.3-1.3-1-.3-2,.3-2.3,1.3h0Z"/>
        <path class="st0" d="M1082.4,859.5l-5.1,17.9-17.9,5.1c-.6.2-1.1.6-1.3,1.3-.3,1,.3,2,1.3,2.3l17.9,5.1,5.1,17.9c.2.6.6,1.1,1.3,1.3,1,.3,2-.3,2.3-1.3l5.1-17.9,17.9-5.1c.6-.2,1.1-.6,1.3-1.3.3-1-.3-2-1.3-2.3l-17.9-5.1-5.1-17.9c-.2-.6-.6-1.1-1.3-1.3-1-.3-2,.3-2.3,1.3h0Z"/>
        <path class="st0" d="M1029.5,859.5l-5.1,17.9-17.9,5.1c-.6.2-1.1.6-1.3,1.3-.3,1,.3,2,1.3,2.3l17.9,5.1,5.1,17.9c.2.6.6,1.1,1.3,1.3,1,.3,2-.3,2.3-1.3l5.1-17.9,17.9-5.1c.6-.2,1.1-.6,1.3-1.3.3-1-.3-2-1.3-2.3l-17.9-5.1-5.1-17.9c-.2-.6-.6-1.1-1.3-1.3-1-.3-2,.3-2.3,1.3h0Z"/>
        <path class="st0" d="M976.6,859.5l-5.1,17.9-17.9,5.1c-.6.2-1.1.6-1.3,1.3-.3,1,.3,2,1.3,2.3l17.9,5.1,5.1,17.9c.2.6.6,1.1,1.3,1.3,1,.3,2-.3,2.3-1.3l5.1-17.9,17.9-5.1c.6-.2,1.1-.6,1.3-1.3.3-1-.3-2-1.3-2.3l-17.9-5.1-5.1-17.9c-.2-.6-.6-1.1-1.3-1.3-1-.3-2,.3-2.3,1.3h0Z"/>
        <path class="st0" d="M923.7,859.5l-5.1,17.9-17.9,5.1c-.6.2-1.1.6-1.3,1.3-.3,1,.3,2,1.3,2.3l17.9,5.1,5.1,17.9c.2.6.6,1.1,1.3,1.3,1,.3,2-.3,2.3-1.3l5.1-17.9,17.9-5.1c.6-.2,1.1-.6,1.3-1.3.3-1-.3-2-1.3-2.3l-17.9-5.1-5.1-17.9c-.2-.6-.6-1.1-1.3-1.3-1-.3-2,.3-2.3,1.3h0Z"/>
        <path class="st0" d="M817.9,859.5l-5.1,17.9-17.9,5.1c-.6.2-1.1.6-1.3,1.3-.3,1,.3,2,1.3,2.3l17.9,5.1,5.1,17.9c.2.6.6,1.1,1.3,1.3,1,.3,2-.3,2.3-1.3l5.1-17.9,17.9-5.1c.6-.2,1.1-.6,1.3-1.3.3-1-.3-2-1.3-2.3l-17.9-5.1-5.1-17.9c-.2-.6-.6-1.1-1.3-1.3-1-.3-2,.3-2.3,1.3h0Z"/>
        <path class="st0" d="M500.5,859.5l-5.1,17.9-17.9,5.1c-.6.2-1.1.6-1.3,1.3-.3,1,.3,2,1.3,2.3l17.9,5.1,5.1,17.9c.2.6.6,1.1,1.3,1.3,1,.3,2-.3,2.3-1.3l5.1-17.9,17.9-5.1c.6-.2,1.1-.6,1.3-1.3.3-1-.3-2-1.3-2.3l-17.9-5.1-5.1-17.9c-.2-.6-.6-1.1-1.3-1.3-1-.3-2,.3-2.3,1.3h0Z"/>
        <path class="st0" d="M394.7,859.5l-5.1,17.9-17.9,5.1c-.6.2-1.1.6-1.3,1.3-.3,1,.3,2,1.3,2.3l17.9,5.1,5.1,17.9c.2.6.6,1.1,1.3,1.3,1,.3,2-.3,2.3-1.3l5.1-17.9,17.9-5.1c.6-.2,1.1-.6,1.3-1.3.3-1-.3-2-1.3-2.3l-17.9-5.1-5.1-17.9c-.2-.6-.6-1.1-1.3-1.3-1-.3-2,.3-2.3,1.3h0Z"/>
        <path class="st0" d="M341.8,859.5l-5.1,17.9-17.9,5.1c-.6.2-1.1.6-1.3,1.3-.3,1,.3,2,1.3,2.3l17.9,5.1,5.1,17.9c.2.6.6,1.1,1.3,1.3,1,.3,2-.3,2.3-1.3l5.1-17.9,17.9-5.1c.6-.2,1.1-.6,1.3-1.3.3-1-.3-2-1.3-2.3l-17.9-5.1-5.1-17.9c-.2-.6-.6-1.1-1.3-1.3-1-.3-2,.3-2.3,1.3h0Z"/>
        <path class="st0" d="M288.9,859.5l-5.1,17.9-17.9,5.1c-.6.2-1.1.6-1.3,1.3-.3,1,.3,2,1.3,2.3l17.9,5.1,5.1,17.9c.2.6.6,1.1,1.3,1.3,1,.3,2-.3,2.3-1.3l5.1-17.9,17.9-5.1c.6-.2,1.1-.6,1.3-1.3.3-1-.3-2-1.3-2.3l-17.9-5.1-5.1-17.9c-.2-.6-.6-1.1-1.3-1.3-1-.3-2,.3-2.3,1.3h0Z"/>
        <path class="st0" d="M236,859.5l-5.1,17.9-17.9,5.1c-.6.2-1.1.6-1.3,1.3-.3,1,.3,2,1.3,2.3l17.9,5.1,5.1,17.9c.2.6.6,1.1,1.3,1.3,1,.3,2-.3,2.3-1.3l5.1-17.9,17.9-5.1c.6-.2,1.1-.6,1.3-1.3.3-1-.3-2-1.3-2.3l-17.9-5.1-5.1-17.9c-.2-.6-.6-1.1-1.3-1.3-1-.3-2,.3-2.3,1.3h0Z"/>
        <path class="st0" d="M1135.3,807.2l-5.1,17.9-17.9,5.1c-.6.2-1.1.6-1.3,1.3-.3,1,.3,2,1.3,2.3l17.9,5.1,5.1,17.9c.2.6.6,1.1,1.3,1.3,1,.3,2-.3,2.3-1.3l5.1-17.9,17.9-5.1c.6-.2,1.1-.6,1.3-1.3.3-1-.3-2-1.3-2.3l-17.9-5.1-5.1-17.9c-.2-.6-.6-1.1-1.3-1.3-1-.3-2,.3-2.3,1.3h0Z"/>
        <path class="st0" d="M1082.4,807.2l-5.1,17.9-17.9,5.1c-.6.2-1.1.6-1.3,1.3-.3,1,.3,2,1.3,2.3l17.9,5.1,5.1,17.9c.2.6.6,1.1,1.3,1.3,1,.3,2-.3,2.3-1.3l5.1-17.9,17.9-5.1c.6-.2,1.1-.6,1.3-1.3.3-1-.3-2-1.3-2.3l-17.9-5.1-5.1-17.9c-.2-.6-.6-1.1-1.3-1.3-1-.3-2,.3-2.3,1.3h0Z"/>
        <path class="st0" d="M923.7,807.2l-5.1,17.9-17.9,5.1c-.6.2-1.1.6-1.3,1.3-.3,1,.3,2,1.3,2.3l17.9,5.1,5.1,17.9c.2.6.6,1.1,1.3,1.3,1,.3,2-.3,2.3-1.3l5.1-17.9,17.9-5.1c.6-.2,1.1-.6,1.3-1.3.3-1-.3-2-1.3-2.3l-17.9-5.1-5.1-17.9c-.2-.6-.6-1.1-1.3-1.3-1-.3-2,.3-2.3,1.3h0Z"/>
        <path class="st0" d="M870.8,807.2l-5.1,17.9-17.9,5.1c-.6.2-1.1.6-1.3,1.3-.3,1,.3,2,1.3,2.3l17.9,5.1,5.1,17.9c.2.6.6,1.1,1.3,1.3,1,.3,2-.3,2.3-1.3l5.1-17.9,17.9-5.1c.6-.2,1.1-.6,1.3-1.3.3-1-.3-2-1.3-2.3l-17.9-5.1-5.1-17.9c-.2-.6-.6-1.1-1.3-1.3-1-.3-2,.3-2.3,1.3h0Z"/>
        <path class="st0" d="M447.6,807.2l-5.1,17.9-17.9,5.1c-.6.2-1.1.6-1.3,1.3-.3,1,.3,2,1.3,2.3l17.9,5.1,5.1,17.9c.2.6.6,1.1,1.3,1.3,1,.3,2-.3,2.3-1.3l5.1-17.9,17.9-5.1c.6-.2,1.1-.6,1.3-1.3.3-1-.3-2-1.3-2.3l-17.9-5.1-5.1-17.9c-.2-.6-.6-1.1-1.3-1.3-1-.3-2,.3-2.3,1.3h0Z"/>
        <path class="st0" d="M394.7,807.2l-5.1,17.9-17.9,5.1c-.6.2-1.1.6-1.3,1.3-.3,1,.3,2,1.3,2.3l17.9,5.1,5.1,17.9c.2.6.6,1.1,1.3,1.3,1,.3,2-.3,2.3-1.3l5.1-17.9,17.9-5.1c.6-.2,1.1-.6,1.3-1.3.3-1-.3-2-1.3-2.3l-17.9-5.1-5.1-17.9c-.2-.6-.6-1.1-1.3-1.3-1-.3-2,.3-2.3,1.3h0Z"/>
        <path class="st0" d="M236,807.2l-5.1,17.9-17.9,5.1c-.6.2-1.1.6-1.3,1.3-.3,1,.3,2,1.3,2.3l17.9,5.1,5.1,17.9c.2.6.6,1.1,1.3,1.3,1,.3,2-.3,2.3-1.3l5.1-17.9,17.9-5.1c.6-.2,1.1-.6,1.3-1.3.3-1-.3-2-1.3-2.3l-17.9-5.1-5.1-17.9c-.2-.6-.6-1.1-1.3-1.3-1-.3-2,.3-2.3,1.3h0Z"/>
        <path class="st0" d="M183.1,807.2l-5.1,17.9-17.9,5.1c-.6.2-1.1.6-1.3,1.3-.3,1,.3,2,1.3,2.3l17.9,5.1,5.1,17.9c.2.6.6,1.1,1.3,1.3,1,.3,2-.3,2.3-1.3l5.1-17.9,17.9-5.1c.6-.2,1.1-.6,1.3-1.3.3-1-.3-2-1.3-2.3l-17.9-5.1-5.1-17.9c-.2-.6-.6-1.1-1.3-1.3-1-.3-2,.3-2.3,1.3h0Z"/>
        <path class="st0" d="M1188.2,755l-5.1,17.9-17.9,5.1c-.6.2-1.1.6-1.3,1.3-.3,1,.3,2,1.3,2.3l17.9,5.1,5.1,17.9c.2.6.6,1.1,1.3,1.3,1,.3,2-.3,2.3-1.3l5.1-17.9,17.9-5.1c.6-.2,1.1-.6,1.3-1.3.3-1-.3-2-1.3-2.3l-17.9-5.1-5.1-17.9c-.2-.6-.6-1.1-1.3-1.3-1-.3-2,.3-2.3,1.3h0Z"/>
        <path class="st0" d="M1135.3,755l-5.1,17.9-17.9,5.1c-.6.2-1.1.6-1.3,1.3-.3,1,.3,2,1.3,2.3l17.9,5.1,5.1,17.9c.2.6.6,1.1,1.3,1.3,1,.3,2-.3,2.3-1.3l5.1-17.9,17.9-5.1c.6-.2,1.1-.6,1.3-1.3.3-1-.3-2-1.3-2.3l-17.9-5.1-5.1-17.9c-.2-.6-.6-1.1-1.3-1.3-1-.3-2,.3-2.3,1.3h0Z"/>
        <path class="st0" d="M712.1,755l-5.1,17.9-17.9,5.1c-.6.2-1.1.6-1.3,1.3-.3,1,.3,2,1.3,2.3l17.9,5.1,5.1,17.9c.2.6.6,1.1,1.3,1.3,1,.3,2-.3,2.3-1.3l5.1-17.9,17.9-5.1c.6-.2,1.1-.6,1.3-1.3.3-1-.3-2-1.3-2.3l-17.9-5.1-5.1-17.9c-.2-.6-.6-1.1-1.3-1.3-1-.3-2,.3-2.3,1.3h0Z"/>
        <path class="st0" d="M659.2,755l-5.1,17.9-17.9,5.1c-.6.2-1.1.6-1.3,1.3-.3,1,.3,2,1.3,2.3l17.9,5.1,5.1,17.9c.2.6.6,1.1,1.3,1.3,1,.3,2-.3,2.3-1.3l5.1-17.9,17.9-5.1c.6-.2,1.1-.6,1.3-1.3.3-1-.3-2-1.3-2.3l-17.9-5.1-5.1-17.9c-.2-.6-.6-1.1-1.3-1.3-1-.3-2,.3-2.3,1.3h0Z"/>
        <path class="st0" d="M606.3,755l-5.1,17.9-17.9,5.1c-.6.2-1.1.6-1.3,1.3-.3,1,.3,2,1.3,2.3l17.9,5.1,5.1,17.9c.2.6.6,1.1,1.3,1.3,1,.3,2-.3,2.3-1.3l5.1-17.9,17.9-5.1c.6-.2,1.1-.6,1.3-1.3.3-1-.3-2-1.3-2.3l-17.9-5.1-5.1-17.9c-.2-.6-.6-1.1-1.3-1.3-1-.3-2,.3-2.3,1.3h0Z"/>
        <path class="st0" d="M341.8,755l-5.1,17.9-17.9,5.1c-.6.2-1.1.6-1.3,1.3-.3,1,.3,2,1.3,2.3l17.9,5.1,5.1,17.9c.2.6.6,1.1,1.3,1.3,1,.3,2-.3,2.3-1.3l5.1-17.9,17.9-5.1c.6-.2,1.1-.6,1.3-1.3.3-1-.3-2-1.3-2.3l-17.9-5.1-5.1-17.9c-.2-.6-.6-1.1-1.3-1.3-1-.3-2,.3-2.3,1.3h0Z"/>
        <path class="st0" d="M183.1,755l-5.1,17.9-17.9,5.1c-.6.2-1.1.6-1.3,1.3-.3,1,.3,2,1.3,2.3l17.9,5.1,5.1,17.9c.2.6.6,1.1,1.3,1.3,1,.3,2-.3,2.3-1.3l5.1-17.9,17.9-5.1c.6-.2,1.1-.6,1.3-1.3.3-1-.3-2-1.3-2.3l-17.9-5.1-5.1-17.9c-.2-.6-.6-1.1-1.3-1.3-1-.3-2,.3-2.3,1.3h0Z"/>
        <path class="st0" d="M130.2,755l-5.1,17.9-17.9,5.1c-.6.2-1.1.6-1.3,1.3-.3,1,.3,2,1.3,2.3l17.9,5.1,5.1,17.9c.2.6.6,1.1,1.3,1.3,1,.3,2-.3,2.3-1.3l5.1-17.9,17.9-5.1c.6-.2,1.1-.6,1.3-1.3.3-1-.3-2-1.3-2.3l-17.9-5.1-5.1-17.9c-.2-.6-.6-1.1-1.3-1.3-1-.3-2,.3-2.3,1.3h0Z"/>
        <path class="st0" d="M1241.1,702.8l-5.1,17.9-17.9,5.1c-.6.2-1.1.6-1.3,1.3-.3,1,.3,2,1.3,2.3l17.9,5.1,5.1,17.9c.2.6.6,1.1,1.3,1.3,1,.3,2-.3,2.3-1.3l5.1-17.9,17.9-5.1c.6-.2,1.1-.6,1.3-1.3.3-1-.3-2-1.3-2.3l-17.9-5.1-5.1-17.9c-.2-.6-.6-1.1-1.3-1.3-1-.3-2,.3-2.3,1.3h0Z"/>
        <path class="st0" d="M1188.2,702.8l-5.1,17.9-17.9,5.1c-.6.2-1.1.6-1.3,1.3-.3,1,.3,2,1.3,2.3l17.9,5.1,5.1,17.9c.2.6.6,1.1,1.3,1.3,1,.3,2-.3,2.3-1.3l5.1-17.9,17.9-5.1c.6-.2,1.1-.6,1.3-1.3.3-1-.3-2-1.3-2.3l-17.9-5.1-5.1-17.9c-.2-.6-.6-1.1-1.3-1.3-1-.3-2,.3-2.3,1.3h0Z"/>
        <path class="st0" d="M1029.5,702.8l-5.1,17.9-17.9,5.1c-.6.2-1.1.6-1.3,1.3-.3,1,.3,2,1.3,2.3l17.9,5.1,5.1,17.9c.2.6.6,1.1,1.3,1.3,1,.3,2-.3,2.3-1.3l5.1-17.9,17.9-5.1c.6-.2,1.1-.6,1.3-1.3.3-1-.3-2-1.3-2.3l-17.9-5.1-5.1-17.9c-.2-.6-.6-1.1-1.3-1.3-1-.3-2,.3-2.3,1.3h0Z"/>
        <path class="st0" d="M976.6,702.8l-5.1,17.9-17.9,5.1c-.6.2-1.1.6-1.3,1.3-.3,1,.3,2,1.3,2.3l17.9,5.1,5.1,17.9c.2.6.6,1.1,1.3,1.3,1,.3,2-.3,2.3-1.3l5.1-17.9,17.9-5.1c.6-.2,1.1-.6,1.3-1.3.3-1-.3-2-1.3-2.3l-17.9-5.1-5.1-17.9c-.2-.6-.6-1.1-1.3-1.3-1-.3-2,.3-2.3,1.3h0Z"/>
        <path class="st0" d="M976.6,755l-5.1,17.9-17.9,5.1c-.6.2-1.1.6-1.3,1.3-.3,1,.3,2,1.3,2.3l17.9,5.1,5.1,17.9c.2.6.6,1.1,1.3,1.3,1,.3,2-.3,2.3-1.3l5.1-17.9,17.9-5.1c.6-.2,1.1-.6,1.3-1.3.3-1-.3-2-1.3-2.3l-17.9-5.1-5.1-17.9c-.2-.6-.6-1.1-1.3-1.3-1-.3-2,.3-2.3,1.3h0Z"/>
        <path class="st0" d="M765,702.8l-5.1,17.9-17.9,5.1c-.6.2-1.1.6-1.3,1.3-.3,1,.3,2,1.3,2.3l17.9,5.1,5.1,17.9c.2.6.6,1.1,1.3,1.3,1,.3,2-.3,2.3-1.3l5.1-17.9,17.9-5.1c.6-.2,1.1-.6,1.3-1.3.3-1-.3-2-1.3-2.3l-17.9-5.1-5.1-17.9c-.2-.6-.6-1.1-1.3-1.3-1-.3-2,.3-2.3,1.3h0Z"/>
        <path class="st0" d="M712.1,702.8l-5.1,17.9-17.9,5.1c-.6.2-1.1.6-1.3,1.3-.3,1,.3,2,1.3,2.3l17.9,5.1,5.1,17.9c.2.6.6,1.1,1.3,1.3,1,.3,2-.3,2.3-1.3l5.1-17.9,17.9-5.1c.6-.2,1.1-.6,1.3-1.3.3-1-.3-2-1.3-2.3l-17.9-5.1-5.1-17.9c-.2-.6-.6-1.1-1.3-1.3-1-.3-2,.3-2.3,1.3h0Z"/>
        <path class="st0" d="M659.2,702.8l-5.1,17.9-17.9,5.1c-.6.2-1.1.6-1.3,1.3-.3,1,.3,2,1.3,2.3l17.9,5.1,5.1,17.9c.2.6.6,1.1,1.3,1.3,1,.3,2-.3,2.3-1.3l5.1-17.9,17.9-5.1c.6-.2,1.1-.6,1.3-1.3.3-1-.3-2-1.3-2.3l-17.9-5.1-5.1-17.9c-.2-.6-.6-1.1-1.3-1.3-1-.3-2,.3-2.3,1.3h0Z"/>
        <path class="st0" d="M606.3,702.8l-5.1,17.9-17.9,5.1c-.6.2-1.1.6-1.3,1.3-.3,1,.3,2,1.3,2.3l17.9,5.1,5.1,17.9c.2.6.6,1.1,1.3,1.3,1,.3,2-.3,2.3-1.3l5.1-17.9,17.9-5.1c.6-.2,1.1-.6,1.3-1.3.3-1-.3-2-1.3-2.3l-17.9-5.1-5.1-17.9c-.2-.6-.6-1.1-1.3-1.3-1-.3-2,.3-2.3,1.3h0Z"/>
        <path class="st0" d="M553.4,702.8l-5.1,17.9-17.9,5.1c-.6.2-1.1.6-1.3,1.3-.3,1,.3,2,1.3,2.3l17.9,5.1,5.1,17.9c.2.6.6,1.1,1.3,1.3,1,.3,2-.3,2.3-1.3l5.1-17.9,17.9-5.1c.6-.2,1.1-.6,1.3-1.3.3-1-.3-2-1.3-2.3l-17.9-5.1-5.1-17.9c-.2-.6-.6-1.1-1.3-1.3-1-.3-2,.3-2.3,1.3h0Z"/>
        <path class="st0" d="M341.8,702.8l-5.1,17.9-17.9,5.1c-.6.2-1.1.6-1.3,1.3-.3,1,.3,2,1.3,2.3l17.9,5.1,5.1,17.9c.2.6.6,1.1,1.3,1.3,1,.3,2-.3,2.3-1.3l5.1-17.9,17.9-5.1c.6-.2,1.1-.6,1.3-1.3.3-1-.3-2-1.3-2.3l-17.9-5.1-5.1-17.9c-.2-.6-.6-1.1-1.3-1.3-1-.3-2,.3-2.3,1.3h0Z"/>
        <path class="st0" d="M288.9,702.8l-5.1,17.9-17.9,5.1c-.6.2-1.1.6-1.3,1.3-.3,1,.3,2,1.3,2.3l17.9,5.1,5.1,17.9c.2.6.6,1.1,1.3,1.3,1,.3,2-.3,2.3-1.3l5.1-17.9,17.9-5.1c.6-.2,1.1-.6,1.3-1.3.3-1-.3-2-1.3-2.3l-17.9-5.1-5.1-17.9c-.2-.6-.6-1.1-1.3-1.3-1-.3-2,.3-2.3,1.3h0Z"/>
        <path class="st0" d="M130.2,702.8l-5.1,17.9-17.9,5.1c-.6.2-1.1.6-1.3,1.3-.3,1,.3,2,1.3,2.3l17.9,5.1,5.1,17.9c.2.6.6,1.1,1.3,1.3,1,.3,2-.3,2.3-1.3l5.1-17.9,17.9-5.1c.6-.2,1.1-.6,1.3-1.3.3-1-.3-2-1.3-2.3l-17.9-5.1-5.1-17.9c-.2-.6-.6-1.1-1.3-1.3-1-.3-2,.3-2.3,1.3h0Z"/>
        <path class="st0" d="M77.3,702.8l-5.1,17.9-17.9,5.1c-.6.2-1.1.6-1.3,1.3-.3,1,.3,2,1.3,2.3l17.9,5.1,5.1,17.9c.2.6.6,1.1,1.3,1.3,1,.3,2-.3,2.3-1.3l5.1-17.9,17.9-5.1c.6-.2,1.1-.6,1.3-1.3.3-1-.3-2-1.3-2.3l-17.9-5.1-5.1-17.9c-.2-.6-.6-1.1-1.3-1.3-1-.3-2,.3-2.3,1.3h0Z"/>
        <path class="st0" d="M1294,650.6l-5.1,17.9-17.9,5.1c-.6.2-1.1.6-1.3,1.3-.3,1,.3,2,1.3,2.3l17.9,5.1,5.1,17.9c.2.6.6,1.1,1.3,1.3,1,.3,2-.3,2.3-1.3l5.1-17.9,17.9-5.1c.6-.2,1.1-.6,1.3-1.3.3-1-.3-2-1.3-2.3l-17.9-5.1-5.1-17.9c-.2-.6-.6-1.1-1.3-1.3-1-.3-2,.3-2.3,1.3h0Z"/>
        <path class="st0" d="M1241.1,650.6l-5.1,17.9-17.9,5.1c-.6.2-1.1.6-1.3,1.3-.3,1,.3,2,1.3,2.3l17.9,5.1,5.1,17.9c.2.6.6,1.1,1.3,1.3,1,.3,2-.3,2.3-1.3l5.1-17.9,17.9-5.1c.6-.2,1.1-.6,1.3-1.3.3-1-.3-2-1.3-2.3l-17.9-5.1-5.1-17.9c-.2-.6-.6-1.1-1.3-1.3-1-.3-2,.3-2.3,1.3h0Z"/>
        <path class="st0" d="M1082.4,650.6l-5.1,17.9-17.9,5.1c-.6.2-1.1.6-1.3,1.3-.3,1,.3,2,1.3,2.3l17.9,5.1,5.1,17.9c.2.6.6,1.1,1.3,1.3,1,.3,2-.3,2.3-1.3l5.1-17.9,17.9-5.1c.6-.2,1.1-.6,1.3-1.3.3-1-.3-2-1.3-2.3l-17.9-5.1-5.1-17.9c-.2-.6-.6-1.1-1.3-1.3-1-.3-2,.3-2.3,1.3h0Z"/>
        <path class="st0" d="M1029.5,650.6l-5.1,17.9-17.9,5.1c-.6.2-1.1.6-1.3,1.3-.3,1,.3,2,1.3,2.3l17.9,5.1,5.1,17.9c.2.6.6,1.1,1.3,1.3,1,.3,2-.3,2.3-1.3l5.1-17.9,17.9-5.1c.6-.2,1.1-.6,1.3-1.3.3-1-.3-2-1.3-2.3l-17.9-5.1-5.1-17.9c-.2-.6-.6-1.1-1.3-1.3-1-.3-2,.3-2.3,1.3h0Z"/>
        <path class="st0" d="M976.6,650.6l-5.1,17.9-17.9,5.1c-.6.2-1.1.6-1.3,1.3-.3,1,.3,2,1.3,2.3l17.9,5.1,5.1,17.9c.2.6.6,1.1,1.3,1.3,1,.3,2-.3,2.3-1.3l5.1-17.9,17.9-5.1c.6-.2,1.1-.6,1.3-1.3.3-1-.3-2-1.3-2.3l-17.9-5.1-5.1-17.9c-.2-.6-.6-1.1-1.3-1.3-1-.3-2,.3-2.3,1.3h0Z"/>
        <path class="st0" d="M765,650.6l-5.1,17.9-17.9,5.1c-.6.2-1.1.6-1.3,1.3-.3,1,.3,2,1.3,2.3l17.9,5.1,5.1,17.9c.2.6.6,1.1,1.3,1.3,1,.3,2-.3,2.3-1.3l5.1-17.9,17.9-5.1c.6-.2,1.1-.6,1.3-1.3.3-1-.3-2-1.3-2.3l-17.9-5.1-5.1-17.9c-.2-.6-.6-1.1-1.3-1.3-1-.3-2,.3-2.3,1.3h0Z"/>
        <path class="st0" d="M712.1,650.6l-5.1,17.9-17.9,5.1c-.6.2-1.1.6-1.3,1.3-.3,1,.3,2,1.3,2.3l17.9,5.1,5.1,17.9c.2.6.6,1.1,1.3,1.3,1,.3,2-.3,2.3-1.3l5.1-17.9,17.9-5.1c.6-.2,1.1-.6,1.3-1.3.3-1-.3-2-1.3-2.3l-17.9-5.1-5.1-17.9c-.2-.6-.6-1.1-1.3-1.3-1-.3-2,.3-2.3,1.3h0Z"/>
        <path class="st0" d="M659.2,650.6l-5.1,17.9-17.9,5.1c-.6.2-1.1.6-1.3,1.3-.3,1,.3,2,1.3,2.3l17.9,5.1,5.1,17.9c.2.6.6,1.1,1.3,1.3,1,.3,2-.3,2.3-1.3l5.1-17.9,17.9-5.1c.6-.2,1.1-.6,1.3-1.3.3-1-.3-2-1.3-2.3l-17.9-5.1-5.1-17.9c-.2-.6-.6-1.1-1.3-1.3-1-.3-2,.3-2.3,1.3h0Z"/>
        <path class="st0" d="M606.3,650.6l-5.1,17.9-17.9,5.1c-.6.2-1.1.6-1.3,1.3-.3,1,.3,2,1.3,2.3l17.9,5.1,5.1,17.9c.2.6.6,1.1,1.3,1.3,1,.3,2-.3,2.3-1.3l5.1-17.9,17.9-5.1c.6-.2,1.1-.6,1.3-1.3.3-1-.3-2-1.3-2.3l-17.9-5.1-5.1-17.9c-.2-.6-.6-1.1-1.3-1.3-1-.3-2,.3-2.3,1.3h0Z"/>
        <path class="st0" d="M553.4,650.6l-5.1,17.9-17.9,5.1c-.6.2-1.1.6-1.3,1.3-.3,1,.3,2,1.3,2.3l17.9,5.1,5.1,17.9c.2.6.6,1.1,1.3,1.3,1,.3,2-.3,2.3-1.3l5.1-17.9,17.9-5.1c.6-.2,1.1-.6,1.3-1.3.3-1-.3-2-1.3-2.3l-17.9-5.1-5.1-17.9c-.2-.6-.6-1.1-1.3-1.3-1-.3-2,.3-2.3,1.3h0Z"/>
        <path class="st0" d="M500.5,650.6l-5.1,17.9-17.9,5.1c-.6.2-1.1.6-1.3,1.3-.3,1,.3,2,1.3,2.3l17.9,5.1,5.1,17.9c.2.6.6,1.1,1.3,1.3,1,.3,2-.3,2.3-1.3l5.1-17.9,17.9-5.1c.6-.2,1.1-.6,1.3-1.3.3-1-.3-2-1.3-2.3l-17.9-5.1-5.1-17.9c-.2-.6-.6-1.1-1.3-1.3-1-.3-2,.3-2.3,1.3h0Z"/>
        <path class="st0" d="M817.9,650.6l-5.1,17.9-17.9,5.1c-.6.2-1.1.6-1.3,1.3-.3,1,.3,2,1.3,2.3l17.9,5.1,5.1,17.9c.2.6.6,1.1,1.3,1.3,1,.3,2-.3,2.3-1.3l5.1-17.9,17.9-5.1c.6-.2,1.1-.6,1.3-1.3.3-1-.3-2-1.3-2.3l-17.9-5.1-5.1-17.9c-.2-.6-.6-1.1-1.3-1.3-1-.3-2,.3-2.3,1.3h0Z"/>
        <path class="st0" d="M659.2,494l-5.1,17.9-17.9,5.1c-.6.2-1.1.6-1.3,1.3-.3,1,.3,2,1.3,2.3l17.9,5.1,5.1,17.9c.2.6.6,1.1,1.3,1.3,1,.3,2-.3,2.3-1.3l5.1-17.9,17.9-5.1c.6-.2,1.1-.6,1.3-1.3.3-1-.3-2-1.3-2.3l-17.9-5.1-5.1-17.9c-.2-.6-.6-1.1-1.3-1.3-1-.3-2,.3-2.3,1.3h0Z"/>
        <path class="st0" d="M659.2,807.2l-5.1,17.9-17.9,5.1c-.6.2-1.1.6-1.3,1.3-.3,1,.3,2,1.3,2.3l17.9,5.1,5.1,17.9c.2.6.6,1.1,1.3,1.3,1,.3,2-.3,2.3-1.3l5.1-17.9,17.9-5.1c.6-.2,1.1-.6,1.3-1.3.3-1-.3-2-1.3-2.3l-17.9-5.1-5.1-17.9c-.2-.6-.6-1.1-1.3-1.3-1-.3-2,.3-2.3,1.3h0Z"/>
        <path class="st0" d="M341.8,650.6l-5.1,17.9-17.9,5.1c-.6.2-1.1.6-1.3,1.3-.3,1,.3,2,1.3,2.3l17.9,5.1,5.1,17.9c.2.6.6,1.1,1.3,1.3,1,.3,2-.3,2.3-1.3l5.1-17.9,17.9-5.1c.6-.2,1.1-.6,1.3-1.3.3-1-.3-2-1.3-2.3l-17.9-5.1-5.1-17.9c-.2-.6-.6-1.1-1.3-1.3-1-.3-2,.3-2.3,1.3h0Z"/>
        <path class="st0" d="M288.9,650.6l-5.1,17.9-17.9,5.1c-.6.2-1.1.6-1.3,1.3-.3,1,.3,2,1.3,2.3l17.9,5.1,5.1,17.9c.2.6.6,1.1,1.3,1.3,1,.3,2-.3,2.3-1.3l5.1-17.9,17.9-5.1c.6-.2,1.1-.6,1.3-1.3.3-1-.3-2-1.3-2.3l-17.9-5.1-5.1-17.9c-.2-.6-.6-1.1-1.3-1.3-1-.3-2,.3-2.3,1.3h0Z"/>
        <path class="st0" d="M236,650.6l-5.1,17.9-17.9,5.1c-.6.2-1.1.6-1.3,1.3-.3,1,.3,2,1.3,2.3l17.9,5.1,5.1,17.9c.2.6.6,1.1,1.3,1.3,1,.3,2-.3,2.3-1.3l5.1-17.9,17.9-5.1c.6-.2,1.1-.6,1.3-1.3.3-1-.3-2-1.3-2.3l-17.9-5.1-5.1-17.9c-.2-.6-.6-1.1-1.3-1.3-1-.3-2,.3-2.3,1.3h0Z"/>
        <path class="st0" d="M77.3,650.6l-5.1,17.9-17.9,5.1c-.6.2-1.1.6-1.3,1.3-.3,1,.3,2,1.3,2.3l17.9,5.1,5.1,17.9c.2.6.6,1.1,1.3,1.3,1,.3,2-.3,2.3-1.3l5.1-17.9,17.9-5.1c.6-.2,1.1-.6,1.3-1.3.3-1-.3-2-1.3-2.3l-17.9-5.1-5.1-17.9c-.2-.6-.6-1.1-1.3-1.3-1-.3-2,.3-2.3,1.3h0Z"/>
        <path class="st0" d="M24.4,650.6l-5.1,17.9-17.9,5.1c-.6.2-1.1.6-1.3,1.3-.3,1,.3,2,1.3,2.3l17.9,5.1,5.1,17.9c.2.6.6,1.1,1.3,1.3,1,.3,2-.3,2.3-1.3l5.1-17.9,17.9-5.1c.6-.2,1.1-.6,1.3-1.3.3-1-.3-2-1.3-2.3l-17.9-5.1-5.1-17.9c-.2-.6-.6-1.1-1.3-1.3-1-.3-2,.3-2.3,1.3h0Z"/>
        <path class="st0" d="M1241.1,598.4l-5.1,17.9-17.9,5.1c-.6.2-1.1.6-1.3,1.3-.3,1,.3,2,1.3,2.3l17.9,5.1,5.1,17.9c.2.6.6,1.1,1.3,1.3,1,.3,2-.3,2.3-1.3l5.1-17.9,17.9-5.1c.6-.2,1.1-.6,1.3-1.3.3-1-.3-2-1.3-2.3l-17.9-5.1-5.1-17.9c-.2-.6-.6-1.1-1.3-1.3-1-.3-2,.3-2.3,1.3h0Z"/>
        <path class="st0" d="M1188.2,598.4l-5.1,17.9-17.9,5.1c-.6.2-1.1.6-1.3,1.3-.3,1,.3,2,1.3,2.3l17.9,5.1,5.1,17.9c.2.6.6,1.1,1.3,1.3,1,.3,2-.3,2.3-1.3l5.1-17.9,17.9-5.1c.6-.2,1.1-.6,1.3-1.3.3-1-.3-2-1.3-2.3l-17.9-5.1-5.1-17.9c-.2-.6-.6-1.1-1.3-1.3-1-.3-2,.3-2.3,1.3h0Z"/>
        <path class="st0" d="M1029.5,598.4l-5.1,17.9-17.9,5.1c-.6.2-1.1.6-1.3,1.3-.3,1,.3,2,1.3,2.3l17.9,5.1,5.1,17.9c.2.6.6,1.1,1.3,1.3,1,.3,2-.3,2.3-1.3l5.1-17.9,17.9-5.1c.6-.2,1.1-.6,1.3-1.3.3-1-.3-2-1.3-2.3l-17.9-5.1-5.1-17.9c-.2-.6-.6-1.1-1.3-1.3-1-.3-2,.3-2.3,1.3h0Z"/>
        <path class="st0" d="M976.6,598.4l-5.1,17.9-17.9,5.1c-.6.2-1.1.6-1.3,1.3-.3,1,.3,2,1.3,2.3l17.9,5.1,5.1,17.9c.2.6.6,1.1,1.3,1.3,1,.3,2-.3,2.3-1.3l5.1-17.9,17.9-5.1c.6-.2,1.1-.6,1.3-1.3.3-1-.3-2-1.3-2.3l-17.9-5.1-5.1-17.9c-.2-.6-.6-1.1-1.3-1.3-1-.3-2,.3-2.3,1.3h0Z"/>
        <path class="st0" d="M976.6,546.2l-5.1,17.9-17.9,5.1c-.6.2-1.1.6-1.3,1.3-.3,1,.3,2,1.3,2.3l17.9,5.1,5.1,17.9c.2.6.6,1.1,1.3,1.3,1,.3,2-.3,2.3-1.3l5.1-17.9,17.9-5.1c.6-.2,1.1-.6,1.3-1.3.3-1-.3-2-1.3-2.3l-17.9-5.1-5.1-17.9c-.2-.6-.6-1.1-1.3-1.3-1-.3-2,.3-2.3,1.3h0Z"/>
        <path class="st0" d="M765,598.4l-5.1,17.9-17.9,5.1c-.6.2-1.1.6-1.3,1.3-.3,1,.3,2,1.3,2.3l17.9,5.1,5.1,17.9c.2.6.6,1.1,1.3,1.3,1,.3,2-.3,2.3-1.3l5.1-17.9,17.9-5.1c.6-.2,1.1-.6,1.3-1.3.3-1-.3-2-1.3-2.3l-17.9-5.1-5.1-17.9c-.2-.6-.6-1.1-1.3-1.3-1-.3-2,.3-2.3,1.3h0Z"/>
        <path class="st0" d="M712.1,598.4l-5.1,17.9-17.9,5.1c-.6.2-1.1.6-1.3,1.3-.3,1,.3,2,1.3,2.3l17.9,5.1,5.1,17.9c.2.6.6,1.1,1.3,1.3,1,.3,2-.3,2.3-1.3l5.1-17.9,17.9-5.1c.6-.2,1.1-.6,1.3-1.3.3-1-.3-2-1.3-2.3l-17.9-5.1-5.1-17.9c-.2-.6-.6-1.1-1.3-1.3-1-.3-2,.3-2.3,1.3h0Z"/>
        <path class="st0" d="M659.2,598.4l-5.1,17.9-17.9,5.1c-.6.2-1.1.6-1.3,1.3-.3,1,.3,2,1.3,2.3l17.9,5.1,5.1,17.9c.2.6.6,1.1,1.3,1.3,1,.3,2-.3,2.3-1.3l5.1-17.9,17.9-5.1c.6-.2,1.1-.6,1.3-1.3.3-1-.3-2-1.3-2.3l-17.9-5.1-5.1-17.9c-.2-.6-.6-1.1-1.3-1.3-1-.3-2,.3-2.3,1.3h0Z"/>
        <path class="st0" d="M606.3,598.4l-5.1,17.9-17.9,5.1c-.6.2-1.1.6-1.3,1.3-.3,1,.3,2,1.3,2.3l17.9,5.1,5.1,17.9c.2.6.6,1.1,1.3,1.3,1,.3,2-.3,2.3-1.3l5.1-17.9,17.9-5.1c.6-.2,1.1-.6,1.3-1.3.3-1-.3-2-1.3-2.3l-17.9-5.1-5.1-17.9c-.2-.6-.6-1.1-1.3-1.3-1-.3-2,.3-2.3,1.3h0Z"/>
        <path class="st0" d="M553.4,598.4l-5.1,17.9-17.9,5.1c-.6.2-1.1.6-1.3,1.3-.3,1,.3,2,1.3,2.3l17.9,5.1,5.1,17.9c.2.6.6,1.1,1.3,1.3,1,.3,2-.3,2.3-1.3l5.1-17.9,17.9-5.1c.6-.2,1.1-.6,1.3-1.3.3-1-.3-2-1.3-2.3l-17.9-5.1-5.1-17.9c-.2-.6-.6-1.1-1.3-1.3-1-.3-2,.3-2.3,1.3h0Z"/>
        <path class="st0" d="M341.8,598.4l-5.1,17.9-17.9,5.1c-.6.2-1.1.6-1.3,1.3-.3,1,.3,2,1.3,2.3l17.9,5.1,5.1,17.9c.2.6.6,1.1,1.3,1.3,1,.3,2-.3,2.3-1.3l5.1-17.9,17.9-5.1c.6-.2,1.1-.6,1.3-1.3.3-1-.3-2-1.3-2.3l-17.9-5.1-5.1-17.9c-.2-.6-.6-1.1-1.3-1.3-1-.3-2,.3-2.3,1.3h0Z"/>
        <path class="st0" d="M288.9,598.4l-5.1,17.9-17.9,5.1c-.6.2-1.1.6-1.3,1.3-.3,1,.3,2,1.3,2.3l17.9,5.1,5.1,17.9c.2.6.6,1.1,1.3,1.3,1,.3,2-.3,2.3-1.3l5.1-17.9,17.9-5.1c.6-.2,1.1-.6,1.3-1.3.3-1-.3-2-1.3-2.3l-17.9-5.1-5.1-17.9c-.2-.6-.6-1.1-1.3-1.3-1-.3-2,.3-2.3,1.3h0Z"/>
        <path class="st0" d="M130.2,598.4l-5.1,17.9-17.9,5.1c-.6.2-1.1.6-1.3,1.3-.3,1,.3,2,1.3,2.3l17.9,5.1,5.1,17.9c.2.6.6,1.1,1.3,1.3,1,.3,2-.3,2.3-1.3l5.1-17.9,17.9-5.1c.6-.2,1.1-.6,1.3-1.3.3-1-.3-2-1.3-2.3l-17.9-5.1-5.1-17.9c-.2-.6-.6-1.1-1.3-1.3-1-.3-2,.3-2.3,1.3h0Z"/>
        <path class="st0" d="M77.3,598.4l-5.1,17.9-17.9,5.1c-.6.2-1.1.6-1.3,1.3-.3,1,.3,2,1.3,2.3l17.9,5.1,5.1,17.9c.2.6.6,1.1,1.3,1.3,1,.3,2-.3,2.3-1.3l5.1-17.9,17.9-5.1c.6-.2,1.1-.6,1.3-1.3.3-1-.3-2-1.3-2.3l-17.9-5.1-5.1-17.9c-.2-.6-.6-1.1-1.3-1.3-1-.3-2,.3-2.3,1.3h0Z"/>
        <path class="st0" d="M1188.2,546.2l-5.1,17.9-17.9,5.1c-.6.2-1.1.6-1.3,1.3-.3,1,.3,2,1.3,2.3l17.9,5.1,5.1,17.9c.2.6.6,1.1,1.3,1.3,1,.3,2-.3,2.3-1.3l5.1-17.9,17.9-5.1c.6-.2,1.1-.6,1.3-1.3.3-1-.3-2-1.3-2.3l-17.9-5.1-5.1-17.9c-.2-.6-.6-1.1-1.3-1.3-1-.3-2,.3-2.3,1.3h0Z"/>
        <path class="st0" d="M1135.3,546.2l-5.1,17.9-17.9,5.1c-.6.2-1.1.6-1.3,1.3-.3,1,.3,2,1.3,2.3l17.9,5.1,5.1,17.9c.2.6.6,1.1,1.3,1.3,1,.3,2-.3,2.3-1.3l5.1-17.9,17.9-5.1c.6-.2,1.1-.6,1.3-1.3.3-1-.3-2-1.3-2.3l-17.9-5.1-5.1-17.9c-.2-.6-.6-1.1-1.3-1.3-1-.3-2,.3-2.3,1.3h0Z"/>
        <path class="st0" d="M712.1,546.2l-5.1,17.9-17.9,5.1c-.6.2-1.1.6-1.3,1.3-.3,1,.3,2,1.3,2.3l17.9,5.1,5.1,17.9c.2.6.6,1.1,1.3,1.3,1,.3,2-.3,2.3-1.3l5.1-17.9,17.9-5.1c.6-.2,1.1-.6,1.3-1.3.3-1-.3-2-1.3-2.3l-17.9-5.1-5.1-17.9c-.2-.6-.6-1.1-1.3-1.3-1-.3-2,.3-2.3,1.3h0Z"/>
        <path class="st0" d="M659.2,546.2l-5.1,17.9-17.9,5.1c-.6.2-1.1.6-1.3,1.3-.3,1,.3,2,1.3,2.3l17.9,5.1,5.1,17.9c.2.6.6,1.1,1.3,1.3,1,.3,2-.3,2.3-1.3l5.1-17.9,17.9-5.1c.6-.2,1.1-.6,1.3-1.3.3-1-.3-2-1.3-2.3l-17.9-5.1-5.1-17.9c-.2-.6-.6-1.1-1.3-1.3-1-.3-2,.3-2.3,1.3h0Z"/>
        <path class="st0" d="M606.3,546.2l-5.1,17.9-17.9,5.1c-.6.2-1.1.6-1.3,1.3-.3,1,.3,2,1.3,2.3l17.9,5.1,5.1,17.9c.2.6.6,1.1,1.3,1.3,1,.3,2-.3,2.3-1.3l5.1-17.9,17.9-5.1c.6-.2,1.1-.6,1.3-1.3.3-1-.3-2-1.3-2.3l-17.9-5.1-5.1-17.9c-.2-.6-.6-1.1-1.3-1.3-1-.3-2,.3-2.3,1.3h0Z"/>
        <path class="st0" d="M341.8,546.2l-5.1,17.9-17.9,5.1c-.6.2-1.1.6-1.3,1.3-.3,1,.3,2,1.3,2.3l17.9,5.1,5.1,17.9c.2.6.6,1.1,1.3,1.3,1,.3,2-.3,2.3-1.3l5.1-17.9,17.9-5.1c.6-.2,1.1-.6,1.3-1.3.3-1-.3-2-1.3-2.3l-17.9-5.1-5.1-17.9c-.2-.6-.6-1.1-1.3-1.3-1-.3-2,.3-2.3,1.3h0Z"/>
        <path class="st0" d="M183.1,546.2l-5.1,17.9-17.9,5.1c-.6.2-1.1.6-1.3,1.3-.3,1,.3,2,1.3,2.3l17.9,5.1,5.1,17.9c.2.6.6,1.1,1.3,1.3,1,.3,2-.3,2.3-1.3l5.1-17.9,17.9-5.1c.6-.2,1.1-.6,1.3-1.3.3-1-.3-2-1.3-2.3l-17.9-5.1-5.1-17.9c-.2-.6-.6-1.1-1.3-1.3-1-.3-2,.3-2.3,1.3h0Z"/>
        <path class="st0" d="M130.2,546.2l-5.1,17.9-17.9,5.1c-.6.2-1.1.6-1.3,1.3-.3,1,.3,2,1.3,2.3l17.9,5.1,5.1,17.9c.2.6.6,1.1,1.3,1.3,1,.3,2-.3,2.3-1.3l5.1-17.9,17.9-5.1c.6-.2,1.1-.6,1.3-1.3.3-1-.3-2-1.3-2.3l-17.9-5.1-5.1-17.9c-.2-.6-.6-1.1-1.3-1.3-1-.3-2,.3-2.3,1.3h0Z"/>
        <path class="st0" d="M1135.3,494l-5.1,17.9-17.9,5.1c-.6.2-1.1.6-1.3,1.3-.3,1,.3,2,1.3,2.3l17.9,5.1,5.1,17.9c.2.6.6,1.1,1.3,1.3,1,.3,2-.3,2.3-1.3l5.1-17.9,17.9-5.1c.6-.2,1.1-.6,1.3-1.3.3-1-.3-2-1.3-2.3l-17.9-5.1-5.1-17.9c-.2-.6-.6-1.1-1.3-1.3-1-.3-2,.3-2.3,1.3h0Z"/>
        <path class="st0" d="M1082.4,494l-5.1,17.9-17.9,5.1c-.6.2-1.1.6-1.3,1.3-.3,1,.3,2,1.3,2.3l17.9,5.1,5.1,17.9c.2.6.6,1.1,1.3,1.3,1,.3,2-.3,2.3-1.3l5.1-17.9,17.9-5.1c.6-.2,1.1-.6,1.3-1.3.3-1-.3-2-1.3-2.3l-17.9-5.1-5.1-17.9c-.2-.6-.6-1.1-1.3-1.3-1-.3-2,.3-2.3,1.3h0Z"/>
        <path class="st0" d="M923.7,494l-5.1,17.9-17.9,5.1c-.6.2-1.1.6-1.3,1.3-.3,1,.3,2,1.3,2.3l17.9,5.1,5.1,17.9c.2.6.6,1.1,1.3,1.3,1,.3,2-.3,2.3-1.3l5.1-17.9,17.9-5.1c.6-.2,1.1-.6,1.3-1.3.3-1-.3-2-1.3-2.3l-17.9-5.1-5.1-17.9c-.2-.6-.6-1.1-1.3-1.3-1-.3-2,.3-2.3,1.3h0Z"/>
        <path class="st0" d="M870.8,494l-5.1,17.9-17.9,5.1c-.6.2-1.1.6-1.3,1.3-.3,1,.3,2,1.3,2.3l17.9,5.1,5.1,17.9c.2.6.6,1.1,1.3,1.3,1,.3,2-.3,2.3-1.3l5.1-17.9,17.9-5.1c.6-.2,1.1-.6,1.3-1.3.3-1-.3-2-1.3-2.3l-17.9-5.1-5.1-17.9c-.2-.6-.6-1.1-1.3-1.3-1-.3-2,.3-2.3,1.3h0Z"/>
        <path class="st0" d="M447.6,494l-5.1,17.9-17.9,5.1c-.6.2-1.1.6-1.3,1.3-.3,1,.3,2,1.3,2.3l17.9,5.1,5.1,17.9c.2.6.6,1.1,1.3,1.3,1,.3,2-.3,2.3-1.3l5.1-17.9,17.9-5.1c.6-.2,1.1-.6,1.3-1.3.3-1-.3-2-1.3-2.3l-17.9-5.1-5.1-17.9c-.2-.6-.6-1.1-1.3-1.3-1-.3-2,.3-2.3,1.3h0Z"/>
        <path class="st0" d="M394.7,494l-5.1,17.9-17.9,5.1c-.6.2-1.1.6-1.3,1.3-.3,1,.3,2,1.3,2.3l17.9,5.1,5.1,17.9c.2.6.6,1.1,1.3,1.3,1,.3,2-.3,2.3-1.3l5.1-17.9,17.9-5.1c.6-.2,1.1-.6,1.3-1.3.3-1-.3-2-1.3-2.3l-17.9-5.1-5.1-17.9c-.2-.6-.6-1.1-1.3-1.3-1-.3-2,.3-2.3,1.3h0Z"/>
        <path class="st0" d="M236,494l-5.1,17.9-17.9,5.1c-.6.2-1.1.6-1.3,1.3-.3,1,.3,2,1.3,2.3l17.9,5.1,5.1,17.9c.2.6.6,1.1,1.3,1.3,1,.3,2-.3,2.3-1.3l5.1-17.9,17.9-5.1c.6-.2,1.1-.6,1.3-1.3.3-1-.3-2-1.3-2.3l-17.9-5.1-5.1-17.9c-.2-.6-.6-1.1-1.3-1.3-1-.3-2,.3-2.3,1.3h0Z"/>
        <path class="st0" d="M183.1,494l-5.1,17.9-17.9,5.1c-.6.2-1.1.6-1.3,1.3-.3,1,.3,2,1.3,2.3l17.9,5.1,5.1,17.9c.2.6.6,1.1,1.3,1.3,1,.3,2-.3,2.3-1.3l5.1-17.9,17.9-5.1c.6-.2,1.1-.6,1.3-1.3.3-1-.3-2-1.3-2.3l-17.9-5.1-5.1-17.9c-.2-.6-.6-1.1-1.3-1.3-1-.3-2,.3-2.3,1.3h0Z"/>
        <path class="st0" d="M1082.4,441.7l-5.1,17.9-17.9,5.1c-.6.2-1.1.6-1.3,1.3-.3,1,.3,2,1.3,2.3l17.9,5.1,5.1,17.9c.2.6.6,1.1,1.3,1.3,1,.3,2-.3,2.3-1.3l5.1-17.9,17.9-5.1c.6-.2,1.1-.6,1.3-1.3.3-1-.3-2-1.3-2.3l-17.9-5.1-5.1-17.9c-.2-.6-.6-1.1-1.3-1.3-1-.3-2,.3-2.3,1.3h0Z"/>
        <path class="st0" d="M1029.5,441.7l-5.1,17.9-17.9,5.1c-.6.2-1.1.6-1.3,1.3-.3,1,.3,2,1.3,2.3l17.9,5.1,5.1,17.9c.2.6.6,1.1,1.3,1.3,1,.3,2-.3,2.3-1.3l5.1-17.9,17.9-5.1c.6-.2,1.1-.6,1.3-1.3.3-1-.3-2-1.3-2.3l-17.9-5.1-5.1-17.9c-.2-.6-.6-1.1-1.3-1.3-1-.3-2,.3-2.3,1.3h0Z"/>
        <path class="st0" d="M976.6,441.7l-5.1,17.9-17.9,5.1c-.6.2-1.1.6-1.3,1.3-.3,1,.3,2,1.3,2.3l17.9,5.1,5.1,17.9c.2.6.6,1.1,1.3,1.3,1,.3,2-.3,2.3-1.3l5.1-17.9,17.9-5.1c.6-.2,1.1-.6,1.3-1.3.3-1-.3-2-1.3-2.3l-17.9-5.1-5.1-17.9c-.2-.6-.6-1.1-1.3-1.3-1-.3-2,.3-2.3,1.3h0Z"/>
        <path class="st0" d="M923.7,441.7l-5.1,17.9-17.9,5.1c-.6.2-1.1.6-1.3,1.3-.3,1,.3,2,1.3,2.3l17.9,5.1,5.1,17.9c.2.6.6,1.1,1.3,1.3,1,.3,2-.3,2.3-1.3l5.1-17.9,17.9-5.1c.6-.2,1.1-.6,1.3-1.3.3-1-.3-2-1.3-2.3l-17.9-5.1-5.1-17.9c-.2-.6-.6-1.1-1.3-1.3-1-.3-2,.3-2.3,1.3h0Z"/>
        <path class="st0" d="M817.9,441.7l-5.1,17.9-17.9,5.1c-.6.2-1.1.6-1.3,1.3-.3,1,.3,2,1.3,2.3l17.9,5.1,5.1,17.9c.2.6.6,1.1,1.3,1.3,1,.3,2-.3,2.3-1.3l5.1-17.9,17.9-5.1c.6-.2,1.1-.6,1.3-1.3.3-1-.3-2-1.3-2.3l-17.9-5.1-5.1-17.9c-.2-.6-.6-1.1-1.3-1.3-1-.3-2,.3-2.3,1.3h0Z"/>
        <path class="st0" d="M765,337.3l-5.1,17.9-17.9,5.1c-.6.2-1.1.6-1.3,1.3-.3,1,.3,2,1.3,2.3l17.9,5.1,5.1,17.9c.2.6.6,1.1,1.3,1.3,1,.3,2-.3,2.3-1.3l5.1-17.9,17.9-5.1c.6-.2,1.1-.6,1.3-1.3.3-1-.3-2-1.3-2.3l-17.9-5.1-5.1-17.9c-.2-.6-.6-1.1-1.3-1.3-1-.3-2,.3-2.3,1.3h0Z"/>
        <path class="st0" d="M500.5,441.7l-5.1,17.9-17.9,5.1c-.6.2-1.1.6-1.3,1.3-.3,1,.3,2,1.3,2.3l17.9,5.1,5.1,17.9c.2.6.6,1.1,1.3,1.3,1,.3,2-.3,2.3-1.3l5.1-17.9,17.9-5.1c.6-.2,1.1-.6,1.3-1.3.3-1-.3-2-1.3-2.3l-17.9-5.1-5.1-17.9c-.2-.6-.6-1.1-1.3-1.3-1-.3-2,.3-2.3,1.3h0Z"/>
        <path class="st0" d="M500.5,494l-5.1,17.9-17.9,5.1c-.6.2-1.1.6-1.3,1.3-.3,1,.3,2,1.3,2.3l17.9,5.1,5.1,17.9c.2.6.6,1.1,1.3,1.3,1,.3,2-.3,2.3-1.3l5.1-17.9,17.9-5.1c.6-.2,1.1-.6,1.3-1.3.3-1-.3-2-1.3-2.3l-17.9-5.1-5.1-17.9c-.2-.6-.6-1.1-1.3-1.3-1-.3-2,.3-2.3,1.3h0Z"/>
        <path class="st0" d="M817.9,494l-5.1,17.9-17.9,5.1c-.6.2-1.1.6-1.3,1.3-.3,1,.3,2,1.3,2.3l17.9,5.1,5.1,17.9c.2.6.6,1.1,1.3,1.3,1,.3,2-.3,2.3-1.3l5.1-17.9,17.9-5.1c.6-.2,1.1-.6,1.3-1.3.3-1-.3-2-1.3-2.3l-17.9-5.1-5.1-17.9c-.2-.6-.6-1.1-1.3-1.3-1-.3-2,.3-2.3,1.3h0Z"/>
        <path class="st0" d="M500.5,807.2l-5.1,17.9-17.9,5.1c-.6.2-1.1.6-1.3,1.3-.3,1,.3,2,1.3,2.3l17.9,5.1,5.1,17.9c.2.6.6,1.1,1.3,1.3,1,.3,2-.3,2.3-1.3l5.1-17.9,17.9-5.1c.6-.2,1.1-.6,1.3-1.3.3-1-.3-2-1.3-2.3l-17.9-5.1-5.1-17.9c-.2-.6-.6-1.1-1.3-1.3-1-.3-2,.3-2.3,1.3h0Z"/>
        <path class="st0" d="M817.9,807.2l-5.1,17.9-17.9,5.1c-.6.2-1.1.6-1.3,1.3-.3,1,.3,2,1.3,2.3l17.9,5.1,5.1,17.9c.2.6.6,1.1,1.3,1.3,1,.3,2-.3,2.3-1.3l5.1-17.9,17.9-5.1c.6-.2,1.1-.6,1.3-1.3.3-1-.3-2-1.3-2.3l-17.9-5.1-5.1-17.9c-.2-.6-.6-1.1-1.3-1.3-1-.3-2,.3-2.3,1.3h0Z"/>
        <path class="st0" d="M394.7,441.7l-5.1,17.9-17.9,5.1c-.6.2-1.1.6-1.3,1.3-.3,1,.3,2,1.3,2.3l17.9,5.1,5.1,17.9c.2.6.6,1.1,1.3,1.3,1,.3,2-.3,2.3-1.3l5.1-17.9,17.9-5.1c.6-.2,1.1-.6,1.3-1.3.3-1-.3-2-1.3-2.3l-17.9-5.1-5.1-17.9c-.2-.6-.6-1.1-1.3-1.3-1-.3-2,.3-2.3,1.3h0Z"/>
        <path class="st0" d="M341.8,441.7l-5.1,17.9-17.9,5.1c-.6.2-1.1.6-1.3,1.3-.3,1,.3,2,1.3,2.3l17.9,5.1,5.1,17.9c.2.6.6,1.1,1.3,1.3,1,.3,2-.3,2.3-1.3l5.1-17.9,17.9-5.1c.6-.2,1.1-.6,1.3-1.3.3-1-.3-2-1.3-2.3l-17.9-5.1-5.1-17.9c-.2-.6-.6-1.1-1.3-1.3-1-.3-2,.3-2.3,1.3h0Z"/>
        <path class="st0" d="M288.9,441.7l-5.1,17.9-17.9,5.1c-.6.2-1.1.6-1.3,1.3-.3,1,.3,2,1.3,2.3l17.9,5.1,5.1,17.9c.2.6.6,1.1,1.3,1.3,1,.3,2-.3,2.3-1.3l5.1-17.9,17.9-5.1c.6-.2,1.1-.6,1.3-1.3.3-1-.3-2-1.3-2.3l-17.9-5.1-5.1-17.9c-.2-.6-.6-1.1-1.3-1.3-1-.3-2,.3-2.3,1.3h0Z"/>
        <path class="st0" d="M236,441.7l-5.1,17.9-17.9,5.1c-.6.2-1.1.6-1.3,1.3-.3,1,.3,2,1.3,2.3l17.9,5.1,5.1,17.9c.2.6.6,1.1,1.3,1.3,1,.3,2-.3,2.3-1.3l5.1-17.9,17.9-5.1c.6-.2,1.1-.6,1.3-1.3.3-1-.3-2-1.3-2.3l-17.9-5.1-5.1-17.9c-.2-.6-.6-1.1-1.3-1.3-1-.3-2,.3-2.3,1.3h0Z"/>
        <path class="st0" d="M870.8,389.5l-5.1,17.9-17.9,5.1c-.6.2-1.1.6-1.3,1.3-.3,1,.3,2,1.3,2.3l17.9,5.1,5.1,17.9c.2.6.6,1.1,1.3,1.3,1,.3,2-.3,2.3-1.3l5.1-17.9,17.9-5.1c.6-.2,1.1-.6,1.3-1.3.3-1-.3-2-1.3-2.3l-17.9-5.1-5.1-17.9c-.2-.6-.6-1.1-1.3-1.3-1-.3-2,.3-2.3,1.3h0Z"/>
        <path class="st0" d="M817.9,389.5l-5.1,17.9-17.9,5.1c-.6.2-1.1.6-1.3,1.3-.3,1,.3,2,1.3,2.3l17.9,5.1,5.1,17.9c.2.6.6,1.1,1.3,1.3,1,.3,2-.3,2.3-1.3l5.1-17.9,17.9-5.1c.6-.2,1.1-.6,1.3-1.3.3-1-.3-2-1.3-2.3l-17.9-5.1-5.1-17.9c-.2-.6-.6-1.1-1.3-1.3-1-.3-2,.3-2.3,1.3h0Z"/>
        <path class="st0" d="M500.5,389.5l-5.1,17.9-17.9,5.1c-.6.2-1.1.6-1.3,1.3-.3,1,.3,2,1.3,2.3l17.9,5.1,5.1,17.9c.2.6.6,1.1,1.3,1.3,1,.3,2-.3,2.3-1.3l5.1-17.9,17.9-5.1c.6-.2,1.1-.6,1.3-1.3.3-1-.3-2-1.3-2.3l-17.9-5.1-5.1-17.9c-.2-.6-.6-1.1-1.3-1.3-1-.3-2,.3-2.3,1.3h0Z"/>
        <path class="st0" d="M447.6,389.5l-5.1,17.9-17.9,5.1c-.6.2-1.1.6-1.3,1.3-.3,1,.3,2,1.3,2.3l17.9,5.1,5.1,17.9c.2.6.6,1.1,1.3,1.3,1,.3,2-.3,2.3-1.3l5.1-17.9,17.9-5.1c.6-.2,1.1-.6,1.3-1.3.3-1-.3-2-1.3-2.3l-17.9-5.1-5.1-17.9c-.2-.6-.6-1.1-1.3-1.3-1-.3-2,.3-2.3,1.3h0Z"/>
        <path class="st0" d="M870.8,337.3l-5.1,17.9-17.9,5.1c-.6.2-1.1.6-1.3,1.3-.3,1,.3,2,1.3,2.3l17.9,5.1,5.1,17.9c.2.6.6,1.1,1.3,1.3,1,.3,2-.3,2.3-1.3l5.1-17.9,17.9-5.1c.6-.2,1.1-.6,1.3-1.3.3-1-.3-2-1.3-2.3l-17.9-5.1-5.1-17.9c-.2-.6-.6-1.1-1.3-1.3-1-.3-2,.3-2.3,1.3h0Z"/>
        <path class="st0" d="M712.1,337.3l-5.1,17.9-17.9,5.1c-.6.2-1.1.6-1.3,1.3-.3,1,.3,2,1.3,2.3l17.9,5.1,5.1,17.9c.2.6.6,1.1,1.3,1.3,1,.3,2-.3,2.3-1.3l5.1-17.9,17.9-5.1c.6-.2,1.1-.6,1.3-1.3.3-1-.3-2-1.3-2.3l-17.9-5.1-5.1-17.9c-.2-.6-.6-1.1-1.3-1.3-1-.3-2,.3-2.3,1.3h0Z"/>
        <path class="st0" d="M659.2,337.3l-5.1,17.9-17.9,5.1c-.6.2-1.1.6-1.3,1.3-.3,1,.3,2,1.3,2.3l17.9,5.1,5.1,17.9c.2.6.6,1.1,1.3,1.3,1,.3,2-.3,2.3-1.3l5.1-17.9,17.9-5.1c.6-.2,1.1-.6,1.3-1.3.3-1-.3-2-1.3-2.3l-17.9-5.1-5.1-17.9c-.2-.6-.6-1.1-1.3-1.3-1-.3-2,.3-2.3,1.3h0Z"/>
        <path class="st0" d="M606.3,337.3l-5.1,17.9-17.9,5.1c-.6.2-1.1.6-1.3,1.3-.3,1,.3,2,1.3,2.3l17.9,5.1,5.1,17.9c.2.6.6,1.1,1.3,1.3,1,.3,2-.3,2.3-1.3l5.1-17.9,17.9-5.1c.6-.2,1.1-.6,1.3-1.3.3-1-.3-2-1.3-2.3l-17.9-5.1-5.1-17.9c-.2-.6-.6-1.1-1.3-1.3-1-.3-2,.3-2.3,1.3h0Z"/>
        <path class="st0" d="M553.4,337.3l-5.1,17.9-17.9,5.1c-.6.2-1.1.6-1.3,1.3-.3,1,.3,2,1.3,2.3l17.9,5.1,5.1,17.9c.2.6.6,1.1,1.3,1.3,1,.3,2-.3,2.3-1.3l5.1-17.9,17.9-5.1c.6-.2,1.1-.6,1.3-1.3.3-1-.3-2-1.3-2.3l-17.9-5.1-5.1-17.9c-.2-.6-.6-1.1-1.3-1.3-1-.3-2,.3-2.3,1.3h0Z"/>
        <path class="st0" d="M447.6,337.3l-5.1,17.9-17.9,5.1c-.6.2-1.1.6-1.3,1.3-.3,1,.3,2,1.3,2.3l17.9,5.1,5.1,17.9c.2.6.6,1.1,1.3,1.3,1,.3,2-.3,2.3-1.3l5.1-17.9,17.9-5.1c.6-.2,1.1-.6,1.3-1.3.3-1-.3-2-1.3-2.3l-17.9-5.1-5.1-17.9c-.2-.6-.6-1.1-1.3-1.3-1-.3-2,.3-2.3,1.3h0Z"/>
        <path class="st0" d="M870.8,285.1l-5.1,17.9-17.9,5.1c-.6.2-1.1.6-1.3,1.3-.3,1,.3,2,1.3,2.3l17.9,5.1,5.1,17.9c.2.6.6,1.1,1.3,1.3,1,.3,2-.3,2.3-1.3l5.1-17.9,17.9-5.1c.6-.2,1.1-.6,1.3-1.3.3-1-.3-2-1.3-2.3l-17.9-5.1-5.1-17.9c-.2-.6-.6-1.1-1.3-1.3-1-.3-2,.3-2.3,1.3h0Z"/>
        <path class="st0" d="M712.1,285.1l-5.1,17.9-17.9,5.1c-.6.2-1.1.6-1.3,1.3-.3,1,.3,2,1.3,2.3l17.9,5.1,5.1,17.9c.2.6.6,1.1,1.3,1.3,1,.3,2-.3,2.3-1.3l5.1-17.9,17.9-5.1c.6-.2,1.1-.6,1.3-1.3.3-1-.3-2-1.3-2.3l-17.9-5.1-5.1-17.9c-.2-.6-.6-1.1-1.3-1.3-1-.3-2,.3-2.3,1.3h0Z"/>
        <path class="st0" d="M659.2,285.1l-5.1,17.9-17.9,5.1c-.6.2-1.1.6-1.3,1.3-.3,1,.3,2,1.3,2.3l17.9,5.1,5.1,17.9c.2.6.6,1.1,1.3,1.3,1,.3,2-.3,2.3-1.3l5.1-17.9,17.9-5.1c.6-.2,1.1-.6,1.3-1.3.3-1-.3-2-1.3-2.3l-17.9-5.1-5.1-17.9c-.2-.6-.6-1.1-1.3-1.3-1-.3-2,.3-2.3,1.3h0Z"/>
        <path class="st0" d="M606.3,285.1l-5.1,17.9-17.9,5.1c-.6.2-1.1.6-1.3,1.3-.3,1,.3,2,1.3,2.3l17.9,5.1,5.1,17.9c.2.6.6,1.1,1.3,1.3,1,.3,2-.3,2.3-1.3l5.1-17.9,17.9-5.1c.6-.2,1.1-.6,1.3-1.3.3-1-.3-2-1.3-2.3l-17.9-5.1-5.1-17.9c-.2-.6-.6-1.1-1.3-1.3-1-.3-2,.3-2.3,1.3h0Z"/>
        <path class="st0" d="M447.6,285.1l-5.1,17.9-17.9,5.1c-.6.2-1.1.6-1.3,1.3-.3,1,.3,2,1.3,2.3l17.9,5.1,5.1,17.9c.2.6.6,1.1,1.3,1.3,1,.3,2-.3,2.3-1.3l5.1-17.9,17.9-5.1c.6-.2,1.1-.6,1.3-1.3.3-1-.3-2-1.3-2.3l-17.9-5.1-5.1-17.9c-.2-.6-.6-1.1-1.3-1.3-1-.3-2,.3-2.3,1.3h0Z"/>
        <path class="st0" d="M870.8,232.9l-5.1,17.9-17.9,5.1c-.6.2-1.1.6-1.3,1.3-.3,1,.3,2,1.3,2.3l17.9,5.1,5.1,17.9c.2.6.6,1.1,1.3,1.3,1,.3,2-.3,2.3-1.3l5.1-17.9,17.9-5.1c.6-.2,1.1-.6,1.3-1.3.3-1-.3-2-1.3-2.3l-17.9-5.1-5.1-17.9c-.2-.6-.6-1.1-1.3-1.3-1-.3-2,.3-2.3,1.3h0Z"/>
        <path class="st0" d="M817.9,232.9l-5.1,17.9-17.9,5.1c-.6.2-1.1.6-1.3,1.3-.3,1,.3,2,1.3,2.3l17.9,5.1,5.1,17.9c.2.6.6,1.1,1.3,1.3,1,.3,2-.3,2.3-1.3l5.1-17.9,17.9-5.1c.6-.2,1.1-.6,1.3-1.3.3-1-.3-2-1.3-2.3l-17.9-5.1-5.1-17.9c-.2-.6-.6-1.1-1.3-1.3-1-.3-2,.3-2.3,1.3h0Z"/>
        <path class="st0" d="M659.2,232.9l-5.1,17.9-17.9,5.1c-.6.2-1.1.6-1.3,1.3-.3,1,.3,2,1.3,2.3l17.9,5.1,5.1,17.9c.2.6.6,1.1,1.3,1.3,1,.3,2-.3,2.3-1.3l5.1-17.9,17.9-5.1c.6-.2,1.1-.6,1.3-1.3.3-1-.3-2-1.3-2.3l-17.9-5.1-5.1-17.9c-.2-.6-.6-1.1-1.3-1.3-1-.3-2,.3-2.3,1.3h0Z"/>
        <path class="st0" d="M500.5,232.9l-5.1,17.9-17.9,5.1c-.6.2-1.1.6-1.3,1.3-.3,1,.3,2,1.3,2.3l17.9,5.1,5.1,17.9c.2.6.6,1.1,1.3,1.3,1,.3,2-.3,2.3-1.3l5.1-17.9,17.9-5.1c.6-.2,1.1-.6,1.3-1.3.3-1-.3-2-1.3-2.3l-17.9-5.1-5.1-17.9c-.2-.6-.6-1.1-1.3-1.3-1-.3-2,.3-2.3,1.3h0Z"/>
        <path class="st0" d="M447.6,232.9l-5.1,17.9-17.9,5.1c-.6.2-1.1.6-1.3,1.3-.3,1,.3,2,1.3,2.3l17.9,5.1,5.1,17.9c.2.6.6,1.1,1.3,1.3,1,.3,2-.3,2.3-1.3l5.1-17.9,17.9-5.1c.6-.2,1.1-.6,1.3-1.3.3-1-.3-2-1.3-2.3l-17.9-5.1-5.1-17.9c-.2-.6-.6-1.1-1.3-1.3-1-.3-2,.3-2.3,1.3h0Z"/>
        <path class="st0" d="M817.9,180.7l-5.1,17.9-17.9,5.1c-.6.2-1.1.6-1.3,1.3-.3,1,.3,2,1.3,2.3l17.9,5.1,5.1,17.9c.2.6.6,1.1,1.3,1.3,1,.3,2-.3,2.3-1.3l5.1-17.9,17.9-5.1c.6-.2,1.1-.6,1.3-1.3.3-1-.3-2-1.3-2.3l-17.9-5.1-5.1-17.9c-.2-.6-.6-1.1-1.3-1.3-1-.3-2,.3-2.3,1.3h0Z"/>
        <path class="st0" d="M765,180.7l-5.1,17.9-17.9,5.1c-.6.2-1.1.6-1.3,1.3-.3,1,.3,2,1.3,2.3l17.9,5.1,5.1,17.9c.2.6.6,1.1,1.3,1.3,1,.3,2-.3,2.3-1.3l5.1-17.9,17.9-5.1c.6-.2,1.1-.6,1.3-1.3.3-1-.3-2-1.3-2.3l-17.9-5.1-5.1-17.9c-.2-.6-.6-1.1-1.3-1.3-1-.3-2,.3-2.3,1.3h0Z"/>
        <path class="st0" d="M553.4,180.7l-5.1,17.9-17.9,5.1c-.6.2-1.1.6-1.3,1.3-.3,1,.3,2,1.3,2.3l17.9,5.1,5.1,17.9c.2.6.6,1.1,1.3,1.3,1,.3,2-.3,2.3-1.3l5.1-17.9,17.9-5.1c.6-.2,1.1-.6,1.3-1.3.3-1-.3-2-1.3-2.3l-17.9-5.1-5.1-17.9c-.2-.6-.6-1.1-1.3-1.3-1-.3-2,.3-2.3,1.3h0Z"/>
        <path class="st0" d="M500.5,180.7l-5.1,17.9-17.9,5.1c-.6.2-1.1.6-1.3,1.3-.3,1,.3,2,1.3,2.3l17.9,5.1,5.1,17.9c.2.6.6,1.1,1.3,1.3,1,.3,2-.3,2.3-1.3l5.1-17.9,17.9-5.1c.6-.2,1.1-.6,1.3-1.3.3-1-.3-2-1.3-2.3l-17.9-5.1-5.1-17.9c-.2-.6-.6-1.1-1.3-1.3-1-.3-2,.3-2.3,1.3h0Z"/>
        <path class="st0" d="M765,128.5l-5.1,17.9-17.9,5.1c-.6.2-1.1.6-1.3,1.3-.3,1,.3,2,1.3,2.3l17.9,5.1,5.1,17.9c.2.6.6,1.1,1.3,1.3,1,.3,2-.3,2.3-1.3l5.1-17.9,17.9-5.1c.6-.2,1.1-.6,1.3-1.3.3-1-.3-2-1.3-2.3l-17.9-5.1-5.1-17.9c-.2-.6-.6-1.1-1.3-1.3-1-.3-2,.3-2.3,1.3h0Z"/>
        <path class="st0" d="M712.1,128.5l-5.1,17.9-17.9,5.1c-.6.2-1.1.6-1.3,1.3-.3,1,.3,2,1.3,2.3l17.9,5.1,5.1,17.9c.2.6.6,1.1,1.3,1.3,1,.3,2-.3,2.3-1.3l5.1-17.9,17.9-5.1c.6-.2,1.1-.6,1.3-1.3.3-1-.3-2-1.3-2.3l-17.9-5.1-5.1-17.9c-.2-.6-.6-1.1-1.3-1.3-1-.3-2,.3-2.3,1.3h0Z"/>
        <path class="st0" d="M606.3,128.5l-5.1,17.9-17.9,5.1c-.6.2-1.1.6-1.3,1.3-.3,1,.3,2,1.3,2.3l17.9,5.1,5.1,17.9c.2.6.6,1.1,1.3,1.3,1,.3,2-.3,2.3-1.3l5.1-17.9,17.9-5.1c.6-.2,1.1-.6,1.3-1.3.3-1-.3-2-1.3-2.3l-17.9-5.1-5.1-17.9c-.2-.6-.6-1.1-1.3-1.3-1-.3-2,.3-2.3,1.3h0Z"/>
        <path class="st0" d="M553.4,128.5l-5.1,17.9-17.9,5.1c-.6.2-1.1.6-1.3,1.3-.3,1,.3,2,1.3,2.3l17.9,5.1,5.1,17.9c.2.6.6,1.1,1.3,1.3,1,.3,2-.3,2.3-1.3l5.1-17.9,17.9-5.1c.6-.2,1.1-.6,1.3-1.3.3-1-.3-2-1.3-2.3l-17.9-5.1-5.1-17.9c-.2-.6-.6-1.1-1.3-1.3-1-.3-2,.3-2.3,1.3h0Z"/>
        <path class="st0" d="M712.1,76.2l-5.1,17.9-17.9,5.1c-.6.2-1.1.6-1.3,1.3-.3,1,.3,2,1.3,2.3l17.9,5.1,5.1,17.9c.2.6.6,1.1,1.3,1.3,1,.3,2-.3,2.3-1.3l5.1-17.9,17.9-5.1c.6-.2,1.1-.6,1.3-1.3.3-1-.3-2-1.3-2.3l-17.9-5.1-5.1-17.9c-.2-.6-.6-1.1-1.3-1.3-1-.3-2,.3-2.3,1.3h0Z"/>
        <path class="st0" d="M659.2,76.2l-5.1,17.9-17.9,5.1c-.6.2-1.1.6-1.3,1.3-.3,1,.3,2,1.3,2.3l17.9,5.1,5.1,17.9c.2.6.6,1.1,1.3,1.3,1,.3,2-.3,2.3-1.3l5.1-17.9,17.9-5.1c.6-.2,1.1-.6,1.3-1.3.3-1-.3-2-1.3-2.3l-17.9-5.1-5.1-17.9c-.2-.6-.6-1.1-1.3-1.3-1-.3-2,.3-2.3,1.3h0Z"/>
        <path class="st0" d="M606.3,76.2l-5.1,17.9-17.9,5.1c-.6.2-1.1.6-1.3,1.3-.3,1,.3,2,1.3,2.3l17.9,5.1,5.1,17.9c.2.6.6,1.1,1.3,1.3,1,.3,2-.3,2.3-1.3l5.1-17.9,17.9-5.1c.6-.2,1.1-.6,1.3-1.3.3-1-.3-2-1.3-2.3l-17.9-5.1-5.1-17.9c-.2-.6-.6-1.1-1.3-1.3-1-.3-2,.3-2.3,1.3h0Z"/>
        <path class="st0" d="M659.2,24l-5.1,17.9-17.9,5.1c-.6.2-1.1.6-1.3,1.3-.3,1,.3,2,1.3,2.3l17.9,5.1,5.1,17.9c.2.6.6,1.1,1.3,1.3,1,.3,2-.3,2.3-1.3l5.1-17.9,17.9-5.1c.6-.2,1.1-.6,1.3-1.3.3-1-.3-2-1.3-2.3l-17.9-5.1-5.1-17.9c-.2-.6-.6-1.1-1.3-1.3-1-.3-2,.3-2.3,1.3h0Z"/>
      </g>
    </g>
  </g>
</svg>