<?xml version="1.0" encoding="UTF-8"?>
<svg id="Layer_2" xmlns="http://www.w3.org/2000/svg" version="1.1" viewBox="0 0 2198.8 2166.9">
  <!-- Generator: Adobe Illustrator 30.1.0, SVG Export Plug-In . SVG Version: 2.1.1 Build 136)  -->
  <defs>
    <style>
      .st0 {
        fill: #fff;
      }
    </style>
  </defs>
  <g id="Layer_1-2">
    <g>
      <g>
        <path class="st0" d="M662.7,2116c-.3-1-1.3-1.6-2.3-1.3-.7.2-1.1.7-1.3,1.3l-5.1,17.9-17.9,5.1c-1,.3-1.6,1.3-1.3,2.3.2.7.7,1.1,1.3,1.3l17.9,5.1,5.1,17.9c.3,1,1.3,1.6,2.3,1.3.7-.2,1.1-.7,1.3-1.3l5.1-17.9,17.9-5.1c1-.3,1.6-1.3,1.3-2.3-.2-.7-.7-1.1-1.3-1.3l-17.9-5.1-5.1-17.9h0Z"/>
        <path class="st0" d="M609.8,2063.8c-.3-1-1.3-1.6-2.3-1.3-.7.2-1.1.7-1.3,1.3l-5.1,17.9-17.9,5.1c-1,.3-1.6,1.3-1.3,2.3.2.7.7,1.1,1.3,1.3l17.9,5.1,5.1,17.9c.3,1,1.3,1.6,2.3,1.3.7-.2,1.1-.7,1.3-1.3l5.1-17.9,17.9-5.1c1-.3,1.6-1.3,1.3-2.3-.2-.7-.7-1.1-1.3-1.3l-17.9-5.1-5.1-17.9h0Z"/>
        <path class="st0" d="M662.7,2063.8c-.3-1-1.3-1.6-2.3-1.3-.7.2-1.1.7-1.3,1.3l-5.1,17.9-17.9,5.1c-1,.3-1.6,1.3-1.3,2.3.2.7.7,1.1,1.3,1.3l17.9,5.1,5.1,17.9c.3,1,1.3,1.6,2.3,1.3.7-.2,1.1-.7,1.3-1.3l5.1-17.9,17.9-5.1c1-.3,1.6-1.3,1.3-2.3-.2-.7-.7-1.1-1.3-1.3l-17.9-5.1-5.1-17.9h0Z"/>
        <path class="st0" d="M715.6,2063.8c-.3-1-1.3-1.6-2.3-1.3-.7.2-1.1.7-1.3,1.3l-5.1,17.9-17.9,5.1c-1,.3-1.6,1.3-1.3,2.3.2.7.7,1.1,1.3,1.3l17.9,5.1,5.1,17.9c.3,1,1.3,1.6,2.3,1.3.7-.2,1.1-.7,1.3-1.3l5.1-17.9,17.9-5.1c1-.3,1.6-1.3,1.3-2.3-.2-.7-.7-1.1-1.3-1.3l-17.9-5.1-5.1-17.9h0Z"/>
        <path class="st0" d="M556.9,2011.6h0c-.3-1-1.3-1.6-2.3-1.3-.7.2-1.1.7-1.3,1.3l-5.1,17.9-17.9,5.1c-1,.3-1.6,1.3-1.3,2.3.2.7.7,1.1,1.3,1.3l17.9,5.1,5.1,17.9c.3,1,1.3,1.6,2.3,1.3.7-.2,1.1-.7,1.3-1.3l5.1-17.9,17.9-5.1c1-.3,1.6-1.3,1.3-2.3-.2-.7-.7-1.1-1.3-1.3l-17.9-5.1-5.1-17.9h0Z"/>
        <path class="st0" d="M609.8,2011.6h0c-.3-1-1.3-1.6-2.3-1.3-.7.2-1.1.7-1.3,1.3l-5.1,17.9-17.9,5.1c-1,.3-1.6,1.3-1.3,2.3.2.7.7,1.1,1.3,1.3l17.9,5.1,5.1,17.9c.3,1,1.3,1.6,2.3,1.3.7-.2,1.1-.7,1.3-1.3l5.1-17.9,17.9-5.1c1-.3,1.6-1.3,1.3-2.3-.2-.7-.7-1.1-1.3-1.3l-17.9-5.1-5.1-17.9h0Z"/>
        <path class="st0" d="M715.6,2011.6h0c-.3-1-1.3-1.6-2.3-1.3-.7.2-1.1.7-1.3,1.3l-5.1,17.9-17.9,5.1c-1,.3-1.6,1.3-1.3,2.3.2.7.7,1.1,1.3,1.3l17.9,5.1,5.1,17.9c.3,1,1.3,1.6,2.3,1.3.7-.2,1.1-.7,1.3-1.3l5.1-17.9,17.9-5.1c1-.3,1.6-1.3,1.3-2.3-.2-.7-.7-1.1-1.3-1.3l-17.9-5.1-5.1-17.9h0Z"/>
        <path class="st0" d="M768.5,2011.6h0c-.3-1-1.3-1.6-2.3-1.3-.7.2-1.1.7-1.3,1.3l-5.1,17.9-17.9,5.1c-1,.3-1.6,1.3-1.3,2.3.2.7.7,1.1,1.3,1.3l17.9,5.1,5.1,17.9c.3,1,1.3,1.6,2.3,1.3.7-.2,1.1-.7,1.3-1.3l5.1-17.9,17.9-5.1c1-.3,1.6-1.3,1.3-2.3-.2-.7-.7-1.1-1.3-1.3l-17.9-5.1-5.1-17.9h0Z"/>
        <path class="st0" d="M504,1959.4c-.3-1-1.3-1.6-2.3-1.3-.7.2-1.1.7-1.3,1.3l-5.1,17.9-17.9,5.1c-1,.3-1.6,1.3-1.3,2.3.2.7.7,1.1,1.3,1.3l17.9,5.1,5.1,17.9c.3,1,1.3,1.6,2.3,1.3.7-.2,1.1-.7,1.3-1.3l5.1-17.9,17.9-5.1c1-.3,1.6-1.3,1.3-2.3-.2-.7-.7-1.1-1.3-1.3l-17.9-5.1-5.1-17.9h0Z"/>
        <path class="st0" d="M556.9,1959.4c-.3-1-1.3-1.6-2.3-1.3-.7.2-1.1.7-1.3,1.3l-5.1,17.9-17.9,5.1c-1,.3-1.6,1.3-1.3,2.3.2.7.7,1.1,1.3,1.3l17.9,5.1,5.1,17.9c.3,1,1.3,1.6,2.3,1.3.7-.2,1.1-.7,1.3-1.3l5.1-17.9,17.9-5.1c1-.3,1.6-1.3,1.3-2.3-.2-.7-.7-1.1-1.3-1.3l-17.9-5.1-5.1-17.9h0Z"/>
        <path class="st0" d="M768.5,1959.4c-.3-1-1.3-1.6-2.3-1.3-.7.2-1.1.7-1.3,1.3l-5.1,17.9-17.9,5.1c-1,.3-1.6,1.3-1.3,2.3.2.7.7,1.1,1.3,1.3l17.9,5.1,5.1,17.9c.3,1,1.3,1.6,2.3,1.3.7-.2,1.1-.7,1.3-1.3l5.1-17.9,17.9-5.1c1-.3,1.6-1.3,1.3-2.3-.2-.7-.7-1.1-1.3-1.3l-17.9-5.1-5.1-17.9h0Z"/>
        <path class="st0" d="M821.4,1959.4c-.3-1-1.3-1.6-2.3-1.3-.7.2-1.1.7-1.3,1.3l-5.1,17.9-17.9,5.1c-1,.3-1.6,1.3-1.3,2.3.2.7.7,1.1,1.3,1.3l17.9,5.1,5.1,17.9c.3,1,1.3,1.6,2.3,1.3.7-.2,1.1-.7,1.3-1.3l5.1-17.9,17.9-5.1c1-.3,1.6-1.3,1.3-2.3-.2-.7-.7-1.1-1.3-1.3l-17.9-5.1-5.1-17.9h0Z"/>
        <path class="st0" d="M451.1,1907.2c-.3-1-1.3-1.6-2.3-1.3-.7.2-1.1.7-1.3,1.3l-5.1,17.9-17.9,5.1c-1,.3-1.6,1.3-1.3,2.3.2.7.7,1.1,1.3,1.3l17.9,5.1,5.1,17.9c.3,1,1.3,1.6,2.3,1.3.7-.2,1.1-.7,1.3-1.3l5.1-17.9,17.9-5.1c1-.3,1.6-1.3,1.3-2.3-.2-.7-.7-1.1-1.3-1.3l-17.9-5.1-5.1-17.9h0Z"/>
        <path class="st0" d="M504,1907.2c-.3-1-1.3-1.6-2.3-1.3-.7.2-1.1.7-1.3,1.3l-5.1,17.9-17.9,5.1c-1,.3-1.6,1.3-1.3,2.3.2.7.7,1.1,1.3,1.3l17.9,5.1,5.1,17.9c.3,1,1.3,1.6,2.3,1.3.7-.2,1.1-.7,1.3-1.3l5.1-17.9,17.9-5.1c1-.3,1.6-1.3,1.3-2.3-.2-.7-.7-1.1-1.3-1.3l-17.9-5.1-5.1-17.9h0Z"/>
        <path class="st0" d="M662.7,1907.2c-.3-1-1.3-1.6-2.3-1.3-.7.2-1.1.7-1.3,1.3l-5.1,17.9-17.9,5.1c-1,.3-1.6,1.3-1.3,2.3.2.7.7,1.1,1.3,1.3l17.9,5.1,5.1,17.9c.3,1,1.3,1.6,2.3,1.3.7-.2,1.1-.7,1.3-1.3l5.1-17.9,17.9-5.1c1-.3,1.6-1.3,1.3-2.3-.2-.7-.7-1.1-1.3-1.3l-17.9-5.1-5.1-17.9h0Z"/>
        <path class="st0" d="M821.4,1907.2c-.3-1-1.3-1.6-2.3-1.3-.7.2-1.1.7-1.3,1.3l-5.1,17.9-17.9,5.1c-1,.3-1.6,1.3-1.3,2.3.2.7.7,1.1,1.3,1.3l17.9,5.1,5.1,17.9c.3,1,1.3,1.6,2.3,1.3.7-.2,1.1-.7,1.3-1.3l5.1-17.9,17.9-5.1c1-.3,1.6-1.3,1.3-2.3-.2-.7-.7-1.1-1.3-1.3l-17.9-5.1-5.1-17.9h0Z"/>
        <path class="st0" d="M874.3,1907.2c-.3-1-1.3-1.6-2.3-1.3-.7.2-1.1.7-1.3,1.3l-5.1,17.9-17.9,5.1c-1,.3-1.6,1.3-1.3,2.3.2.7.7,1.1,1.3,1.3l17.9,5.1,5.1,17.9c.3,1,1.3,1.6,2.3,1.3.7-.2,1.1-.7,1.3-1.3l5.1-17.9,17.9-5.1c1-.3,1.6-1.3,1.3-2.3-.2-.7-.7-1.1-1.3-1.3l-17.9-5.1-5.1-17.9h0Z"/>
        <path class="st0" d="M451.1,1854.9c-.3-1-1.3-1.6-2.3-1.3-.7.2-1.1.7-1.3,1.3l-5.1,17.9-17.9,5.1c-1,.3-1.6,1.3-1.3,2.3.2.7.7,1.1,1.3,1.3l17.9,5.1,5.1,17.9c.3,1,1.3,1.6,2.3,1.3.7-.2,1.1-.7,1.3-1.3l5.1-17.9,17.9-5.1c1-.3,1.6-1.3,1.3-2.3-.2-.7-.7-1.1-1.3-1.3l-17.9-5.1-5.1-17.9h0Z"/>
        <path class="st0" d="M609.8,1854.9c-.3-1-1.3-1.6-2.3-1.3-.7.2-1.1.7-1.3,1.3l-5.1,17.9-17.9,5.1c-1,.3-1.6,1.3-1.3,2.3.2.7.7,1.1,1.3,1.3l17.9,5.1,5.1,17.9c.3,1,1.3,1.6,2.3,1.3.7-.2,1.1-.7,1.3-1.3l5.1-17.9,17.9-5.1c1-.3,1.6-1.3,1.3-2.3-.2-.7-.7-1.1-1.3-1.3l-17.9-5.1-5.1-17.9h0Z"/>
        <path class="st0" d="M662.7,1854.9c-.3-1-1.3-1.6-2.3-1.3-.7.2-1.1.7-1.3,1.3l-5.1,17.9-17.9,5.1c-1,.3-1.6,1.3-1.3,2.3.2.7.7,1.1,1.3,1.3l17.9,5.1,5.1,17.9c.3,1,1.3,1.6,2.3,1.3.7-.2,1.1-.7,1.3-1.3l5.1-17.9,17.9-5.1c1-.3,1.6-1.3,1.3-2.3-.2-.7-.7-1.1-1.3-1.3l-17.9-5.1-5.1-17.9h0Z"/>
        <path class="st0" d="M715.6,1854.9c-.3-1-1.3-1.6-2.3-1.3-.7.2-1.1.7-1.3,1.3l-5.1,17.9-17.9,5.1c-1,.3-1.6,1.3-1.3,2.3.2.7.7,1.1,1.3,1.3l17.9,5.1,5.1,17.9c.3,1,1.3,1.6,2.3,1.3.7-.2,1.1-.7,1.3-1.3l5.1-17.9,17.9-5.1c1-.3,1.6-1.3,1.3-2.3-.2-.7-.7-1.1-1.3-1.3l-17.9-5.1-5.1-17.9h0Z"/>
        <path class="st0" d="M874.3,1854.9c-.3-1-1.3-1.6-2.3-1.3-.7.2-1.1.7-1.3,1.3l-5.1,17.9-17.9,5.1c-1,.3-1.6,1.3-1.3,2.3.2.7.7,1.1,1.3,1.3l17.9,5.1,5.1,17.9c.3,1,1.3,1.6,2.3,1.3.7-.2,1.1-.7,1.3-1.3l5.1-17.9,17.9-5.1c1-.3,1.6-1.3,1.3-2.3-.2-.7-.7-1.1-1.3-1.3l-17.9-5.1-5.1-17.9h0Z"/>
        <path class="st0" d="M451.1,1802.7c-.3-1-1.3-1.6-2.3-1.3-.7.2-1.1.7-1.3,1.3l-5.1,17.9-17.9,5.1c-1,.3-1.6,1.3-1.3,2.3.2.7.7,1.1,1.3,1.3l17.9,5.1,5.1,17.9c.3,1,1.3,1.6,2.3,1.3.7-.2,1.1-.7,1.3-1.3l5.1-17.9,17.9-5.1c1-.3,1.6-1.3,1.3-2.3-.2-.7-.7-1.1-1.3-1.3l-17.9-5.1-5.1-17.9h0Z"/>
        <path class="st0" d="M556.9,1802.7c-.3-1-1.3-1.6-2.3-1.3-.7.2-1.1.7-1.3,1.3l-5.1,17.9-17.9,5.1c-1,.3-1.6,1.3-1.3,2.3.2.7.7,1.1,1.3,1.3l17.9,5.1,5.1,17.9c.3,1,1.3,1.6,2.3,1.3.7-.2,1.1-.7,1.3-1.3l5.1-17.9,17.9-5.1c1-.3,1.6-1.3,1.3-2.3-.2-.7-.7-1.1-1.3-1.3l-17.9-5.1-5.1-17.9h0Z"/>
        <path class="st0" d="M609.8,1802.7c-.3-1-1.3-1.6-2.3-1.3-.7.2-1.1.7-1.3,1.3l-5.1,17.9-17.9,5.1c-1,.3-1.6,1.3-1.3,2.3.2.7.7,1.1,1.3,1.3l17.9,5.1,5.1,17.9c.3,1,1.3,1.6,2.3,1.3.7-.2,1.1-.7,1.3-1.3l5.1-17.9,17.9-5.1c1-.3,1.6-1.3,1.3-2.3-.2-.7-.7-1.1-1.3-1.3l-17.9-5.1-5.1-17.9h0Z"/>
        <path class="st0" d="M662.7,1802.7c-.3-1-1.3-1.6-2.3-1.3-.7.2-1.1.7-1.3,1.3l-5.1,17.9-17.9,5.1c-1,.3-1.6,1.3-1.3,2.3.2.7.7,1.1,1.3,1.3l17.9,5.1,5.1,17.9c.3,1,1.3,1.6,2.3,1.3.7-.2,1.1-.7,1.3-1.3l5.1-17.9,17.9-5.1c1-.3,1.6-1.3,1.3-2.3-.2-.7-.7-1.1-1.3-1.3l-17.9-5.1-5.1-17.9h0Z"/>
        <path class="st0" d="M715.6,1802.7c-.3-1-1.3-1.6-2.3-1.3-.7.2-1.1.7-1.3,1.3l-5.1,17.9-17.9,5.1c-1,.3-1.6,1.3-1.3,2.3.2.7.7,1.1,1.3,1.3l17.9,5.1,5.1,17.9c.3,1,1.3,1.6,2.3,1.3.7-.2,1.1-.7,1.3-1.3l5.1-17.9,17.9-5.1c1-.3,1.6-1.3,1.3-2.3-.2-.7-.7-1.1-1.3-1.3l-17.9-5.1-5.1-17.9h0Z"/>
        <path class="st0" d="M768.5,1802.7c-.3-1-1.3-1.6-2.3-1.3-.7.2-1.1.7-1.3,1.3l-5.1,17.9-17.9,5.1c-1,.3-1.6,1.3-1.3,2.3.2.7.7,1.1,1.3,1.3l17.9,5.1,5.1,17.9c.3,1,1.3,1.6,2.3,1.3.7-.2,1.1-.7,1.3-1.3l5.1-17.9,17.9-5.1c1-.3,1.6-1.3,1.3-2.3-.2-.7-.7-1.1-1.3-1.3l-17.9-5.1-5.1-17.9h0Z"/>
        <path class="st0" d="M874.3,1802.7c-.3-1-1.3-1.6-2.3-1.3-.7.2-1.1.7-1.3,1.3l-5.1,17.9-17.9,5.1c-1,.3-1.6,1.3-1.3,2.3.2.7.7,1.1,1.3,1.3l17.9,5.1,5.1,17.9c.3,1,1.3,1.6,2.3,1.3.7-.2,1.1-.7,1.3-1.3l5.1-17.9,17.9-5.1c1-.3,1.6-1.3,1.3-2.3-.2-.7-.7-1.1-1.3-1.3l-17.9-5.1-5.1-17.9h0Z"/>
        <path class="st0" d="M451.1,1750.5c-.3-1-1.3-1.6-2.3-1.3-.7.2-1.1.7-1.3,1.3l-5.1,17.9-17.9,5.1c-1,.3-1.6,1.3-1.3,2.3.2.7.7,1.1,1.3,1.3l17.9,5.1,5.1,17.9c.3,1,1.3,1.6,2.3,1.3.7-.2,1.1-.7,1.3-1.3l5.1-17.9,17.9-5.1c1-.3,1.6-1.3,1.3-2.3-.2-.7-.7-1.1-1.3-1.3l-17.9-5.1-5.1-17.9h0Z"/>
        <path class="st0" d="M504,1750.5c-.3-1-1.3-1.6-2.3-1.3-.7.2-1.1.7-1.3,1.3l-5.1,17.9-17.9,5.1c-1,.3-1.6,1.3-1.3,2.3.2.7.7,1.1,1.3,1.3l17.9,5.1,5.1,17.9c.3,1,1.3,1.6,2.3,1.3.7-.2,1.1-.7,1.3-1.3l5.1-17.9,17.9-5.1c1-.3,1.6-1.3,1.3-2.3-.2-.7-.7-1.1-1.3-1.3l-17.9-5.1-5.1-17.9h0Z"/>
        <path class="st0" d="M821.4,1750.5c-.3-1-1.3-1.6-2.3-1.3-.7.2-1.1.7-1.3,1.3l-5.1,17.9-17.9,5.1c-1,.3-1.6,1.3-1.3,2.3.2.7.7,1.1,1.3,1.3l17.9,5.1,5.1,17.9c.3,1,1.3,1.6,2.3,1.3.7-.2,1.1-.7,1.3-1.3l5.1-17.9,17.9-5.1c1-.3,1.6-1.3,1.3-2.3-.2-.7-.7-1.1-1.3-1.3l-17.9-5.1-5.1-17.9h0Z"/>
        <path class="st0" d="M874.3,1750.5c-.3-1-1.3-1.6-2.3-1.3-.7.2-1.1.7-1.3,1.3l-5.1,17.9-17.9,5.1c-1,.3-1.6,1.3-1.3,2.3.2.7.7,1.1,1.3,1.3l17.9,5.1,5.1,17.9c.3,1,1.3,1.6,2.3,1.3.7-.2,1.1-.7,1.3-1.3l5.1-17.9,17.9-5.1c1-.3,1.6-1.3,1.3-2.3-.2-.7-.7-1.1-1.3-1.3l-17.9-5.1-5.1-17.9h0Z"/>
        <path class="st0" d="M239.5,1698.3c-.3-1-1.3-1.6-2.3-1.3-.7.2-1.1.7-1.3,1.3l-5.1,17.9-17.9,5.1c-1,.3-1.6,1.3-1.3,2.3.2.7.7,1.1,1.3,1.3l17.9,5.1,5.1,17.9c.3,1,1.3,1.6,2.3,1.3.7-.2,1.1-.7,1.3-1.3l5.1-17.9,17.9-5.1c1-.3,1.6-1.3,1.3-2.3-.2-.7-.7-1.1-1.3-1.3l-17.9-5.1-5.1-17.9h0Z"/>
        <path class="st0" d="M292.4,1698.3c-.3-1-1.3-1.6-2.3-1.3-.7.2-1.1.7-1.3,1.3l-5.1,17.9-17.9,5.1c-1,.3-1.6,1.3-1.3,2.3.2.7.7,1.1,1.3,1.3l17.9,5.1,5.1,17.9c.3,1,1.3,1.6,2.3,1.3.7-.2,1.1-.7,1.3-1.3l5.1-17.9,17.9-5.1c1-.3,1.6-1.3,1.3-2.3-.2-.7-.7-1.1-1.3-1.3l-17.9-5.1-5.1-17.9h0Z"/>
        <path class="st0" d="M345.3,1698.3c-.3-1-1.3-1.6-2.3-1.3-.7.2-1.1.7-1.3,1.3l-5.1,17.9-17.9,5.1c-1,.3-1.6,1.3-1.3,2.3.2.7.7,1.1,1.3,1.3l17.9,5.1,5.1,17.9c.3,1,1.3,1.6,2.3,1.3.7-.2,1.1-.7,1.3-1.3l5.1-17.9,17.9-5.1c1-.3,1.6-1.3,1.3-2.3-.2-.7-.7-1.1-1.3-1.3l-17.9-5.1-5.1-17.9h0Z"/>
        <path class="st0" d="M398.2,1698.3c-.3-1-1.3-1.6-2.3-1.3-.7.2-1.1.7-1.3,1.3l-5.1,17.9-17.9,5.1c-1,.3-1.6,1.3-1.3,2.3.2.7.7,1.1,1.3,1.3l17.9,5.1,5.1,17.9c.3,1,1.3,1.6,2.3,1.3.7-.2,1.1-.7,1.3-1.3l5.1-17.9,17.9-5.1c1-.3,1.6-1.3,1.3-2.3-.2-.7-.7-1.1-1.3-1.3l-17.9-5.1-5.1-17.9h0Z"/>
        <path class="st0" d="M504,1698.3c-.3-1-1.3-1.6-2.3-1.3-.7.2-1.1.7-1.3,1.3l-5.1,17.9-17.9,5.1c-1,.3-1.6,1.3-1.3,2.3.2.7.7,1.1,1.3,1.3l17.9,5.1,5.1,17.9c.3,1,1.3,1.6,2.3,1.3.7-.2,1.1-.7,1.3-1.3l5.1-17.9,17.9-5.1c1-.3,1.6-1.3,1.3-2.3-.2-.7-.7-1.1-1.3-1.3l-17.9-5.1-5.1-17.9h0Z"/>
        <path class="st0" d="M927.2,1698.3c-.3-1-1.3-1.6-2.3-1.3-.7.2-1.1.7-1.3,1.3l-5.1,17.9-17.9,5.1c-1,.3-1.6,1.3-1.3,2.3.2.7.7,1.1,1.3,1.3l17.9,5.1,5.1,17.9c.3,1,1.3,1.6,2.3,1.3.7-.2,1.1-.7,1.3-1.3l5.1-17.9,17.9-5.1c1-.3,1.6-1.3,1.3-2.3-.2-.7-.7-1.1-1.3-1.3l-17.9-5.1-5.1-17.9h0Z"/>
        <path class="st0" d="M980.1,1698.3c-.3-1-1.3-1.6-2.3-1.3-.7.2-1.1.7-1.3,1.3l-5.1,17.9-17.9,5.1c-1,.3-1.6,1.3-1.3,2.3.2.7.7,1.1,1.3,1.3l17.9,5.1,5.1,17.9c.3,1,1.3,1.6,2.3,1.3.7-.2,1.1-.7,1.3-1.3l5.1-17.9,17.9-5.1c1-.3,1.6-1.3,1.3-2.3-.2-.7-.7-1.1-1.3-1.3l-17.9-5.1-5.1-17.9h0Z"/>
        <path class="st0" d="M1033,1698.3c-.3-1-1.3-1.6-2.3-1.3-.7.2-1.1.7-1.3,1.3l-5.1,17.9-17.9,5.1c-1,.3-1.6,1.3-1.3,2.3.2.7.7,1.1,1.3,1.3l17.9,5.1,5.1,17.9c.3,1,1.3,1.6,2.3,1.3.7-.2,1.1-.7,1.3-1.3l5.1-17.9,17.9-5.1c1-.3,1.6-1.3,1.3-2.3-.2-.7-.7-1.1-1.3-1.3l-17.9-5.1-5.1-17.9h0Z"/>
        <path class="st0" d="M1085.9,1698.3c-.3-1-1.3-1.6-2.3-1.3-.7.2-1.1.7-1.3,1.3l-5.1,17.9-17.9,5.1c-1,.3-1.6,1.3-1.3,2.3.2.7.7,1.1,1.3,1.3l17.9,5.1,5.1,17.9c.3,1,1.3,1.6,2.3,1.3.7-.2,1.1-.7,1.3-1.3l5.1-17.9,17.9-5.1c1-.3,1.6-1.3,1.3-2.3-.2-.7-.7-1.1-1.3-1.3l-17.9-5.1-5.1-17.9h0Z"/>
        <path class="st0" d="M186.6,1646.1c-.3-1-1.3-1.6-2.3-1.3-.7.2-1.1.7-1.3,1.3l-5.1,17.9-17.9,5.1c-1,.3-1.6,1.3-1.3,2.3.2.7.7,1.1,1.3,1.3l17.9,5.1,5.1,17.9c.3,1,1.3,1.6,2.3,1.3.7-.2,1.1-.7,1.3-1.3l5.1-17.9,17.9-5.1c1-.3,1.6-1.3,1.3-2.3-.2-.7-.7-1.1-1.3-1.3l-17.9-5.1-5.1-17.9h0Z"/>
        <path class="st0" d="M239.5,1646.1c-.3-1-1.3-1.6-2.3-1.3-.7.2-1.1.7-1.3,1.3l-5.1,17.9-17.9,5.1c-1,.3-1.6,1.3-1.3,2.3.2.7.7,1.1,1.3,1.3l17.9,5.1,5.1,17.9c.3,1,1.3,1.6,2.3,1.3.7-.2,1.1-.7,1.3-1.3l5.1-17.9,17.9-5.1c1-.3,1.6-1.3,1.3-2.3-.2-.7-.7-1.1-1.3-1.3l-17.9-5.1-5.1-17.9h0Z"/>
        <path class="st0" d="M398.2,1646.1c-.3-1-1.3-1.6-2.3-1.3-.7.2-1.1.7-1.3,1.3l-5.1,17.9-17.9,5.1c-1,.3-1.6,1.3-1.3,2.3.2.7.7,1.1,1.3,1.3l17.9,5.1,5.1,17.9c.3,1,1.3,1.6,2.3,1.3.7-.2,1.1-.7,1.3-1.3l5.1-17.9,17.9-5.1c1-.3,1.6-1.3,1.3-2.3-.2-.7-.7-1.1-1.3-1.3l-17.9-5.1-5.1-17.9h0Z"/>
        <path class="st0" d="M451.1,1646.1c-.3-1-1.3-1.6-2.3-1.3-.7.2-1.1.7-1.3,1.3l-5.1,17.9-17.9,5.1c-1,.3-1.6,1.3-1.3,2.3.2.7.7,1.1,1.3,1.3l17.9,5.1,5.1,17.9c.3,1,1.3,1.6,2.3,1.3.7-.2,1.1-.7,1.3-1.3l5.1-17.9,17.9-5.1c1-.3,1.6-1.3,1.3-2.3-.2-.7-.7-1.1-1.3-1.3l-17.9-5.1-5.1-17.9h0Z"/>
        <path class="st0" d="M874.3,1646.1c-.3-1-1.3-1.6-2.3-1.3-.7.2-1.1.7-1.3,1.3l-5.1,17.9-17.9,5.1c-1,.3-1.6,1.3-1.3,2.3.2.7.7,1.1,1.3,1.3l17.9,5.1,5.1,17.9c.3,1,1.3,1.6,2.3,1.3.7-.2,1.1-.7,1.3-1.3l5.1-17.9,17.9-5.1c1-.3,1.6-1.3,1.3-2.3-.2-.7-.7-1.1-1.3-1.3l-17.9-5.1-5.1-17.9h0Z"/>
        <path class="st0" d="M927.2,1646.1c-.3-1-1.3-1.6-2.3-1.3-.7.2-1.1.7-1.3,1.3l-5.1,17.9-17.9,5.1c-1,.3-1.6,1.3-1.3,2.3.2.7.7,1.1,1.3,1.3l17.9,5.1,5.1,17.9c.3,1,1.3,1.6,2.3,1.3.7-.2,1.1-.7,1.3-1.3l5.1-17.9,17.9-5.1c1-.3,1.6-1.3,1.3-2.3-.2-.7-.7-1.1-1.3-1.3l-17.9-5.1-5.1-17.9h0Z"/>
        <path class="st0" d="M1085.9,1646.1c-.3-1-1.3-1.6-2.3-1.3-.7.2-1.1.7-1.3,1.3l-5.1,17.9-17.9,5.1c-1,.3-1.6,1.3-1.3,2.3.2.7.7,1.1,1.3,1.3l17.9,5.1,5.1,17.9c.3,1,1.3,1.6,2.3,1.3.7-.2,1.1-.7,1.3-1.3l5.1-17.9,17.9-5.1c1-.3,1.6-1.3,1.3-2.3-.2-.7-.7-1.1-1.3-1.3l-17.9-5.1-5.1-17.9h0Z"/>
        <path class="st0" d="M1138.8,1646.1c-.3-1-1.3-1.6-2.3-1.3-.7.2-1.1.7-1.3,1.3l-5.1,17.9-17.9,5.1c-1,.3-1.6,1.3-1.3,2.3.2.7.7,1.1,1.3,1.3l17.9,5.1,5.1,17.9c.3,1,1.3,1.6,2.3,1.3.7-.2,1.1-.7,1.3-1.3l5.1-17.9,17.9-5.1c1-.3,1.6-1.3,1.3-2.3-.2-.7-.7-1.1-1.3-1.3l-17.9-5.1-5.1-17.9h0Z"/>
        <path class="st0" d="M133.7,1593.9c-.3-1-1.3-1.6-2.3-1.3-.7.2-1.1.7-1.3,1.3l-5.1,17.9-17.9,5.1c-1,.3-1.6,1.3-1.3,2.3.2.7.7,1.1,1.3,1.3l17.9,5.1,5.1,17.9c.3,1,1.3,1.6,2.3,1.3.7-.2,1.1-.7,1.3-1.3l5.1-17.9,17.9-5.1c1-.3,1.6-1.3,1.3-2.3-.2-.7-.7-1.1-1.3-1.3l-17.9-5.1-5.1-17.9h0Z"/>
        <path class="st0" d="M186.6,1593.9c-.3-1-1.3-1.6-2.3-1.3-.7.2-1.1.7-1.3,1.3l-5.1,17.9-17.9,5.1c-1,.3-1.6,1.3-1.3,2.3.2.7.7,1.1,1.3,1.3l17.9,5.1,5.1,17.9c.3,1,1.3,1.6,2.3,1.3.7-.2,1.1-.7,1.3-1.3l5.1-17.9,17.9-5.1c1-.3,1.6-1.3,1.3-2.3-.2-.7-.7-1.1-1.3-1.3l-17.9-5.1-5.1-17.9h0Z"/>
        <path class="st0" d="M980.1,1593.9c-.3-1-1.3-1.6-2.3-1.3-.7.2-1.1.7-1.3,1.3l-5.1,17.9-17.9,5.1c-1,.3-1.6,1.3-1.3,2.3.2.7.7,1.1,1.3,1.3l17.9,5.1,5.1,17.9c.3,1,1.3,1.6,2.3,1.3.7-.2,1.1-.7,1.3-1.3l5.1-17.9,17.9-5.1c1-.3,1.6-1.3,1.3-2.3-.2-.7-.7-1.1-1.3-1.3l-17.9-5.1-5.1-17.9h0Z"/>
        <path class="st0" d="M1138.8,1593.9c-.3-1-1.3-1.6-2.3-1.3-.7.2-1.1.7-1.3,1.3l-5.1,17.9-17.9,5.1c-1,.3-1.6,1.3-1.3,2.3.2.7.7,1.1,1.3,1.3l17.9,5.1,5.1,17.9c.3,1,1.3,1.6,2.3,1.3.7-.2,1.1-.7,1.3-1.3l5.1-17.9,17.9-5.1c1-.3,1.6-1.3,1.3-2.3-.2-.7-.7-1.1-1.3-1.3l-17.9-5.1-5.1-17.9h0Z"/>
        <path class="st0" d="M1191.7,1593.9c-.3-1-1.3-1.6-2.3-1.3-.7.2-1.1.7-1.3,1.3l-5.1,17.9-17.9,5.1c-1,.3-1.6,1.3-1.3,2.3.2.7.7,1.1,1.3,1.3l17.9,5.1,5.1,17.9c.3,1,1.3,1.6,2.3,1.3.7-.2,1.1-.7,1.3-1.3l5.1-17.9,17.9-5.1c1-.3,1.6-1.3,1.3-2.3-.2-.7-.7-1.1-1.3-1.3l-17.9-5.1-5.1-17.9h0Z"/>
        <path class="st0" d="M80.8,1541.7c-.3-1-1.3-1.6-2.3-1.3-.7.2-1.1.7-1.3,1.3l-5.1,17.9-17.9,5.1c-1,.3-1.6,1.3-1.3,2.3.2.7.7,1.1,1.3,1.3l17.9,5.1,5.1,17.9c.3,1,1.3,1.6,2.3,1.3.7-.2,1.1-.7,1.3-1.3l5.1-17.9,17.9-5.1c1-.3,1.6-1.3,1.3-2.3-.2-.7-.7-1.1-1.3-1.3l-17.9-5.1-5.1-17.9h0Z"/>
        <path class="st0" d="M133.7,1541.7c-.3-1-1.3-1.6-2.3-1.3-.7.2-1.1.7-1.3,1.3l-5.1,17.9-17.9,5.1c-1,.3-1.6,1.3-1.3,2.3.2.7.7,1.1,1.3,1.3l17.9,5.1,5.1,17.9c.3,1,1.3,1.6,2.3,1.3.7-.2,1.1-.7,1.3-1.3l5.1-17.9,17.9-5.1c1-.3,1.6-1.3,1.3-2.3-.2-.7-.7-1.1-1.3-1.3l-17.9-5.1-5.1-17.9h0Z"/>
        <path class="st0" d="M292.4,1541.7c-.3-1-1.3-1.6-2.3-1.3-.7.2-1.1.7-1.3,1.3l-5.1,17.9-17.9,5.1c-1,.3-1.6,1.3-1.3,2.3.2.7.7,1.1,1.3,1.3l17.9,5.1,5.1,17.9c.3,1,1.3,1.6,2.3,1.3.7-.2,1.1-.7,1.3-1.3l5.1-17.9,17.9-5.1c1-.3,1.6-1.3,1.3-2.3-.2-.7-.7-1.1-1.3-1.3l-17.9-5.1-5.1-17.9h0Z"/>
        <path class="st0" d="M345.3,1541.7c-.3-1-1.3-1.6-2.3-1.3-.7.2-1.1.7-1.3,1.3l-5.1,17.9-17.9,5.1c-1,.3-1.6,1.3-1.3,2.3.2.7.7,1.1,1.3,1.3l17.9,5.1,5.1,17.9c.3,1,1.3,1.6,2.3,1.3.7-.2,1.1-.7,1.3-1.3l5.1-17.9,17.9-5.1c1-.3,1.6-1.3,1.3-2.3-.2-.7-.7-1.1-1.3-1.3l-17.9-5.1-5.1-17.9h0Z"/>
        <path class="st0" d="M345.3,1593.9c-.3-1-1.3-1.6-2.3-1.3-.7.2-1.1.7-1.3,1.3l-5.1,17.9-17.9,5.1c-1,.3-1.6,1.3-1.3,2.3.2.7.7,1.1,1.3,1.3l17.9,5.1,5.1,17.9c.3,1,1.3,1.6,2.3,1.3.7-.2,1.1-.7,1.3-1.3l5.1-17.9,17.9-5.1c1-.3,1.6-1.3,1.3-2.3-.2-.7-.7-1.1-1.3-1.3l-17.9-5.1-5.1-17.9h0Z"/>
        <path class="st0" d="M980.1,1541.7c-.3-1-1.3-1.6-2.3-1.3-.7.2-1.1.7-1.3,1.3l-5.1,17.9-17.9,5.1c-1,.3-1.6,1.3-1.3,2.3.2.7.7,1.1,1.3,1.3l17.9,5.1,5.1,17.9c.3,1,1.3,1.6,2.3,1.3.7-.2,1.1-.7,1.3-1.3l5.1-17.9,17.9-5.1c1-.3,1.6-1.3,1.3-2.3-.2-.7-.7-1.1-1.3-1.3l-17.9-5.1-5.1-17.9h0Z"/>
        <path class="st0" d="M1033,1541.7c-.3-1-1.3-1.6-2.3-1.3-.7.2-1.1.7-1.3,1.3l-5.1,17.9-17.9,5.1c-1,.3-1.6,1.3-1.3,2.3.2.7.7,1.1,1.3,1.3l17.9,5.1,5.1,17.9c.3,1,1.3,1.6,2.3,1.3.7-.2,1.1-.7,1.3-1.3l5.1-17.9,17.9-5.1c1-.3,1.6-1.3,1.3-2.3-.2-.7-.7-1.1-1.3-1.3l-17.9-5.1-5.1-17.9h0Z"/>
        <path class="st0" d="M1191.7,1541.7c-.3-1-1.3-1.6-2.3-1.3-.7.2-1.1.7-1.3,1.3l-5.1,17.9-17.9,5.1c-1,.3-1.6,1.3-1.3,2.3.2.7.7,1.1,1.3,1.3l17.9,5.1,5.1,17.9c.3,1,1.3,1.6,2.3,1.3.7-.2,1.1-.7,1.3-1.3l5.1-17.9,17.9-5.1c1-.3,1.6-1.3,1.3-2.3-.2-.7-.7-1.1-1.3-1.3l-17.9-5.1-5.1-17.9h0Z"/>
        <path class="st0" d="M1244.6,1541.7c-.3-1-1.3-1.6-2.3-1.3-.7.2-1.1.7-1.3,1.3l-5.1,17.9-17.9,5.1c-1,.3-1.6,1.3-1.3,2.3.2.7.7,1.1,1.3,1.3l17.9,5.1,5.1,17.9c.3,1,1.3,1.6,2.3,1.3.7-.2,1.1-.7,1.3-1.3l5.1-17.9,17.9-5.1c1-.3,1.6-1.3,1.3-2.3-.2-.7-.7-1.1-1.3-1.3l-17.9-5.1-5.1-17.9h0Z"/>
        <path class="st0" d="M27.9,1489.4c-.3-1-1.3-1.6-2.3-1.3-.7.2-1.1.7-1.3,1.3l-5.1,17.9-17.9,5.1c-1,.3-1.6,1.3-1.3,2.3.2.7.7,1.1,1.3,1.3l17.9,5.1,5.1,17.9c.3,1,1.3,1.6,2.3,1.3.7-.2,1.1-.7,1.3-1.3l5.1-17.9,17.9-5.1c1-.3,1.6-1.3,1.3-2.3-.2-.7-.7-1.1-1.3-1.3l-17.9-5.1-5.1-17.9h0Z"/>
        <path class="st0" d="M80.8,1489.4c-.3-1-1.3-1.6-2.3-1.3-.7.2-1.1.7-1.3,1.3l-5.1,17.9-17.9,5.1c-1,.3-1.6,1.3-1.3,2.3.2.7.7,1.1,1.3,1.3l17.9,5.1,5.1,17.9c.3,1,1.3,1.6,2.3,1.3.7-.2,1.1-.7,1.3-1.3l5.1-17.9,17.9-5.1c1-.3,1.6-1.3,1.3-2.3-.2-.7-.7-1.1-1.3-1.3l-17.9-5.1-5.1-17.9h0Z"/>
        <path class="st0" d="M239.5,1489.4c-.3-1-1.3-1.6-2.3-1.3-.7.2-1.1.7-1.3,1.3l-5.1,17.9-17.9,5.1c-1,.3-1.6,1.3-1.3,2.3.2.7.7,1.1,1.3,1.3l17.9,5.1,5.1,17.9c.3,1,1.3,1.6,2.3,1.3.7-.2,1.1-.7,1.3-1.3l5.1-17.9,17.9-5.1c1-.3,1.6-1.3,1.3-2.3-.2-.7-.7-1.1-1.3-1.3l-17.9-5.1-5.1-17.9h0Z"/>
        <path class="st0" d="M292.4,1489.4c-.3-1-1.3-1.6-2.3-1.3-.7.2-1.1.7-1.3,1.3l-5.1,17.9-17.9,5.1c-1,.3-1.6,1.3-1.3,2.3.2.7.7,1.1,1.3,1.3l17.9,5.1,5.1,17.9c.3,1,1.3,1.6,2.3,1.3.7-.2,1.1-.7,1.3-1.3l5.1-17.9,17.9-5.1c1-.3,1.6-1.3,1.3-2.3-.2-.7-.7-1.1-1.3-1.3l-17.9-5.1-5.1-17.9h0Z"/>
        <path class="st0" d="M345.3,1489.4c-.3-1-1.3-1.6-2.3-1.3-.7.2-1.1.7-1.3,1.3l-5.1,17.9-17.9,5.1c-1,.3-1.6,1.3-1.3,2.3.2.7.7,1.1,1.3,1.3l17.9,5.1,5.1,17.9c.3,1,1.3,1.6,2.3,1.3.7-.2,1.1-.7,1.3-1.3l5.1-17.9,17.9-5.1c1-.3,1.6-1.3,1.3-2.3-.2-.7-.7-1.1-1.3-1.3l-17.9-5.1-5.1-17.9h0Z"/>
        <path class="st0" d="M980.1,1489.4c-.3-1-1.3-1.6-2.3-1.3-.7.2-1.1.7-1.3,1.3l-5.1,17.9-17.9,5.1c-1,.3-1.6,1.3-1.3,2.3.2.7.7,1.1,1.3,1.3l17.9,5.1,5.1,17.9c.3,1,1.3,1.6,2.3,1.3.7-.2,1.1-.7,1.3-1.3l5.1-17.9,17.9-5.1c1-.3,1.6-1.3,1.3-2.3-.2-.7-.7-1.1-1.3-1.3l-17.9-5.1-5.1-17.9h0Z"/>
        <path class="st0" d="M1033,1489.4c-.3-1-1.3-1.6-2.3-1.3-.7.2-1.1.7-1.3,1.3l-5.1,17.9-17.9,5.1c-1,.3-1.6,1.3-1.3,2.3.2.7.7,1.1,1.3,1.3l17.9,5.1,5.1,17.9c.3,1,1.3,1.6,2.3,1.3.7-.2,1.1-.7,1.3-1.3l5.1-17.9,17.9-5.1c1-.3,1.6-1.3,1.3-2.3-.2-.7-.7-1.1-1.3-1.3l-17.9-5.1-5.1-17.9h0Z"/>
        <path class="st0" d="M1085.9,1489.4c-.3-1-1.3-1.6-2.3-1.3-.7.2-1.1.7-1.3,1.3l-5.1,17.9-17.9,5.1c-1,.3-1.6,1.3-1.3,2.3.2.7.7,1.1,1.3,1.3l17.9,5.1,5.1,17.9c.3,1,1.3,1.6,2.3,1.3.7-.2,1.1-.7,1.3-1.3l5.1-17.9,17.9-5.1c1-.3,1.6-1.3,1.3-2.3-.2-.7-.7-1.1-1.3-1.3l-17.9-5.1-5.1-17.9h0Z"/>
        <path class="st0" d="M1244.6,1489.4c-.3-1-1.3-1.6-2.3-1.3-.7.2-1.1.7-1.3,1.3l-5.1,17.9-17.9,5.1c-1,.3-1.6,1.3-1.3,2.3.2.7.7,1.1,1.3,1.3l17.9,5.1,5.1,17.9c.3,1,1.3,1.6,2.3,1.3.7-.2,1.1-.7,1.3-1.3l5.1-17.9,17.9-5.1c1-.3,1.6-1.3,1.3-2.3-.2-.7-.7-1.1-1.3-1.3l-17.9-5.1-5.1-17.9h0Z"/>
        <path class="st0" d="M1297.5,1489.4c-.3-1-1.3-1.6-2.3-1.3-.7.2-1.1.7-1.3,1.3l-5.1,17.9-17.9,5.1c-1,.3-1.6,1.3-1.3,2.3.2.7.7,1.1,1.3,1.3l17.9,5.1,5.1,17.9c.3,1,1.3,1.6,2.3,1.3.7-.2,1.1-.7,1.3-1.3l5.1-17.9,17.9-5.1c1-.3,1.6-1.3,1.3-2.3-.2-.7-.7-1.1-1.3-1.3l-17.9-5.1-5.1-17.9h0Z"/>
        <path class="st0" d="M80.8,1437.2c-.3-1-1.3-1.6-2.3-1.3-.7.2-1.1.7-1.3,1.3l-5.1,17.9-17.9,5.1c-1,.3-1.6,1.3-1.3,2.3.2.7.7,1.1,1.3,1.3l17.9,5.1,5.1,17.9c.3,1,1.3,1.6,2.3,1.3.7-.2,1.1-.7,1.3-1.3l5.1-17.9,17.9-5.1c1-.3,1.6-1.3,1.3-2.3-.2-.7-.7-1.1-1.3-1.3l-17.9-5.1-5.1-17.9h0Z"/>
        <path class="st0" d="M133.7,1437.2c-.3-1-1.3-1.6-2.3-1.3-.7.2-1.1.7-1.3,1.3l-5.1,17.9-17.9,5.1c-1,.3-1.6,1.3-1.3,2.3.2.7.7,1.1,1.3,1.3l17.9,5.1,5.1,17.9c.3,1,1.3,1.6,2.3,1.3.7-.2,1.1-.7,1.3-1.3l5.1-17.9,17.9-5.1c1-.3,1.6-1.3,1.3-2.3-.2-.7-.7-1.1-1.3-1.3l-17.9-5.1-5.1-17.9h0Z"/>
        <path class="st0" d="M292.4,1437.2c-.3-1-1.3-1.6-2.3-1.3-.7.2-1.1.7-1.3,1.3l-5.1,17.9-17.9,5.1c-1,.3-1.6,1.3-1.3,2.3.2.7.7,1.1,1.3,1.3l17.9,5.1,5.1,17.9c.3,1,1.3,1.6,2.3,1.3.7-.2,1.1-.7,1.3-1.3l5.1-17.9,17.9-5.1c1-.3,1.6-1.3,1.3-2.3-.2-.7-.7-1.1-1.3-1.3l-17.9-5.1-5.1-17.9h0Z"/>
        <path class="st0" d="M345.3,1437.2c-.3-1-1.3-1.6-2.3-1.3-.7.2-1.1.7-1.3,1.3l-5.1,17.9-17.9,5.1c-1,.3-1.6,1.3-1.3,2.3.2.7.7,1.1,1.3,1.3l17.9,5.1,5.1,17.9c.3,1,1.3,1.6,2.3,1.3.7-.2,1.1-.7,1.3-1.3l5.1-17.9,17.9-5.1c1-.3,1.6-1.3,1.3-2.3-.2-.7-.7-1.1-1.3-1.3l-17.9-5.1-5.1-17.9h0Z"/>
        <path class="st0" d="M345.3,1385c-.3-1-1.3-1.6-2.3-1.3-.7.2-1.1.7-1.3,1.3l-5.1,17.9-17.9,5.1c-1,.3-1.6,1.3-1.3,2.3.2.7.7,1.1,1.3,1.3l17.9,5.1,5.1,17.9c.3,1,1.3,1.6,2.3,1.3.7-.2,1.1-.7,1.3-1.3l5.1-17.9,17.9-5.1c1-.3,1.6-1.3,1.3-2.3-.2-.7-.7-1.1-1.3-1.3l-17.9-5.1-5.1-17.9h0Z"/>
        <path class="st0" d="M980.1,1437.2c-.3-1-1.3-1.6-2.3-1.3-.7.2-1.1.7-1.3,1.3l-5.1,17.9-17.9,5.1c-1,.3-1.6,1.3-1.3,2.3.2.7.7,1.1,1.3,1.3l17.9,5.1,5.1,17.9c.3,1,1.3,1.6,2.3,1.3.7-.2,1.1-.7,1.3-1.3l5.1-17.9,17.9-5.1c1-.3,1.6-1.3,1.3-2.3-.2-.7-.7-1.1-1.3-1.3l-17.9-5.1-5.1-17.9h0Z"/>
        <path class="st0" d="M1033,1437.2c-.3-1-1.3-1.6-2.3-1.3-.7.2-1.1.7-1.3,1.3l-5.1,17.9-17.9,5.1c-1,.3-1.6,1.3-1.3,2.3.2.7.7,1.1,1.3,1.3l17.9,5.1,5.1,17.9c.3,1,1.3,1.6,2.3,1.3.7-.2,1.1-.7,1.3-1.3l5.1-17.9,17.9-5.1c1-.3,1.6-1.3,1.3-2.3-.2-.7-.7-1.1-1.3-1.3l-17.9-5.1-5.1-17.9h0Z"/>
        <path class="st0" d="M1191.7,1437.2c-.3-1-1.3-1.6-2.3-1.3-.7.2-1.1.7-1.3,1.3l-5.1,17.9-17.9,5.1c-1,.3-1.6,1.3-1.3,2.3.2.7.7,1.1,1.3,1.3l17.9,5.1,5.1,17.9c.3,1,1.3,1.6,2.3,1.3.7-.2,1.1-.7,1.3-1.3l5.1-17.9,17.9-5.1c1-.3,1.6-1.3,1.3-2.3-.2-.7-.7-1.1-1.3-1.3l-17.9-5.1-5.1-17.9h0Z"/>
        <path class="st0" d="M1244.6,1437.2c-.3-1-1.3-1.6-2.3-1.3-.7.2-1.1.7-1.3,1.3l-5.1,17.9-17.9,5.1c-1,.3-1.6,1.3-1.3,2.3.2.7.7,1.1,1.3,1.3l17.9,5.1,5.1,17.9c.3,1,1.3,1.6,2.3,1.3.7-.2,1.1-.7,1.3-1.3l5.1-17.9,17.9-5.1c1-.3,1.6-1.3,1.3-2.3-.2-.7-.7-1.1-1.3-1.3l-17.9-5.1-5.1-17.9h0Z"/>
        <path class="st0" d="M133.7,1385c-.3-1-1.3-1.6-2.3-1.3-.7.2-1.1.7-1.3,1.3l-5.1,17.9-17.9,5.1c-1,.3-1.6,1.3-1.3,2.3.2.7.7,1.1,1.3,1.3l17.9,5.1,5.1,17.9c.3,1,1.3,1.6,2.3,1.3.7-.2,1.1-.7,1.3-1.3l5.1-17.9,17.9-5.1c1-.3,1.6-1.3,1.3-2.3-.2-.7-.7-1.1-1.3-1.3l-17.9-5.1-5.1-17.9h0Z"/>
        <path class="st0" d="M186.6,1385c-.3-1-1.3-1.6-2.3-1.3-.7.2-1.1.7-1.3,1.3l-5.1,17.9-17.9,5.1c-1,.3-1.6,1.3-1.3,2.3.2.7.7,1.1,1.3,1.3l17.9,5.1,5.1,17.9c.3,1,1.3,1.6,2.3,1.3.7-.2,1.1-.7,1.3-1.3l5.1-17.9,17.9-5.1c1-.3,1.6-1.3,1.3-2.3-.2-.7-.7-1.1-1.3-1.3l-17.9-5.1-5.1-17.9h0Z"/>
        <path class="st0" d="M980.1,1385c-.3-1-1.3-1.6-2.3-1.3-.7.2-1.1.7-1.3,1.3l-5.1,17.9-17.9,5.1c-1,.3-1.6,1.3-1.3,2.3.2.7.7,1.1,1.3,1.3l17.9,5.1,5.1,17.9c.3,1,1.3,1.6,2.3,1.3.7-.2,1.1-.7,1.3-1.3l5.1-17.9,17.9-5.1c1-.3,1.6-1.3,1.3-2.3-.2-.7-.7-1.1-1.3-1.3l-17.9-5.1-5.1-17.9h0Z"/>
        <path class="st0" d="M1138.8,1385c-.3-1-1.3-1.6-2.3-1.3-.7.2-1.1.7-1.3,1.3l-5.1,17.9-17.9,5.1c-1,.3-1.6,1.3-1.3,2.3.2.7.7,1.1,1.3,1.3l17.9,5.1,5.1,17.9c.3,1,1.3,1.6,2.3,1.3.7-.2,1.1-.7,1.3-1.3l5.1-17.9,17.9-5.1c1-.3,1.6-1.3,1.3-2.3-.2-.7-.7-1.1-1.3-1.3l-17.9-5.1-5.1-17.9h0Z"/>
        <path class="st0" d="M1191.7,1385c-.3-1-1.3-1.6-2.3-1.3-.7.2-1.1.7-1.3,1.3l-5.1,17.9-17.9,5.1c-1,.3-1.6,1.3-1.3,2.3.2.7.7,1.1,1.3,1.3l17.9,5.1,5.1,17.9c.3,1,1.3,1.6,2.3,1.3.7-.2,1.1-.7,1.3-1.3l5.1-17.9,17.9-5.1c1-.3,1.6-1.3,1.3-2.3-.2-.7-.7-1.1-1.3-1.3l-17.9-5.1-5.1-17.9h0Z"/>
        <path class="st0" d="M186.6,1332.8c-.3-1-1.3-1.6-2.3-1.3-.7.2-1.1.7-1.3,1.3l-5.1,17.9-17.9,5.1c-1,.3-1.6,1.3-1.3,2.3.2.7.7,1.1,1.3,1.3l17.9,5.1,5.1,17.9c.3,1,1.3,1.6,2.3,1.3.7-.2,1.1-.7,1.3-1.3l5.1-17.9,17.9-5.1c1-.3,1.6-1.3,1.3-2.3-.2-.7-.7-1.1-1.3-1.3l-17.9-5.1-5.1-17.9h0Z"/>
        <path class="st0" d="M239.5,1332.8c-.3-1-1.3-1.6-2.3-1.3-.7.2-1.1.7-1.3,1.3l-5.1,17.9-17.9,5.1c-1,.3-1.6,1.3-1.3,2.3.2.7.7,1.1,1.3,1.3l17.9,5.1,5.1,17.9c.3,1,1.3,1.6,2.3,1.3.7-.2,1.1-.7,1.3-1.3l5.1-17.9,17.9-5.1c1-.3,1.6-1.3,1.3-2.3-.2-.7-.7-1.1-1.3-1.3l-17.9-5.1-5.1-17.9h0Z"/>
        <path class="st0" d="M398.2,1332.8c-.3-1-1.3-1.6-2.3-1.3-.7.2-1.1.7-1.3,1.3l-5.1,17.9-17.9,5.1c-1,.3-1.6,1.3-1.3,2.3.2.7.7,1.1,1.3,1.3l17.9,5.1,5.1,17.9c.3,1,1.3,1.6,2.3,1.3.7-.2,1.1-.7,1.3-1.3l5.1-17.9,17.9-5.1c1-.3,1.6-1.3,1.3-2.3-.2-.7-.7-1.1-1.3-1.3l-17.9-5.1-5.1-17.9h0Z"/>
        <path class="st0" d="M451.1,1332.8c-.3-1-1.3-1.6-2.3-1.3-.7.2-1.1.7-1.3,1.3l-5.1,17.9-17.9,5.1c-1,.3-1.6,1.3-1.3,2.3.2.7.7,1.1,1.3,1.3l17.9,5.1,5.1,17.9c.3,1,1.3,1.6,2.3,1.3.7-.2,1.1-.7,1.3-1.3l5.1-17.9,17.9-5.1c1-.3,1.6-1.3,1.3-2.3-.2-.7-.7-1.1-1.3-1.3l-17.9-5.1-5.1-17.9h0Z"/>
        <path class="st0" d="M874.3,1332.8c-.3-1-1.3-1.6-2.3-1.3-.7.2-1.1.7-1.3,1.3l-5.1,17.9-17.9,5.1c-1,.3-1.6,1.3-1.3,2.3.2.7.7,1.1,1.3,1.3l17.9,5.1,5.1,17.9c.3,1,1.3,1.6,2.3,1.3.7-.2,1.1-.7,1.3-1.3l5.1-17.9,17.9-5.1c1-.3,1.6-1.3,1.3-2.3-.2-.7-.7-1.1-1.3-1.3l-17.9-5.1-5.1-17.9h0Z"/>
        <path class="st0" d="M927.2,1332.8c-.3-1-1.3-1.6-2.3-1.3-.7.2-1.1.7-1.3,1.3l-5.1,17.9-17.9,5.1c-1,.3-1.6,1.3-1.3,2.3.2.7.7,1.1,1.3,1.3l17.9,5.1,5.1,17.9c.3,1,1.3,1.6,2.3,1.3.7-.2,1.1-.7,1.3-1.3l5.1-17.9,17.9-5.1c1-.3,1.6-1.3,1.3-2.3-.2-.7-.7-1.1-1.3-1.3l-17.9-5.1-5.1-17.9h0Z"/>
        <path class="st0" d="M1085.9,1332.8c-.3-1-1.3-1.6-2.3-1.3-.7.2-1.1.7-1.3,1.3l-5.1,17.9-17.9,5.1c-1,.3-1.6,1.3-1.3,2.3.2.7.7,1.1,1.3,1.3l17.9,5.1,5.1,17.9c.3,1,1.3,1.6,2.3,1.3.7-.2,1.1-.7,1.3-1.3l5.1-17.9,17.9-5.1c1-.3,1.6-1.3,1.3-2.3-.2-.7-.7-1.1-1.3-1.3l-17.9-5.1-5.1-17.9h0Z"/>
        <path class="st0" d="M1138.8,1332.8c-.3-1-1.3-1.6-2.3-1.3-.7.2-1.1.7-1.3,1.3l-5.1,17.9-17.9,5.1c-1,.3-1.6,1.3-1.3,2.3.2.7.7,1.1,1.3,1.3l17.9,5.1,5.1,17.9c.3,1,1.3,1.6,2.3,1.3.7-.2,1.1-.7,1.3-1.3l5.1-17.9,17.9-5.1c1-.3,1.6-1.3,1.3-2.3-.2-.7-.7-1.1-1.3-1.3l-17.9-5.1-5.1-17.9h0Z"/>
        <path class="st0" d="M239.5,1280.6c-.3-1-1.3-1.6-2.3-1.3-.7.2-1.1.7-1.3,1.3l-5.1,17.9-17.9,5.1c-1,.3-1.6,1.3-1.3,2.3.2.7.7,1.1,1.3,1.3l17.9,5.1,5.1,17.9c.3,1,1.3,1.6,2.3,1.3.7-.2,1.1-.7,1.3-1.3l5.1-17.9,17.9-5.1c1-.3,1.6-1.3,1.3-2.3-.2-.7-.7-1.1-1.3-1.3l-17.9-5.1-5.1-17.9h0Z"/>
        <path class="st0" d="M292.4,1280.6c-.3-1-1.3-1.6-2.3-1.3-.7.2-1.1.7-1.3,1.3l-5.1,17.9-17.9,5.1c-1,.3-1.6,1.3-1.3,2.3.2.7.7,1.1,1.3,1.3l17.9,5.1,5.1,17.9c.3,1,1.3,1.6,2.3,1.3.7-.2,1.1-.7,1.3-1.3l5.1-17.9,17.9-5.1c1-.3,1.6-1.3,1.3-2.3-.2-.7-.7-1.1-1.3-1.3l-17.9-5.1-5.1-17.9h0Z"/>
        <path class="st0" d="M345.3,1280.6c-.3-1-1.3-1.6-2.3-1.3-.7.2-1.1.7-1.3,1.3l-5.1,17.9-17.9,5.1c-1,.3-1.6,1.3-1.3,2.3.2.7.7,1.1,1.3,1.3l17.9,5.1,5.1,17.9c.3,1,1.3,1.6,2.3,1.3.7-.2,1.1-.7,1.3-1.3l5.1-17.9,17.9-5.1c1-.3,1.6-1.3,1.3-2.3-.2-.7-.7-1.1-1.3-1.3l-17.9-5.1-5.1-17.9h0Z"/>
        <path class="st0" d="M398.2,1280.6c-.3-1-1.3-1.6-2.3-1.3-.7.2-1.1.7-1.3,1.3l-5.1,17.9-17.9,5.1c-1,.3-1.6,1.3-1.3,2.3.2.7.7,1.1,1.3,1.3l17.9,5.1,5.1,17.9c.3,1,1.3,1.6,2.3,1.3.7-.2,1.1-.7,1.3-1.3l5.1-17.9,17.9-5.1c1-.3,1.6-1.3,1.3-2.3-.2-.7-.7-1.1-1.3-1.3l-17.9-5.1-5.1-17.9h0Z"/>
        <path class="st0" d="M504,1280.6c-.3-1-1.3-1.6-2.3-1.3-.7.2-1.1.7-1.3,1.3l-5.1,17.9-17.9,5.1c-1,.3-1.6,1.3-1.3,2.3.2.7.7,1.1,1.3,1.3l17.9,5.1,5.1,17.9c.3,1,1.3,1.6,2.3,1.3.7-.2,1.1-.7,1.3-1.3l5.1-17.9,17.9-5.1c1-.3,1.6-1.3,1.3-2.3-.2-.7-.7-1.1-1.3-1.3l-17.9-5.1-5.1-17.9h0Z"/>
        <path class="st0" d="M556.9,1176.2c-.3-1-1.3-1.6-2.3-1.3-.7.2-1.1.7-1.3,1.3l-5.1,17.9-17.9,5.1c-1,.3-1.6,1.3-1.3,2.3.2.7.7,1.1,1.3,1.3l17.9,5.1,5.1,17.9c.3,1,1.3,1.6,2.3,1.3.7-.2,1.1-.7,1.3-1.3l5.1-17.9,17.9-5.1c1-.3,1.6-1.3,1.3-2.3-.2-.7-.7-1.1-1.3-1.3l-17.9-5.1-5.1-17.9h0Z"/>
        <path class="st0" d="M821.4,1280.6c-.3-1-1.3-1.6-2.3-1.3-.7.2-1.1.7-1.3,1.3l-5.1,17.9-17.9,5.1c-1,.3-1.6,1.3-1.3,2.3.2.7.7,1.1,1.3,1.3l17.9,5.1,5.1,17.9c.3,1,1.3,1.6,2.3,1.3.7-.2,1.1-.7,1.3-1.3l5.1-17.9,17.9-5.1c1-.3,1.6-1.3,1.3-2.3-.2-.7-.7-1.1-1.3-1.3l-17.9-5.1-5.1-17.9h0Z"/>
        <path class="st0" d="M821.4,1332.8c-.3-1-1.3-1.6-2.3-1.3-.7.2-1.1.7-1.3,1.3l-5.1,17.9-17.9,5.1c-1,.3-1.6,1.3-1.3,2.3.2.7.7,1.1,1.3,1.3l17.9,5.1,5.1,17.9c.3,1,1.3,1.6,2.3,1.3.7-.2,1.1-.7,1.3-1.3l5.1-17.9,17.9-5.1c1-.3,1.6-1.3,1.3-2.3-.2-.7-.7-1.1-1.3-1.3l-17.9-5.1-5.1-17.9h0Z"/>
        <path class="st0" d="M504,1332.8c-.3-1-1.3-1.6-2.3-1.3-.7.2-1.1.7-1.3,1.3l-5.1,17.9-17.9,5.1c-1,.3-1.6,1.3-1.3,2.3.2.7.7,1.1,1.3,1.3l17.9,5.1,5.1,17.9c.3,1,1.3,1.6,2.3,1.3.7-.2,1.1-.7,1.3-1.3l5.1-17.9,17.9-5.1c1-.3,1.6-1.3,1.3-2.3-.2-.7-.7-1.1-1.3-1.3l-17.9-5.1-5.1-17.9h0Z"/>
        <path class="st0" d="M504,1646.1c-.3-1-1.3-1.6-2.3-1.3-.7.2-1.1.7-1.3,1.3l-5.1,17.9-17.9,5.1c-1,.3-1.6,1.3-1.3,2.3.2.7.7,1.1,1.3,1.3l17.9,5.1,5.1,17.9c.3,1,1.3,1.6,2.3,1.3.7-.2,1.1-.7,1.3-1.3l5.1-17.9,17.9-5.1c1-.3,1.6-1.3,1.3-2.3-.2-.7-.7-1.1-1.3-1.3l-17.9-5.1-5.1-17.9h0Z"/>
        <path class="st0" d="M927.2,1280.6c-.3-1-1.3-1.6-2.3-1.3-.7.2-1.1.7-1.3,1.3l-5.1,17.9-17.9,5.1c-1,.3-1.6,1.3-1.3,2.3.2.7.7,1.1,1.3,1.3l17.9,5.1,5.1,17.9c.3,1,1.3,1.6,2.3,1.3.7-.2,1.1-.7,1.3-1.3l5.1-17.9,17.9-5.1c1-.3,1.6-1.3,1.3-2.3-.2-.7-.7-1.1-1.3-1.3l-17.9-5.1-5.1-17.9h0Z"/>
        <path class="st0" d="M980.1,1280.6c-.3-1-1.3-1.6-2.3-1.3-.7.2-1.1.7-1.3,1.3l-5.1,17.9-17.9,5.1c-1,.3-1.6,1.3-1.3,2.3.2.7.7,1.1,1.3,1.3l17.9,5.1,5.1,17.9c.3,1,1.3,1.6,2.3,1.3.7-.2,1.1-.7,1.3-1.3l5.1-17.9,17.9-5.1c1-.3,1.6-1.3,1.3-2.3-.2-.7-.7-1.1-1.3-1.3l-17.9-5.1-5.1-17.9h0Z"/>
        <path class="st0" d="M1033,1280.6c-.3-1-1.3-1.6-2.3-1.3-.7.2-1.1.7-1.3,1.3l-5.1,17.9-17.9,5.1c-1,.3-1.6,1.3-1.3,2.3.2.7.7,1.1,1.3,1.3l17.9,5.1,5.1,17.9c.3,1,1.3,1.6,2.3,1.3.7-.2,1.1-.7,1.3-1.3l5.1-17.9,17.9-5.1c1-.3,1.6-1.3,1.3-2.3-.2-.7-.7-1.1-1.3-1.3l-17.9-5.1-5.1-17.9h0Z"/>
        <path class="st0" d="M1085.9,1280.6c-.3-1-1.3-1.6-2.3-1.3-.7.2-1.1.7-1.3,1.3l-5.1,17.9-17.9,5.1c-1,.3-1.6,1.3-1.3,2.3.2.7.7,1.1,1.3,1.3l17.9,5.1,5.1,17.9c.3,1,1.3,1.6,2.3,1.3.7-.2,1.1-.7,1.3-1.3l5.1-17.9,17.9-5.1c1-.3,1.6-1.3,1.3-2.3-.2-.7-.7-1.1-1.3-1.3l-17.9-5.1-5.1-17.9h0Z"/>
        <path class="st0" d="M451.1,1228.4c-.3-1-1.3-1.6-2.3-1.3-.7.2-1.1.7-1.3,1.3l-5.1,17.9-17.9,5.1c-1,.3-1.6,1.3-1.3,2.3.2.7.7,1.1,1.3,1.3l17.9,5.1,5.1,17.9c.3,1,1.3,1.6,2.3,1.3.7-.2,1.1-.7,1.3-1.3l5.1-17.9,17.9-5.1c1-.3,1.6-1.3,1.3-2.3-.2-.7-.7-1.1-1.3-1.3l-17.9-5.1-5.1-17.9h0Z"/>
        <path class="st0" d="M504,1228.4c-.3-1-1.3-1.6-2.3-1.3-.7.2-1.1.7-1.3,1.3l-5.1,17.9-17.9,5.1c-1,.3-1.6,1.3-1.3,2.3.2.7.7,1.1,1.3,1.3l17.9,5.1,5.1,17.9c.3,1,1.3,1.6,2.3,1.3.7-.2,1.1-.7,1.3-1.3l5.1-17.9,17.9-5.1c1-.3,1.6-1.3,1.3-2.3-.2-.7-.7-1.1-1.3-1.3l-17.9-5.1-5.1-17.9h0Z"/>
        <path class="st0" d="M821.4,1228.4c-.3-1-1.3-1.6-2.3-1.3-.7.2-1.1.7-1.3,1.3l-5.1,17.9-17.9,5.1c-1,.3-1.6,1.3-1.3,2.3.2.7.7,1.1,1.3,1.3l17.9,5.1,5.1,17.9c.3,1,1.3,1.6,2.3,1.3.7-.2,1.1-.7,1.3-1.3l5.1-17.9,17.9-5.1c1-.3,1.6-1.3,1.3-2.3-.2-.7-.7-1.1-1.3-1.3l-17.9-5.1-5.1-17.9h0Z"/>
        <path class="st0" d="M874.3,1228.4c-.3-1-1.3-1.6-2.3-1.3-.7.2-1.1.7-1.3,1.3l-5.1,17.9-17.9,5.1c-1,.3-1.6,1.3-1.3,2.3.2.7.7,1.1,1.3,1.3l17.9,5.1,5.1,17.9c.3,1,1.3,1.6,2.3,1.3.7-.2,1.1-.7,1.3-1.3l5.1-17.9,17.9-5.1c1-.3,1.6-1.3,1.3-2.3-.2-.7-.7-1.1-1.3-1.3l-17.9-5.1-5.1-17.9h0Z"/>
        <path class="st0" d="M451.1,1176.2c-.3-1-1.3-1.6-2.3-1.3-.7.2-1.1.7-1.3,1.3l-5.1,17.9-17.9,5.1c-1,.3-1.6,1.3-1.3,2.3.2.7.7,1.1,1.3,1.3l17.9,5.1,5.1,17.9c.3,1,1.3,1.6,2.3,1.3.7-.2,1.1-.7,1.3-1.3l5.1-17.9,17.9-5.1c1-.3,1.6-1.3,1.3-2.3-.2-.7-.7-1.1-1.3-1.3l-17.9-5.1-5.1-17.9h0Z"/>
        <path class="st0" d="M609.8,1176.2c-.3-1-1.3-1.6-2.3-1.3-.7.2-1.1.7-1.3,1.3l-5.1,17.9-17.9,5.1c-1,.3-1.6,1.3-1.3,2.3.2.7.7,1.1,1.3,1.3l17.9,5.1,5.1,17.9c.3,1,1.3,1.6,2.3,1.3.7-.2,1.1-.7,1.3-1.3l5.1-17.9,17.9-5.1c1-.3,1.6-1.3,1.3-2.3-.2-.7-.7-1.1-1.3-1.3l-17.9-5.1-5.1-17.9h0Z"/>
        <path class="st0" d="M662.7,1176.2c-.3-1-1.3-1.6-2.3-1.3-.7.2-1.1.7-1.3,1.3l-5.1,17.9-17.9,5.1c-1,.3-1.6,1.3-1.3,2.3.2.7.7,1.1,1.3,1.3l17.9,5.1,5.1,17.9c.3,1,1.3,1.6,2.3,1.3.7-.2,1.1-.7,1.3-1.3l5.1-17.9,17.9-5.1c1-.3,1.6-1.3,1.3-2.3-.2-.7-.7-1.1-1.3-1.3l-17.9-5.1-5.1-17.9h0Z"/>
        <path class="st0" d="M715.6,1176.2c-.3-1-1.3-1.6-2.3-1.3-.7.2-1.1.7-1.3,1.3l-5.1,17.9-17.9,5.1c-1,.3-1.6,1.3-1.3,2.3.2.7.7,1.1,1.3,1.3l17.9,5.1,5.1,17.9c.3,1,1.3,1.6,2.3,1.3.7-.2,1.1-.7,1.3-1.3l5.1-17.9,17.9-5.1c1-.3,1.6-1.3,1.3-2.3-.2-.7-.7-1.1-1.3-1.3l-17.9-5.1-5.1-17.9h0Z"/>
        <path class="st0" d="M768.5,1176.2c-.3-1-1.3-1.6-2.3-1.3-.7.2-1.1.7-1.3,1.3l-5.1,17.9-17.9,5.1c-1,.3-1.6,1.3-1.3,2.3.2.7.7,1.1,1.3,1.3l17.9,5.1,5.1,17.9c.3,1,1.3,1.6,2.3,1.3.7-.2,1.1-.7,1.3-1.3l5.1-17.9,17.9-5.1c1-.3,1.6-1.3,1.3-2.3-.2-.7-.7-1.1-1.3-1.3l-17.9-5.1-5.1-17.9h0Z"/>
        <path class="st0" d="M874.3,1176.2c-.3-1-1.3-1.6-2.3-1.3-.7.2-1.1.7-1.3,1.3l-5.1,17.9-17.9,5.1c-1,.3-1.6,1.3-1.3,2.3.2.7.7,1.1,1.3,1.3l17.9,5.1,5.1,17.9c.3,1,1.3,1.6,2.3,1.3.7-.2,1.1-.7,1.3-1.3l5.1-17.9,17.9-5.1c1-.3,1.6-1.3,1.3-2.3-.2-.7-.7-1.1-1.3-1.3l-17.9-5.1-5.1-17.9h0Z"/>
        <path class="st0" d="M451.1,1123.9c-.3-1-1.3-1.6-2.3-1.3-.7.2-1.1.7-1.3,1.3l-5.1,17.9-17.9,5.1c-1,.3-1.6,1.3-1.3,2.3.2.7.7,1.1,1.3,1.3l17.9,5.1,5.1,17.9c.3,1,1.3,1.6,2.3,1.3.7-.2,1.1-.7,1.3-1.3l5.1-17.9,17.9-5.1c1-.3,1.6-1.3,1.3-2.3-.2-.7-.7-1.1-1.3-1.3l-17.9-5.1-5.1-17.9h0Z"/>
        <path class="st0" d="M609.8,1123.9c-.3-1-1.3-1.6-2.3-1.3-.7.2-1.1.7-1.3,1.3l-5.1,17.9-17.9,5.1c-1,.3-1.6,1.3-1.3,2.3.2.7.7,1.1,1.3,1.3l17.9,5.1,5.1,17.9c.3,1,1.3,1.6,2.3,1.3.7-.2,1.1-.7,1.3-1.3l5.1-17.9,17.9-5.1c1-.3,1.6-1.3,1.3-2.3-.2-.7-.7-1.1-1.3-1.3l-17.9-5.1-5.1-17.9h0Z"/>
        <path class="st0" d="M662.7,1123.9c-.3-1-1.3-1.6-2.3-1.3-.7.2-1.1.7-1.3,1.3l-5.1,17.9-17.9,5.1c-1,.3-1.6,1.3-1.3,2.3.2.7.7,1.1,1.3,1.3l17.9,5.1,5.1,17.9c.3,1,1.3,1.6,2.3,1.3.7-.2,1.1-.7,1.3-1.3l5.1-17.9,17.9-5.1c1-.3,1.6-1.3,1.3-2.3-.2-.7-.7-1.1-1.3-1.3l-17.9-5.1-5.1-17.9h0Z"/>
        <path class="st0" d="M715.6,1123.9c-.3-1-1.3-1.6-2.3-1.3-.7.2-1.1.7-1.3,1.3l-5.1,17.9-17.9,5.1c-1,.3-1.6,1.3-1.3,2.3.2.7.7,1.1,1.3,1.3l17.9,5.1,5.1,17.9c.3,1,1.3,1.6,2.3,1.3.7-.2,1.1-.7,1.3-1.3l5.1-17.9,17.9-5.1c1-.3,1.6-1.3,1.3-2.3-.2-.7-.7-1.1-1.3-1.3l-17.9-5.1-5.1-17.9h0Z"/>
        <path class="st0" d="M874.3,1123.9c-.3-1-1.3-1.6-2.3-1.3-.7.2-1.1.7-1.3,1.3l-5.1,17.9-17.9,5.1c-1,.3-1.6,1.3-1.3,2.3.2.7.7,1.1,1.3,1.3l17.9,5.1,5.1,17.9c.3,1,1.3,1.6,2.3,1.3.7-.2,1.1-.7,1.3-1.3l5.1-17.9,17.9-5.1c1-.3,1.6-1.3,1.3-2.3-.2-.7-.7-1.1-1.3-1.3l-17.9-5.1-5.1-17.9h0Z"/>
        <path class="st0" d="M451.1,1071.7c-.3-1-1.3-1.6-2.3-1.3-.7.2-1.1.7-1.3,1.3l-5.1,17.9-17.9,5.1c-1,.3-1.6,1.3-1.3,2.3.2.7.7,1.1,1.3,1.3l17.9,5.1,5.1,17.9c.3,1,1.3,1.6,2.3,1.3.7-.2,1.1-.7,1.3-1.3l5.1-17.9,17.9-5.1c1-.3,1.6-1.3,1.3-2.3-.2-.7-.7-1.1-1.3-1.3l-17.9-5.1-5.1-17.9h0Z"/>
        <path class="st0" d="M504,1071.7c-.3-1-1.3-1.6-2.3-1.3-.7.2-1.1.7-1.3,1.3l-5.1,17.9-17.9,5.1c-1,.3-1.6,1.3-1.3,2.3.2.7.7,1.1,1.3,1.3l17.9,5.1,5.1,17.9c.3,1,1.3,1.6,2.3,1.3.7-.2,1.1-.7,1.3-1.3l5.1-17.9,17.9-5.1c1-.3,1.6-1.3,1.3-2.3-.2-.7-.7-1.1-1.3-1.3l-17.9-5.1-5.1-17.9h0Z"/>
        <path class="st0" d="M662.7,1071.7c-.3-1-1.3-1.6-2.3-1.3-.7.2-1.1.7-1.3,1.3l-5.1,17.9-17.9,5.1c-1,.3-1.6,1.3-1.3,2.3.2.7.7,1.1,1.3,1.3l17.9,5.1,5.1,17.9c.3,1,1.3,1.6,2.3,1.3.7-.2,1.1-.7,1.3-1.3l5.1-17.9,17.9-5.1c1-.3,1.6-1.3,1.3-2.3-.2-.7-.7-1.1-1.3-1.3l-17.9-5.1-5.1-17.9h0Z"/>
        <path class="st0" d="M821.4,1071.7c-.3-1-1.3-1.6-2.3-1.3-.7.2-1.1.7-1.3,1.3l-5.1,17.9-17.9,5.1c-1,.3-1.6,1.3-1.3,2.3.2.7.7,1.1,1.3,1.3l17.9,5.1,5.1,17.9c.3,1,1.3,1.6,2.3,1.3.7-.2,1.1-.7,1.3-1.3l5.1-17.9,17.9-5.1c1-.3,1.6-1.3,1.3-2.3-.2-.7-.7-1.1-1.3-1.3l-17.9-5.1-5.1-17.9h0Z"/>
        <path class="st0" d="M874.3,1071.7c-.3-1-1.3-1.6-2.3-1.3-.7.2-1.1.7-1.3,1.3l-5.1,17.9-17.9,5.1c-1,.3-1.6,1.3-1.3,2.3.2.7.7,1.1,1.3,1.3l17.9,5.1,5.1,17.9c.3,1,1.3,1.6,2.3,1.3.7-.2,1.1-.7,1.3-1.3l5.1-17.9,17.9-5.1c1-.3,1.6-1.3,1.3-2.3-.2-.7-.7-1.1-1.3-1.3l-17.9-5.1-5.1-17.9h0Z"/>
        <path class="st0" d="M504,1019.5c-.3-1-1.3-1.6-2.3-1.3-.7.2-1.1.7-1.3,1.3l-5.1,17.9-17.9,5.1c-1,.3-1.6,1.3-1.3,2.3.2.7.7,1.1,1.3,1.3l17.9,5.1,5.1,17.9c.3,1,1.3,1.6,2.3,1.3.7-.2,1.1-.7,1.3-1.3l5.1-17.9,17.9-5.1c1-.3,1.6-1.3,1.3-2.3-.2-.7-.7-1.1-1.3-1.3l-17.9-5.1-5.1-17.9h0Z"/>
        <path class="st0" d="M556.9,1019.5c-.3-1-1.3-1.6-2.3-1.3-.7.2-1.1.7-1.3,1.3l-5.1,17.9-17.9,5.1c-1,.3-1.6,1.3-1.3,2.3.2.7.7,1.1,1.3,1.3l17.9,5.1,5.1,17.9c.3,1,1.3,1.6,2.3,1.3.7-.2,1.1-.7,1.3-1.3l5.1-17.9,17.9-5.1c1-.3,1.6-1.3,1.3-2.3-.2-.7-.7-1.1-1.3-1.3l-17.9-5.1-5.1-17.9h0Z"/>
        <path class="st0" d="M768.5,1019.5c-.3-1-1.3-1.6-2.3-1.3-.7.2-1.1.7-1.3,1.3l-5.1,17.9-17.9,5.1c-1,.3-1.6,1.3-1.3,2.3.2.7.7,1.1,1.3,1.3l17.9,5.1,5.1,17.9c.3,1,1.3,1.6,2.3,1.3.7-.2,1.1-.7,1.3-1.3l5.1-17.9,17.9-5.1c1-.3,1.6-1.3,1.3-2.3-.2-.7-.7-1.1-1.3-1.3l-17.9-5.1-5.1-17.9h0Z"/>
        <path class="st0" d="M821.4,1019.5c-.3-1-1.3-1.6-2.3-1.3-.7.2-1.1.7-1.3,1.3l-5.1,17.9-17.9,5.1c-1,.3-1.6,1.3-1.3,2.3.2.7.7,1.1,1.3,1.3l17.9,5.1,5.1,17.9c.3,1,1.3,1.6,2.3,1.3.7-.2,1.1-.7,1.3-1.3l5.1-17.9,17.9-5.1c1-.3,1.6-1.3,1.3-2.3-.2-.7-.7-1.1-1.3-1.3l-17.9-5.1-5.1-17.9h0Z"/>
        <path class="st0" d="M556.9,967.3c-.3-1-1.3-1.6-2.3-1.3-.7.2-1.1.7-1.3,1.3l-5.1,17.9-17.9,5.1c-1,.3-1.6,1.3-1.3,2.3.2.7.7,1.1,1.3,1.3l17.9,5.1,5.1,17.9c.3,1,1.3,1.6,2.3,1.3.7-.2,1.1-.7,1.3-1.3l5.1-17.9,17.9-5.1c1-.3,1.6-1.3,1.3-2.3-.2-.7-.7-1.1-1.3-1.3l-17.9-5.1-5.1-17.9h0Z"/>
        <path class="st0" d="M609.8,967.3c-.3-1-1.3-1.6-2.3-1.3-.7.2-1.1.7-1.3,1.3l-5.1,17.9-17.9,5.1c-1,.3-1.6,1.3-1.3,2.3.2.7.7,1.1,1.3,1.3l17.9,5.1,5.1,17.9c.3,1,1.3,1.6,2.3,1.3.7-.2,1.1-.7,1.3-1.3l5.1-17.9,17.9-5.1c1-.3,1.6-1.3,1.3-2.3-.2-.7-.7-1.1-1.3-1.3l-17.9-5.1-5.1-17.9h0Z"/>
        <path class="st0" d="M715.6,967.3c-.3-1-1.3-1.6-2.3-1.3-.7.2-1.1.7-1.3,1.3l-5.1,17.9-17.9,5.1c-1,.3-1.6,1.3-1.3,2.3.2.7.7,1.1,1.3,1.3l17.9,5.1,5.1,17.9c.3,1,1.3,1.6,2.3,1.3.7-.2,1.1-.7,1.3-1.3l5.1-17.9,17.9-5.1c1-.3,1.6-1.3,1.3-2.3-.2-.7-.7-1.1-1.3-1.3l-17.9-5.1-5.1-17.9h0Z"/>
        <path class="st0" d="M768.5,967.3c-.3-1-1.3-1.6-2.3-1.3-.7.2-1.1.7-1.3,1.3l-5.1,17.9-17.9,5.1c-1,.3-1.6,1.3-1.3,2.3.2.7.7,1.1,1.3,1.3l17.9,5.1,5.1,17.9c.3,1,1.3,1.6,2.3,1.3.7-.2,1.1-.7,1.3-1.3l5.1-17.9,17.9-5.1c1-.3,1.6-1.3,1.3-2.3-.2-.7-.7-1.1-1.3-1.3l-17.9-5.1-5.1-17.9h0Z"/>
        <path class="st0" d="M609.8,915.1c-.3-1-1.3-1.6-2.3-1.3-.7.2-1.1.7-1.3,1.3l-5.1,17.9-17.9,5.1c-1,.3-1.6,1.3-1.3,2.3.2.7.7,1.1,1.3,1.3l17.9,5.1,5.1,17.9c.3,1,1.3,1.6,2.3,1.3.7-.2,1.1-.7,1.3-1.3l5.1-17.9,17.9-5.1c1-.3,1.6-1.3,1.3-2.3-.2-.7-.7-1.1-1.3-1.3l-17.9-5.1-5.1-17.9h0Z"/>
        <path class="st0" d="M662.7,915.1c-.3-1-1.3-1.6-2.3-1.3-.7.2-1.1.7-1.3,1.3l-5.1,17.9-17.9,5.1c-1,.3-1.6,1.3-1.3,2.3.2.7.7,1.1,1.3,1.3l17.9,5.1,5.1,17.9c.3,1,1.3,1.6,2.3,1.3.7-.2,1.1-.7,1.3-1.3l5.1-17.9,17.9-5.1c1-.3,1.6-1.3,1.3-2.3-.2-.7-.7-1.1-1.3-1.3l-17.9-5.1-5.1-17.9h0Z"/>
        <path class="st0" d="M715.6,915.1c-.3-1-1.3-1.6-2.3-1.3-.7.2-1.1.7-1.3,1.3l-5.1,17.9-17.9,5.1c-1,.3-1.6,1.3-1.3,2.3.2.7.7,1.1,1.3,1.3l17.9,5.1,5.1,17.9c.3,1,1.3,1.6,2.3,1.3.7-.2,1.1-.7,1.3-1.3l5.1-17.9,17.9-5.1c1-.3,1.6-1.3,1.3-2.3-.2-.7-.7-1.1-1.3-1.3l-17.9-5.1-5.1-17.9h0Z"/>
        <path class="st0" d="M662.7,862.9c-.3-1-1.3-1.6-2.3-1.3-.7.2-1.1.7-1.3,1.3l-5.1,17.9-17.9,5.1c-1,.3-1.6,1.3-1.3,2.3.2.7.7,1.1,1.3,1.3l17.9,5.1,5.1,17.9c.3,1,1.3,1.6,2.3,1.3.7-.2,1.1-.7,1.3-1.3l5.1-17.9,17.9-5.1c1-.3,1.6-1.3,1.3-2.3-.2-.7-.7-1.1-1.3-1.3l-17.9-5.1-5.1-17.9h0Z"/>
        <g>
          <path class="st0" d="M662.3,1272.7h0c-.2,162.4,3.2,324.5,11,486.6h-27.1v-4.7c1.6-38.5,3.2-77,4.7-115.5.9-24.2,1.7-48.5,2.4-72.7.8-30,1.6-59.9,2.4-89.8.5-19.7.9-39.5,1.2-59.3.4-27.6.8-55.2,1-82.8.2-19.7.2-39.4.2-59.1s.2-1.8.2-2.7h3.9s0,0,0,0Z"/>
          <path class="st0" d="M578.3,1759.6h0c-3.3-8.6-6.4-16.7-9.6-24.8-.7-1.8-.5-3,.9-4.5,9.6-9.9,17.7-21.1,24.6-33.1,17.5-30.3,27.2-63.3,33.6-97.5,4.5-23.9,7.6-48,8.7-72.2,1.3-28.1,2.3-56.2,2.5-84.3.2-26.4-.7-52.8-1.1-79.2-.2-12-.4-24.1-.6-36.2v-11.1h4.1c.3,11,.6,21.9.9,32.7,1,33,2.4,65.9,3.1,98.9.7,34.8.8,69.6-1.5,104.4-2,30-5.4,59.8-11.8,89.2-6.7,30.2-16.3,59.4-31.7,86.4-6.3,11-13.4,21.3-22.1,31.3h0Z"/>
          <path class="st0" d="M682.7,1343.8v35c.2,35.2,0,70.5.5,105.7.4,31.3,2.9,62.4,7.3,93.4,3.8,26.6,9.4,52.9,18.4,78.3,9,25.5,21,49.6,39.4,69.7,4.6,5,5.6,8.9,2.6,14.8-2.9,5.9-4.9,12.3-7.4,18.9-1.6-1.9-2.9-3.4-4.2-5-18.8-23.4-31.3-50.1-40.3-78.5-10.9-34.4-16.3-69.8-19.4-105.7-3.1-36.1-3.8-72.1-3.1-108.3.7-34.3,1.5-68.6,2.2-102.9v-15.4h4.1s0,0,0,0Z"/>
          <path class="st0" d="M578.4,1688.6c-3.5-9.1-6.8-17.6-9.9-26.1-.2-.7,0-1.9.6-2.6,6.5-8.4,11.6-17.6,16-27.2,15.6-34.4,24.1-70.8,29.9-108,4.4-28.5,6.9-57.2,7.3-86,.2-16.9-.3-33.9-.3-50.8v-16.9h5.7v1.9c.3,12.3.9,11.1.9,37.1,0,26-.2,52.1-.8,78.2-.7,30.5-3.5,60.7-8.6,90.8-4,23.4-9.4,46.4-18.2,68.6-5.7,14.4-12.8,28.2-22.7,41h0Z"/>
          <path class="st0" d="M743.4,1689.1h0c-4.4-7-8.7-13-12.4-19.4-14.8-25.7-23-53.7-28.7-82.6-7.4-37.9-9.7-76.2-10.2-114.7-.2-19.8.3-39.6.5-59.4,0-5.1.3-10.2.5-15.3h6.4c-.4,12.8-1.3,25.3-1.1,37.9.3,20.5.9,41,2.2,61.4,1.7,27.2,6.2,54,13.4,80.3,8.2,29.9,19.5,58.4,39.3,82.9.4.5.6,1.5.4,2.1-3.3,8.6-6.5,17.2-10.2,26.8h0Z"/>
        </g>
      </g>
      <g>
        <path class="st0" d="M1539.7,1254.5c-.3-1-1.3-1.6-2.3-1.3-.7.2-1.1.7-1.3,1.3l-5.1,17.9-17.9,5.1c-1,.3-1.6,1.3-1.3,2.3.2.7.7,1.1,1.3,1.3l17.9,5.1,5.1,17.9c.3,1,1.3,1.6,2.3,1.3.7-.2,1.1-.7,1.3-1.3l5.1-17.9,17.9-5.1c1-.3,1.6-1.3,1.3-2.3-.2-.7-.7-1.1-1.3-1.3l-17.9-5.1-5.1-17.9h0Z"/>
        <path class="st0" d="M1486.8,1202.3c-.3-1-1.3-1.6-2.3-1.3-.7.2-1.1.7-1.3,1.3l-5.1,17.9-17.9,5.1c-1,.3-1.6,1.3-1.3,2.3.2.7.7,1.1,1.3,1.3l17.9,5.1,5.1,17.9c.3,1,1.3,1.6,2.3,1.3.7-.2,1.1-.7,1.3-1.3l5.1-17.9,17.9-5.1c1-.3,1.6-1.3,1.3-2.3-.2-.7-.7-1.1-1.3-1.3l-17.9-5.1-5.1-17.9h0Z"/>
        <path class="st0" d="M1539.7,1202.3c-.3-1-1.3-1.6-2.3-1.3-.7.2-1.1.7-1.3,1.3l-5.1,17.9-17.9,5.1c-1,.3-1.6,1.3-1.3,2.3.2.7.7,1.1,1.3,1.3l17.9,5.1,5.1,17.9c.3,1,1.3,1.6,2.3,1.3.7-.2,1.1-.7,1.3-1.3l5.1-17.9,17.9-5.1c1-.3,1.6-1.3,1.3-2.3-.2-.7-.7-1.1-1.3-1.3l-17.9-5.1-5.1-17.9h0Z"/>
        <path class="st0" d="M1592.6,1202.3c-.3-1-1.3-1.6-2.3-1.3-.7.2-1.1.7-1.3,1.3l-5.1,17.9-17.9,5.1c-1,.3-1.6,1.3-1.3,2.3.2.7.7,1.1,1.3,1.3l17.9,5.1,5.1,17.9c.3,1,1.3,1.6,2.3,1.3.7-.2,1.1-.7,1.3-1.3l5.1-17.9,17.9-5.1c1-.3,1.6-1.3,1.3-2.3-.2-.7-.7-1.1-1.3-1.3l-17.9-5.1-5.1-17.9h0Z"/>
        <path class="st0" d="M1433.9,1150.1c-.3-1-1.3-1.6-2.3-1.3-.7.2-1.1.7-1.3,1.3l-5.1,17.9-17.9,5.1c-1,.3-1.6,1.3-1.3,2.3.2.7.7,1.1,1.3,1.3l17.9,5.1,5.1,17.9c.3,1,1.3,1.6,2.3,1.3.7-.2,1.1-.7,1.3-1.3l5.1-17.9,17.9-5.1c1-.3,1.6-1.3,1.3-2.3-.2-.7-.7-1.1-1.3-1.3l-17.9-5.1-5.1-17.9h0Z"/>
        <path class="st0" d="M1486.8,1150.1c-.3-1-1.3-1.6-2.3-1.3-.7.2-1.1.7-1.3,1.3l-5.1,17.9-17.9,5.1c-1,.3-1.6,1.3-1.3,2.3.2.7.7,1.1,1.3,1.3l17.9,5.1,5.1,17.9c.3,1,1.3,1.6,2.3,1.3.7-.2,1.1-.7,1.3-1.3l5.1-17.9,17.9-5.1c1-.3,1.6-1.3,1.3-2.3-.2-.7-.7-1.1-1.3-1.3l-17.9-5.1-5.1-17.9h0Z"/>
        <path class="st0" d="M1592.6,1150.1c-.3-1-1.3-1.6-2.3-1.3-.7.2-1.1.7-1.3,1.3l-5.1,17.9-17.9,5.1c-1,.3-1.6,1.3-1.3,2.3.2.7.7,1.1,1.3,1.3l17.9,5.1,5.1,17.9c.3,1,1.3,1.6,2.3,1.3.7-.2,1.1-.7,1.3-1.3l5.1-17.9,17.9-5.1c1-.3,1.6-1.3,1.3-2.3-.2-.7-.7-1.1-1.3-1.3l-17.9-5.1-5.1-17.9h0Z"/>
        <path class="st0" d="M1645.5,1150.1c-.3-1-1.3-1.6-2.3-1.3-.7.2-1.1.7-1.3,1.3l-5.1,17.9-17.9,5.1c-1,.3-1.6,1.3-1.3,2.3.2.7.7,1.1,1.3,1.3l17.9,5.1,5.1,17.9c.3,1,1.3,1.6,2.3,1.3.7-.2,1.1-.7,1.3-1.3l5.1-17.9,17.9-5.1c1-.3,1.6-1.3,1.3-2.3-.2-.7-.7-1.1-1.3-1.3l-17.9-5.1-5.1-17.9h0Z"/>
        <path class="st0" d="M1381,1097.8c-.3-1-1.3-1.6-2.3-1.3-.7.2-1.1.7-1.3,1.3l-5.1,17.9-17.9,5.1c-1,.3-1.6,1.3-1.3,2.3.2.7.7,1.1,1.3,1.3l17.9,5.1,5.1,17.9c.3,1,1.3,1.6,2.3,1.3.7-.2,1.1-.7,1.3-1.3l5.1-17.9,17.9-5.1c1-.3,1.6-1.3,1.3-2.3-.2-.7-.7-1.1-1.3-1.3l-17.9-5.1-5.1-17.9h0Z"/>
        <path class="st0" d="M1433.9,1097.8c-.3-1-1.3-1.6-2.3-1.3-.7.2-1.1.7-1.3,1.3l-5.1,17.9-17.9,5.1c-1,.3-1.6,1.3-1.3,2.3.2.7.7,1.1,1.3,1.3l17.9,5.1,5.1,17.9c.3,1,1.3,1.6,2.3,1.3.7-.2,1.1-.7,1.3-1.3l5.1-17.9,17.9-5.1c1-.3,1.6-1.3,1.3-2.3-.2-.7-.7-1.1-1.3-1.3l-17.9-5.1-5.1-17.9h0Z"/>
        <path class="st0" d="M1645.5,1097.8c-.3-1-1.3-1.6-2.3-1.3-.7.2-1.1.7-1.3,1.3l-5.1,17.9-17.9,5.1c-1,.3-1.6,1.3-1.3,2.3.2.7.7,1.1,1.3,1.3l17.9,5.1,5.1,17.9c.3,1,1.3,1.6,2.3,1.3.7-.2,1.1-.7,1.3-1.3l5.1-17.9,17.9-5.1c1-.3,1.6-1.3,1.3-2.3-.2-.7-.7-1.1-1.3-1.3l-17.9-5.1-5.1-17.9h0Z"/>
        <path class="st0" d="M1698.4,1097.8h0c-.3-1-1.3-1.6-2.3-1.3-.7.2-1.1.7-1.3,1.3l-5.1,17.9-17.9,5.1c-1,.3-1.6,1.3-1.3,2.3.2.7.7,1.1,1.3,1.3l17.9,5.1,5.1,17.9c.3,1,1.3,1.6,2.3,1.3.7-.2,1.1-.7,1.3-1.3l5.1-17.9,17.9-5.1c1-.3,1.6-1.3,1.3-2.3-.2-.7-.7-1.1-1.3-1.3l-17.9-5.1-5.1-17.9h0Z"/>
        <path class="st0" d="M1328.1,1045.6c-.3-1-1.3-1.6-2.3-1.3-.7.2-1.1.7-1.3,1.3l-5.1,17.9-17.9,5.1c-1,.3-1.6,1.3-1.3,2.3.2.7.7,1.1,1.3,1.3l17.9,5.1,5.1,17.9c.3,1,1.3,1.6,2.3,1.3.7-.2,1.1-.7,1.3-1.3l5.1-17.9,17.9-5.1c1-.3,1.6-1.3,1.3-2.3-.2-.7-.7-1.1-1.3-1.3l-17.9-5.1-5.1-17.9h0Z"/>
        <path class="st0" d="M1381,1045.6c-.3-1-1.3-1.6-2.3-1.3-.7.2-1.1.7-1.3,1.3l-5.1,17.9-17.9,5.1c-1,.3-1.6,1.3-1.3,2.3.2.7.7,1.1,1.3,1.3l17.9,5.1,5.1,17.9c.3,1,1.3,1.6,2.3,1.3.7-.2,1.1-.7,1.3-1.3l5.1-17.9,17.9-5.1c1-.3,1.6-1.3,1.3-2.3-.2-.7-.7-1.1-1.3-1.3l-17.9-5.1-5.1-17.9h0Z"/>
        <path class="st0" d="M1539.7,1045.6c-.3-1-1.3-1.6-2.3-1.3-.7.2-1.1.7-1.3,1.3l-5.1,17.9-17.9,5.1c-1,.3-1.6,1.3-1.3,2.3.2.7.7,1.1,1.3,1.3l17.9,5.1,5.1,17.9c.3,1,1.3,1.6,2.3,1.3.7-.2,1.1-.7,1.3-1.3l5.1-17.9,17.9-5.1c1-.3,1.6-1.3,1.3-2.3-.2-.7-.7-1.1-1.3-1.3l-17.9-5.1-5.1-17.9h0Z"/>
        <path class="st0" d="M1698.4,1045.6h0c-.3-1-1.3-1.6-2.3-1.3-.7.2-1.1.7-1.3,1.3l-5.1,17.9-17.9,5.1c-1,.3-1.6,1.3-1.3,2.3.2.7.7,1.1,1.3,1.3l17.9,5.1,5.1,17.9c.3,1,1.3,1.6,2.3,1.3.7-.2,1.1-.7,1.3-1.3l5.1-17.9,17.9-5.1c1-.3,1.6-1.3,1.3-2.3-.2-.7-.7-1.1-1.3-1.3l-17.9-5.1-5.1-17.9h0Z"/>
        <path class="st0" d="M1751.3,1045.6c-.3-1-1.3-1.6-2.3-1.3-.7.2-1.1.7-1.3,1.3l-5.1,17.9-17.9,5.1c-1,.3-1.6,1.3-1.3,2.3.2.7.7,1.1,1.3,1.3l17.9,5.1,5.1,17.9c.3,1,1.3,1.6,2.3,1.3.7-.2,1.1-.7,1.3-1.3l5.1-17.9,17.9-5.1c1-.3,1.6-1.3,1.3-2.3-.2-.7-.7-1.1-1.3-1.3l-17.9-5.1-5.1-17.9h0Z"/>
        <path class="st0" d="M1328.1,993.4c-.3-1-1.3-1.6-2.3-1.3-.7.2-1.1.7-1.3,1.3l-5.1,17.9-17.9,5.1c-1,.3-1.6,1.3-1.3,2.3.2.7.7,1.1,1.3,1.3l17.9,5.1,5.1,17.9c.3,1,1.3,1.6,2.3,1.3.7-.2,1.1-.7,1.3-1.3l5.1-17.9,17.9-5.1c1-.3,1.6-1.3,1.3-2.3-.2-.7-.7-1.1-1.3-1.3l-17.9-5.1-5.1-17.9h0Z"/>
        <path class="st0" d="M1486.8,993.4c-.3-1-1.3-1.6-2.3-1.3-.7.2-1.1.7-1.3,1.3l-5.1,17.9-17.9,5.1c-1,.3-1.6,1.3-1.3,2.3.2.7.7,1.1,1.3,1.3l17.9,5.1,5.1,17.9c.3,1,1.3,1.6,2.3,1.3.7-.2,1.1-.7,1.3-1.3l5.1-17.9,17.9-5.1c1-.3,1.6-1.3,1.3-2.3-.2-.7-.7-1.1-1.3-1.3l-17.9-5.1-5.1-17.9h0Z"/>
        <path class="st0" d="M1539.7,993.4c-.3-1-1.3-1.6-2.3-1.3-.7.2-1.1.7-1.3,1.3l-5.1,17.9-17.9,5.1c-1,.3-1.6,1.3-1.3,2.3.2.7.7,1.1,1.3,1.3l17.9,5.1,5.1,17.9c.3,1,1.3,1.6,2.3,1.3.7-.2,1.1-.7,1.3-1.3l5.1-17.9,17.9-5.1c1-.3,1.6-1.3,1.3-2.3-.2-.7-.7-1.1-1.3-1.3l-17.9-5.1-5.1-17.9h0Z"/>
        <path class="st0" d="M1592.6,993.4c-.3-1-1.3-1.6-2.3-1.3-.7.2-1.1.7-1.3,1.3l-5.1,17.9-17.9,5.1c-1,.3-1.6,1.3-1.3,2.3.2.7.7,1.1,1.3,1.3l17.9,5.1,5.1,17.9c.3,1,1.3,1.6,2.3,1.3.7-.2,1.1-.7,1.3-1.3l5.1-17.9,17.9-5.1c1-.3,1.6-1.3,1.3-2.3-.2-.7-.7-1.1-1.3-1.3l-17.9-5.1-5.1-17.9h0Z"/>
        <path class="st0" d="M1751.3,993.4c-.3-1-1.3-1.6-2.3-1.3-.7.2-1.1.7-1.3,1.3l-5.1,17.9-17.9,5.1c-1,.3-1.6,1.3-1.3,2.3.2.7.7,1.1,1.3,1.3l17.9,5.1,5.1,17.9c.3,1,1.3,1.6,2.3,1.3.7-.2,1.1-.7,1.3-1.3l5.1-17.9,17.9-5.1c1-.3,1.6-1.3,1.3-2.3-.2-.7-.7-1.1-1.3-1.3l-17.9-5.1-5.1-17.9h0Z"/>
        <path class="st0" d="M1328.1,941.2c-.3-1-1.3-1.6-2.3-1.3-.7.2-1.1.7-1.3,1.3l-5.1,17.9-17.9,5.1c-1,.3-1.6,1.3-1.3,2.3.2.7.7,1.1,1.3,1.3l17.9,5.1,5.1,17.9c.3,1,1.3,1.6,2.3,1.3.7-.2,1.1-.7,1.3-1.3l5.1-17.9,17.9-5.1c1-.3,1.6-1.3,1.3-2.3-.2-.7-.7-1.1-1.3-1.3l-17.9-5.1-5.1-17.9h0Z"/>
        <path class="st0" d="M1433.9,941.2c-.3-1-1.3-1.6-2.3-1.3-.7.2-1.1.7-1.3,1.3l-5.1,17.9-17.9,5.1c-1,.3-1.6,1.3-1.3,2.3.2.7.7,1.1,1.3,1.3l17.9,5.1,5.1,17.9c.3,1,1.3,1.6,2.3,1.3.7-.2,1.1-.7,1.3-1.3l5.1-17.9,17.9-5.1c1-.3,1.6-1.3,1.3-2.3-.2-.7-.7-1.1-1.3-1.3l-17.9-5.1-5.1-17.9h0Z"/>
        <path class="st0" d="M1486.8,941.2c-.3-1-1.3-1.6-2.3-1.3-.7.2-1.1.7-1.3,1.3l-5.1,17.9-17.9,5.1c-1,.3-1.6,1.3-1.3,2.3.2.7.7,1.1,1.3,1.3l17.9,5.1,5.1,17.9c.3,1,1.3,1.6,2.3,1.3.7-.2,1.1-.7,1.3-1.3l5.1-17.9,17.9-5.1c1-.3,1.6-1.3,1.3-2.3-.2-.7-.7-1.1-1.3-1.3l-17.9-5.1-5.1-17.9h0Z"/>
        <path class="st0" d="M1539.7,941.2c-.3-1-1.3-1.6-2.3-1.3-.7.2-1.1.7-1.3,1.3l-5.1,17.9-17.9,5.1c-1,.3-1.6,1.3-1.3,2.3.2.7.7,1.1,1.3,1.3l17.9,5.1,5.1,17.9c.3,1,1.3,1.6,2.3,1.3.7-.2,1.1-.7,1.3-1.3l5.1-17.9,17.9-5.1c1-.3,1.6-1.3,1.3-2.3-.2-.7-.7-1.1-1.3-1.3l-17.9-5.1-5.1-17.9h0Z"/>
        <path class="st0" d="M1592.6,941.2c-.3-1-1.3-1.6-2.3-1.3-.7.2-1.1.7-1.3,1.3l-5.1,17.9-17.9,5.1c-1,.3-1.6,1.3-1.3,2.3.2.7.7,1.1,1.3,1.3l17.9,5.1,5.1,17.9c.3,1,1.3,1.6,2.3,1.3.7-.2,1.1-.7,1.3-1.3l5.1-17.9,17.9-5.1c1-.3,1.6-1.3,1.3-2.3-.2-.7-.7-1.1-1.3-1.3l-17.9-5.1-5.1-17.9h0Z"/>
        <path class="st0" d="M1645.5,941.2c-.3-1-1.3-1.6-2.3-1.3-.7.2-1.1.7-1.3,1.3l-5.1,17.9-17.9,5.1c-1,.3-1.6,1.3-1.3,2.3.2.7.7,1.1,1.3,1.3l17.9,5.1,5.1,17.9c.3,1,1.3,1.6,2.3,1.3.7-.2,1.1-.7,1.3-1.3l5.1-17.9,17.9-5.1c1-.3,1.6-1.3,1.3-2.3-.2-.7-.7-1.1-1.3-1.3l-17.9-5.1-5.1-17.9h0Z"/>
        <path class="st0" d="M1751.3,941.2c-.3-1-1.3-1.6-2.3-1.3-.7.2-1.1.7-1.3,1.3l-5.1,17.9-17.9,5.1c-1,.3-1.6,1.3-1.3,2.3.2.7.7,1.1,1.3,1.3l17.9,5.1,5.1,17.9c.3,1,1.3,1.6,2.3,1.3.7-.2,1.1-.7,1.3-1.3l5.1-17.9,17.9-5.1c1-.3,1.6-1.3,1.3-2.3-.2-.7-.7-1.1-1.3-1.3l-17.9-5.1-5.1-17.9h0Z"/>
        <path class="st0" d="M1328.1,889c-.3-1-1.3-1.6-2.3-1.3-.7.2-1.1.7-1.3,1.3l-5.1,17.9-17.9,5.1c-1,.3-1.6,1.3-1.3,2.3.2.7.7,1.1,1.3,1.3l17.9,5.1,5.1,17.9c.3,1,1.3,1.6,2.3,1.3.7-.2,1.1-.7,1.3-1.3l5.1-17.9,17.9-5.1c1-.3,1.6-1.3,1.3-2.3-.2-.7-.7-1.1-1.3-1.3l-17.9-5.1-5.1-17.9h0Z"/>
        <path class="st0" d="M1381,889c-.3-1-1.3-1.6-2.3-1.3-.7.2-1.1.7-1.3,1.3l-5.1,17.9-17.9,5.1c-1,.3-1.6,1.3-1.3,2.3.2.7.7,1.1,1.3,1.3l17.9,5.1,5.1,17.9c.3,1,1.3,1.6,2.3,1.3.7-.2,1.1-.7,1.3-1.3l5.1-17.9,17.9-5.1c1-.3,1.6-1.3,1.3-2.3-.2-.7-.7-1.1-1.3-1.3l-17.9-5.1-5.1-17.9h0Z"/>
        <path class="st0" d="M1698.4,889h0c-.3-1-1.3-1.6-2.3-1.3-.7.2-1.1.7-1.3,1.3l-5.1,17.9-17.9,5.1c-1,.3-1.6,1.3-1.3,2.3.2.7.7,1.1,1.3,1.3l17.9,5.1,5.1,17.9c.3,1,1.3,1.6,2.3,1.3.7-.2,1.1-.7,1.3-1.3l5.1-17.9,17.9-5.1c1-.3,1.6-1.3,1.3-2.3-.2-.7-.7-1.1-1.3-1.3l-17.9-5.1-5.1-17.9h0Z"/>
        <path class="st0" d="M1751.3,889c-.3-1-1.3-1.6-2.3-1.3-.7.2-1.1.7-1.3,1.3l-5.1,17.9-17.9,5.1c-1,.3-1.6,1.3-1.3,2.3.2.7.7,1.1,1.3,1.3l17.9,5.1,5.1,17.9c.3,1,1.3,1.6,2.3,1.3.7-.2,1.1-.7,1.3-1.3l5.1-17.9,17.9-5.1c1-.3,1.6-1.3,1.3-2.3-.2-.7-.7-1.1-1.3-1.3l-17.9-5.1-5.1-17.9h0Z"/>
        <path class="st0" d="M1116.5,836.8c-.3-1-1.3-1.6-2.3-1.3-.7.2-1.1.7-1.3,1.3l-5.1,17.9-17.9,5.1c-1,.3-1.6,1.3-1.3,2.3.2.7.7,1.1,1.3,1.3l17.9,5.1,5.1,17.9c.3,1,1.3,1.6,2.3,1.3.7-.2,1.1-.7,1.3-1.3l5.1-17.9,17.9-5.1c1-.3,1.6-1.3,1.3-2.3-.2-.7-.7-1.1-1.3-1.3l-17.9-5.1-5.1-17.9h0Z"/>
        <path class="st0" d="M1169.4,836.8c-.3-1-1.3-1.6-2.3-1.3-.7.2-1.1.7-1.3,1.3l-5.1,17.9-17.9,5.1c-1,.3-1.6,1.3-1.3,2.3.2.7.7,1.1,1.3,1.3l17.9,5.1,5.1,17.9c.3,1,1.3,1.6,2.3,1.3.7-.2,1.1-.7,1.3-1.3l5.1-17.9,17.9-5.1c1-.3,1.6-1.3,1.3-2.3-.2-.7-.7-1.1-1.3-1.3l-17.9-5.1-5.1-17.9h0Z"/>
        <path class="st0" d="M1222.3,836.8c-.3-1-1.3-1.6-2.3-1.3-.7.2-1.1.7-1.3,1.3l-5.1,17.9-17.9,5.1c-1,.3-1.6,1.3-1.3,2.3.2.7.7,1.1,1.3,1.3l17.9,5.1,5.1,17.9c.3,1,1.3,1.6,2.3,1.3.7-.2,1.1-.7,1.3-1.3l5.1-17.9,17.9-5.1c1-.3,1.6-1.3,1.3-2.3-.2-.7-.7-1.1-1.3-1.3l-17.9-5.1-5.1-17.9h0Z"/>
        <path class="st0" d="M1275.2,836.8c-.3-1-1.3-1.6-2.3-1.3-.7.2-1.1.7-1.3,1.3l-5.1,17.9-17.9,5.1c-1,.3-1.6,1.3-1.3,2.3.2.7.7,1.1,1.3,1.3l17.9,5.1,5.1,17.9c.3,1,1.3,1.6,2.3,1.3.7-.2,1.1-.7,1.3-1.3l5.1-17.9,17.9-5.1c1-.3,1.6-1.3,1.3-2.3-.2-.7-.7-1.1-1.3-1.3l-17.9-5.1-5.1-17.9h0Z"/>
        <path class="st0" d="M1381,836.8c-.3-1-1.3-1.6-2.3-1.3-.7.2-1.1.7-1.3,1.3l-5.1,17.9-17.9,5.1c-1,.3-1.6,1.3-1.3,2.3.2.7.7,1.1,1.3,1.3l17.9,5.1,5.1,17.9c.3,1,1.3,1.6,2.3,1.3.7-.2,1.1-.7,1.3-1.3l5.1-17.9,17.9-5.1c1-.3,1.6-1.3,1.3-2.3-.2-.7-.7-1.1-1.3-1.3l-17.9-5.1-5.1-17.9h0Z"/>
        <path class="st0" d="M1698.4,836.8h0c-.3-1-1.3-1.6-2.3-1.3-.7.2-1.1.7-1.3,1.3l-5.1,17.9-17.9,5.1c-1,.3-1.6,1.3-1.3,2.3.2.7.7,1.1,1.3,1.3l17.9,5.1,5.1,17.9c.3,1,1.3,1.6,2.3,1.3.7-.2,1.1-.7,1.3-1.3l5.1-17.9,17.9-5.1c1-.3,1.6-1.3,1.3-2.3-.2-.7-.7-1.1-1.3-1.3l-17.9-5.1-5.1-17.9h0Z"/>
        <path class="st0" d="M1804.2,836.8c-.3-1-1.3-1.6-2.3-1.3-.7.2-1.1.7-1.3,1.3l-5.1,17.9-17.9,5.1c-1,.3-1.6,1.3-1.3,2.3.2.7.7,1.1,1.3,1.3l17.9,5.1,5.1,17.9c.3,1,1.3,1.6,2.3,1.3.7-.2,1.1-.7,1.3-1.3l5.1-17.9,17.9-5.1c1-.3,1.6-1.3,1.3-2.3-.2-.7-.7-1.1-1.3-1.3l-17.9-5.1-5.1-17.9h0Z"/>
        <path class="st0" d="M1857.1,836.8c-.3-1-1.3-1.6-2.3-1.3-.7.2-1.1.7-1.3,1.3l-5.1,17.9-17.9,5.1c-1,.3-1.6,1.3-1.3,2.3.2.7.7,1.1,1.3,1.3l17.9,5.1,5.1,17.9c.3,1,1.3,1.6,2.3,1.3.7-.2,1.1-.7,1.3-1.3l5.1-17.9,17.9-5.1c1-.3,1.6-1.3,1.3-2.3-.2-.7-.7-1.1-1.3-1.3l-17.9-5.1-5.1-17.9h0Z"/>
        <path class="st0" d="M1910,836.8c-.3-1-1.3-1.6-2.3-1.3-.7.2-1.1.7-1.3,1.3l-5.1,17.9-17.9,5.1c-1,.3-1.6,1.3-1.3,2.3.2.7.7,1.1,1.3,1.3l17.9,5.1,5.1,17.9c.3,1,1.3,1.6,2.3,1.3.7-.2,1.1-.7,1.3-1.3l5.1-17.9,17.9-5.1c1-.3,1.6-1.3,1.3-2.3-.2-.7-.7-1.1-1.3-1.3l-17.9-5.1-5.1-17.9h0Z"/>
        <path class="st0" d="M1962.9,836.8c-.3-1-1.3-1.6-2.3-1.3-.7.2-1.1.7-1.3,1.3l-5.1,17.9-17.9,5.1c-1,.3-1.6,1.3-1.3,2.3.2.7.7,1.1,1.3,1.3l17.9,5.1,5.1,17.9c.3,1,1.3,1.6,2.3,1.3.7-.2,1.1-.7,1.3-1.3l5.1-17.9,17.9-5.1c1-.3,1.6-1.3,1.3-2.3-.2-.7-.7-1.1-1.3-1.3l-17.9-5.1-5.1-17.9h0Z"/>
        <path class="st0" d="M1063.6,784.5c-.3-1-1.3-1.6-2.3-1.3-.7.2-1.1.7-1.3,1.3l-5.1,17.9-17.9,5.1c-1,.3-1.6,1.3-1.3,2.3.2.7.7,1.1,1.3,1.3l17.9,5.1,5.1,17.9c.3,1,1.3,1.6,2.3,1.3.7-.2,1.1-.7,1.3-1.3l5.1-17.9,17.9-5.1c1-.3,1.6-1.3,1.3-2.3-.2-.7-.7-1.1-1.3-1.3l-17.9-5.1-5.1-17.9h0Z"/>
        <path class="st0" d="M1116.5,784.5c-.3-1-1.3-1.6-2.3-1.3-.7.2-1.1.7-1.3,1.3l-5.1,17.9-17.9,5.1c-1,.3-1.6,1.3-1.3,2.3.2.7.7,1.1,1.3,1.3l17.9,5.1,5.1,17.9c.3,1,1.3,1.6,2.3,1.3.7-.2,1.1-.7,1.3-1.3l5.1-17.9,17.9-5.1c1-.3,1.6-1.3,1.3-2.3-.2-.7-.7-1.1-1.3-1.3l-17.9-5.1-5.1-17.9h0Z"/>
        <path class="st0" d="M1275.2,784.5c-.3-1-1.3-1.6-2.3-1.3-.7.2-1.1.7-1.3,1.3l-5.1,17.9-17.9,5.1c-1,.3-1.6,1.3-1.3,2.3.2.7.7,1.1,1.3,1.3l17.9,5.1,5.1,17.9c.3,1,1.3,1.6,2.3,1.3.7-.2,1.1-.7,1.3-1.3l5.1-17.9,17.9-5.1c1-.3,1.6-1.3,1.3-2.3-.2-.7-.7-1.1-1.3-1.3l-17.9-5.1-5.1-17.9h0Z"/>
        <path class="st0" d="M1328.1,784.5c-.3-1-1.3-1.6-2.3-1.3-.7.2-1.1.7-1.3,1.3l-5.1,17.9-17.9,5.1c-1,.3-1.6,1.3-1.3,2.3.2.7.7,1.1,1.3,1.3l17.9,5.1,5.1,17.9c.3,1,1.3,1.6,2.3,1.3.7-.2,1.1-.7,1.3-1.3l5.1-17.9,17.9-5.1c1-.3,1.6-1.3,1.3-2.3-.2-.7-.7-1.1-1.3-1.3l-17.9-5.1-5.1-17.9h0Z"/>
        <path class="st0" d="M1751.3,784.5c-.3-1-1.3-1.6-2.3-1.3-.7.2-1.1.7-1.3,1.3l-5.1,17.9-17.9,5.1c-1,.3-1.6,1.3-1.3,2.3.2.7.7,1.1,1.3,1.3l17.9,5.1,5.1,17.9c.3,1,1.3,1.6,2.3,1.3.7-.2,1.1-.7,1.3-1.3l5.1-17.9,17.9-5.1c1-.3,1.6-1.3,1.3-2.3-.2-.7-.7-1.1-1.3-1.3l-17.9-5.1-5.1-17.9h0Z"/>
        <path class="st0" d="M1804.2,784.5c-.3-1-1.3-1.6-2.3-1.3-.7.2-1.1.7-1.3,1.3l-5.1,17.9-17.9,5.1c-1,.3-1.6,1.3-1.3,2.3.2.7.7,1.1,1.3,1.3l17.9,5.1,5.1,17.9c.3,1,1.3,1.6,2.3,1.3.7-.2,1.1-.7,1.3-1.3l5.1-17.9,17.9-5.1c1-.3,1.6-1.3,1.3-2.3-.2-.7-.7-1.1-1.3-1.3l-17.9-5.1-5.1-17.9h0Z"/>
        <path class="st0" d="M1962.9,784.5c-.3-1-1.3-1.6-2.3-1.3-.7.2-1.1.7-1.3,1.3l-5.1,17.9-17.9,5.1c-1,.3-1.6,1.3-1.3,2.3.2.7.7,1.1,1.3,1.3l17.9,5.1,5.1,17.9c.3,1,1.3,1.6,2.3,1.3.7-.2,1.1-.7,1.3-1.3l5.1-17.9,17.9-5.1c1-.3,1.6-1.3,1.3-2.3-.2-.7-.7-1.1-1.3-1.3l-17.9-5.1-5.1-17.9h0Z"/>
        <path class="st0" d="M2015.8,784.5c-.3-1-1.3-1.6-2.3-1.3-.7.2-1.1.7-1.3,1.3l-5.1,17.9-17.9,5.1c-1,.3-1.6,1.3-1.3,2.3.2.7.7,1.1,1.3,1.3l17.9,5.1,5.1,17.9c.3,1,1.3,1.6,2.3,1.3.7-.2,1.1-.7,1.3-1.3l5.1-17.9,17.9-5.1c1-.3,1.6-1.3,1.3-2.3-.2-.7-.7-1.1-1.3-1.3l-17.9-5.1-5.1-17.9h0Z"/>
        <path class="st0" d="M1010.7,732.3c-.3-1-1.3-1.6-2.3-1.3-.7.2-1.1.7-1.3,1.3l-5.1,17.9-17.9,5.1c-1,.3-1.6,1.3-1.3,2.3.2.7.7,1.1,1.3,1.3l17.9,5.1,5.1,17.9c.3,1,1.3,1.6,2.3,1.3.7-.2,1.1-.7,1.3-1.3l5.1-17.9,17.9-5.1c1-.3,1.6-1.3,1.3-2.3-.2-.7-.7-1.1-1.3-1.3l-17.9-5.1-5.1-17.9h0Z"/>
        <path class="st0" d="M1063.6,732.3c-.3-1-1.3-1.6-2.3-1.3-.7.2-1.1.7-1.3,1.3l-5.1,17.9-17.9,5.1c-1,.3-1.6,1.3-1.3,2.3.2.7.7,1.1,1.3,1.3l17.9,5.1,5.1,17.9c.3,1,1.3,1.6,2.3,1.3.7-.2,1.1-.7,1.3-1.3l5.1-17.9,17.9-5.1c1-.3,1.6-1.3,1.3-2.3-.2-.7-.7-1.1-1.3-1.3l-17.9-5.1-5.1-17.9h0Z"/>
        <path class="st0" d="M1486.8,732.3c-.3-1-1.3-1.6-2.3-1.3-.7.2-1.1.7-1.3,1.3l-5.1,17.9-17.9,5.1c-1,.3-1.6,1.3-1.3,2.3.2.7.7,1.1,1.3,1.3l17.9,5.1,5.1,17.9c.3,1,1.3,1.6,2.3,1.3.7-.2,1.1-.7,1.3-1.3l5.1-17.9,17.9-5.1c1-.3,1.6-1.3,1.3-2.3-.2-.7-.7-1.1-1.3-1.3l-17.9-5.1-5.1-17.9h0Z"/>
        <path class="st0" d="M1539.7,732.3c-.3-1-1.3-1.6-2.3-1.3-.7.2-1.1.7-1.3,1.3l-5.1,17.9-17.9,5.1c-1,.3-1.6,1.3-1.3,2.3.2.7.7,1.1,1.3,1.3l17.9,5.1,5.1,17.9c.3,1,1.3,1.6,2.3,1.3.7-.2,1.1-.7,1.3-1.3l5.1-17.9,17.9-5.1c1-.3,1.6-1.3,1.3-2.3-.2-.7-.7-1.1-1.3-1.3l-17.9-5.1-5.1-17.9h0Z"/>
        <path class="st0" d="M1592.6,732.3c-.3-1-1.3-1.6-2.3-1.3-.7.2-1.1.7-1.3,1.3l-5.1,17.9-17.9,5.1c-1,.3-1.6,1.3-1.3,2.3.2.7.7,1.1,1.3,1.3l17.9,5.1,5.1,17.9c.3,1,1.3,1.6,2.3,1.3.7-.2,1.1-.7,1.3-1.3l5.1-17.9,17.9-5.1c1-.3,1.6-1.3,1.3-2.3-.2-.7-.7-1.1-1.3-1.3l-17.9-5.1-5.1-17.9h0Z"/>
        <path class="st0" d="M1857.1,732.3c-.3-1-1.3-1.6-2.3-1.3-.7.2-1.1.7-1.3,1.3l-5.1,17.9-17.9,5.1c-1,.3-1.6,1.3-1.3,2.3.2.7.7,1.1,1.3,1.3l17.9,5.1,5.1,17.9c.3,1,1.3,1.6,2.3,1.3.7-.2,1.1-.7,1.3-1.3l5.1-17.9,17.9-5.1c1-.3,1.6-1.3,1.3-2.3-.2-.7-.7-1.1-1.3-1.3l-17.9-5.1-5.1-17.9h0Z"/>
        <path class="st0" d="M2015.8,732.3c-.3-1-1.3-1.6-2.3-1.3-.7.2-1.1.7-1.3,1.3l-5.1,17.9-17.9,5.1c-1,.3-1.6,1.3-1.3,2.3.2.7.7,1.1,1.3,1.3l17.9,5.1,5.1,17.9c.3,1,1.3,1.6,2.3,1.3.7-.2,1.1-.7,1.3-1.3l5.1-17.9,17.9-5.1c1-.3,1.6-1.3,1.3-2.3-.2-.7-.7-1.1-1.3-1.3l-17.9-5.1-5.1-17.9h0Z"/>
        <path class="st0" d="M2068.7,732.3c-.3-1-1.3-1.6-2.3-1.3-.7.2-1.1.7-1.3,1.3l-5.1,17.9-17.9,5.1c-1,.3-1.6,1.3-1.3,2.3.2.7.7,1.1,1.3,1.3l17.9,5.1,5.1,17.9c.3,1,1.3,1.6,2.3,1.3.7-.2,1.1-.7,1.3-1.3l5.1-17.9,17.9-5.1c1-.3,1.6-1.3,1.3-2.3-.2-.7-.7-1.1-1.3-1.3l-17.9-5.1-5.1-17.9h0Z"/>
        <path class="st0" d="M957.8,680.1c-.3-1-1.3-1.6-2.3-1.3-.7.2-1.1.7-1.3,1.3l-5.1,17.9-17.9,5.1c-1,.3-1.6,1.3-1.3,2.3.2.7.7,1.1,1.3,1.3l17.9,5.1,5.1,17.9c.3,1,1.3,1.6,2.3,1.3.7-.2,1.1-.7,1.3-1.3l5.1-17.9,17.9-5.1c1-.3,1.6-1.3,1.3-2.3-.2-.7-.7-1.1-1.3-1.3l-17.9-5.1-5.1-17.9h0Z"/>
        <path class="st0" d="M1010.7,680.1c-.3-1-1.3-1.6-2.3-1.3-.7.2-1.1.7-1.3,1.3l-5.1,17.9-17.9,5.1c-1,.3-1.6,1.3-1.3,2.3.2.7.7,1.1,1.3,1.3l17.9,5.1,5.1,17.9c.3,1,1.3,1.6,2.3,1.3.7-.2,1.1-.7,1.3-1.3l5.1-17.9,17.9-5.1c1-.3,1.6-1.3,1.3-2.3-.2-.7-.7-1.1-1.3-1.3l-17.9-5.1-5.1-17.9h0Z"/>
        <path class="st0" d="M1169.4,680.1c-.3-1-1.3-1.6-2.3-1.3-.7.2-1.1.7-1.3,1.3l-5.1,17.9-17.9,5.1c-1,.3-1.6,1.3-1.3,2.3.2.7.7,1.1,1.3,1.3l17.9,5.1,5.1,17.9c.3,1,1.3,1.6,2.3,1.3.7-.2,1.1-.7,1.3-1.3l5.1-17.9,17.9-5.1c1-.3,1.6-1.3,1.3-2.3-.2-.7-.7-1.1-1.3-1.3l-17.9-5.1-5.1-17.9h0Z"/>
        <path class="st0" d="M1222.3,680.1c-.3-1-1.3-1.6-2.3-1.3-.7.2-1.1.7-1.3,1.3l-5.1,17.9-17.9,5.1c-1,.3-1.6,1.3-1.3,2.3.2.7.7,1.1,1.3,1.3l17.9,5.1,5.1,17.9c.3,1,1.3,1.6,2.3,1.3.7-.2,1.1-.7,1.3-1.3l5.1-17.9,17.9-5.1c1-.3,1.6-1.3,1.3-2.3-.2-.7-.7-1.1-1.3-1.3l-17.9-5.1-5.1-17.9h0Z"/>
        <path class="st0" d="M1222.3,732.3c-.3-1-1.3-1.6-2.3-1.3-.7.2-1.1.7-1.3,1.3l-5.1,17.9-17.9,5.1c-1,.3-1.6,1.3-1.3,2.3.2.7.7,1.1,1.3,1.3l17.9,5.1,5.1,17.9c.3,1,1.3,1.6,2.3,1.3.7-.2,1.1-.7,1.3-1.3l5.1-17.9,17.9-5.1c1-.3,1.6-1.3,1.3-2.3-.2-.7-.7-1.1-1.3-1.3l-17.9-5.1-5.1-17.9h0Z"/>
        <path class="st0" d="M1433.9,680.1c-.3-1-1.3-1.6-2.3-1.3-.7.2-1.1.7-1.3,1.3l-5.1,17.9-17.9,5.1c-1,.3-1.6,1.3-1.3,2.3.2.7.7,1.1,1.3,1.3l17.9,5.1,5.1,17.9c.3,1,1.3,1.6,2.3,1.3.7-.2,1.1-.7,1.3-1.3l5.1-17.9,17.9-5.1c1-.3,1.6-1.3,1.3-2.3-.2-.7-.7-1.1-1.3-1.3l-17.9-5.1-5.1-17.9h0Z"/>
        <path class="st0" d="M1486.8,680.1c-.3-1-1.3-1.6-2.3-1.3-.7.2-1.1.7-1.3,1.3l-5.1,17.9-17.9,5.1c-1,.3-1.6,1.3-1.3,2.3.2.7.7,1.1,1.3,1.3l17.9,5.1,5.1,17.9c.3,1,1.3,1.6,2.3,1.3.7-.2,1.1-.7,1.3-1.3l5.1-17.9,17.9-5.1c1-.3,1.6-1.3,1.3-2.3-.2-.7-.7-1.1-1.3-1.3l-17.9-5.1-5.1-17.9h0Z"/>
        <path class="st0" d="M1539.7,680.1c-.3-1-1.3-1.6-2.3-1.3-.7.2-1.1.7-1.3,1.3l-5.1,17.9-17.9,5.1c-1,.3-1.6,1.3-1.3,2.3.2.7.7,1.1,1.3,1.3l17.9,5.1,5.1,17.9c.3,1,1.3,1.6,2.3,1.3.7-.2,1.1-.7,1.3-1.3l5.1-17.9,17.9-5.1c1-.3,1.6-1.3,1.3-2.3-.2-.7-.7-1.1-1.3-1.3l-17.9-5.1-5.1-17.9h0Z"/>
        <path class="st0" d="M1592.6,680.1c-.3-1-1.3-1.6-2.3-1.3-.7.2-1.1.7-1.3,1.3l-5.1,17.9-17.9,5.1c-1,.3-1.6,1.3-1.3,2.3.2.7.7,1.1,1.3,1.3l17.9,5.1,5.1,17.9c.3,1,1.3,1.6,2.3,1.3.7-.2,1.1-.7,1.3-1.3l5.1-17.9,17.9-5.1c1-.3,1.6-1.3,1.3-2.3-.2-.7-.7-1.1-1.3-1.3l-17.9-5.1-5.1-17.9h0Z"/>
        <path class="st0" d="M1645.5,680.1c-.3-1-1.3-1.6-2.3-1.3-.7.2-1.1.7-1.3,1.3l-5.1,17.9-17.9,5.1c-1,.3-1.6,1.3-1.3,2.3.2.7.7,1.1,1.3,1.3l17.9,5.1,5.1,17.9c.3,1,1.3,1.6,2.3,1.3.7-.2,1.1-.7,1.3-1.3l5.1-17.9,17.9-5.1c1-.3,1.6-1.3,1.3-2.3-.2-.7-.7-1.1-1.3-1.3l-17.9-5.1-5.1-17.9h0Z"/>
        <path class="st0" d="M1857.1,680.1c-.3-1-1.3-1.6-2.3-1.3-.7.2-1.1.7-1.3,1.3l-5.1,17.9-17.9,5.1c-1,.3-1.6,1.3-1.3,2.3.2.7.7,1.1,1.3,1.3l17.9,5.1,5.1,17.9c.3,1,1.3,1.6,2.3,1.3.7-.2,1.1-.7,1.3-1.3l5.1-17.9,17.9-5.1c1-.3,1.6-1.3,1.3-2.3-.2-.7-.7-1.1-1.3-1.3l-17.9-5.1-5.1-17.9h0Z"/>
        <path class="st0" d="M1910,680.1c-.3-1-1.3-1.6-2.3-1.3-.7.2-1.1.7-1.3,1.3l-5.1,17.9-17.9,5.1c-1,.3-1.6,1.3-1.3,2.3.2.7.7,1.1,1.3,1.3l17.9,5.1,5.1,17.9c.3,1,1.3,1.6,2.3,1.3.7-.2,1.1-.7,1.3-1.3l5.1-17.9,17.9-5.1c1-.3,1.6-1.3,1.3-2.3-.2-.7-.7-1.1-1.3-1.3l-17.9-5.1-5.1-17.9h0Z"/>
        <path class="st0" d="M2068.7,680.1c-.3-1-1.3-1.6-2.3-1.3-.7.2-1.1.7-1.3,1.3l-5.1,17.9-17.9,5.1c-1,.3-1.6,1.3-1.3,2.3.2.7.7,1.1,1.3,1.3l17.9,5.1,5.1,17.9c.3,1,1.3,1.6,2.3,1.3.7-.2,1.1-.7,1.3-1.3l5.1-17.9,17.9-5.1c1-.3,1.6-1.3,1.3-2.3-.2-.7-.7-1.1-1.3-1.3l-17.9-5.1-5.1-17.9h0Z"/>
        <path class="st0" d="M2121.6,680.1c-.3-1-1.3-1.6-2.3-1.3-.7.2-1.1.7-1.3,1.3l-5.1,17.9-17.9,5.1c-1,.3-1.6,1.3-1.3,2.3.2.7.7,1.1,1.3,1.3l17.9,5.1,5.1,17.9c.3,1,1.3,1.6,2.3,1.3.7-.2,1.1-.7,1.3-1.3l5.1-17.9,17.9-5.1c1-.3,1.6-1.3,1.3-2.3-.2-.7-.7-1.1-1.3-1.3l-17.9-5.1-5.1-17.9h0Z"/>
        <path class="st0" d="M904.9,627.9c-.3-1-1.3-1.6-2.3-1.3-.7.2-1.1.7-1.3,1.3l-5.1,17.9-17.9,5.1c-1,.3-1.6,1.3-1.3,2.3.2.7.7,1.1,1.3,1.3l17.9,5.1,5.1,17.9c.3,1,1.3,1.6,2.3,1.3.7-.2,1.1-.7,1.3-1.3l5.1-17.9,17.9-5.1c1-.3,1.6-1.3,1.3-2.3-.2-.7-.7-1.1-1.3-1.3l-17.9-5.1-5.1-17.9h0Z"/>
        <path class="st0" d="M957.8,627.9c-.3-1-1.3-1.6-2.3-1.3-.7.2-1.1.7-1.3,1.3l-5.1,17.9-17.9,5.1c-1,.3-1.6,1.3-1.3,2.3.2.7.7,1.1,1.3,1.3l17.9,5.1,5.1,17.9c.3,1,1.3,1.6,2.3,1.3.7-.2,1.1-.7,1.3-1.3l5.1-17.9,17.9-5.1c1-.3,1.6-1.3,1.3-2.3-.2-.7-.7-1.1-1.3-1.3l-17.9-5.1-5.1-17.9h0Z"/>
        <path class="st0" d="M1116.5,627.9c-.3-1-1.3-1.6-2.3-1.3-.7.2-1.1.7-1.3,1.3l-5.1,17.9-17.9,5.1c-1,.3-1.6,1.3-1.3,2.3.2.7.7,1.1,1.3,1.3l17.9,5.1,5.1,17.9c.3,1,1.3,1.6,2.3,1.3.7-.2,1.1-.7,1.3-1.3l5.1-17.9,17.9-5.1c1-.3,1.6-1.3,1.3-2.3-.2-.7-.7-1.1-1.3-1.3l-17.9-5.1-5.1-17.9h0Z"/>
        <path class="st0" d="M1169.4,627.9c-.3-1-1.3-1.6-2.3-1.3-.7.2-1.1.7-1.3,1.3l-5.1,17.9-17.9,5.1c-1,.3-1.6,1.3-1.3,2.3.2.7.7,1.1,1.3,1.3l17.9,5.1,5.1,17.9c.3,1,1.3,1.6,2.3,1.3.7-.2,1.1-.7,1.3-1.3l5.1-17.9,17.9-5.1c1-.3,1.6-1.3,1.3-2.3-.2-.7-.7-1.1-1.3-1.3l-17.9-5.1-5.1-17.9h0Z"/>
        <path class="st0" d="M1222.3,627.9c-.3-1-1.3-1.6-2.3-1.3-.7.2-1.1.7-1.3,1.3l-5.1,17.9-17.9,5.1c-1,.3-1.6,1.3-1.3,2.3.2.7.7,1.1,1.3,1.3l17.9,5.1,5.1,17.9c.3,1,1.3,1.6,2.3,1.3.7-.2,1.1-.7,1.3-1.3l5.1-17.9,17.9-5.1c1-.3,1.6-1.3,1.3-2.3-.2-.7-.7-1.1-1.3-1.3l-17.9-5.1-5.1-17.9h0Z"/>
        <path class="st0" d="M1433.9,627.9c-.3-1-1.3-1.6-2.3-1.3-.7.2-1.1.7-1.3,1.3l-5.1,17.9-17.9,5.1c-1,.3-1.6,1.3-1.3,2.3.2.7.7,1.1,1.3,1.3l17.9,5.1,5.1,17.9c.3,1,1.3,1.6,2.3,1.3.7-.2,1.1-.7,1.3-1.3l5.1-17.9,17.9-5.1c1-.3,1.6-1.3,1.3-2.3-.2-.7-.7-1.1-1.3-1.3l-17.9-5.1-5.1-17.9h0Z"/>
        <path class="st0" d="M1486.8,627.9c-.3-1-1.3-1.6-2.3-1.3-.7.2-1.1.7-1.3,1.3l-5.1,17.9-17.9,5.1c-1,.3-1.6,1.3-1.3,2.3.2.7.7,1.1,1.3,1.3l17.9,5.1,5.1,17.9c.3,1,1.3,1.6,2.3,1.3.7-.2,1.1-.7,1.3-1.3l5.1-17.9,17.9-5.1c1-.3,1.6-1.3,1.3-2.3-.2-.7-.7-1.1-1.3-1.3l-17.9-5.1-5.1-17.9h0Z"/>
        <path class="st0" d="M1539.7,627.9c-.3-1-1.3-1.6-2.3-1.3-.7.2-1.1.7-1.3,1.3l-5.1,17.9-17.9,5.1c-1,.3-1.6,1.3-1.3,2.3.2.7.7,1.1,1.3,1.3l17.9,5.1,5.1,17.9c.3,1,1.3,1.6,2.3,1.3.7-.2,1.1-.7,1.3-1.3l5.1-17.9,17.9-5.1c1-.3,1.6-1.3,1.3-2.3-.2-.7-.7-1.1-1.3-1.3l-17.9-5.1-5.1-17.9h0Z"/>
        <path class="st0" d="M1592.6,627.9c-.3-1-1.3-1.6-2.3-1.3-.7.2-1.1.7-1.3,1.3l-5.1,17.9-17.9,5.1c-1,.3-1.6,1.3-1.3,2.3.2.7.7,1.1,1.3,1.3l17.9,5.1,5.1,17.9c.3,1,1.3,1.6,2.3,1.3.7-.2,1.1-.7,1.3-1.3l5.1-17.9,17.9-5.1c1-.3,1.6-1.3,1.3-2.3-.2-.7-.7-1.1-1.3-1.3l-17.9-5.1-5.1-17.9h0Z"/>
        <path class="st0" d="M1645.5,627.9c-.3-1-1.3-1.6-2.3-1.3-.7.2-1.1.7-1.3,1.3l-5.1,17.9-17.9,5.1c-1,.3-1.6,1.3-1.3,2.3.2.7.7,1.1,1.3,1.3l17.9,5.1,5.1,17.9c.3,1,1.3,1.6,2.3,1.3.7-.2,1.1-.7,1.3-1.3l5.1-17.9,17.9-5.1c1-.3,1.6-1.3,1.3-2.3-.2-.7-.7-1.1-1.3-1.3l-17.9-5.1-5.1-17.9h0Z"/>
        <path class="st0" d="M1698.4,627.9h0c-.3-1-1.3-1.6-2.3-1.3-.7.2-1.1.7-1.3,1.3l-5.1,17.9-17.9,5.1c-1,.3-1.6,1.3-1.3,2.3.2.7.7,1.1,1.3,1.3l17.9,5.1,5.1,17.9c.3,1,1.3,1.6,2.3,1.3.7-.2,1.1-.7,1.3-1.3l5.1-17.9,17.9-5.1c1-.3,1.6-1.3,1.3-2.3-.2-.7-.7-1.1-1.3-1.3l-17.9-5.1-5.1-17.9h0Z"/>
        <path class="st0" d="M1381,627.9c-.3-1-1.3-1.6-2.3-1.3-.7.2-1.1.7-1.3,1.3l-5.1,17.9-17.9,5.1c-1,.3-1.6,1.3-1.3,2.3.2.7.7,1.1,1.3,1.3l17.9,5.1,5.1,17.9c.3,1,1.3,1.6,2.3,1.3.7-.2,1.1-.7,1.3-1.3l5.1-17.9,17.9-5.1c1-.3,1.6-1.3,1.3-2.3-.2-.7-.7-1.1-1.3-1.3l-17.9-5.1-5.1-17.9h0Z"/>
        <path class="st0" d="M1539.7,471.3c-.3-1-1.3-1.6-2.3-1.3-.7.2-1.1.7-1.3,1.3l-5.1,17.9-17.9,5.1c-1,.3-1.6,1.3-1.3,2.3.2.7.7,1.1,1.3,1.3l17.9,5.1,5.1,17.9c.3,1,1.3,1.6,2.3,1.3.7-.2,1.1-.7,1.3-1.3l5.1-17.9,17.9-5.1c1-.3,1.6-1.3,1.3-2.3-.2-.7-.7-1.1-1.3-1.3l-17.9-5.1-5.1-17.9h0Z"/>
        <path class="st0" d="M1539.7,784.5c-.3-1-1.3-1.6-2.3-1.3-.7.2-1.1.7-1.3,1.3l-5.1,17.9-17.9,5.1c-1,.3-1.6,1.3-1.3,2.3.2.7.7,1.1,1.3,1.3l17.9,5.1,5.1,17.9c.3,1,1.3,1.6,2.3,1.3.7-.2,1.1-.7,1.3-1.3l5.1-17.9,17.9-5.1c1-.3,1.6-1.3,1.3-2.3-.2-.7-.7-1.1-1.3-1.3l-17.9-5.1-5.1-17.9h0Z"/>
        <path class="st0" d="M1857.1,627.9c-.3-1-1.3-1.6-2.3-1.3-.7.2-1.1.7-1.3,1.3l-5.1,17.9-17.9,5.1c-1,.3-1.6,1.3-1.3,2.3.2.7.7,1.1,1.3,1.3l17.9,5.1,5.1,17.9c.3,1,1.3,1.6,2.3,1.3.7-.2,1.1-.7,1.3-1.3l5.1-17.9,17.9-5.1c1-.3,1.6-1.3,1.3-2.3-.2-.7-.7-1.1-1.3-1.3l-17.9-5.1-5.1-17.9h0Z"/>
        <path class="st0" d="M1910,627.9c-.3-1-1.3-1.6-2.3-1.3-.7.2-1.1.7-1.3,1.3l-5.1,17.9-17.9,5.1c-1,.3-1.6,1.3-1.3,2.3.2.7.7,1.1,1.3,1.3l17.9,5.1,5.1,17.9c.3,1,1.3,1.6,2.3,1.3.7-.2,1.1-.7,1.3-1.3l5.1-17.9,17.9-5.1c1-.3,1.6-1.3,1.3-2.3-.2-.7-.7-1.1-1.3-1.3l-17.9-5.1-5.1-17.9h0Z"/>
        <path class="st0" d="M1962.9,627.9c-.3-1-1.3-1.6-2.3-1.3-.7.2-1.1.7-1.3,1.3l-5.1,17.9-17.9,5.1c-1,.3-1.6,1.3-1.3,2.3.2.7.7,1.1,1.3,1.3l17.9,5.1,5.1,17.9c.3,1,1.3,1.6,2.3,1.3.7-.2,1.1-.7,1.3-1.3l5.1-17.9,17.9-5.1c1-.3,1.6-1.3,1.3-2.3-.2-.7-.7-1.1-1.3-1.3l-17.9-5.1-5.1-17.9h0Z"/>
        <path class="st0" d="M2121.6,627.9c-.3-1-1.3-1.6-2.3-1.3-.7.2-1.1.7-1.3,1.3l-5.1,17.9-17.9,5.1c-1,.3-1.6,1.3-1.3,2.3.2.7.7,1.1,1.3,1.3l17.9,5.1,5.1,17.9c.3,1,1.3,1.6,2.3,1.3.7-.2,1.1-.7,1.3-1.3l5.1-17.9,17.9-5.1c1-.3,1.6-1.3,1.3-2.3-.2-.7-.7-1.1-1.3-1.3l-17.9-5.1-5.1-17.9h0Z"/>
        <path class="st0" d="M2174.5,627.9c-.3-1-1.3-1.6-2.3-1.3-.7.2-1.1.7-1.3,1.3l-5.1,17.9-17.9,5.1c-1,.3-1.6,1.3-1.3,2.3.2.7.7,1.1,1.3,1.3l17.9,5.1,5.1,17.9c.3,1,1.3,1.6,2.3,1.3.7-.2,1.1-.7,1.3-1.3l5.1-17.9,17.9-5.1c1-.3,1.6-1.3,1.3-2.3-.2-.7-.7-1.1-1.3-1.3l-17.9-5.1-5.1-17.9h0Z"/>
        <path class="st0" d="M957.8,575.7c-.3-1-1.3-1.6-2.3-1.3-.7.2-1.1.7-1.3,1.3l-5.1,17.9-17.9,5.1c-1,.3-1.6,1.3-1.3,2.3.2.7.7,1.1,1.3,1.3l17.9,5.1,5.1,17.9c.3,1,1.3,1.6,2.3,1.3.7-.2,1.1-.7,1.3-1.3l5.1-17.9,17.9-5.1c1-.3,1.6-1.3,1.3-2.3-.2-.7-.7-1.1-1.3-1.3l-17.9-5.1-5.1-17.9h0Z"/>
        <path class="st0" d="M1010.7,575.7c-.3-1-1.3-1.6-2.3-1.3-.7.2-1.1.7-1.3,1.3l-5.1,17.9-17.9,5.1c-1,.3-1.6,1.3-1.3,2.3.2.7.7,1.1,1.3,1.3l17.9,5.1,5.1,17.9c.3,1,1.3,1.6,2.3,1.3.7-.2,1.1-.7,1.3-1.3l5.1-17.9,17.9-5.1c1-.3,1.6-1.3,1.3-2.3-.2-.7-.7-1.1-1.3-1.3l-17.9-5.1-5.1-17.9h0Z"/>
        <path class="st0" d="M1169.4,575.7c-.3-1-1.3-1.6-2.3-1.3-.7.2-1.1.7-1.3,1.3l-5.1,17.9-17.9,5.1c-1,.3-1.6,1.3-1.3,2.3.2.7.7,1.1,1.3,1.3l17.9,5.1,5.1,17.9c.3,1,1.3,1.6,2.3,1.3.7-.2,1.1-.7,1.3-1.3l5.1-17.9,17.9-5.1c1-.3,1.6-1.3,1.3-2.3-.2-.7-.7-1.1-1.3-1.3l-17.9-5.1-5.1-17.9h0Z"/>
        <path class="st0" d="M1222.3,575.7c-.3-1-1.3-1.6-2.3-1.3-.7.2-1.1.7-1.3,1.3l-5.1,17.9-17.9,5.1c-1,.3-1.6,1.3-1.3,2.3.2.7.7,1.1,1.3,1.3l17.9,5.1,5.1,17.9c.3,1,1.3,1.6,2.3,1.3.7-.2,1.1-.7,1.3-1.3l5.1-17.9,17.9-5.1c1-.3,1.6-1.3,1.3-2.3-.2-.7-.7-1.1-1.3-1.3l-17.9-5.1-5.1-17.9h0Z"/>
        <path class="st0" d="M1222.3,523.5c-.3-1-1.3-1.6-2.3-1.3-.7.2-1.1.7-1.3,1.3l-5.1,17.9-17.9,5.1c-1,.3-1.6,1.3-1.3,2.3.2.7.7,1.1,1.3,1.3l17.9,5.1,5.1,17.9c.3,1,1.3,1.6,2.3,1.3.7-.2,1.1-.7,1.3-1.3l5.1-17.9,17.9-5.1c1-.3,1.6-1.3,1.3-2.3-.2-.7-.7-1.1-1.3-1.3l-17.9-5.1-5.1-17.9h0Z"/>
        <path class="st0" d="M1433.9,575.7c-.3-1-1.3-1.6-2.3-1.3-.7.2-1.1.7-1.3,1.3l-5.1,17.9-17.9,5.1c-1,.3-1.6,1.3-1.3,2.3.2.7.7,1.1,1.3,1.3l17.9,5.1,5.1,17.9c.3,1,1.3,1.6,2.3,1.3.7-.2,1.1-.7,1.3-1.3l5.1-17.9,17.9-5.1c1-.3,1.6-1.3,1.3-2.3-.2-.7-.7-1.1-1.3-1.3l-17.9-5.1-5.1-17.9h0Z"/>
        <path class="st0" d="M1486.8,575.7c-.3-1-1.3-1.6-2.3-1.3-.7.2-1.1.7-1.3,1.3l-5.1,17.9-17.9,5.1c-1,.3-1.6,1.3-1.3,2.3.2.7.7,1.1,1.3,1.3l17.9,5.1,5.1,17.9c.3,1,1.3,1.6,2.3,1.3.7-.2,1.1-.7,1.3-1.3l5.1-17.9,17.9-5.1c1-.3,1.6-1.3,1.3-2.3-.2-.7-.7-1.1-1.3-1.3l-17.9-5.1-5.1-17.9h0Z"/>
        <path class="st0" d="M1539.7,575.7c-.3-1-1.3-1.6-2.3-1.3-.7.2-1.1.7-1.3,1.3l-5.1,17.9-17.9,5.1c-1,.3-1.6,1.3-1.3,2.3.2.7.7,1.1,1.3,1.3l17.9,5.1,5.1,17.9c.3,1,1.3,1.6,2.3,1.3.7-.2,1.1-.7,1.3-1.3l5.1-17.9,17.9-5.1c1-.3,1.6-1.3,1.3-2.3-.2-.7-.7-1.1-1.3-1.3l-17.9-5.1-5.1-17.9h0Z"/>
        <path class="st0" d="M1592.6,575.7c-.3-1-1.3-1.6-2.3-1.3-.7.2-1.1.7-1.3,1.3l-5.1,17.9-17.9,5.1c-1,.3-1.6,1.3-1.3,2.3.2.7.7,1.1,1.3,1.3l17.9,5.1,5.1,17.9c.3,1,1.3,1.6,2.3,1.3.7-.2,1.1-.7,1.3-1.3l5.1-17.9,17.9-5.1c1-.3,1.6-1.3,1.3-2.3-.2-.7-.7-1.1-1.3-1.3l-17.9-5.1-5.1-17.9h0Z"/>
        <path class="st0" d="M1645.5,575.7c-.3-1-1.3-1.6-2.3-1.3-.7.2-1.1.7-1.3,1.3l-5.1,17.9-17.9,5.1c-1,.3-1.6,1.3-1.3,2.3.2.7.7,1.1,1.3,1.3l17.9,5.1,5.1,17.9c.3,1,1.3,1.6,2.3,1.3.7-.2,1.1-.7,1.3-1.3l5.1-17.9,17.9-5.1c1-.3,1.6-1.3,1.3-2.3-.2-.7-.7-1.1-1.3-1.3l-17.9-5.1-5.1-17.9h0Z"/>
        <path class="st0" d="M1857.1,575.7c-.3-1-1.3-1.6-2.3-1.3-.7.2-1.1.7-1.3,1.3l-5.1,17.9-17.9,5.1c-1,.3-1.6,1.3-1.3,2.3.2.7.7,1.1,1.3,1.3l17.9,5.1,5.1,17.9c.3,1,1.3,1.6,2.3,1.3.7-.2,1.1-.7,1.3-1.3l5.1-17.9,17.9-5.1c1-.3,1.6-1.3,1.3-2.3-.2-.7-.7-1.1-1.3-1.3l-17.9-5.1-5.1-17.9h0Z"/>
        <path class="st0" d="M1910,575.7c-.3-1-1.3-1.6-2.3-1.3-.7.2-1.1.7-1.3,1.3l-5.1,17.9-17.9,5.1c-1,.3-1.6,1.3-1.3,2.3.2.7.7,1.1,1.3,1.3l17.9,5.1,5.1,17.9c.3,1,1.3,1.6,2.3,1.3.7-.2,1.1-.7,1.3-1.3l5.1-17.9,17.9-5.1c1-.3,1.6-1.3,1.3-2.3-.2-.7-.7-1.1-1.3-1.3l-17.9-5.1-5.1-17.9h0Z"/>
        <path class="st0" d="M2068.7,575.7c-.3-1-1.3-1.6-2.3-1.3-.7.2-1.1.7-1.3,1.3l-5.1,17.9-17.9,5.1c-1,.3-1.6,1.3-1.3,2.3.2.7.7,1.1,1.3,1.3l17.9,5.1,5.1,17.9c.3,1,1.3,1.6,2.3,1.3.7-.2,1.1-.7,1.3-1.3l5.1-17.9,17.9-5.1c1-.3,1.6-1.3,1.3-2.3-.2-.7-.7-1.1-1.3-1.3l-17.9-5.1-5.1-17.9h0Z"/>
        <path class="st0" d="M2121.6,575.7c-.3-1-1.3-1.6-2.3-1.3-.7.2-1.1.7-1.3,1.3l-5.1,17.9-17.9,5.1c-1,.3-1.6,1.3-1.3,2.3.2.7.7,1.1,1.3,1.3l17.9,5.1,5.1,17.9c.3,1,1.3,1.6,2.3,1.3.7-.2,1.1-.7,1.3-1.3l5.1-17.9,17.9-5.1c1-.3,1.6-1.3,1.3-2.3-.2-.7-.7-1.1-1.3-1.3l-17.9-5.1-5.1-17.9h0Z"/>
        <path class="st0" d="M1010.7,523.5c-.3-1-1.3-1.6-2.3-1.3-.7.2-1.1.7-1.3,1.3l-5.1,17.9-17.9,5.1c-1,.3-1.6,1.3-1.3,2.3.2.7.7,1.1,1.3,1.3l17.9,5.1,5.1,17.9c.3,1,1.3,1.6,2.3,1.3.7-.2,1.1-.7,1.3-1.3l5.1-17.9,17.9-5.1c1-.3,1.6-1.3,1.3-2.3-.2-.7-.7-1.1-1.3-1.3l-17.9-5.1-5.1-17.9h0Z"/>
        <path class="st0" d="M1063.6,523.5c-.3-1-1.3-1.6-2.3-1.3-.7.2-1.1.7-1.3,1.3l-5.1,17.9-17.9,5.1c-1,.3-1.6,1.3-1.3,2.3.2.7.7,1.1,1.3,1.3l17.9,5.1,5.1,17.9c.3,1,1.3,1.6,2.3,1.3.7-.2,1.1-.7,1.3-1.3l5.1-17.9,17.9-5.1c1-.3,1.6-1.3,1.3-2.3-.2-.7-.7-1.1-1.3-1.3l-17.9-5.1-5.1-17.9h0Z"/>
        <path class="st0" d="M1486.8,523.5c-.3-1-1.3-1.6-2.3-1.3-.7.2-1.1.7-1.3,1.3l-5.1,17.9-17.9,5.1c-1,.3-1.6,1.3-1.3,2.3.2.7.7,1.1,1.3,1.3l17.9,5.1,5.1,17.9c.3,1,1.3,1.6,2.3,1.3.7-.2,1.1-.7,1.3-1.3l5.1-17.9,17.9-5.1c1-.3,1.6-1.3,1.3-2.3-.2-.7-.7-1.1-1.3-1.3l-17.9-5.1-5.1-17.9h0Z"/>
        <path class="st0" d="M1539.7,523.5c-.3-1-1.3-1.6-2.3-1.3-.7.2-1.1.7-1.3,1.3l-5.1,17.9-17.9,5.1c-1,.3-1.6,1.3-1.3,2.3.2.7.7,1.1,1.3,1.3l17.9,5.1,5.1,17.9c.3,1,1.3,1.6,2.3,1.3.7-.2,1.1-.7,1.3-1.3l5.1-17.9,17.9-5.1c1-.3,1.6-1.3,1.3-2.3-.2-.7-.7-1.1-1.3-1.3l-17.9-5.1-5.1-17.9h0Z"/>
        <path class="st0" d="M1592.6,523.5c-.3-1-1.3-1.6-2.3-1.3-.7.2-1.1.7-1.3,1.3l-5.1,17.9-17.9,5.1c-1,.3-1.6,1.3-1.3,2.3.2.7.7,1.1,1.3,1.3l17.9,5.1,5.1,17.9c.3,1,1.3,1.6,2.3,1.3.7-.2,1.1-.7,1.3-1.3l5.1-17.9,17.9-5.1c1-.3,1.6-1.3,1.3-2.3-.2-.7-.7-1.1-1.3-1.3l-17.9-5.1-5.1-17.9h0Z"/>
        <path class="st0" d="M1857.1,523.5c-.3-1-1.3-1.6-2.3-1.3-.7.2-1.1.7-1.3,1.3l-5.1,17.9-17.9,5.1c-1,.3-1.6,1.3-1.3,2.3.2.7.7,1.1,1.3,1.3l17.9,5.1,5.1,17.9c.3,1,1.3,1.6,2.3,1.3.7-.2,1.1-.7,1.3-1.3l5.1-17.9,17.9-5.1c1-.3,1.6-1.3,1.3-2.3-.2-.7-.7-1.1-1.3-1.3l-17.9-5.1-5.1-17.9h0Z"/>
        <path class="st0" d="M2015.8,523.5c-.3-1-1.3-1.6-2.3-1.3-.7.2-1.1.7-1.3,1.3l-5.1,17.9-17.9,5.1c-1,.3-1.6,1.3-1.3,2.3.2.7.7,1.1,1.3,1.3l17.9,5.1,5.1,17.9c.3,1,1.3,1.6,2.3,1.3.7-.2,1.1-.7,1.3-1.3l5.1-17.9,17.9-5.1c1-.3,1.6-1.3,1.3-2.3-.2-.7-.7-1.1-1.3-1.3l-17.9-5.1-5.1-17.9h0Z"/>
        <path class="st0" d="M2068.7,523.5c-.3-1-1.3-1.6-2.3-1.3-.7.2-1.1.7-1.3,1.3l-5.1,17.9-17.9,5.1c-1,.3-1.6,1.3-1.3,2.3.2.7.7,1.1,1.3,1.3l17.9,5.1,5.1,17.9c.3,1,1.3,1.6,2.3,1.3.7-.2,1.1-.7,1.3-1.3l5.1-17.9,17.9-5.1c1-.3,1.6-1.3,1.3-2.3-.2-.7-.7-1.1-1.3-1.3l-17.9-5.1-5.1-17.9h0Z"/>
        <path class="st0" d="M1063.6,471.3c-.3-1-1.3-1.6-2.3-1.3-.7.2-1.1.7-1.3,1.3l-5.1,17.9-17.9,5.1c-1,.3-1.6,1.3-1.3,2.3.2.7.7,1.1,1.3,1.3l17.9,5.1,5.1,17.9c.3,1,1.3,1.6,2.3,1.3.7-.2,1.1-.7,1.3-1.3l5.1-17.9,17.9-5.1c1-.3,1.6-1.3,1.3-2.3-.2-.7-.7-1.1-1.3-1.3l-17.9-5.1-5.1-17.9h0Z"/>
        <path class="st0" d="M1116.5,471.3c-.3-1-1.3-1.6-2.3-1.3-.7.2-1.1.7-1.3,1.3l-5.1,17.9-17.9,5.1c-1,.3-1.6,1.3-1.3,2.3.2.7.7,1.1,1.3,1.3l17.9,5.1,5.1,17.9c.3,1,1.3,1.6,2.3,1.3.7-.2,1.1-.7,1.3-1.3l5.1-17.9,17.9-5.1c1-.3,1.6-1.3,1.3-2.3-.2-.7-.7-1.1-1.3-1.3l-17.9-5.1-5.1-17.9h0Z"/>
        <path class="st0" d="M1275.2,471.3c-.3-1-1.3-1.6-2.3-1.3-.7.2-1.1.7-1.3,1.3l-5.1,17.9-17.9,5.1c-1,.3-1.6,1.3-1.3,2.3.2.7.7,1.1,1.3,1.3l17.9,5.1,5.1,17.9c.3,1,1.3,1.6,2.3,1.3.7-.2,1.1-.7,1.3-1.3l5.1-17.9,17.9-5.1c1-.3,1.6-1.3,1.3-2.3-.2-.7-.7-1.1-1.3-1.3l-17.9-5.1-5.1-17.9h0Z"/>
        <path class="st0" d="M1328.1,471.3c-.3-1-1.3-1.6-2.3-1.3-.7.2-1.1.7-1.3,1.3l-5.1,17.9-17.9,5.1c-1,.3-1.6,1.3-1.3,2.3.2.7.7,1.1,1.3,1.3l17.9,5.1,5.1,17.9c.3,1,1.3,1.6,2.3,1.3.7-.2,1.1-.7,1.3-1.3l5.1-17.9,17.9-5.1c1-.3,1.6-1.3,1.3-2.3-.2-.7-.7-1.1-1.3-1.3l-17.9-5.1-5.1-17.9h0Z"/>
        <path class="st0" d="M1751.3,471.3c-.3-1-1.3-1.6-2.3-1.3-.7.2-1.1.7-1.3,1.3l-5.1,17.9-17.9,5.1c-1,.3-1.6,1.3-1.3,2.3.2.7.7,1.1,1.3,1.3l17.9,5.1,5.1,17.9c.3,1,1.3,1.6,2.3,1.3.7-.2,1.1-.7,1.3-1.3l5.1-17.9,17.9-5.1c1-.3,1.6-1.3,1.3-2.3-.2-.7-.7-1.1-1.3-1.3l-17.9-5.1-5.1-17.9h0Z"/>
        <path class="st0" d="M1804.2,471.3c-.3-1-1.3-1.6-2.3-1.3-.7.2-1.1.7-1.3,1.3l-5.1,17.9-17.9,5.1c-1,.3-1.6,1.3-1.3,2.3.2.7.7,1.1,1.3,1.3l17.9,5.1,5.1,17.9c.3,1,1.3,1.6,2.3,1.3.7-.2,1.1-.7,1.3-1.3l5.1-17.9,17.9-5.1c1-.3,1.6-1.3,1.3-2.3-.2-.7-.7-1.1-1.3-1.3l-17.9-5.1-5.1-17.9h0Z"/>
        <path class="st0" d="M1962.9,471.3c-.3-1-1.3-1.6-2.3-1.3-.7.2-1.1.7-1.3,1.3l-5.1,17.9-17.9,5.1c-1,.3-1.6,1.3-1.3,2.3.2.7.7,1.1,1.3,1.3l17.9,5.1,5.1,17.9c.3,1,1.3,1.6,2.3,1.3.7-.2,1.1-.7,1.3-1.3l5.1-17.9,17.9-5.1c1-.3,1.6-1.3,1.3-2.3-.2-.7-.7-1.1-1.3-1.3l-17.9-5.1-5.1-17.9h0Z"/>
        <path class="st0" d="M2015.8,471.3c-.3-1-1.3-1.6-2.3-1.3-.7.2-1.1.7-1.3,1.3l-5.1,17.9-17.9,5.1c-1,.3-1.6,1.3-1.3,2.3.2.7.7,1.1,1.3,1.3l17.9,5.1,5.1,17.9c.3,1,1.3,1.6,2.3,1.3.7-.2,1.1-.7,1.3-1.3l5.1-17.9,17.9-5.1c1-.3,1.6-1.3,1.3-2.3-.2-.7-.7-1.1-1.3-1.3l-17.9-5.1-5.1-17.9h0Z"/>
        <path class="st0" d="M1116.5,419c-.3-1-1.3-1.6-2.3-1.3-.7.2-1.1.7-1.3,1.3l-5.1,17.9-17.9,5.1c-1,.3-1.6,1.3-1.3,2.3.2.7.7,1.1,1.3,1.3l17.9,5.1,5.1,17.9c.3,1,1.3,1.6,2.3,1.3.7-.2,1.1-.7,1.3-1.3l5.1-17.9,17.9-5.1c1-.3,1.6-1.3,1.3-2.3-.2-.7-.7-1.1-1.3-1.3l-17.9-5.1-5.1-17.9h0Z"/>
        <path class="st0" d="M1169.4,419c-.3-1-1.3-1.6-2.3-1.3-.7.2-1.1.7-1.3,1.3l-5.1,17.9-17.9,5.1c-1,.3-1.6,1.3-1.3,2.3.2.7.7,1.1,1.3,1.3l17.9,5.1,5.1,17.9c.3,1,1.3,1.6,2.3,1.3.7-.2,1.1-.7,1.3-1.3l5.1-17.9,17.9-5.1c1-.3,1.6-1.3,1.3-2.3-.2-.7-.7-1.1-1.3-1.3l-17.9-5.1-5.1-17.9h0Z"/>
        <path class="st0" d="M1222.3,419c-.3-1-1.3-1.6-2.3-1.3-.7.2-1.1.7-1.3,1.3l-5.1,17.9-17.9,5.1c-1,.3-1.6,1.3-1.3,2.3.2.7.7,1.1,1.3,1.3l17.9,5.1,5.1,17.9c.3,1,1.3,1.6,2.3,1.3.7-.2,1.1-.7,1.3-1.3l5.1-17.9,17.9-5.1c1-.3,1.6-1.3,1.3-2.3-.2-.7-.7-1.1-1.3-1.3l-17.9-5.1-5.1-17.9h0Z"/>
        <path class="st0" d="M1275.2,419c-.3-1-1.3-1.6-2.3-1.3-.7.2-1.1.7-1.3,1.3l-5.1,17.9-17.9,5.1c-1,.3-1.6,1.3-1.3,2.3.2.7.7,1.1,1.3,1.3l17.9,5.1,5.1,17.9c.3,1,1.3,1.6,2.3,1.3.7-.2,1.1-.7,1.3-1.3l5.1-17.9,17.9-5.1c1-.3,1.6-1.3,1.3-2.3-.2-.7-.7-1.1-1.3-1.3l-17.9-5.1-5.1-17.9h0Z"/>
        <path class="st0" d="M1381,419c-.3-1-1.3-1.6-2.3-1.3-.7.2-1.1.7-1.3,1.3l-5.1,17.9-17.9,5.1c-1,.3-1.6,1.3-1.3,2.3.2.7.7,1.1,1.3,1.3l17.9,5.1,5.1,17.9c.3,1,1.3,1.6,2.3,1.3.7-.2,1.1-.7,1.3-1.3l5.1-17.9,17.9-5.1c1-.3,1.6-1.3,1.3-2.3-.2-.7-.7-1.1-1.3-1.3l-17.9-5.1-5.1-17.9h0Z"/>
        <path class="st0" d="M1433.9,314.6c-.3-1-1.3-1.6-2.3-1.3-.7.2-1.1.7-1.3,1.3l-5.1,17.9-17.9,5.1c-1,.3-1.6,1.3-1.3,2.3.2.7.7,1.1,1.3,1.3l17.9,5.1,5.1,17.9c.3,1,1.3,1.6,2.3,1.3.7-.2,1.1-.7,1.3-1.3l5.1-17.9,17.9-5.1c1-.3,1.6-1.3,1.3-2.3-.2-.7-.7-1.1-1.3-1.3l-17.9-5.1-5.1-17.9h0Z"/>
        <path class="st0" d="M1698.4,419h0c-.3-1-1.3-1.6-2.3-1.3-.7.2-1.1.7-1.3,1.3l-5.1,17.9-17.9,5.1c-1,.3-1.6,1.3-1.3,2.3.2.7.7,1.1,1.3,1.3l17.9,5.1,5.1,17.9c.3,1,1.3,1.6,2.3,1.3.7-.2,1.1-.7,1.3-1.3l5.1-17.9,17.9-5.1c1-.3,1.6-1.3,1.3-2.3-.2-.7-.7-1.1-1.3-1.3l-17.9-5.1-5.1-17.9h0Z"/>
        <path class="st0" d="M1698.4,471.3h0c-.3-1-1.3-1.6-2.3-1.3-.7.2-1.1.7-1.3,1.3l-5.1,17.9-17.9,5.1c-1,.3-1.6,1.3-1.3,2.3.2.7.7,1.1,1.3,1.3l17.9,5.1,5.1,17.9c.3,1,1.3,1.6,2.3,1.3.7-.2,1.1-.7,1.3-1.3l5.1-17.9,17.9-5.1c1-.3,1.6-1.3,1.3-2.3-.2-.7-.7-1.1-1.3-1.3l-17.9-5.1-5.1-17.9h0Z"/>
        <path class="st0" d="M1381,471.3c-.3-1-1.3-1.6-2.3-1.3-.7.2-1.1.7-1.3,1.3l-5.1,17.9-17.9,5.1c-1,.3-1.6,1.3-1.3,2.3.2.7.7,1.1,1.3,1.3l17.9,5.1,5.1,17.9c.3,1,1.3,1.6,2.3,1.3.7-.2,1.1-.7,1.3-1.3l5.1-17.9,17.9-5.1c1-.3,1.6-1.3,1.3-2.3-.2-.7-.7-1.1-1.3-1.3l-17.9-5.1-5.1-17.9h0Z"/>
        <path class="st0" d="M1698.4,784.5h0c-.3-1-1.3-1.6-2.3-1.3-.7.2-1.1.7-1.3,1.3l-5.1,17.9-17.9,5.1c-1,.3-1.6,1.3-1.3,2.3.2.7.7,1.1,1.3,1.3l17.9,5.1,5.1,17.9c.3,1,1.3,1.6,2.3,1.3.7-.2,1.1-.7,1.3-1.3l5.1-17.9,17.9-5.1c1-.3,1.6-1.3,1.3-2.3-.2-.7-.7-1.1-1.3-1.3l-17.9-5.1-5.1-17.9h0Z"/>
        <path class="st0" d="M1381,784.5c-.3-1-1.3-1.6-2.3-1.3-.7.2-1.1.7-1.3,1.3l-5.1,17.9-17.9,5.1c-1,.3-1.6,1.3-1.3,2.3.2.7.7,1.1,1.3,1.3l17.9,5.1,5.1,17.9c.3,1,1.3,1.6,2.3,1.3.7-.2,1.1-.7,1.3-1.3l5.1-17.9,17.9-5.1c1-.3,1.6-1.3,1.3-2.3-.2-.7-.7-1.1-1.3-1.3l-17.9-5.1-5.1-17.9h0Z"/>
        <path class="st0" d="M1804.2,419c-.3-1-1.3-1.6-2.3-1.3-.7.2-1.1.7-1.3,1.3l-5.1,17.9-17.9,5.1c-1,.3-1.6,1.3-1.3,2.3.2.7.7,1.1,1.3,1.3l17.9,5.1,5.1,17.9c.3,1,1.3,1.6,2.3,1.3.7-.2,1.1-.7,1.3-1.3l5.1-17.9,17.9-5.1c1-.3,1.6-1.3,1.3-2.3-.2-.7-.7-1.1-1.3-1.3l-17.9-5.1-5.1-17.9h0Z"/>
        <path class="st0" d="M1857.1,419c-.3-1-1.3-1.6-2.3-1.3-.7.2-1.1.7-1.3,1.3l-5.1,17.9-17.9,5.1c-1,.3-1.6,1.3-1.3,2.3.2.7.7,1.1,1.3,1.3l17.9,5.1,5.1,17.9c.3,1,1.3,1.6,2.3,1.3.7-.2,1.1-.7,1.3-1.3l5.1-17.9,17.9-5.1c1-.3,1.6-1.3,1.3-2.3-.2-.7-.7-1.1-1.3-1.3l-17.9-5.1-5.1-17.9h0Z"/>
        <path class="st0" d="M1910,419c-.3-1-1.3-1.6-2.3-1.3-.7.2-1.1.7-1.3,1.3l-5.1,17.9-17.9,5.1c-1,.3-1.6,1.3-1.3,2.3.2.7.7,1.1,1.3,1.3l17.9,5.1,5.1,17.9c.3,1,1.3,1.6,2.3,1.3.7-.2,1.1-.7,1.3-1.3l5.1-17.9,17.9-5.1c1-.3,1.6-1.3,1.3-2.3-.2-.7-.7-1.1-1.3-1.3l-17.9-5.1-5.1-17.9h0Z"/>
        <path class="st0" d="M1962.9,419c-.3-1-1.3-1.6-2.3-1.3-.7.2-1.1.7-1.3,1.3l-5.1,17.9-17.9,5.1c-1,.3-1.6,1.3-1.3,2.3.2.7.7,1.1,1.3,1.3l17.9,5.1,5.1,17.9c.3,1,1.3,1.6,2.3,1.3.7-.2,1.1-.7,1.3-1.3l5.1-17.9,17.9-5.1c1-.3,1.6-1.3,1.3-2.3-.2-.7-.7-1.1-1.3-1.3l-17.9-5.1-5.1-17.9h0Z"/>
        <path class="st0" d="M1328.1,366.8c-.3-1-1.3-1.6-2.3-1.3-.7.2-1.1.7-1.3,1.3l-5.1,17.9-17.9,5.1c-1,.3-1.6,1.3-1.3,2.3.2.7.7,1.1,1.3,1.3l17.9,5.1,5.1,17.9c.3,1,1.3,1.6,2.3,1.3.7-.2,1.1-.7,1.3-1.3l5.1-17.9,17.9-5.1c1-.3,1.6-1.3,1.3-2.3-.2-.7-.7-1.1-1.3-1.3l-17.9-5.1-5.1-17.9h0Z"/>
        <path class="st0" d="M1381,366.8c-.3-1-1.3-1.6-2.3-1.3-.7.2-1.1.7-1.3,1.3l-5.1,17.9-17.9,5.1c-1,.3-1.6,1.3-1.3,2.3.2.7.7,1.1,1.3,1.3l17.9,5.1,5.1,17.9c.3,1,1.3,1.6,2.3,1.3.7-.2,1.1-.7,1.3-1.3l5.1-17.9,17.9-5.1c1-.3,1.6-1.3,1.3-2.3-.2-.7-.7-1.1-1.3-1.3l-17.9-5.1-5.1-17.9h0Z"/>
        <path class="st0" d="M1698.4,366.8h0c-.3-1-1.3-1.6-2.3-1.3-.7.2-1.1.7-1.3,1.3l-5.1,17.9-17.9,5.1c-1,.3-1.6,1.3-1.3,2.3.2.7.7,1.1,1.3,1.3l17.9,5.1,5.1,17.9c.3,1,1.3,1.6,2.3,1.3.7-.2,1.1-.7,1.3-1.3l5.1-17.9,17.9-5.1c1-.3,1.6-1.3,1.3-2.3-.2-.7-.7-1.1-1.3-1.3l-17.9-5.1-5.1-17.9h0Z"/>
        <path class="st0" d="M1751.3,366.8c-.3-1-1.3-1.6-2.3-1.3-.7.2-1.1.7-1.3,1.3l-5.1,17.9-17.9,5.1c-1,.3-1.6,1.3-1.3,2.3.2.7.7,1.1,1.3,1.3l17.9,5.1,5.1,17.9c.3,1,1.3,1.6,2.3,1.3.7-.2,1.1-.7,1.3-1.3l5.1-17.9,17.9-5.1c1-.3,1.6-1.3,1.3-2.3-.2-.7-.7-1.1-1.3-1.3l-17.9-5.1-5.1-17.9h0Z"/>
        <path class="st0" d="M1328.1,314.6c-.3-1-1.3-1.6-2.3-1.3-.7.2-1.1.7-1.3,1.3l-5.1,17.9-17.9,5.1c-1,.3-1.6,1.3-1.3,2.3.2.7.7,1.1,1.3,1.3l17.9,5.1,5.1,17.9c.3,1,1.3,1.6,2.3,1.3.7-.2,1.1-.7,1.3-1.3l5.1-17.9,17.9-5.1c1-.3,1.6-1.3,1.3-2.3-.2-.7-.7-1.1-1.3-1.3l-17.9-5.1-5.1-17.9h0Z"/>
        <path class="st0" d="M1486.8,314.6c-.3-1-1.3-1.6-2.3-1.3-.7.2-1.1.7-1.3,1.3l-5.1,17.9-17.9,5.1c-1,.3-1.6,1.3-1.3,2.3.2.7.7,1.1,1.3,1.3l17.9,5.1,5.1,17.9c.3,1,1.3,1.6,2.3,1.3.7-.2,1.1-.7,1.3-1.3l5.1-17.9,17.9-5.1c1-.3,1.6-1.3,1.3-2.3-.2-.7-.7-1.1-1.3-1.3l-17.9-5.1-5.1-17.9h0Z"/>
        <path class="st0" d="M1539.7,314.6c-.3-1-1.3-1.6-2.3-1.3-.7.2-1.1.7-1.3,1.3l-5.1,17.9-17.9,5.1c-1,.3-1.6,1.3-1.3,2.3.2.7.7,1.1,1.3,1.3l17.9,5.1,5.1,17.9c.3,1,1.3,1.6,2.3,1.3.7-.2,1.1-.7,1.3-1.3l5.1-17.9,17.9-5.1c1-.3,1.6-1.3,1.3-2.3-.2-.7-.7-1.1-1.3-1.3l-17.9-5.1-5.1-17.9h0Z"/>
        <path class="st0" d="M1592.6,314.6c-.3-1-1.3-1.6-2.3-1.3-.7.2-1.1.7-1.3,1.3l-5.1,17.9-17.9,5.1c-1,.3-1.6,1.3-1.3,2.3.2.7.7,1.1,1.3,1.3l17.9,5.1,5.1,17.9c.3,1,1.3,1.6,2.3,1.3.7-.2,1.1-.7,1.3-1.3l5.1-17.9,17.9-5.1c1-.3,1.6-1.3,1.3-2.3-.2-.7-.7-1.1-1.3-1.3l-17.9-5.1-5.1-17.9h0Z"/>
        <path class="st0" d="M1645.5,314.6c-.3-1-1.3-1.6-2.3-1.3-.7.2-1.1.7-1.3,1.3l-5.1,17.9-17.9,5.1c-1,.3-1.6,1.3-1.3,2.3.2.7.7,1.1,1.3,1.3l17.9,5.1,5.1,17.9c.3,1,1.3,1.6,2.3,1.3.7-.2,1.1-.7,1.3-1.3l5.1-17.9,17.9-5.1c1-.3,1.6-1.3,1.3-2.3-.2-.7-.7-1.1-1.3-1.3l-17.9-5.1-5.1-17.9h0Z"/>
        <path class="st0" d="M1751.3,314.6c-.3-1-1.3-1.6-2.3-1.3-.7.2-1.1.7-1.3,1.3l-5.1,17.9-17.9,5.1c-1,.3-1.6,1.3-1.3,2.3.2.7.7,1.1,1.3,1.3l17.9,5.1,5.1,17.9c.3,1,1.3,1.6,2.3,1.3.7-.2,1.1-.7,1.3-1.3l5.1-17.9,17.9-5.1c1-.3,1.6-1.3,1.3-2.3-.2-.7-.7-1.1-1.3-1.3l-17.9-5.1-5.1-17.9h0Z"/>
        <path class="st0" d="M1328.1,262.4c-.3-1-1.3-1.6-2.3-1.3-.7.2-1.1.7-1.3,1.3l-5.1,17.9-17.9,5.1c-1,.3-1.6,1.3-1.3,2.3.2.7.7,1.1,1.3,1.3l17.9,5.1,5.1,17.9c.3,1,1.3,1.6,2.3,1.3.7-.2,1.1-.7,1.3-1.3l5.1-17.9,17.9-5.1c1-.3,1.6-1.3,1.3-2.3-.2-.7-.7-1.1-1.3-1.3l-17.9-5.1-5.1-17.9h0Z"/>
        <path class="st0" d="M1486.8,262.4c-.3-1-1.3-1.6-2.3-1.3-.7.2-1.1.7-1.3,1.3l-5.1,17.9-17.9,5.1c-1,.3-1.6,1.3-1.3,2.3.2.7.7,1.1,1.3,1.3l17.9,5.1,5.1,17.9c.3,1,1.3,1.6,2.3,1.3.7-.2,1.1-.7,1.3-1.3l5.1-17.9,17.9-5.1c1-.3,1.6-1.3,1.3-2.3-.2-.7-.7-1.1-1.3-1.3l-17.9-5.1-5.1-17.9h0Z"/>
        <path class="st0" d="M1539.7,262.4c-.3-1-1.3-1.6-2.3-1.3-.7.2-1.1.7-1.3,1.3l-5.1,17.9-17.9,5.1c-1,.3-1.6,1.3-1.3,2.3.2.7.7,1.1,1.3,1.3l17.9,5.1,5.1,17.9c.3,1,1.3,1.6,2.3,1.3.7-.2,1.1-.7,1.3-1.3l5.1-17.9,17.9-5.1c1-.3,1.6-1.3,1.3-2.3-.2-.7-.7-1.1-1.3-1.3l-17.9-5.1-5.1-17.9h0Z"/>
        <path class="st0" d="M1592.6,262.4c-.3-1-1.3-1.6-2.3-1.3-.7.2-1.1.7-1.3,1.3l-5.1,17.9-17.9,5.1c-1,.3-1.6,1.3-1.3,2.3.2.7.7,1.1,1.3,1.3l17.9,5.1,5.1,17.9c.3,1,1.3,1.6,2.3,1.3.7-.2,1.1-.7,1.3-1.3l5.1-17.9,17.9-5.1c1-.3,1.6-1.3,1.3-2.3-.2-.7-.7-1.1-1.3-1.3l-17.9-5.1-5.1-17.9h0Z"/>
        <path class="st0" d="M1751.3,262.4c-.3-1-1.3-1.6-2.3-1.3-.7.2-1.1.7-1.3,1.3l-5.1,17.9-17.9,5.1c-1,.3-1.6,1.3-1.3,2.3.2.7.7,1.1,1.3,1.3l17.9,5.1,5.1,17.9c.3,1,1.3,1.6,2.3,1.3.7-.2,1.1-.7,1.3-1.3l5.1-17.9,17.9-5.1c1-.3,1.6-1.3,1.3-2.3-.2-.7-.7-1.1-1.3-1.3l-17.9-5.1-5.1-17.9h0Z"/>
        <path class="st0" d="M1328.1,210.2h0c-.3-1-1.3-1.6-2.3-1.3-.7.2-1.1.7-1.3,1.3l-5.1,17.9-17.9,5.1c-1,.3-1.6,1.3-1.3,2.3.2.7.7,1.1,1.3,1.3l17.9,5.1,5.1,17.9c.3,1,1.3,1.6,2.3,1.3.7-.2,1.1-.7,1.3-1.3l5.1-17.9,17.9-5.1c1-.3,1.6-1.3,1.3-2.3-.2-.7-.7-1.1-1.3-1.3l-17.9-5.1-5.1-17.9h0Z"/>
        <path class="st0" d="M1381,210.2h0c-.3-1-1.3-1.6-2.3-1.3-.7.2-1.1.7-1.3,1.3l-5.1,17.9-17.9,5.1c-1,.3-1.6,1.3-1.3,2.3.2.7.7,1.1,1.3,1.3l17.9,5.1,5.1,17.9c.3,1,1.3,1.6,2.3,1.3.7-.2,1.1-.7,1.3-1.3l5.1-17.9,17.9-5.1c1-.3,1.6-1.3,1.3-2.3-.2-.7-.7-1.1-1.3-1.3l-17.9-5.1-5.1-17.9h0Z"/>
        <path class="st0" d="M1539.7,210.2h0c-.3-1-1.3-1.6-2.3-1.3-.7.2-1.1.7-1.3,1.3l-5.1,17.9-17.9,5.1c-1,.3-1.6,1.3-1.3,2.3.2.7.7,1.1,1.3,1.3l17.9,5.1,5.1,17.9c.3,1,1.3,1.6,2.3,1.3.7-.2,1.1-.7,1.3-1.3l5.1-17.9,17.9-5.1c1-.3,1.6-1.3,1.3-2.3-.2-.7-.7-1.1-1.3-1.3l-17.9-5.1-5.1-17.9h0Z"/>
        <path class="st0" d="M1698.4,210.2h0c-.3-1-1.3-1.6-2.3-1.3-.7.2-1.1.7-1.3,1.3l-5.1,17.9-17.9,5.1c-1,.3-1.6,1.3-1.3,2.3.2.7.7,1.1,1.3,1.3l17.9,5.1,5.1,17.9c.3,1,1.3,1.6,2.3,1.3.7-.2,1.1-.7,1.3-1.3l5.1-17.9,17.9-5.1c1-.3,1.6-1.3,1.3-2.3-.2-.7-.7-1.1-1.3-1.3l-17.9-5.1-5.1-17.9h0Z"/>
        <path class="st0" d="M1751.3,210.2h0c-.3-1-1.3-1.6-2.3-1.3-.7.2-1.1.7-1.3,1.3l-5.1,17.9-17.9,5.1c-1,.3-1.6,1.3-1.3,2.3.2.7.7,1.1,1.3,1.3l17.9,5.1,5.1,17.9c.3,1,1.3,1.6,2.3,1.3.7-.2,1.1-.7,1.3-1.3l5.1-17.9,17.9-5.1c1-.3,1.6-1.3,1.3-2.3-.2-.7-.7-1.1-1.3-1.3l-17.9-5.1-5.1-17.9h0Z"/>
        <path class="st0" d="M1381,158c-.3-1-1.3-1.6-2.3-1.3-.7.2-1.1.7-1.3,1.3l-5.1,17.9-17.9,5.1c-1,.3-1.6,1.3-1.3,2.3.2.7.7,1.1,1.3,1.3l17.9,5.1,5.1,17.9c.3,1,1.3,1.6,2.3,1.3.7-.2,1.1-.7,1.3-1.3l5.1-17.9,17.9-5.1c1-.3,1.6-1.3,1.3-2.3-.2-.7-.7-1.1-1.3-1.3l-17.9-5.1-5.1-17.9h0Z"/>
        <path class="st0" d="M1433.9,158c-.3-1-1.3-1.6-2.3-1.3-.7.2-1.1.7-1.3,1.3l-5.1,17.9-17.9,5.1c-1,.3-1.6,1.3-1.3,2.3.2.7.7,1.1,1.3,1.3l17.9,5.1,5.1,17.9c.3,1,1.3,1.6,2.3,1.3.7-.2,1.1-.7,1.3-1.3l5.1-17.9,17.9-5.1c1-.3,1.6-1.3,1.3-2.3-.2-.7-.7-1.1-1.3-1.3l-17.9-5.1-5.1-17.9h0Z"/>
        <path class="st0" d="M1645.5,158c-.3-1-1.3-1.6-2.3-1.3-.7.2-1.1.7-1.3,1.3l-5.1,17.9-17.9,5.1c-1,.3-1.6,1.3-1.3,2.3.2.7.7,1.1,1.3,1.3l17.9,5.1,5.1,17.9c.3,1,1.3,1.6,2.3,1.3.7-.2,1.1-.7,1.3-1.3l5.1-17.9,17.9-5.1c1-.3,1.6-1.3,1.3-2.3-.2-.7-.7-1.1-1.3-1.3l-17.9-5.1-5.1-17.9h0Z"/>
        <path class="st0" d="M1698.4,158h0c-.3-1-1.3-1.6-2.3-1.3-.7.2-1.1.7-1.3,1.3l-5.1,17.9-17.9,5.1c-1,.3-1.6,1.3-1.3,2.3.2.7.7,1.1,1.3,1.3l17.9,5.1,5.1,17.9c.3,1,1.3,1.6,2.3,1.3.7-.2,1.1-.7,1.3-1.3l5.1-17.9,17.9-5.1c1-.3,1.6-1.3,1.3-2.3-.2-.7-.7-1.1-1.3-1.3l-17.9-5.1-5.1-17.9h0Z"/>
        <path class="st0" d="M1433.9,105.8c-.3-1-1.3-1.6-2.3-1.3-.7.2-1.1.7-1.3,1.3l-5.1,17.9-17.9,5.1c-1,.3-1.6,1.3-1.3,2.3.2.7.7,1.1,1.3,1.3l17.9,5.1,5.1,17.9c.3,1,1.3,1.6,2.3,1.3.7-.2,1.1-.7,1.3-1.3l5.1-17.9,17.9-5.1c1-.3,1.6-1.3,1.3-2.3-.2-.7-.7-1.1-1.3-1.3l-17.9-5.1-5.1-17.9h0Z"/>
        <path class="st0" d="M1486.8,105.8c-.3-1-1.3-1.6-2.3-1.3-.7.2-1.1.7-1.3,1.3l-5.1,17.9-17.9,5.1c-1,.3-1.6,1.3-1.3,2.3.2.7.7,1.1,1.3,1.3l17.9,5.1,5.1,17.9c.3,1,1.3,1.6,2.3,1.3.7-.2,1.1-.7,1.3-1.3l5.1-17.9,17.9-5.1c1-.3,1.6-1.3,1.3-2.3-.2-.7-.7-1.1-1.3-1.3l-17.9-5.1-5.1-17.9h0Z"/>
        <path class="st0" d="M1592.6,105.8c-.3-1-1.3-1.6-2.3-1.3-.7.2-1.1.7-1.3,1.3l-5.1,17.9-17.9,5.1c-1,.3-1.6,1.3-1.3,2.3.2.7.7,1.1,1.3,1.3l17.9,5.1,5.1,17.9c.3,1,1.3,1.6,2.3,1.3.7-.2,1.1-.7,1.3-1.3l5.1-17.9,17.9-5.1c1-.3,1.6-1.3,1.3-2.3-.2-.7-.7-1.1-1.3-1.3l-17.9-5.1-5.1-17.9h0Z"/>
        <path class="st0" d="M1645.5,105.8c-.3-1-1.3-1.6-2.3-1.3-.7.2-1.1.7-1.3,1.3l-5.1,17.9-17.9,5.1c-1,.3-1.6,1.3-1.3,2.3.2.7.7,1.1,1.3,1.3l17.9,5.1,5.1,17.9c.3,1,1.3,1.6,2.3,1.3.7-.2,1.1-.7,1.3-1.3l5.1-17.9,17.9-5.1c1-.3,1.6-1.3,1.3-2.3-.2-.7-.7-1.1-1.3-1.3l-17.9-5.1-5.1-17.9h0Z"/>
        <path class="st0" d="M1486.8,53.5c-.3-1-1.3-1.6-2.3-1.3-.7.2-1.1.7-1.3,1.3l-5.1,17.9-17.9,5.1c-1,.3-1.6,1.3-1.3,2.3.2.7.7,1.1,1.3,1.3l17.9,5.1,5.1,17.9c.3,1,1.3,1.6,2.3,1.3.7-.2,1.1-.7,1.3-1.3l5.1-17.9,17.9-5.1c1-.3,1.6-1.3,1.3-2.3-.2-.7-.7-1.1-1.3-1.3l-17.9-5.1-5.1-17.9h0Z"/>
        <path class="st0" d="M1539.7,53.5c-.3-1-1.3-1.6-2.3-1.3-.7.2-1.1.7-1.3,1.3l-5.1,17.9-17.9,5.1c-1,.3-1.6,1.3-1.3,2.3.2.7.7,1.1,1.3,1.3l17.9,5.1,5.1,17.9c.3,1,1.3,1.6,2.3,1.3.7-.2,1.1-.7,1.3-1.3l5.1-17.9,17.9-5.1c1-.3,1.6-1.3,1.3-2.3-.2-.7-.7-1.1-1.3-1.3l-17.9-5.1-5.1-17.9h0Z"/>
        <path class="st0" d="M1592.6,53.5c-.3-1-1.3-1.6-2.3-1.3-.7.2-1.1.7-1.3,1.3l-5.1,17.9-17.9,5.1c-1,.3-1.6,1.3-1.3,2.3.2.7.7,1.1,1.3,1.3l17.9,5.1,5.1,17.9c.3,1,1.3,1.6,2.3,1.3.7-.2,1.1-.7,1.3-1.3l5.1-17.9,17.9-5.1c1-.3,1.6-1.3,1.3-2.3-.2-.7-.7-1.1-1.3-1.3l-17.9-5.1-5.1-17.9h0Z"/>
        <path class="st0" d="M1539.7,1.3c-.3-1-1.3-1.6-2.3-1.3-.7.2-1.1.7-1.3,1.3l-5.1,17.9-17.9,5.1c-1,.3-1.6,1.3-1.3,2.3.2.7.7,1.1,1.3,1.3l17.9,5.1,5.1,17.9c.3,1,1.3,1.6,2.3,1.3.7-.2,1.1-.7,1.3-1.3l5.1-17.9,17.9-5.1c1-.3,1.6-1.3,1.3-2.3-.2-.7-.7-1.1-1.3-1.3l-17.9-5.1-5.1-17.9h0Z"/>
      </g>
    </g>
  </g>
</svg>