<?xml version="1.0" encoding="UTF-8"?>
<svg id="Layer_2" xmlns="http://www.w3.org/2000/svg" version="1.1" viewBox="0 0 2198.8 2166.9">
  <!-- Generator: Adobe Illustrator 30.1.0, SVG Export Plug-In . SVG Version: 2.1.1 Build 136)  -->
  <defs>
    <style>
      .st0 {
        fill: #fff;
      }
    </style>
  </defs>
  <g id="Layer_1-2">
    <g>
      <g>
        <path class="st0" d="M1536.1,2116l-5.1,17.9-17.9,5.1c-.6.2-1.1.6-1.3,1.3-.3,1,.3,2,1.3,2.3l17.9,5.1,5.1,17.9c.2.6.6,1.1,1.3,1.3,1,.3,2-.3,2.3-1.3l5.1-17.9,17.9-5.1c.6-.2,1.1-.6,1.3-1.3.3-1-.3-2-1.3-2.3l-17.9-5.1-5.1-17.9c-.2-.6-.6-1.1-1.3-1.3-1-.3-2,.3-2.3,1.3h0Z"/>
        <path class="st0" d="M1589,2063.8l-5.1,17.9-17.9,5.1c-.6.2-1.1.6-1.3,1.3-.3,1,.3,2,1.3,2.3l17.9,5.1,5.1,17.9c.2.6.6,1.1,1.3,1.3,1,.3,2-.3,2.3-1.3l5.1-17.9,17.9-5.1c.6-.2,1.1-.6,1.3-1.3.3-1-.3-2-1.3-2.3l-17.9-5.1-5.1-17.9c-.2-.6-.6-1.1-1.3-1.3-1-.3-2,.3-2.3,1.3h0Z"/>
        <path class="st0" d="M1536.1,2063.8l-5.1,17.9-17.9,5.1c-.6.2-1.1.6-1.3,1.3-.3,1,.3,2,1.3,2.3l17.9,5.1,5.1,17.9c.2.6.6,1.1,1.3,1.3,1,.3,2-.3,2.3-1.3l5.1-17.9,17.9-5.1c.6-.2,1.1-.6,1.3-1.3.3-1-.3-2-1.3-2.3l-17.9-5.1-5.1-17.9c-.2-.6-.6-1.1-1.3-1.3-1-.3-2,.3-2.3,1.3h0Z"/>
        <path class="st0" d="M1483.2,2063.8l-5.1,17.9-17.9,5.1c-.6.2-1.1.6-1.3,1.3-.3,1,.3,2,1.3,2.3l17.9,5.1,5.1,17.9c.2.6.6,1.1,1.3,1.3,1,.3,2-.3,2.3-1.3l5.1-17.9,17.9-5.1c.6-.2,1.1-.6,1.3-1.3.3-1-.3-2-1.3-2.3l-17.9-5.1-5.1-17.9c-.2-.6-.6-1.1-1.3-1.3-1-.3-2,.3-2.3,1.3h0Z"/>
        <path class="st0" d="M1641.9,2011.6l-5.1,17.9-17.9,5.1c-.6.2-1.1.6-1.3,1.3-.3,1,.3,2,1.3,2.3l17.9,5.1,5.1,17.9c.2.6.6,1.1,1.3,1.3,1,.3,2-.3,2.3-1.3l5.1-17.9,17.9-5.1c.6-.2,1.1-.6,1.3-1.3.3-1-.3-2-1.3-2.3l-17.9-5.1-5.1-17.9c-.2-.6-.6-1.1-1.3-1.3-1-.3-2,.3-2.3,1.3h0Z"/>
        <path class="st0" d="M1589,2011.6l-5.1,17.9-17.9,5.1c-.6.2-1.1.6-1.3,1.3-.3,1,.3,2,1.3,2.3l17.9,5.1,5.1,17.9c.2.6.6,1.1,1.3,1.3,1,.3,2-.3,2.3-1.3l5.1-17.9,17.9-5.1c.6-.2,1.1-.6,1.3-1.3.3-1-.3-2-1.3-2.3l-17.9-5.1-5.1-17.9c-.2-.6-.6-1.1-1.3-1.3-1-.3-2,.3-2.3,1.3h0Z"/>
        <path class="st0" d="M1483.2,2011.6l-5.1,17.9-17.9,5.1c-.6.2-1.1.6-1.3,1.3-.3,1,.3,2,1.3,2.3l17.9,5.1,5.1,17.9c.2.6.6,1.1,1.3,1.3,1,.3,2-.3,2.3-1.3l5.1-17.9,17.9-5.1c.6-.2,1.1-.6,1.3-1.3.3-1-.3-2-1.3-2.3l-17.9-5.1-5.1-17.9c-.2-.6-.6-1.1-1.3-1.3-1-.3-2,.3-2.3,1.3h0Z"/>
        <path class="st0" d="M1430.3,2011.6l-5.1,17.9-17.9,5.1c-.6.2-1.1.6-1.3,1.3-.3,1,.3,2,1.3,2.3l17.9,5.1,5.1,17.9c.2.6.6,1.1,1.3,1.3,1,.3,2-.3,2.3-1.3l5.1-17.9,17.9-5.1c.6-.2,1.1-.6,1.3-1.3.3-1-.3-2-1.3-2.3l-17.9-5.1-5.1-17.9c-.2-.6-.6-1.1-1.3-1.3-1-.3-2,.3-2.3,1.3h0Z"/>
        <path class="st0" d="M1694.8,1959.4l-5.1,17.9-17.9,5.1c-.6.2-1.1.6-1.3,1.3-.3,1,.3,2,1.3,2.3l17.9,5.1,5.1,17.9c.2.6.6,1.1,1.3,1.3,1,.3,2-.3,2.3-1.3l5.1-17.9,17.9-5.1c.6-.2,1.1-.6,1.3-1.3.3-1-.3-2-1.3-2.3l-17.9-5.1-5.1-17.9c-.2-.6-.6-1.1-1.3-1.3-1-.3-2,.3-2.3,1.3h0Z"/>
        <path class="st0" d="M1641.9,1959.4l-5.1,17.9-17.9,5.1c-.6.2-1.1.6-1.3,1.3-.3,1,.3,2,1.3,2.3l17.9,5.1,5.1,17.9c.2.6.6,1.1,1.3,1.3,1,.3,2-.3,2.3-1.3l5.1-17.9,17.9-5.1c.6-.2,1.1-.6,1.3-1.3.3-1-.3-2-1.3-2.3l-17.9-5.1-5.1-17.9c-.2-.6-.6-1.1-1.3-1.3-1-.3-2,.3-2.3,1.3h0Z"/>
        <path class="st0" d="M1430.3,1959.4l-5.1,17.9-17.9,5.1c-.6.2-1.1.6-1.3,1.3-.3,1,.3,2,1.3,2.3l17.9,5.1,5.1,17.9c.2.6.6,1.1,1.3,1.3,1,.3,2-.3,2.3-1.3l5.1-17.9,17.9-5.1c.6-.2,1.1-.6,1.3-1.3.3-1-.3-2-1.3-2.3l-17.9-5.1-5.1-17.9c-.2-.6-.6-1.1-1.3-1.3-1-.3-2,.3-2.3,1.3h0Z"/>
        <path class="st0" d="M1377.4,1959.4l-5.1,17.9-17.9,5.1c-.6.2-1.1.6-1.3,1.3-.3,1,.3,2,1.3,2.3l17.9,5.1,5.1,17.9c.2.6.6,1.1,1.3,1.3,1,.3,2-.3,2.3-1.3l5.1-17.9,17.9-5.1c.6-.2,1.1-.6,1.3-1.3.3-1-.3-2-1.3-2.3l-17.9-5.1-5.1-17.9c-.2-.6-.6-1.1-1.3-1.3-1-.3-2,.3-2.3,1.3h0Z"/>
        <path class="st0" d="M1747.7,1907.2l-5.1,17.9-17.9,5.1c-.6.2-1.1.6-1.3,1.3-.3,1,.3,2,1.3,2.3l17.9,5.1,5.1,17.9c.2.6.6,1.1,1.3,1.3,1,.3,2-.3,2.3-1.3l5.1-17.9,17.9-5.1c.6-.2,1.1-.6,1.3-1.3.3-1-.3-2-1.3-2.3l-17.9-5.1-5.1-17.9c-.2-.6-.6-1.1-1.3-1.3-1-.3-2,.3-2.3,1.3h0Z"/>
        <path class="st0" d="M1694.8,1907.2l-5.1,17.9-17.9,5.1c-.6.2-1.1.6-1.3,1.3-.3,1,.3,2,1.3,2.3l17.9,5.1,5.1,17.9c.2.6.6,1.1,1.3,1.3,1,.3,2-.3,2.3-1.3l5.1-17.9,17.9-5.1c.6-.2,1.1-.6,1.3-1.3.3-1-.3-2-1.3-2.3l-17.9-5.1-5.1-17.9c-.2-.6-.6-1.1-1.3-1.3-1-.3-2,.3-2.3,1.3h0Z"/>
        <path class="st0" d="M1536.1,1907.2l-5.1,17.9-17.9,5.1c-.6.2-1.1.6-1.3,1.3-.3,1,.3,2,1.3,2.3l17.9,5.1,5.1,17.9c.2.6.6,1.1,1.3,1.3,1,.3,2-.3,2.3-1.3l5.1-17.9,17.9-5.1c.6-.2,1.1-.6,1.3-1.3.3-1-.3-2-1.3-2.3l-17.9-5.1-5.1-17.9c-.2-.6-.6-1.1-1.3-1.3-1-.3-2,.3-2.3,1.3h0Z"/>
        <path class="st0" d="M1377.4,1907.2l-5.1,17.9-17.9,5.1c-.6.2-1.1.6-1.3,1.3-.3,1,.3,2,1.3,2.3l17.9,5.1,5.1,17.9c.2.6.6,1.1,1.3,1.3,1,.3,2-.3,2.3-1.3l5.1-17.9,17.9-5.1c.6-.2,1.1-.6,1.3-1.3.3-1-.3-2-1.3-2.3l-17.9-5.1-5.1-17.9c-.2-.6-.6-1.1-1.3-1.3-1-.3-2,.3-2.3,1.3h0Z"/>
        <path class="st0" d="M1324.5,1907.2l-5.1,17.9-17.9,5.1c-.6.2-1.1.6-1.3,1.3-.3,1,.3,2,1.3,2.3l17.9,5.1,5.1,17.9c.2.6.6,1.1,1.3,1.3,1,.3,2-.3,2.3-1.3l5.1-17.9,17.9-5.1c.6-.2,1.1-.6,1.3-1.3.3-1-.3-2-1.3-2.3l-17.9-5.1-5.1-17.9c-.2-.6-.6-1.1-1.3-1.3-1-.3-2,.3-2.3,1.3h0Z"/>
        <path class="st0" d="M1747.7,1854.9l-5.1,17.9-17.9,5.1c-.6.2-1.1.6-1.3,1.3-.3,1,.3,2,1.3,2.3l17.9,5.1,5.1,17.9c.2.6.6,1.1,1.3,1.3,1,.3,2-.3,2.3-1.3l5.1-17.9,17.9-5.1c.6-.2,1.1-.6,1.3-1.3.3-1-.3-2-1.3-2.3l-17.9-5.1-5.1-17.9c-.2-.6-.6-1.1-1.3-1.3-1-.3-2,.3-2.3,1.3h0Z"/>
        <path class="st0" d="M1589,1854.9l-5.1,17.9-17.9,5.1c-.6.2-1.1.6-1.3,1.3-.3,1,.3,2,1.3,2.3l17.9,5.1,5.1,17.9c.2.6.6,1.1,1.3,1.3,1,.3,2-.3,2.3-1.3l5.1-17.9,17.9-5.1c.6-.2,1.1-.6,1.3-1.3.3-1-.3-2-1.3-2.3l-17.9-5.1-5.1-17.9c-.2-.6-.6-1.1-1.3-1.3-1-.3-2,.3-2.3,1.3h0Z"/>
        <path class="st0" d="M1536.1,1854.9l-5.1,17.9-17.9,5.1c-.6.2-1.1.6-1.3,1.3-.3,1,.3,2,1.3,2.3l17.9,5.1,5.1,17.9c.2.6.6,1.1,1.3,1.3,1,.3,2-.3,2.3-1.3l5.1-17.9,17.9-5.1c.6-.2,1.1-.6,1.3-1.3.3-1-.3-2-1.3-2.3l-17.9-5.1-5.1-17.9c-.2-.6-.6-1.1-1.3-1.3-1-.3-2,.3-2.3,1.3h0Z"/>
        <path class="st0" d="M1483.2,1854.9l-5.1,17.9-17.9,5.1c-.6.2-1.1.6-1.3,1.3-.3,1,.3,2,1.3,2.3l17.9,5.1,5.1,17.9c.2.6.6,1.1,1.3,1.3,1,.3,2-.3,2.3-1.3l5.1-17.9,17.9-5.1c.6-.2,1.1-.6,1.3-1.3.3-1-.3-2-1.3-2.3l-17.9-5.1-5.1-17.9c-.2-.6-.6-1.1-1.3-1.3-1-.3-2,.3-2.3,1.3h0Z"/>
        <path class="st0" d="M1324.5,1854.9l-5.1,17.9-17.9,5.1c-.6.2-1.1.6-1.3,1.3-.3,1,.3,2,1.3,2.3l17.9,5.1,5.1,17.9c.2.6.6,1.1,1.3,1.3,1,.3,2-.3,2.3-1.3l5.1-17.9,17.9-5.1c.6-.2,1.1-.6,1.3-1.3.3-1-.3-2-1.3-2.3l-17.9-5.1-5.1-17.9c-.2-.6-.6-1.1-1.3-1.3-1-.3-2,.3-2.3,1.3h0Z"/>
        <path class="st0" d="M1747.7,1802.7l-5.1,17.9-17.9,5.1c-.6.2-1.1.6-1.3,1.3-.3,1,.3,2,1.3,2.3l17.9,5.1,5.1,17.9c.2.6.6,1.1,1.3,1.3,1,.3,2-.3,2.3-1.3l5.1-17.9,17.9-5.1c.6-.2,1.1-.6,1.3-1.3.3-1-.3-2-1.3-2.3l-17.9-5.1-5.1-17.9c-.2-.6-.6-1.1-1.3-1.3-1-.3-2,.3-2.3,1.3h0Z"/>
        <path class="st0" d="M1641.9,1802.7l-5.1,17.9-17.9,5.1c-.6.2-1.1.6-1.3,1.3-.3,1,.3,2,1.3,2.3l17.9,5.1,5.1,17.9c.2.6.6,1.1,1.3,1.3,1,.3,2-.3,2.3-1.3l5.1-17.9,17.9-5.1c.6-.2,1.1-.6,1.3-1.3.3-1-.3-2-1.3-2.3l-17.9-5.1-5.1-17.9c-.2-.6-.6-1.1-1.3-1.3-1-.3-2,.3-2.3,1.3h0Z"/>
        <path class="st0" d="M1589,1802.7l-5.1,17.9-17.9,5.1c-.6.2-1.1.6-1.3,1.3-.3,1,.3,2,1.3,2.3l17.9,5.1,5.1,17.9c.2.6.6,1.1,1.3,1.3,1,.3,2-.3,2.3-1.3l5.1-17.9,17.9-5.1c.6-.2,1.1-.6,1.3-1.3.3-1-.3-2-1.3-2.3l-17.9-5.1-5.1-17.9c-.2-.6-.6-1.1-1.3-1.3-1-.3-2,.3-2.3,1.3h0Z"/>
        <path class="st0" d="M1536.1,1802.7l-5.1,17.9-17.9,5.1c-.6.2-1.1.6-1.3,1.3-.3,1,.3,2,1.3,2.3l17.9,5.1,5.1,17.9c.2.6.6,1.1,1.3,1.3,1,.3,2-.3,2.3-1.3l5.1-17.9,17.9-5.1c.6-.2,1.1-.6,1.3-1.3.3-1-.3-2-1.3-2.3l-17.9-5.1-5.1-17.9c-.2-.6-.6-1.1-1.3-1.3-1-.3-2,.3-2.3,1.3h0Z"/>
        <path class="st0" d="M1483.2,1802.7l-5.1,17.9-17.9,5.1c-.6.2-1.1.6-1.3,1.3-.3,1,.3,2,1.3,2.3l17.9,5.1,5.1,17.9c.2.6.6,1.1,1.3,1.3,1,.3,2-.3,2.3-1.3l5.1-17.9,17.9-5.1c.6-.2,1.1-.6,1.3-1.3.3-1-.3-2-1.3-2.3l-17.9-5.1-5.1-17.9c-.2-.6-.6-1.1-1.3-1.3-1-.3-2,.3-2.3,1.3h0Z"/>
        <path class="st0" d="M1430.3,1802.7l-5.1,17.9-17.9,5.1c-.6.2-1.1.6-1.3,1.3-.3,1,.3,2,1.3,2.3l17.9,5.1,5.1,17.9c.2.6.6,1.1,1.3,1.3,1,.3,2-.3,2.3-1.3l5.1-17.9,17.9-5.1c.6-.2,1.1-.6,1.3-1.3.3-1-.3-2-1.3-2.3l-17.9-5.1-5.1-17.9c-.2-.6-.6-1.1-1.3-1.3-1-.3-2,.3-2.3,1.3h0Z"/>
        <path class="st0" d="M1324.5,1802.7l-5.1,17.9-17.9,5.1c-.6.2-1.1.6-1.3,1.3-.3,1,.3,2,1.3,2.3l17.9,5.1,5.1,17.9c.2.6.6,1.1,1.3,1.3,1,.3,2-.3,2.3-1.3l5.1-17.9,17.9-5.1c.6-.2,1.1-.6,1.3-1.3.3-1-.3-2-1.3-2.3l-17.9-5.1-5.1-17.9c-.2-.6-.6-1.1-1.3-1.3-1-.3-2,.3-2.3,1.3h0Z"/>
        <path class="st0" d="M1747.7,1750.5l-5.1,17.9-17.9,5.1c-.6.2-1.1.6-1.3,1.3-.3,1,.3,2,1.3,2.3l17.9,5.1,5.1,17.9c.2.6.6,1.1,1.3,1.3,1,.3,2-.3,2.3-1.3l5.1-17.9,17.9-5.1c.6-.2,1.1-.6,1.3-1.3.3-1-.3-2-1.3-2.3l-17.9-5.1-5.1-17.9c-.2-.6-.6-1.1-1.3-1.3-1-.3-2,.3-2.3,1.3h0Z"/>
        <path class="st0" d="M1694.8,1750.5l-5.1,17.9-17.9,5.1c-.6.2-1.1.6-1.3,1.3-.3,1,.3,2,1.3,2.3l17.9,5.1,5.1,17.9c.2.6.6,1.1,1.3,1.3,1,.3,2-.3,2.3-1.3l5.1-17.9,17.9-5.1c.6-.2,1.1-.6,1.3-1.3.3-1-.3-2-1.3-2.3l-17.9-5.1-5.1-17.9c-.2-.6-.6-1.1-1.3-1.3-1-.3-2,.3-2.3,1.3h0Z"/>
        <path class="st0" d="M1377.4,1750.5l-5.1,17.9-17.9,5.1c-.6.2-1.1.6-1.3,1.3-.3,1,.3,2,1.3,2.3l17.9,5.1,5.1,17.9c.2.6.6,1.1,1.3,1.3,1,.3,2-.3,2.3-1.3l5.1-17.9,17.9-5.1c.6-.2,1.1-.6,1.3-1.3.3-1-.3-2-1.3-2.3l-17.9-5.1-5.1-17.9c-.2-.6-.6-1.1-1.3-1.3-1-.3-2,.3-2.3,1.3h0Z"/>
        <path class="st0" d="M1324.5,1750.5l-5.1,17.9-17.9,5.1c-.6.2-1.1.6-1.3,1.3-.3,1,.3,2,1.3,2.3l17.9,5.1,5.1,17.9c.2.6.6,1.1,1.3,1.3,1,.3,2-.3,2.3-1.3l5.1-17.9,17.9-5.1c.6-.2,1.1-.6,1.3-1.3.3-1-.3-2-1.3-2.3l-17.9-5.1-5.1-17.9c-.2-.6-.6-1.1-1.3-1.3-1-.3-2,.3-2.3,1.3h0Z"/>
        <path class="st0" d="M1959.3,1698.3l-5.1,17.9-17.9,5.1c-.6.2-1.1.6-1.3,1.3-.3,1,.3,2,1.3,2.3l17.9,5.1,5.1,17.9c.2.6.6,1.1,1.3,1.3,1,.3,2-.3,2.3-1.3l5.1-17.9,17.9-5.1c.6-.2,1.1-.6,1.3-1.3.3-1-.3-2-1.3-2.3l-17.9-5.1-5.1-17.9c-.2-.6-.6-1.1-1.3-1.3-1-.3-2,.3-2.3,1.3h0Z"/>
        <path class="st0" d="M1906.4,1698.3l-5.1,17.9-17.9,5.1c-.6.2-1.1.6-1.3,1.3-.3,1,.3,2,1.3,2.3l17.9,5.1,5.1,17.9c.2.6.6,1.1,1.3,1.3,1,.3,2-.3,2.3-1.3l5.1-17.9,17.9-5.1c.6-.2,1.1-.6,1.3-1.3.3-1-.3-2-1.3-2.3l-17.9-5.1-5.1-17.9c-.2-.6-.6-1.1-1.3-1.3-1-.3-2,.3-2.3,1.3h0Z"/>
        <path class="st0" d="M1853.5,1698.3l-5.1,17.9-17.9,5.1c-.6.2-1.1.6-1.3,1.3-.3,1,.3,2,1.3,2.3l17.9,5.1,5.1,17.9c.2.6.6,1.1,1.3,1.3,1,.3,2-.3,2.3-1.3l5.1-17.9,17.9-5.1c.6-.2,1.1-.6,1.3-1.3.3-1-.3-2-1.3-2.3l-17.9-5.1-5.1-17.9c-.2-.6-.6-1.1-1.3-1.3-1-.3-2,.3-2.3,1.3h0Z"/>
        <path class="st0" d="M1800.6,1698.3l-5.1,17.9-17.9,5.1c-.6.2-1.1.6-1.3,1.3-.3,1,.3,2,1.3,2.3l17.9,5.1,5.1,17.9c.2.6.6,1.1,1.3,1.3,1,.3,2-.3,2.3-1.3l5.1-17.9,17.9-5.1c.6-.2,1.1-.6,1.3-1.3.3-1-.3-2-1.3-2.3l-17.9-5.1-5.1-17.9c-.2-.6-.6-1.1-1.3-1.3-1-.3-2,.3-2.3,1.3h0Z"/>
        <path class="st0" d="M1694.8,1698.3l-5.1,17.9-17.9,5.1c-.6.2-1.1.6-1.3,1.3-.3,1,.3,2,1.3,2.3l17.9,5.1,5.1,17.9c.2.6.6,1.1,1.3,1.3,1,.3,2-.3,2.3-1.3l5.1-17.9,17.9-5.1c.6-.2,1.1-.6,1.3-1.3.3-1-.3-2-1.3-2.3l-17.9-5.1-5.1-17.9c-.2-.6-.6-1.1-1.3-1.3-1-.3-2,.3-2.3,1.3h0Z"/>
        <path class="st0" d="M1271.6,1698.3l-5.1,17.9-17.9,5.1c-.6.2-1.1.6-1.3,1.3-.3,1,.3,2,1.3,2.3l17.9,5.1,5.1,17.9c.2.6.6,1.1,1.3,1.3,1,.3,2-.3,2.3-1.3l5.1-17.9,17.9-5.1c.6-.2,1.1-.6,1.3-1.3.3-1-.3-2-1.3-2.3l-17.9-5.1-5.1-17.9c-.2-.6-.6-1.1-1.3-1.3-1-.3-2,.3-2.3,1.3h0Z"/>
        <path class="st0" d="M1218.7,1698.3l-5.1,17.9-17.9,5.1c-.6.2-1.1.6-1.3,1.3-.3,1,.3,2,1.3,2.3l17.9,5.1,5.1,17.9c.2.6.6,1.1,1.3,1.3,1,.3,2-.3,2.3-1.3l5.1-17.9,17.9-5.1c.6-.2,1.1-.6,1.3-1.3.3-1-.3-2-1.3-2.3l-17.9-5.1-5.1-17.9c-.2-.6-.6-1.1-1.3-1.3-1-.3-2,.3-2.3,1.3h0Z"/>
        <path class="st0" d="M1165.8,1698.3l-5.1,17.9-17.9,5.1c-.6.2-1.1.6-1.3,1.3-.3,1,.3,2,1.3,2.3l17.9,5.1,5.1,17.9c.2.6.6,1.1,1.3,1.3,1,.3,2-.3,2.3-1.3l5.1-17.9,17.9-5.1c.6-.2,1.1-.6,1.3-1.3.3-1-.3-2-1.3-2.3l-17.9-5.1-5.1-17.9c-.2-.6-.6-1.1-1.3-1.3-1-.3-2,.3-2.3,1.3h0Z"/>
        <path class="st0" d="M1112.9,1698.3l-5.1,17.9-17.9,5.1c-.6.2-1.1.6-1.3,1.3-.3,1,.3,2,1.3,2.3l17.9,5.1,5.1,17.9c.2.6.6,1.1,1.3,1.3,1,.3,2-.3,2.3-1.3l5.1-17.9,17.9-5.1c.6-.2,1.1-.6,1.3-1.3.3-1-.3-2-1.3-2.3l-17.9-5.1-5.1-17.9c-.2-.6-.6-1.1-1.3-1.3-1-.3-2,.3-2.3,1.3h0Z"/>
        <path class="st0" d="M2012.2,1646.1l-5.1,17.9-17.9,5.1c-.6.2-1.1.6-1.3,1.3-.3,1,.3,2,1.3,2.3l17.9,5.1,5.1,17.9c.2.6.6,1.1,1.3,1.3,1,.3,2-.3,2.3-1.3l5.1-17.9,17.9-5.1c.6-.2,1.1-.6,1.3-1.3.3-1-.3-2-1.3-2.3l-17.9-5.1-5.1-17.9c-.2-.6-.6-1.1-1.3-1.3-1-.3-2,.3-2.3,1.3h0Z"/>
        <path class="st0" d="M1959.3,1646.1l-5.1,17.9-17.9,5.1c-.6.2-1.1.6-1.3,1.3-.3,1,.3,2,1.3,2.3l17.9,5.1,5.1,17.9c.2.6.6,1.1,1.3,1.3,1,.3,2-.3,2.3-1.3l5.1-17.9,17.9-5.1c.6-.2,1.1-.6,1.3-1.3.3-1-.3-2-1.3-2.3l-17.9-5.1-5.1-17.9c-.2-.6-.6-1.1-1.3-1.3-1-.3-2,.3-2.3,1.3h0Z"/>
        <path class="st0" d="M1800.6,1646.1l-5.1,17.9-17.9,5.1c-.6.2-1.1.6-1.3,1.3-.3,1,.3,2,1.3,2.3l17.9,5.1,5.1,17.9c.2.6.6,1.1,1.3,1.3,1,.3,2-.3,2.3-1.3l5.1-17.9,17.9-5.1c.6-.2,1.1-.6,1.3-1.3.3-1-.3-2-1.3-2.3l-17.9-5.1-5.1-17.9c-.2-.6-.6-1.1-1.3-1.3-1-.3-2,.3-2.3,1.3h0Z"/>
        <path class="st0" d="M1747.7,1646.1l-5.1,17.9-17.9,5.1c-.6.2-1.1.6-1.3,1.3-.3,1,.3,2,1.3,2.3l17.9,5.1,5.1,17.9c.2.6.6,1.1,1.3,1.3,1,.3,2-.3,2.3-1.3l5.1-17.9,17.9-5.1c.6-.2,1.1-.6,1.3-1.3.3-1-.3-2-1.3-2.3l-17.9-5.1-5.1-17.9c-.2-.6-.6-1.1-1.3-1.3-1-.3-2,.3-2.3,1.3h0Z"/>
        <path class="st0" d="M1324.5,1646.1l-5.1,17.9-17.9,5.1c-.6.2-1.1.6-1.3,1.3-.3,1,.3,2,1.3,2.3l17.9,5.1,5.1,17.9c.2.6.6,1.1,1.3,1.3,1,.3,2-.3,2.3-1.3l5.1-17.9,17.9-5.1c.6-.2,1.1-.6,1.3-1.3.3-1-.3-2-1.3-2.3l-17.9-5.1-5.1-17.9c-.2-.6-.6-1.1-1.3-1.3-1-.3-2,.3-2.3,1.3h0Z"/>
        <path class="st0" d="M1271.6,1646.1l-5.1,17.9-17.9,5.1c-.6.2-1.1.6-1.3,1.3-.3,1,.3,2,1.3,2.3l17.9,5.1,5.1,17.9c.2.6.6,1.1,1.3,1.3,1,.3,2-.3,2.3-1.3l5.1-17.9,17.9-5.1c.6-.2,1.1-.6,1.3-1.3.3-1-.3-2-1.3-2.3l-17.9-5.1-5.1-17.9c-.2-.6-.6-1.1-1.3-1.3-1-.3-2,.3-2.3,1.3h0Z"/>
        <path class="st0" d="M1112.9,1646.1l-5.1,17.9-17.9,5.1c-.6.2-1.1.6-1.3,1.3-.3,1,.3,2,1.3,2.3l17.9,5.1,5.1,17.9c.2.6.6,1.1,1.3,1.3,1,.3,2-.3,2.3-1.3l5.1-17.9,17.9-5.1c.6-.2,1.1-.6,1.3-1.3.3-1-.3-2-1.3-2.3l-17.9-5.1-5.1-17.9c-.2-.6-.6-1.1-1.3-1.3-1-.3-2,.3-2.3,1.3h0Z"/>
        <path class="st0" d="M1060,1646.1l-5.1,17.9-17.9,5.1c-.6.2-1.1.6-1.3,1.3-.3,1,.3,2,1.3,2.3l17.9,5.1,5.1,17.9c.2.6.6,1.1,1.3,1.3,1,.3,2-.3,2.3-1.3l5.1-17.9,17.9-5.1c.6-.2,1.1-.6,1.3-1.3.3-1-.3-2-1.3-2.3l-17.9-5.1-5.1-17.9c-.2-.6-.6-1.1-1.3-1.3-1-.3-2,.3-2.3,1.3h0Z"/>
        <path class="st0" d="M2065.1,1593.9l-5.1,17.9-17.9,5.1c-.6.2-1.1.6-1.3,1.3-.3,1,.3,2,1.3,2.3l17.9,5.1,5.1,17.9c.2.6.6,1.1,1.3,1.3,1,.3,2-.3,2.3-1.3l5.1-17.9,17.9-5.1c.6-.2,1.1-.6,1.3-1.3.3-1-.3-2-1.3-2.3l-17.9-5.1-5.1-17.9c-.2-.6-.6-1.1-1.3-1.3-1-.3-2,.3-2.3,1.3h0Z"/>
        <path class="st0" d="M2012.2,1593.9l-5.1,17.9-17.9,5.1c-.6.2-1.1.6-1.3,1.3-.3,1,.3,2,1.3,2.3l17.9,5.1,5.1,17.9c.2.6.6,1.1,1.3,1.3,1,.3,2-.3,2.3-1.3l5.1-17.9,17.9-5.1c.6-.2,1.1-.6,1.3-1.3.3-1-.3-2-1.3-2.3l-17.9-5.1-5.1-17.9c-.2-.6-.6-1.1-1.3-1.3-1-.3-2,.3-2.3,1.3h0Z"/>
        <path class="st0" d="M1218.7,1593.9l-5.1,17.9-17.9,5.1c-.6.2-1.1.6-1.3,1.3-.3,1,.3,2,1.3,2.3l17.9,5.1,5.1,17.9c.2.6.6,1.1,1.3,1.3,1,.3,2-.3,2.3-1.3l5.1-17.9,17.9-5.1c.6-.2,1.1-.6,1.3-1.3.3-1-.3-2-1.3-2.3l-17.9-5.1-5.1-17.9c-.2-.6-.6-1.1-1.3-1.3-1-.3-2,.3-2.3,1.3h0Z"/>
        <path class="st0" d="M1060,1593.9l-5.1,17.9-17.9,5.1c-.6.2-1.1.6-1.3,1.3-.3,1,.3,2,1.3,2.3l17.9,5.1,5.1,17.9c.2.6.6,1.1,1.3,1.3,1,.3,2-.3,2.3-1.3l5.1-17.9,17.9-5.1c.6-.2,1.1-.6,1.3-1.3.3-1-.3-2-1.3-2.3l-17.9-5.1-5.1-17.9c-.2-.6-.6-1.1-1.3-1.3-1-.3-2,.3-2.3,1.3h0Z"/>
        <path class="st0" d="M1007.1,1593.9l-5.1,17.9-17.9,5.1c-.6.2-1.1.6-1.3,1.3-.3,1,.3,2,1.3,2.3l17.9,5.1,5.1,17.9c.2.6.6,1.1,1.3,1.3,1,.3,2-.3,2.3-1.3l5.1-17.9,17.9-5.1c.6-.2,1.1-.6,1.3-1.3.3-1-.3-2-1.3-2.3l-17.9-5.1-5.1-17.9c-.2-.6-.6-1.1-1.3-1.3-1-.3-2,.3-2.3,1.3h0Z"/>
        <path class="st0" d="M2118,1541.7l-5.1,17.9-17.9,5.1c-.6.2-1.1.6-1.3,1.3-.3,1,.3,2,1.3,2.3l17.9,5.1,5.1,17.9c.2.6.6,1.1,1.3,1.3,1,.3,2-.3,2.3-1.3l5.1-17.9,17.9-5.1c.6-.2,1.1-.6,1.3-1.3.3-1-.3-2-1.3-2.3l-17.9-5.1-5.1-17.9c-.2-.6-.6-1.1-1.3-1.3-1-.3-2,.3-2.3,1.3h0Z"/>
        <path class="st0" d="M2065.1,1541.7l-5.1,17.9-17.9,5.1c-.6.2-1.1.6-1.3,1.3-.3,1,.3,2,1.3,2.3l17.9,5.1,5.1,17.9c.2.6.6,1.1,1.3,1.3,1,.3,2-.3,2.3-1.3l5.1-17.9,17.9-5.1c.6-.2,1.1-.6,1.3-1.3.3-1-.3-2-1.3-2.3l-17.9-5.1-5.1-17.9c-.2-.6-.6-1.1-1.3-1.3-1-.3-2,.3-2.3,1.3h0Z"/>
        <path class="st0" d="M1906.4,1541.7l-5.1,17.9-17.9,5.1c-.6.2-1.1.6-1.3,1.3-.3,1,.3,2,1.3,2.3l17.9,5.1,5.1,17.9c.2.6.6,1.1,1.3,1.3,1,.3,2-.3,2.3-1.3l5.1-17.9,17.9-5.1c.6-.2,1.1-.6,1.3-1.3.3-1-.3-2-1.3-2.3l-17.9-5.1-5.1-17.9c-.2-.6-.6-1.1-1.3-1.3-1-.3-2,.3-2.3,1.3h0Z"/>
        <path class="st0" d="M1853.5,1541.7l-5.1,17.9-17.9,5.1c-.6.2-1.1.6-1.3,1.3-.3,1,.3,2,1.3,2.3l17.9,5.1,5.1,17.9c.2.6.6,1.1,1.3,1.3,1,.3,2-.3,2.3-1.3l5.1-17.9,17.9-5.1c.6-.2,1.1-.6,1.3-1.3.3-1-.3-2-1.3-2.3l-17.9-5.1-5.1-17.9c-.2-.6-.6-1.1-1.3-1.3-1-.3-2,.3-2.3,1.3h0Z"/>
        <path class="st0" d="M1853.5,1593.9l-5.1,17.9-17.9,5.1c-.6.2-1.1.6-1.3,1.3-.3,1,.3,2,1.3,2.3l17.9,5.1,5.1,17.9c.2.6.6,1.1,1.3,1.3,1,.3,2-.3,2.3-1.3l5.1-17.9,17.9-5.1c.6-.2,1.1-.6,1.3-1.3.3-1-.3-2-1.3-2.3l-17.9-5.1-5.1-17.9c-.2-.6-.6-1.1-1.3-1.3-1-.3-2,.3-2.3,1.3h0Z"/>
        <path class="st0" d="M1218.7,1541.7l-5.1,17.9-17.9,5.1c-.6.2-1.1.6-1.3,1.3-.3,1,.3,2,1.3,2.3l17.9,5.1,5.1,17.9c.2.6.6,1.1,1.3,1.3,1,.3,2-.3,2.3-1.3l5.1-17.9,17.9-5.1c.6-.2,1.1-.6,1.3-1.3.3-1-.3-2-1.3-2.3l-17.9-5.1-5.1-17.9c-.2-.6-.6-1.1-1.3-1.3-1-.3-2,.3-2.3,1.3h0Z"/>
        <path class="st0" d="M1165.8,1541.7l-5.1,17.9-17.9,5.1c-.6.2-1.1.6-1.3,1.3-.3,1,.3,2,1.3,2.3l17.9,5.1,5.1,17.9c.2.6.6,1.1,1.3,1.3,1,.3,2-.3,2.3-1.3l5.1-17.9,17.9-5.1c.6-.2,1.1-.6,1.3-1.3.3-1-.3-2-1.3-2.3l-17.9-5.1-5.1-17.9c-.2-.6-.6-1.1-1.3-1.3-1-.3-2,.3-2.3,1.3h0Z"/>
        <path class="st0" d="M1007.1,1541.7l-5.1,17.9-17.9,5.1c-.6.2-1.1.6-1.3,1.3-.3,1,.3,2,1.3,2.3l17.9,5.1,5.1,17.9c.2.6.6,1.1,1.3,1.3,1,.3,2-.3,2.3-1.3l5.1-17.9,17.9-5.1c.6-.2,1.1-.6,1.3-1.3.3-1-.3-2-1.3-2.3l-17.9-5.1-5.1-17.9c-.2-.6-.6-1.1-1.3-1.3-1-.3-2,.3-2.3,1.3h0Z"/>
        <path class="st0" d="M954.2,1541.7l-5.1,17.9-17.9,5.1c-.6.2-1.1.6-1.3,1.3-.3,1,.3,2,1.3,2.3l17.9,5.1,5.1,17.9c.2.6.6,1.1,1.3,1.3,1,.3,2-.3,2.3-1.3l5.1-17.9,17.9-5.1c.6-.2,1.1-.6,1.3-1.3.3-1-.3-2-1.3-2.3l-17.9-5.1-5.1-17.9c-.2-.6-.6-1.1-1.3-1.3-1-.3-2,.3-2.3,1.3h0Z"/>
        <path class="st0" d="M2170.9,1489.4l-5.1,17.9-17.9,5.1c-.6.2-1.1.6-1.3,1.3-.3,1,.3,2,1.3,2.3l17.9,5.1,5.1,17.9c.2.6.6,1.1,1.3,1.3,1,.3,2-.3,2.3-1.3l5.1-17.9,17.9-5.1c.6-.2,1.1-.6,1.3-1.3.3-1-.3-2-1.3-2.3l-17.9-5.1-5.1-17.9c-.2-.6-.6-1.1-1.3-1.3-1-.3-2,.3-2.3,1.3h0Z"/>
        <path class="st0" d="M2118,1489.4l-5.1,17.9-17.9,5.1c-.6.2-1.1.6-1.3,1.3-.3,1,.3,2,1.3,2.3l17.9,5.1,5.1,17.9c.2.6.6,1.1,1.3,1.3,1,.3,2-.3,2.3-1.3l5.1-17.9,17.9-5.1c.6-.2,1.1-.6,1.3-1.3.3-1-.3-2-1.3-2.3l-17.9-5.1-5.1-17.9c-.2-.6-.6-1.1-1.3-1.3-1-.3-2,.3-2.3,1.3h0Z"/>
        <path class="st0" d="M1959.3,1489.4l-5.1,17.9-17.9,5.1c-.6.2-1.1.6-1.3,1.3-.3,1,.3,2,1.3,2.3l17.9,5.1,5.1,17.9c.2.6.6,1.1,1.3,1.3,1,.3,2-.3,2.3-1.3l5.1-17.9,17.9-5.1c.6-.2,1.1-.6,1.3-1.3.3-1-.3-2-1.3-2.3l-17.9-5.1-5.1-17.9c-.2-.6-.6-1.1-1.3-1.3-1-.3-2,.3-2.3,1.3h0Z"/>
        <path class="st0" d="M1906.4,1489.4l-5.1,17.9-17.9,5.1c-.6.2-1.1.6-1.3,1.3-.3,1,.3,2,1.3,2.3l17.9,5.1,5.1,17.9c.2.6.6,1.1,1.3,1.3,1,.3,2-.3,2.3-1.3l5.1-17.9,17.9-5.1c.6-.2,1.1-.6,1.3-1.3.3-1-.3-2-1.3-2.3l-17.9-5.1-5.1-17.9c-.2-.6-.6-1.1-1.3-1.3-1-.3-2,.3-2.3,1.3h0Z"/>
        <path class="st0" d="M1853.5,1489.4l-5.1,17.9-17.9,5.1c-.6.2-1.1.6-1.3,1.3-.3,1,.3,2,1.3,2.3l17.9,5.1,5.1,17.9c.2.6.6,1.1,1.3,1.3,1,.3,2-.3,2.3-1.3l5.1-17.9,17.9-5.1c.6-.2,1.1-.6,1.3-1.3.3-1-.3-2-1.3-2.3l-17.9-5.1-5.1-17.9c-.2-.6-.6-1.1-1.3-1.3-1-.3-2,.3-2.3,1.3h0Z"/>
        <path class="st0" d="M1218.7,1489.4l-5.1,17.9-17.9,5.1c-.6.2-1.1.6-1.3,1.3-.3,1,.3,2,1.3,2.3l17.9,5.1,5.1,17.9c.2.6.6,1.1,1.3,1.3,1,.3,2-.3,2.3-1.3l5.1-17.9,17.9-5.1c.6-.2,1.1-.6,1.3-1.3.3-1-.3-2-1.3-2.3l-17.9-5.1-5.1-17.9c-.2-.6-.6-1.1-1.3-1.3-1-.3-2,.3-2.3,1.3h0Z"/>
        <path class="st0" d="M1165.8,1489.4l-5.1,17.9-17.9,5.1c-.6.2-1.1.6-1.3,1.3-.3,1,.3,2,1.3,2.3l17.9,5.1,5.1,17.9c.2.6.6,1.1,1.3,1.3,1,.3,2-.3,2.3-1.3l5.1-17.9,17.9-5.1c.6-.2,1.1-.6,1.3-1.3.3-1-.3-2-1.3-2.3l-17.9-5.1-5.1-17.9c-.2-.6-.6-1.1-1.3-1.3-1-.3-2,.3-2.3,1.3h0Z"/>
        <path class="st0" d="M1112.9,1489.4l-5.1,17.9-17.9,5.1c-.6.2-1.1.6-1.3,1.3-.3,1,.3,2,1.3,2.3l17.9,5.1,5.1,17.9c.2.6.6,1.1,1.3,1.3,1,.3,2-.3,2.3-1.3l5.1-17.9,17.9-5.1c.6-.2,1.1-.6,1.3-1.3.3-1-.3-2-1.3-2.3l-17.9-5.1-5.1-17.9c-.2-.6-.6-1.1-1.3-1.3-1-.3-2,.3-2.3,1.3h0Z"/>
        <path class="st0" d="M954.2,1489.4l-5.1,17.9-17.9,5.1c-.6.2-1.1.6-1.3,1.3-.3,1,.3,2,1.3,2.3l17.9,5.1,5.1,17.9c.2.6.6,1.1,1.3,1.3,1,.3,2-.3,2.3-1.3l5.1-17.9,17.9-5.1c.6-.2,1.1-.6,1.3-1.3.3-1-.3-2-1.3-2.3l-17.9-5.1-5.1-17.9c-.2-.6-.6-1.1-1.3-1.3-1-.3-2,.3-2.3,1.3h0Z"/>
        <path class="st0" d="M901.3,1489.4l-5.1,17.9-17.9,5.1c-.6.2-1.1.6-1.3,1.3-.3,1,.3,2,1.3,2.3l17.9,5.1,5.1,17.9c.2.6.6,1.1,1.3,1.3,1,.3,2-.3,2.3-1.3l5.1-17.9,17.9-5.1c.6-.2,1.1-.6,1.3-1.3.3-1-.3-2-1.3-2.3l-17.9-5.1-5.1-17.9c-.2-.6-.6-1.1-1.3-1.3-1-.3-2,.3-2.3,1.3h0Z"/>
        <path class="st0" d="M2118,1437.2l-5.1,17.9-17.9,5.1c-.6.2-1.1.6-1.3,1.3-.3,1,.3,2,1.3,2.3l17.9,5.1,5.1,17.9c.2.6.6,1.1,1.3,1.3,1,.3,2-.3,2.3-1.3l5.1-17.9,17.9-5.1c.6-.2,1.1-.6,1.3-1.3.3-1-.3-2-1.3-2.3l-17.9-5.1-5.1-17.9c-.2-.6-.6-1.1-1.3-1.3-1-.3-2,.3-2.3,1.3h0Z"/>
        <path class="st0" d="M2065.1,1437.2l-5.1,17.9-17.9,5.1c-.6.2-1.1.6-1.3,1.3-.3,1,.3,2,1.3,2.3l17.9,5.1,5.1,17.9c.2.6.6,1.1,1.3,1.3,1,.3,2-.3,2.3-1.3l5.1-17.9,17.9-5.1c.6-.2,1.1-.6,1.3-1.3.3-1-.3-2-1.3-2.3l-17.9-5.1-5.1-17.9c-.2-.6-.6-1.1-1.3-1.3-1-.3-2,.3-2.3,1.3h0Z"/>
        <path class="st0" d="M1906.4,1437.2l-5.1,17.9-17.9,5.1c-.6.2-1.1.6-1.3,1.3-.3,1,.3,2,1.3,2.3l17.9,5.1,5.1,17.9c.2.6.6,1.1,1.3,1.3,1,.3,2-.3,2.3-1.3l5.1-17.9,17.9-5.1c.6-.2,1.1-.6,1.3-1.3.3-1-.3-2-1.3-2.3l-17.9-5.1-5.1-17.9c-.2-.6-.6-1.1-1.3-1.3-1-.3-2,.3-2.3,1.3h0Z"/>
        <path class="st0" d="M1853.5,1437.2l-5.1,17.9-17.9,5.1c-.6.2-1.1.6-1.3,1.3-.3,1,.3,2,1.3,2.3l17.9,5.1,5.1,17.9c.2.6.6,1.1,1.3,1.3,1,.3,2-.3,2.3-1.3l5.1-17.9,17.9-5.1c.6-.2,1.1-.6,1.3-1.3.3-1-.3-2-1.3-2.3l-17.9-5.1-5.1-17.9c-.2-.6-.6-1.1-1.3-1.3-1-.3-2,.3-2.3,1.3h0Z"/>
        <path class="st0" d="M1853.5,1385l-5.1,17.9-17.9,5.1c-.6.2-1.1.6-1.3,1.3-.3,1,.3,2,1.3,2.3l17.9,5.1,5.1,17.9c.2.6.6,1.1,1.3,1.3,1,.3,2-.3,2.3-1.3l5.1-17.9,17.9-5.1c.6-.2,1.1-.6,1.3-1.3.3-1-.3-2-1.3-2.3l-17.9-5.1-5.1-17.9c-.2-.6-.6-1.1-1.3-1.3-1-.3-2,.3-2.3,1.3h0Z"/>
        <path class="st0" d="M1218.7,1437.2l-5.1,17.9-17.9,5.1c-.6.2-1.1.6-1.3,1.3-.3,1,.3,2,1.3,2.3l17.9,5.1,5.1,17.9c.2.6.6,1.1,1.3,1.3,1,.3,2-.3,2.3-1.3l5.1-17.9,17.9-5.1c.6-.2,1.1-.6,1.3-1.3.3-1-.3-2-1.3-2.3l-17.9-5.1-5.1-17.9c-.2-.6-.6-1.1-1.3-1.3-1-.3-2,.3-2.3,1.3h0Z"/>
        <path class="st0" d="M1165.8,1437.2l-5.1,17.9-17.9,5.1c-.6.2-1.1.6-1.3,1.3-.3,1,.3,2,1.3,2.3l17.9,5.1,5.1,17.9c.2.6.6,1.1,1.3,1.3,1,.3,2-.3,2.3-1.3l5.1-17.9,17.9-5.1c.6-.2,1.1-.6,1.3-1.3.3-1-.3-2-1.3-2.3l-17.9-5.1-5.1-17.9c-.2-.6-.6-1.1-1.3-1.3-1-.3-2,.3-2.3,1.3h0Z"/>
        <path class="st0" d="M1007.1,1437.2l-5.1,17.9-17.9,5.1c-.6.2-1.1.6-1.3,1.3-.3,1,.3,2,1.3,2.3l17.9,5.1,5.1,17.9c.2.6.6,1.1,1.3,1.3,1,.3,2-.3,2.3-1.3l5.1-17.9,17.9-5.1c.6-.2,1.1-.6,1.3-1.3.3-1-.3-2-1.3-2.3l-17.9-5.1-5.1-17.9c-.2-.6-.6-1.1-1.3-1.3-1-.3-2,.3-2.3,1.3h0Z"/>
        <path class="st0" d="M954.2,1437.2l-5.1,17.9-17.9,5.1c-.6.2-1.1.6-1.3,1.3-.3,1,.3,2,1.3,2.3l17.9,5.1,5.1,17.9c.2.6.6,1.1,1.3,1.3,1,.3,2-.3,2.3-1.3l5.1-17.9,17.9-5.1c.6-.2,1.1-.6,1.3-1.3.3-1-.3-2-1.3-2.3l-17.9-5.1-5.1-17.9c-.2-.6-.6-1.1-1.3-1.3-1-.3-2,.3-2.3,1.3h0Z"/>
        <path class="st0" d="M2065.1,1385l-5.1,17.9-17.9,5.1c-.6.2-1.1.6-1.3,1.3-.3,1,.3,2,1.3,2.3l17.9,5.1,5.1,17.9c.2.6.6,1.1,1.3,1.3,1,.3,2-.3,2.3-1.3l5.1-17.9,17.9-5.1c.6-.2,1.1-.6,1.3-1.3.3-1-.3-2-1.3-2.3l-17.9-5.1-5.1-17.9c-.2-.6-.6-1.1-1.3-1.3-1-.3-2,.3-2.3,1.3h0Z"/>
        <path class="st0" d="M2012.2,1385l-5.1,17.9-17.9,5.1c-.6.2-1.1.6-1.3,1.3-.3,1,.3,2,1.3,2.3l17.9,5.1,5.1,17.9c.2.6.6,1.1,1.3,1.3,1,.3,2-.3,2.3-1.3l5.1-17.9,17.9-5.1c.6-.2,1.1-.6,1.3-1.3.3-1-.3-2-1.3-2.3l-17.9-5.1-5.1-17.9c-.2-.6-.6-1.1-1.3-1.3-1-.3-2,.3-2.3,1.3h0Z"/>
        <path class="st0" d="M1218.7,1385l-5.1,17.9-17.9,5.1c-.6.2-1.1.6-1.3,1.3-.3,1,.3,2,1.3,2.3l17.9,5.1,5.1,17.9c.2.6.6,1.1,1.3,1.3,1,.3,2-.3,2.3-1.3l5.1-17.9,17.9-5.1c.6-.2,1.1-.6,1.3-1.3.3-1-.3-2-1.3-2.3l-17.9-5.1-5.1-17.9c-.2-.6-.6-1.1-1.3-1.3-1-.3-2,.3-2.3,1.3h0Z"/>
        <path class="st0" d="M1060,1385l-5.1,17.9-17.9,5.1c-.6.2-1.1.6-1.3,1.3-.3,1,.3,2,1.3,2.3l17.9,5.1,5.1,17.9c.2.6.6,1.1,1.3,1.3,1,.3,2-.3,2.3-1.3l5.1-17.9,17.9-5.1c.6-.2,1.1-.6,1.3-1.3.3-1-.3-2-1.3-2.3l-17.9-5.1-5.1-17.9c-.2-.6-.6-1.1-1.3-1.3-1-.3-2,.3-2.3,1.3h0Z"/>
        <path class="st0" d="M1007.1,1385l-5.1,17.9-17.9,5.1c-.6.2-1.1.6-1.3,1.3-.3,1,.3,2,1.3,2.3l17.9,5.1,5.1,17.9c.2.6.6,1.1,1.3,1.3,1,.3,2-.3,2.3-1.3l5.1-17.9,17.9-5.1c.6-.2,1.1-.6,1.3-1.3.3-1-.3-2-1.3-2.3l-17.9-5.1-5.1-17.9c-.2-.6-.6-1.1-1.3-1.3-1-.3-2,.3-2.3,1.3h0Z"/>
        <path class="st0" d="M2012.2,1332.8l-5.1,17.9-17.9,5.1c-.6.2-1.1.6-1.3,1.3-.3,1,.3,2,1.3,2.3l17.9,5.1,5.1,17.9c.2.6.6,1.1,1.3,1.3,1,.3,2-.3,2.3-1.3l5.1-17.9,17.9-5.1c.6-.2,1.1-.6,1.3-1.3.3-1-.3-2-1.3-2.3l-17.9-5.1-5.1-17.9c-.2-.6-.6-1.1-1.3-1.3-1-.3-2,.3-2.3,1.3h0Z"/>
        <path class="st0" d="M1959.3,1332.8l-5.1,17.9-17.9,5.1c-.6.2-1.1.6-1.3,1.3-.3,1,.3,2,1.3,2.3l17.9,5.1,5.1,17.9c.2.6.6,1.1,1.3,1.3,1,.3,2-.3,2.3-1.3l5.1-17.9,17.9-5.1c.6-.2,1.1-.6,1.3-1.3.3-1-.3-2-1.3-2.3l-17.9-5.1-5.1-17.9c-.2-.6-.6-1.1-1.3-1.3-1-.3-2,.3-2.3,1.3h0Z"/>
        <path class="st0" d="M1800.6,1332.8l-5.1,17.9-17.9,5.1c-.6.2-1.1.6-1.3,1.3-.3,1,.3,2,1.3,2.3l17.9,5.1,5.1,17.9c.2.6.6,1.1,1.3,1.3,1,.3,2-.3,2.3-1.3l5.1-17.9,17.9-5.1c.6-.2,1.1-.6,1.3-1.3.3-1-.3-2-1.3-2.3l-17.9-5.1-5.1-17.9c-.2-.6-.6-1.1-1.3-1.3-1-.3-2,.3-2.3,1.3h0Z"/>
        <path class="st0" d="M1747.7,1332.8l-5.1,17.9-17.9,5.1c-.6.2-1.1.6-1.3,1.3-.3,1,.3,2,1.3,2.3l17.9,5.1,5.1,17.9c.2.6.6,1.1,1.3,1.3,1,.3,2-.3,2.3-1.3l5.1-17.9,17.9-5.1c.6-.2,1.1-.6,1.3-1.3.3-1-.3-2-1.3-2.3l-17.9-5.1-5.1-17.9c-.2-.6-.6-1.1-1.3-1.3-1-.3-2,.3-2.3,1.3h0Z"/>
        <path class="st0" d="M1324.5,1332.8l-5.1,17.9-17.9,5.1c-.6.2-1.1.6-1.3,1.3-.3,1,.3,2,1.3,2.3l17.9,5.1,5.1,17.9c.2.6.6,1.1,1.3,1.3,1,.3,2-.3,2.3-1.3l5.1-17.9,17.9-5.1c.6-.2,1.1-.6,1.3-1.3.3-1-.3-2-1.3-2.3l-17.9-5.1-5.1-17.9c-.2-.6-.6-1.1-1.3-1.3-1-.3-2,.3-2.3,1.3h0Z"/>
        <path class="st0" d="M1271.6,1332.8l-5.1,17.9-17.9,5.1c-.6.2-1.1.6-1.3,1.3-.3,1,.3,2,1.3,2.3l17.9,5.1,5.1,17.9c.2.6.6,1.1,1.3,1.3,1,.3,2-.3,2.3-1.3l5.1-17.9,17.9-5.1c.6-.2,1.1-.6,1.3-1.3.3-1-.3-2-1.3-2.3l-17.9-5.1-5.1-17.9c-.2-.6-.6-1.1-1.3-1.3-1-.3-2,.3-2.3,1.3h0Z"/>
        <path class="st0" d="M1112.9,1332.8l-5.1,17.9-17.9,5.1c-.6.2-1.1.6-1.3,1.3-.3,1,.3,2,1.3,2.3l17.9,5.1,5.1,17.9c.2.6.6,1.1,1.3,1.3,1,.3,2-.3,2.3-1.3l5.1-17.9,17.9-5.1c.6-.2,1.1-.6,1.3-1.3.3-1-.3-2-1.3-2.3l-17.9-5.1-5.1-17.9c-.2-.6-.6-1.1-1.3-1.3-1-.3-2,.3-2.3,1.3h0Z"/>
        <path class="st0" d="M1060,1332.8l-5.1,17.9-17.9,5.1c-.6.2-1.1.6-1.3,1.3-.3,1,.3,2,1.3,2.3l17.9,5.1,5.1,17.9c.2.6.6,1.1,1.3,1.3,1,.3,2-.3,2.3-1.3l5.1-17.9,17.9-5.1c.6-.2,1.1-.6,1.3-1.3.3-1-.3-2-1.3-2.3l-17.9-5.1-5.1-17.9c-.2-.6-.6-1.1-1.3-1.3-1-.3-2,.3-2.3,1.3h0Z"/>
        <path class="st0" d="M1959.3,1280.6l-5.1,17.9-17.9,5.1c-.6.2-1.1.6-1.3,1.3-.3,1,.3,2,1.3,2.3l17.9,5.1,5.1,17.9c.2.6.6,1.1,1.3,1.3,1,.3,2-.3,2.3-1.3l5.1-17.9,17.9-5.1c.6-.2,1.1-.6,1.3-1.3.3-1-.3-2-1.3-2.3l-17.9-5.1-5.1-17.9c-.2-.6-.6-1.1-1.3-1.3-1-.3-2,.3-2.3,1.3h0Z"/>
        <path class="st0" d="M1906.4,1280.6l-5.1,17.9-17.9,5.1c-.6.2-1.1.6-1.3,1.3-.3,1,.3,2,1.3,2.3l17.9,5.1,5.1,17.9c.2.6.6,1.1,1.3,1.3,1,.3,2-.3,2.3-1.3l5.1-17.9,17.9-5.1c.6-.2,1.1-.6,1.3-1.3.3-1-.3-2-1.3-2.3l-17.9-5.1-5.1-17.9c-.2-.6-.6-1.1-1.3-1.3-1-.3-2,.3-2.3,1.3h0Z"/>
        <path class="st0" d="M1853.5,1280.6l-5.1,17.9-17.9,5.1c-.6.2-1.1.6-1.3,1.3-.3,1,.3,2,1.3,2.3l17.9,5.1,5.1,17.9c.2.6.6,1.1,1.3,1.3,1,.3,2-.3,2.3-1.3l5.1-17.9,17.9-5.1c.6-.2,1.1-.6,1.3-1.3.3-1-.3-2-1.3-2.3l-17.9-5.1-5.1-17.9c-.2-.6-.6-1.1-1.3-1.3-1-.3-2,.3-2.3,1.3h0Z"/>
        <path class="st0" d="M1800.6,1280.6l-5.1,17.9-17.9,5.1c-.6.2-1.1.6-1.3,1.3-.3,1,.3,2,1.3,2.3l17.9,5.1,5.1,17.9c.2.6.6,1.1,1.3,1.3,1,.3,2-.3,2.3-1.3l5.1-17.9,17.9-5.1c.6-.2,1.1-.6,1.3-1.3.3-1-.3-2-1.3-2.3l-17.9-5.1-5.1-17.9c-.2-.6-.6-1.1-1.3-1.3-1-.3-2,.3-2.3,1.3h0Z"/>
        <path class="st0" d="M1694.8,1280.6l-5.1,17.9-17.9,5.1c-.6.2-1.1.6-1.3,1.3-.3,1,.3,2,1.3,2.3l17.9,5.1,5.1,17.9c.2.6.6,1.1,1.3,1.3,1,.3,2-.3,2.3-1.3l5.1-17.9,17.9-5.1c.6-.2,1.1-.6,1.3-1.3.3-1-.3-2-1.3-2.3l-17.9-5.1-5.1-17.9c-.2-.6-.6-1.1-1.3-1.3-1-.3-2,.3-2.3,1.3h0Z"/>
        <path class="st0" d="M1641.9,1176.2l-5.1,17.9-17.9,5.1c-.6.2-1.1.6-1.3,1.3-.3,1,.3,2,1.3,2.3l17.9,5.1,5.1,17.9c.2.6.6,1.1,1.3,1.3,1,.3,2-.3,2.3-1.3l5.1-17.9,17.9-5.1c.6-.2,1.1-.6,1.3-1.3.3-1-.3-2-1.3-2.3l-17.9-5.1-5.1-17.9c-.2-.6-.6-1.1-1.3-1.3-1-.3-2,.3-2.3,1.3h0Z"/>
        <path class="st0" d="M1377.4,1280.6l-5.1,17.9-17.9,5.1c-.6.2-1.1.6-1.3,1.3-.3,1,.3,2,1.3,2.3l17.9,5.1,5.1,17.9c.2.6.6,1.1,1.3,1.3,1,.3,2-.3,2.3-1.3l5.1-17.9,17.9-5.1c.6-.2,1.1-.6,1.3-1.3.3-1-.3-2-1.3-2.3l-17.9-5.1-5.1-17.9c-.2-.6-.6-1.1-1.3-1.3-1-.3-2,.3-2.3,1.3h0Z"/>
        <path class="st0" d="M1377.4,1332.8l-5.1,17.9-17.9,5.1c-.6.2-1.1.6-1.3,1.3-.3,1,.3,2,1.3,2.3l17.9,5.1,5.1,17.9c.2.6.6,1.1,1.3,1.3,1,.3,2-.3,2.3-1.3l5.1-17.9,17.9-5.1c.6-.2,1.1-.6,1.3-1.3.3-1-.3-2-1.3-2.3l-17.9-5.1-5.1-17.9c-.2-.6-.6-1.1-1.3-1.3-1-.3-2,.3-2.3,1.3h0Z"/>
        <path class="st0" d="M1694.8,1332.8l-5.1,17.9-17.9,5.1c-.6.2-1.1.6-1.3,1.3-.3,1,.3,2,1.3,2.3l17.9,5.1,5.1,17.9c.2.6.6,1.1,1.3,1.3,1,.3,2-.3,2.3-1.3l5.1-17.9,17.9-5.1c.6-.2,1.1-.6,1.3-1.3.3-1-.3-2-1.3-2.3l-17.9-5.1-5.1-17.9c-.2-.6-.6-1.1-1.3-1.3-1-.3-2,.3-2.3,1.3h0Z"/>
        <path class="st0" d="M1694.8,1646.1l-5.1,17.9-17.9,5.1c-.6.2-1.1.6-1.3,1.3-.3,1,.3,2,1.3,2.3l17.9,5.1,5.1,17.9c.2.6.6,1.1,1.3,1.3,1,.3,2-.3,2.3-1.3l5.1-17.9,17.9-5.1c.6-.2,1.1-.6,1.3-1.3.3-1-.3-2-1.3-2.3l-17.9-5.1-5.1-17.9c-.2-.6-.6-1.1-1.3-1.3-1-.3-2,.3-2.3,1.3h0Z"/>
        <path class="st0" d="M1271.6,1280.6l-5.1,17.9-17.9,5.1c-.6.2-1.1.6-1.3,1.3-.3,1,.3,2,1.3,2.3l17.9,5.1,5.1,17.9c.2.6.6,1.1,1.3,1.3,1,.3,2-.3,2.3-1.3l5.1-17.9,17.9-5.1c.6-.2,1.1-.6,1.3-1.3.3-1-.3-2-1.3-2.3l-17.9-5.1-5.1-17.9c-.2-.6-.6-1.1-1.3-1.3-1-.3-2,.3-2.3,1.3h0Z"/>
        <path class="st0" d="M1218.7,1280.6l-5.1,17.9-17.9,5.1c-.6.2-1.1.6-1.3,1.3-.3,1,.3,2,1.3,2.3l17.9,5.1,5.1,17.9c.2.6.6,1.1,1.3,1.3,1,.3,2-.3,2.3-1.3l5.1-17.9,17.9-5.1c.6-.2,1.1-.6,1.3-1.3.3-1-.3-2-1.3-2.3l-17.9-5.1-5.1-17.9c-.2-.6-.6-1.1-1.3-1.3-1-.3-2,.3-2.3,1.3h0Z"/>
        <path class="st0" d="M1165.8,1280.6l-5.1,17.9-17.9,5.1c-.6.2-1.1.6-1.3,1.3-.3,1,.3,2,1.3,2.3l17.9,5.1,5.1,17.9c.2.6.6,1.1,1.3,1.3,1,.3,2-.3,2.3-1.3l5.1-17.9,17.9-5.1c.6-.2,1.1-.6,1.3-1.3.3-1-.3-2-1.3-2.3l-17.9-5.1-5.1-17.9c-.2-.6-.6-1.1-1.3-1.3-1-.3-2,.3-2.3,1.3h0Z"/>
        <path class="st0" d="M1112.9,1280.6l-5.1,17.9-17.9,5.1c-.6.2-1.1.6-1.3,1.3-.3,1,.3,2,1.3,2.3l17.9,5.1,5.1,17.9c.2.6.6,1.1,1.3,1.3,1,.3,2-.3,2.3-1.3l5.1-17.9,17.9-5.1c.6-.2,1.1-.6,1.3-1.3.3-1-.3-2-1.3-2.3l-17.9-5.1-5.1-17.9c-.2-.6-.6-1.1-1.3-1.3-1-.3-2,.3-2.3,1.3h0Z"/>
        <path class="st0" d="M1747.7,1228.4l-5.1,17.9-17.9,5.1c-.6.2-1.1.6-1.3,1.3-.3,1,.3,2,1.3,2.3l17.9,5.1,5.1,17.9c.2.6.6,1.1,1.3,1.3,1,.3,2-.3,2.3-1.3l5.1-17.9,17.9-5.1c.6-.2,1.1-.6,1.3-1.3.3-1-.3-2-1.3-2.3l-17.9-5.1-5.1-17.9c-.2-.6-.6-1.1-1.3-1.3-1-.3-2,.3-2.3,1.3h0Z"/>
        <path class="st0" d="M1694.8,1228.4l-5.1,17.9-17.9,5.1c-.6.2-1.1.6-1.3,1.3-.3,1,.3,2,1.3,2.3l17.9,5.1,5.1,17.9c.2.6.6,1.1,1.3,1.3,1,.3,2-.3,2.3-1.3l5.1-17.9,17.9-5.1c.6-.2,1.1-.6,1.3-1.3.3-1-.3-2-1.3-2.3l-17.9-5.1-5.1-17.9c-.2-.6-.6-1.1-1.3-1.3-1-.3-2,.3-2.3,1.3h0Z"/>
        <path class="st0" d="M1377.4,1228.4l-5.1,17.9-17.9,5.1c-.6.2-1.1.6-1.3,1.3-.3,1,.3,2,1.3,2.3l17.9,5.1,5.1,17.9c.2.6.6,1.1,1.3,1.3,1,.3,2-.3,2.3-1.3l5.1-17.9,17.9-5.1c.6-.2,1.1-.6,1.3-1.3.3-1-.3-2-1.3-2.3l-17.9-5.1-5.1-17.9c-.2-.6-.6-1.1-1.3-1.3-1-.3-2,.3-2.3,1.3h0Z"/>
        <path class="st0" d="M1324.5,1228.4l-5.1,17.9-17.9,5.1c-.6.2-1.1.6-1.3,1.3-.3,1,.3,2,1.3,2.3l17.9,5.1,5.1,17.9c.2.6.6,1.1,1.3,1.3,1,.3,2-.3,2.3-1.3l5.1-17.9,17.9-5.1c.6-.2,1.1-.6,1.3-1.3.3-1-.3-2-1.3-2.3l-17.9-5.1-5.1-17.9c-.2-.6-.6-1.1-1.3-1.3-1-.3-2,.3-2.3,1.3h0Z"/>
        <path class="st0" d="M1747.7,1176.2l-5.1,17.9-17.9,5.1c-.6.2-1.1.6-1.3,1.3-.3,1,.3,2,1.3,2.3l17.9,5.1,5.1,17.9c.2.6.6,1.1,1.3,1.3,1,.3,2-.3,2.3-1.3l5.1-17.9,17.9-5.1c.6-.2,1.1-.6,1.3-1.3.3-1-.3-2-1.3-2.3l-17.9-5.1-5.1-17.9c-.2-.6-.6-1.1-1.3-1.3-1-.3-2,.3-2.3,1.3h0Z"/>
        <path class="st0" d="M1589,1176.2l-5.1,17.9-17.9,5.1c-.6.2-1.1.6-1.3,1.3-.3,1,.3,2,1.3,2.3l17.9,5.1,5.1,17.9c.2.6.6,1.1,1.3,1.3,1,.3,2-.3,2.3-1.3l5.1-17.9,17.9-5.1c.6-.2,1.1-.6,1.3-1.3.3-1-.3-2-1.3-2.3l-17.9-5.1-5.1-17.9c-.2-.6-.6-1.1-1.3-1.3-1-.3-2,.3-2.3,1.3h0Z"/>
        <path class="st0" d="M1536.1,1176.2l-5.1,17.9-17.9,5.1c-.6.2-1.1.6-1.3,1.3-.3,1,.3,2,1.3,2.3l17.9,5.1,5.1,17.9c.2.6.6,1.1,1.3,1.3,1,.3,2-.3,2.3-1.3l5.1-17.9,17.9-5.1c.6-.2,1.1-.6,1.3-1.3.3-1-.3-2-1.3-2.3l-17.9-5.1-5.1-17.9c-.2-.6-.6-1.1-1.3-1.3-1-.3-2,.3-2.3,1.3h0Z"/>
        <path class="st0" d="M1483.2,1176.2l-5.1,17.9-17.9,5.1c-.6.2-1.1.6-1.3,1.3-.3,1,.3,2,1.3,2.3l17.9,5.1,5.1,17.9c.2.6.6,1.1,1.3,1.3,1,.3,2-.3,2.3-1.3l5.1-17.9,17.9-5.1c.6-.2,1.1-.6,1.3-1.3.3-1-.3-2-1.3-2.3l-17.9-5.1-5.1-17.9c-.2-.6-.6-1.1-1.3-1.3-1-.3-2,.3-2.3,1.3h0Z"/>
        <path class="st0" d="M1430.3,1176.2l-5.1,17.9-17.9,5.1c-.6.2-1.1.6-1.3,1.3-.3,1,.3,2,1.3,2.3l17.9,5.1,5.1,17.9c.2.6.6,1.1,1.3,1.3,1,.3,2-.3,2.3-1.3l5.1-17.9,17.9-5.1c.6-.2,1.1-.6,1.3-1.3.3-1-.3-2-1.3-2.3l-17.9-5.1-5.1-17.9c-.2-.6-.6-1.1-1.3-1.3-1-.3-2,.3-2.3,1.3h0Z"/>
        <path class="st0" d="M1324.5,1176.2l-5.1,17.9-17.9,5.1c-.6.2-1.1.6-1.3,1.3-.3,1,.3,2,1.3,2.3l17.9,5.1,5.1,17.9c.2.6.6,1.1,1.3,1.3,1,.3,2-.3,2.3-1.3l5.1-17.9,17.9-5.1c.6-.2,1.1-.6,1.3-1.3.3-1-.3-2-1.3-2.3l-17.9-5.1-5.1-17.9c-.2-.6-.6-1.1-1.3-1.3-1-.3-2,.3-2.3,1.3h0Z"/>
        <path class="st0" d="M1747.7,1123.9l-5.1,17.9-17.9,5.1c-.6.2-1.1.6-1.3,1.3-.3,1,.3,2,1.3,2.3l17.9,5.1,5.1,17.9c.2.6.6,1.1,1.3,1.3,1,.3,2-.3,2.3-1.3l5.1-17.9,17.9-5.1c.6-.2,1.1-.6,1.3-1.3.3-1-.3-2-1.3-2.3l-17.9-5.1-5.1-17.9c-.2-.6-.6-1.1-1.3-1.3-1-.3-2,.3-2.3,1.3h0Z"/>
        <path class="st0" d="M1589,1123.9l-5.1,17.9-17.9,5.1c-.6.2-1.1.6-1.3,1.3-.3,1,.3,2,1.3,2.3l17.9,5.1,5.1,17.9c.2.6.6,1.1,1.3,1.3,1,.3,2-.3,2.3-1.3l5.1-17.9,17.9-5.1c.6-.2,1.1-.6,1.3-1.3.3-1-.3-2-1.3-2.3l-17.9-5.1-5.1-17.9c-.2-.6-.6-1.1-1.3-1.3-1-.3-2,.3-2.3,1.3h0Z"/>
        <path class="st0" d="M1536.1,1123.9l-5.1,17.9-17.9,5.1c-.6.2-1.1.6-1.3,1.3-.3,1,.3,2,1.3,2.3l17.9,5.1,5.1,17.9c.2.6.6,1.1,1.3,1.3,1,.3,2-.3,2.3-1.3l5.1-17.9,17.9-5.1c.6-.2,1.1-.6,1.3-1.3.3-1-.3-2-1.3-2.3l-17.9-5.1-5.1-17.9c-.2-.6-.6-1.1-1.3-1.3-1-.3-2,.3-2.3,1.3h0Z"/>
        <path class="st0" d="M1483.2,1123.9l-5.1,17.9-17.9,5.1c-.6.2-1.1.6-1.3,1.3-.3,1,.3,2,1.3,2.3l17.9,5.1,5.1,17.9c.2.6.6,1.1,1.3,1.3,1,.3,2-.3,2.3-1.3l5.1-17.9,17.9-5.1c.6-.2,1.1-.6,1.3-1.3.3-1-.3-2-1.3-2.3l-17.9-5.1-5.1-17.9c-.2-.6-.6-1.1-1.3-1.3-1-.3-2,.3-2.3,1.3h0Z"/>
        <path class="st0" d="M1324.5,1123.9l-5.1,17.9-17.9,5.1c-.6.2-1.1.6-1.3,1.3-.3,1,.3,2,1.3,2.3l17.9,5.1,5.1,17.9c.2.6.6,1.1,1.3,1.3,1,.3,2-.3,2.3-1.3l5.1-17.9,17.9-5.1c.6-.2,1.1-.6,1.3-1.3.3-1-.3-2-1.3-2.3l-17.9-5.1-5.1-17.9c-.2-.6-.6-1.1-1.3-1.3-1-.3-2,.3-2.3,1.3h0Z"/>
        <path class="st0" d="M1747.7,1071.7l-5.1,17.9-17.9,5.1c-.6.2-1.1.6-1.3,1.3-.3,1,.3,2,1.3,2.3l17.9,5.1,5.1,17.9c.2.6.6,1.1,1.3,1.3,1,.3,2-.3,2.3-1.3l5.1-17.9,17.9-5.1c.6-.2,1.1-.6,1.3-1.3.3-1-.3-2-1.3-2.3l-17.9-5.1-5.1-17.9c-.2-.6-.6-1.1-1.3-1.3-1-.3-2,.3-2.3,1.3h0Z"/>
        <path class="st0" d="M1694.8,1071.7l-5.1,17.9-17.9,5.1c-.6.2-1.1.6-1.3,1.3-.3,1,.3,2,1.3,2.3l17.9,5.1,5.1,17.9c.2.6.6,1.1,1.3,1.3,1,.3,2-.3,2.3-1.3l5.1-17.9,17.9-5.1c.6-.2,1.1-.6,1.3-1.3.3-1-.3-2-1.3-2.3l-17.9-5.1-5.1-17.9c-.2-.6-.6-1.1-1.3-1.3-1-.3-2,.3-2.3,1.3h0Z"/>
        <path class="st0" d="M1536.1,1071.7l-5.1,17.9-17.9,5.1c-.6.2-1.1.6-1.3,1.3-.3,1,.3,2,1.3,2.3l17.9,5.1,5.1,17.9c.2.6.6,1.1,1.3,1.3,1,.3,2-.3,2.3-1.3l5.1-17.9,17.9-5.1c.6-.2,1.1-.6,1.3-1.3.3-1-.3-2-1.3-2.3l-17.9-5.1-5.1-17.9c-.2-.6-.6-1.1-1.3-1.3-1-.3-2,.3-2.3,1.3h0Z"/>
        <path class="st0" d="M1377.4,1071.7l-5.1,17.9-17.9,5.1c-.6.2-1.1.6-1.3,1.3-.3,1,.3,2,1.3,2.3l17.9,5.1,5.1,17.9c.2.6.6,1.1,1.3,1.3,1,.3,2-.3,2.3-1.3l5.1-17.9,17.9-5.1c.6-.2,1.1-.6,1.3-1.3.3-1-.3-2-1.3-2.3l-17.9-5.1-5.1-17.9c-.2-.6-.6-1.1-1.3-1.3-1-.3-2,.3-2.3,1.3h0Z"/>
        <path class="st0" d="M1324.5,1071.7l-5.1,17.9-17.9,5.1c-.6.2-1.1.6-1.3,1.3-.3,1,.3,2,1.3,2.3l17.9,5.1,5.1,17.9c.2.6.6,1.1,1.3,1.3,1,.3,2-.3,2.3-1.3l5.1-17.9,17.9-5.1c.6-.2,1.1-.6,1.3-1.3.3-1-.3-2-1.3-2.3l-17.9-5.1-5.1-17.9c-.2-.6-.6-1.1-1.3-1.3-1-.3-2,.3-2.3,1.3h0Z"/>
        <path class="st0" d="M1694.8,1019.5l-5.1,17.9-17.9,5.1c-.6.2-1.1.6-1.3,1.3-.3,1,.3,2,1.3,2.3l17.9,5.1,5.1,17.9c.2.6.6,1.1,1.3,1.3,1,.3,2-.3,2.3-1.3l5.1-17.9,17.9-5.1c.6-.2,1.1-.6,1.3-1.3.3-1-.3-2-1.3-2.3l-17.9-5.1-5.1-17.9c-.2-.6-.6-1.1-1.3-1.3-1-.3-2,.3-2.3,1.3h0Z"/>
        <path class="st0" d="M1641.9,1019.5l-5.1,17.9-17.9,5.1c-.6.2-1.1.6-1.3,1.3-.3,1,.3,2,1.3,2.3l17.9,5.1,5.1,17.9c.2.6.6,1.1,1.3,1.3,1,.3,2-.3,2.3-1.3l5.1-17.9,17.9-5.1c.6-.2,1.1-.6,1.3-1.3.3-1-.3-2-1.3-2.3l-17.9-5.1-5.1-17.9c-.2-.6-.6-1.1-1.3-1.3-1-.3-2,.3-2.3,1.3h0Z"/>
        <path class="st0" d="M1430.3,1019.5l-5.1,17.9-17.9,5.1c-.6.2-1.1.6-1.3,1.3-.3,1,.3,2,1.3,2.3l17.9,5.1,5.1,17.9c.2.6.6,1.1,1.3,1.3,1,.3,2-.3,2.3-1.3l5.1-17.9,17.9-5.1c.6-.2,1.1-.6,1.3-1.3.3-1-.3-2-1.3-2.3l-17.9-5.1-5.1-17.9c-.2-.6-.6-1.1-1.3-1.3-1-.3-2,.3-2.3,1.3h0Z"/>
        <path class="st0" d="M1377.4,1019.5l-5.1,17.9-17.9,5.1c-.6.2-1.1.6-1.3,1.3-.3,1,.3,2,1.3,2.3l17.9,5.1,5.1,17.9c.2.6.6,1.1,1.3,1.3,1,.3,2-.3,2.3-1.3l5.1-17.9,17.9-5.1c.6-.2,1.1-.6,1.3-1.3.3-1-.3-2-1.3-2.3l-17.9-5.1-5.1-17.9c-.2-.6-.6-1.1-1.3-1.3-1-.3-2,.3-2.3,1.3h0Z"/>
        <path class="st0" d="M1641.9,967.3l-5.1,17.9-17.9,5.1c-.6.2-1.1.6-1.3,1.3-.3,1,.3,2,1.3,2.3l17.9,5.1,5.1,17.9c.2.6.6,1.1,1.3,1.3,1,.3,2-.3,2.3-1.3l5.1-17.9,17.9-5.1c.6-.2,1.1-.6,1.3-1.3.3-1-.3-2-1.3-2.3l-17.9-5.1-5.1-17.9c-.2-.6-.6-1.1-1.3-1.3-1-.3-2,.3-2.3,1.3h0Z"/>
        <path class="st0" d="M1589,967.3l-5.1,17.9-17.9,5.1c-.6.2-1.1.6-1.3,1.3-.3,1,.3,2,1.3,2.3l17.9,5.1,5.1,17.9c.2.6.6,1.1,1.3,1.3,1,.3,2-.3,2.3-1.3l5.1-17.9,17.9-5.1c.6-.2,1.1-.6,1.3-1.3.3-1-.3-2-1.3-2.3l-17.9-5.1-5.1-17.9c-.2-.6-.6-1.1-1.3-1.3-1-.3-2,.3-2.3,1.3h0Z"/>
        <path class="st0" d="M1483.2,967.3l-5.1,17.9-17.9,5.1c-.6.2-1.1.6-1.3,1.3-.3,1,.3,2,1.3,2.3l17.9,5.1,5.1,17.9c.2.6.6,1.1,1.3,1.3,1,.3,2-.3,2.3-1.3l5.1-17.9,17.9-5.1c.6-.2,1.1-.6,1.3-1.3.3-1-.3-2-1.3-2.3l-17.9-5.1-5.1-17.9c-.2-.6-.6-1.1-1.3-1.3-1-.3-2,.3-2.3,1.3h0Z"/>
        <path class="st0" d="M1430.3,967.3l-5.1,17.9-17.9,5.1c-.6.2-1.1.6-1.3,1.3-.3,1,.3,2,1.3,2.3l17.9,5.1,5.1,17.9c.2.6.6,1.1,1.3,1.3,1,.3,2-.3,2.3-1.3l5.1-17.9,17.9-5.1c.6-.2,1.1-.6,1.3-1.3.3-1-.3-2-1.3-2.3l-17.9-5.1-5.1-17.9c-.2-.6-.6-1.1-1.3-1.3-1-.3-2,.3-2.3,1.3h0Z"/>
        <path class="st0" d="M1589,915.1l-5.1,17.9-17.9,5.1c-.6.2-1.1.6-1.3,1.3-.3,1,.3,2,1.3,2.3l17.9,5.1,5.1,17.9c.2.6.6,1.1,1.3,1.3,1,.3,2-.3,2.3-1.3l5.1-17.9,17.9-5.1c.6-.2,1.1-.6,1.3-1.3.3-1-.3-2-1.3-2.3l-17.9-5.1-5.1-17.9c-.2-.6-.6-1.1-1.3-1.3-1-.3-2,.3-2.3,1.3h0Z"/>
        <path class="st0" d="M1536.1,915.1l-5.1,17.9-17.9,5.1c-.6.2-1.1.6-1.3,1.3-.3,1,.3,2,1.3,2.3l17.9,5.1,5.1,17.9c.2.6.6,1.1,1.3,1.3,1,.3,2-.3,2.3-1.3l5.1-17.9,17.9-5.1c.6-.2,1.1-.6,1.3-1.3.3-1-.3-2-1.3-2.3l-17.9-5.1-5.1-17.9c-.2-.6-.6-1.1-1.3-1.3-1-.3-2,.3-2.3,1.3h0Z"/>
        <path class="st0" d="M1483.2,915.1l-5.1,17.9-17.9,5.1c-.6.2-1.1.6-1.3,1.3-.3,1,.3,2,1.3,2.3l17.9,5.1,5.1,17.9c.2.6.6,1.1,1.3,1.3,1,.3,2-.3,2.3-1.3l5.1-17.9,17.9-5.1c.6-.2,1.1-.6,1.3-1.3.3-1-.3-2-1.3-2.3l-17.9-5.1-5.1-17.9c-.2-.6-.6-1.1-1.3-1.3-1-.3-2,.3-2.3,1.3h0Z"/>
        <path class="st0" d="M1536.1,862.9l-5.1,17.9-17.9,5.1c-.6.2-1.1.6-1.3,1.3-.3,1,.3,2,1.3,2.3l17.9,5.1,5.1,17.9c.2.6.6,1.1,1.3,1.3,1,.3,2-.3,2.3-1.3l5.1-17.9,17.9-5.1c.6-.2,1.1-.6,1.3-1.3.3-1-.3-2-1.3-2.3l-17.9-5.1-5.1-17.9c-.2-.6-.6-1.1-1.3-1.3-1-.3-2,.3-2.3,1.3h0Z"/>
        <g>
          <path class="st0" d="M1536.5,1272.7h3.9c0,.9.2,1.8.2,2.7,0,19.7,0,39.4.2,59.1.2,27.6.6,55.2,1,82.8.3,19.8.7,39.6,1.2,59.3.8,29.9,1.6,59.8,2.4,89.8.7,24.2,1.5,48.5,2.4,72.7,1.5,38.5,3.1,77,4.7,115.5v4.7h-27.1c7.8-162.1,11.2-324.2,11-486.6h.1,0Z"/>
          <path class="st0" d="M1620.5,1759.6c-8.7-10-15.8-20.3-22.1-31.3-15.4-27-25-56.2-31.7-86.4-6.4-29.4-9.8-59.2-11.8-89.2-2.3-34.8-2.2-69.6-1.5-104.4.7-33,2.1-65.9,3.1-98.9.3-10.8.6-21.7.9-32.7h4.1v11.1c-.2,12.1-.4,24.2-.6,36.2-.4,26.4-1.3,52.8-1.1,79.2.2,28.1,1.2,56.2,2.5,84.3,1.1,24.2,4.2,48.3,8.7,72.2,6.4,34.2,16.1,67.2,33.6,97.5,6.9,12,15,23.2,24.6,33.1,1.4,1.5,1.6,2.7.9,4.5-3.2,8.1-6.3,16.2-9.6,24.8h0Z"/>
          <path class="st0" d="M1516,1343.8h4.1v15.4c.7,34.3,1.5,68.6,2.2,102.9.7,36.2,0,72.2-3.1,108.3-3.1,35.9-8.5,71.3-19.4,105.7-9,28.4-21.5,55.1-40.3,78.5-1.3,1.6-2.6,3.1-4.2,5-2.5-6.6-4.5-13-7.4-18.9-3-5.9-2-9.8,2.6-14.8,18.4-20.1,30.4-44.2,39.4-69.7,9-25.4,14.6-51.7,18.4-78.3,4.4-31,6.9-62.1,7.3-93.4.4-35.2.3-70.5.5-105.7v-35h-.1Z"/>
          <path class="st0" d="M1620.5,1688.6c-9.9-12.8-17-26.6-22.7-41-8.8-22.2-14.2-45.2-18.2-68.6-5.1-30.1-7.9-60.3-8.6-90.8-.6-26.1-.8-52.2-.8-78.2s.6-24.8.9-37.1v-1.9h5.7v16.9c0,16.9-.5,33.9-.3,50.8.4,28.8,2.9,57.5,7.3,86,5.8,37.2,14.3,73.6,29.9,108,4.4,9.6,9.5,18.8,16,27.2.5.7.8,1.9.6,2.6-3.1,8.5-6.4,17-9.9,26.1h.1Z"/>
          <path class="st0" d="M1455.4,1689.1c-3.7-9.6-6.9-18.2-10.2-26.8-.2-.6,0-1.6.4-2.1,19.8-24.5,31.1-53,39.3-82.9,7.2-26.3,11.7-53.1,13.4-80.3,1.3-20.4,1.9-40.9,2.2-61.4.2-12.6-.7-25.1-1.1-37.9h6.4c.2,5.1.4,10.2.5,15.3.2,19.8.7,39.6.5,59.4-.5,38.5-2.8,76.8-10.2,114.7-5.7,28.9-13.9,56.9-28.7,82.6-3.7,6.4-8,12.4-12.4,19.4h-.1,0Z"/>
        </g>
      </g>
      <g>
        <path class="st0" d="M659.1,1254.5l-5.1,17.9-17.9,5.1c-.6.2-1.1.6-1.3,1.3-.3,1,.3,2,1.3,2.3l17.9,5.1,5.1,17.9c.2.6.6,1.1,1.3,1.3,1,.3,2-.3,2.3-1.3l5.1-17.9,17.9-5.1c.6-.2,1.1-.6,1.3-1.3.3-1-.3-2-1.3-2.3l-17.9-5.1-5.1-17.9c-.2-.6-.6-1.1-1.3-1.3-1-.3-2,.3-2.3,1.3h0Z"/>
        <path class="st0" d="M712,1202.3l-5.1,17.9-17.9,5.1c-.6.2-1.1.6-1.3,1.3-.3,1,.3,2,1.3,2.3l17.9,5.1,5.1,17.9c.2.6.6,1.1,1.3,1.3,1,.3,2-.3,2.3-1.3l5.1-17.9,17.9-5.1c.6-.2,1.1-.6,1.3-1.3.3-1-.3-2-1.3-2.3l-17.9-5.1-5.1-17.9c-.2-.6-.6-1.1-1.3-1.3-1-.3-2,.3-2.3,1.3h0Z"/>
        <path class="st0" d="M659.1,1202.3l-5.1,17.9-17.9,5.1c-.6.2-1.1.6-1.3,1.3-.3,1,.3,2,1.3,2.3l17.9,5.1,5.1,17.9c.2.6.6,1.1,1.3,1.3,1,.3,2-.3,2.3-1.3l5.1-17.9,17.9-5.1c.6-.2,1.1-.6,1.3-1.3.3-1-.3-2-1.3-2.3l-17.9-5.1-5.1-17.9c-.2-.6-.6-1.1-1.3-1.3-1-.3-2,.3-2.3,1.3h0Z"/>
        <path class="st0" d="M606.2,1202.3l-5.1,17.9-17.9,5.1c-.6.2-1.1.6-1.3,1.3-.3,1,.3,2,1.3,2.3l17.9,5.1,5.1,17.9c.2.6.6,1.1,1.3,1.3,1,.3,2-.3,2.3-1.3l5.1-17.9,17.9-5.1c.6-.2,1.1-.6,1.3-1.3.3-1-.3-2-1.3-2.3l-17.9-5.1-5.1-17.9c-.2-.6-.6-1.1-1.3-1.3-1-.3-2,.3-2.3,1.3h0Z"/>
        <path class="st0" d="M764.9,1150.1l-5.1,17.9-17.9,5.1c-.6.2-1.1.6-1.3,1.3-.3,1,.3,2,1.3,2.3l17.9,5.1,5.1,17.9c.2.6.6,1.1,1.3,1.3,1,.3,2-.3,2.3-1.3l5.1-17.9,17.9-5.1c.6-.2,1.1-.6,1.3-1.3.3-1-.3-2-1.3-2.3l-17.9-5.1-5.1-17.9c-.2-.6-.6-1.1-1.3-1.3-1-.3-2,.3-2.3,1.3h0Z"/>
        <path class="st0" d="M712,1150.1l-5.1,17.9-17.9,5.1c-.6.2-1.1.6-1.3,1.3-.3,1,.3,2,1.3,2.3l17.9,5.1,5.1,17.9c.2.6.6,1.1,1.3,1.3,1,.3,2-.3,2.3-1.3l5.1-17.9,17.9-5.1c.6-.2,1.1-.6,1.3-1.3.3-1-.3-2-1.3-2.3l-17.9-5.1-5.1-17.9c-.2-.6-.6-1.1-1.3-1.3-1-.3-2,.3-2.3,1.3h0Z"/>
        <path class="st0" d="M606.2,1150.1l-5.1,17.9-17.9,5.1c-.6.2-1.1.6-1.3,1.3-.3,1,.3,2,1.3,2.3l17.9,5.1,5.1,17.9c.2.6.6,1.1,1.3,1.3,1,.3,2-.3,2.3-1.3l5.1-17.9,17.9-5.1c.6-.2,1.1-.6,1.3-1.3.3-1-.3-2-1.3-2.3l-17.9-5.1-5.1-17.9c-.2-.6-.6-1.1-1.3-1.3-1-.3-2,.3-2.3,1.3h0Z"/>
        <path class="st0" d="M553.3,1150.1l-5.1,17.9-17.9,5.1c-.6.2-1.1.6-1.3,1.3-.3,1,.3,2,1.3,2.3l17.9,5.1,5.1,17.9c.2.6.6,1.1,1.3,1.3,1,.3,2-.3,2.3-1.3l5.1-17.9,17.9-5.1c.6-.2,1.1-.6,1.3-1.3.3-1-.3-2-1.3-2.3l-17.9-5.1-5.1-17.9c-.2-.6-.6-1.1-1.3-1.3-1-.3-2,.3-2.3,1.3h0Z"/>
        <path class="st0" d="M817.8,1097.8l-5.1,17.9-17.9,5.1c-.6.2-1.1.6-1.3,1.3-.3,1,.3,2,1.3,2.3l17.9,5.1,5.1,17.9c.2.6.6,1.1,1.3,1.3,1,.3,2-.3,2.3-1.3l5.1-17.9,17.9-5.1c.6-.2,1.1-.6,1.3-1.3.3-1-.3-2-1.3-2.3l-17.9-5.1-5.1-17.9c-.2-.6-.6-1.1-1.3-1.3-1-.3-2,.3-2.3,1.3h0Z"/>
        <path class="st0" d="M764.9,1097.8l-5.1,17.9-17.9,5.1c-.6.2-1.1.6-1.3,1.3-.3,1,.3,2,1.3,2.3l17.9,5.1,5.1,17.9c.2.6.6,1.1,1.3,1.3,1,.3,2-.3,2.3-1.3l5.1-17.9,17.9-5.1c.6-.2,1.1-.6,1.3-1.3.3-1-.3-2-1.3-2.3l-17.9-5.1-5.1-17.9c-.2-.6-.6-1.1-1.3-1.3-1-.3-2,.3-2.3,1.3h0Z"/>
        <path class="st0" d="M553.3,1097.8l-5.1,17.9-17.9,5.1c-.6.2-1.1.6-1.3,1.3-.3,1,.3,2,1.3,2.3l17.9,5.1,5.1,17.9c.2.6.6,1.1,1.3,1.3,1,.3,2-.3,2.3-1.3l5.1-17.9,17.9-5.1c.6-.2,1.1-.6,1.3-1.3.3-1-.3-2-1.3-2.3l-17.9-5.1-5.1-17.9c-.2-.6-.6-1.1-1.3-1.3-1-.3-2,.3-2.3,1.3h0Z"/>
        <path class="st0" d="M500.4,1097.8l-5.1,17.9-17.9,5.1c-.6.2-1.1.6-1.3,1.3-.3,1,.3,2,1.3,2.3l17.9,5.1,5.1,17.9c.2.6.6,1.1,1.3,1.3,1,.3,2-.3,2.3-1.3l5.1-17.9,17.9-5.1c.6-.2,1.1-.6,1.3-1.3.3-1-.3-2-1.3-2.3l-17.9-5.1-5.1-17.9c-.2-.6-.6-1.1-1.3-1.3-1-.3-2,.3-2.3,1.3h0Z"/>
        <path class="st0" d="M870.7,1045.6l-5.1,17.9-17.9,5.1c-.6.2-1.1.6-1.3,1.3-.3,1,.3,2,1.3,2.3l17.9,5.1,5.1,17.9c.2.6.6,1.1,1.3,1.3,1,.3,2-.3,2.3-1.3l5.1-17.9,17.9-5.1c.6-.2,1.1-.6,1.3-1.3.3-1-.3-2-1.3-2.3l-17.9-5.1-5.1-17.9c-.2-.6-.6-1.1-1.3-1.3-1-.3-2,.3-2.3,1.3h0Z"/>
        <path class="st0" d="M817.8,1045.6l-5.1,17.9-17.9,5.1c-.6.2-1.1.6-1.3,1.3-.3,1,.3,2,1.3,2.3l17.9,5.1,5.1,17.9c.2.6.6,1.1,1.3,1.3,1,.3,2-.3,2.3-1.3l5.1-17.9,17.9-5.1c.6-.2,1.1-.6,1.3-1.3.3-1-.3-2-1.3-2.3l-17.9-5.1-5.1-17.9c-.2-.6-.6-1.1-1.3-1.3-1-.3-2,.3-2.3,1.3h0Z"/>
        <path class="st0" d="M659.1,1045.6l-5.1,17.9-17.9,5.1c-.6.2-1.1.6-1.3,1.3-.3,1,.3,2,1.3,2.3l17.9,5.1,5.1,17.9c.2.6.6,1.1,1.3,1.3,1,.3,2-.3,2.3-1.3l5.1-17.9,17.9-5.1c.6-.2,1.1-.6,1.3-1.3.3-1-.3-2-1.3-2.3l-17.9-5.1-5.1-17.9c-.2-.6-.6-1.1-1.3-1.3-1-.3-2,.3-2.3,1.3h0Z"/>
        <path class="st0" d="M500.4,1045.6l-5.1,17.9-17.9,5.1c-.6.2-1.1.6-1.3,1.3-.3,1,.3,2,1.3,2.3l17.9,5.1,5.1,17.9c.2.6.6,1.1,1.3,1.3,1,.3,2-.3,2.3-1.3l5.1-17.9,17.9-5.1c.6-.2,1.1-.6,1.3-1.3.3-1-.3-2-1.3-2.3l-17.9-5.1-5.1-17.9c-.2-.6-.6-1.1-1.3-1.3-1-.3-2,.3-2.3,1.3h0Z"/>
        <path class="st0" d="M447.5,1045.6l-5.1,17.9-17.9,5.1c-.6.2-1.1.6-1.3,1.3-.3,1,.3,2,1.3,2.3l17.9,5.1,5.1,17.9c.2.6.6,1.1,1.3,1.3,1,.3,2-.3,2.3-1.3l5.1-17.9,17.9-5.1c.6-.2,1.1-.6,1.3-1.3.3-1-.3-2-1.3-2.3l-17.9-5.1-5.1-17.9c-.2-.6-.6-1.1-1.3-1.3-1-.3-2,.3-2.3,1.3h0Z"/>
        <path class="st0" d="M870.7,993.4l-5.1,17.9-17.9,5.1c-.6.2-1.1.6-1.3,1.3-.3,1,.3,2,1.3,2.3l17.9,5.1,5.1,17.9c.2.6.6,1.1,1.3,1.3,1,.3,2-.3,2.3-1.3l5.1-17.9,17.9-5.1c.6-.2,1.1-.6,1.3-1.3.3-1-.3-2-1.3-2.3l-17.9-5.1-5.1-17.9c-.2-.6-.6-1.1-1.3-1.3-1-.3-2,.3-2.3,1.3h0Z"/>
        <path class="st0" d="M712,993.4l-5.1,17.9-17.9,5.1c-.6.2-1.1.6-1.3,1.3-.3,1,.3,2,1.3,2.3l17.9,5.1,5.1,17.9c.2.6.6,1.1,1.3,1.3,1,.3,2-.3,2.3-1.3l5.1-17.9,17.9-5.1c.6-.2,1.1-.6,1.3-1.3.3-1-.3-2-1.3-2.3l-17.9-5.1-5.1-17.9c-.2-.6-.6-1.1-1.3-1.3-1-.3-2,.3-2.3,1.3h0Z"/>
        <path class="st0" d="M659.1,993.4l-5.1,17.9-17.9,5.1c-.6.2-1.1.6-1.3,1.3-.3,1,.3,2,1.3,2.3l17.9,5.1,5.1,17.9c.2.6.6,1.1,1.3,1.3,1,.3,2-.3,2.3-1.3l5.1-17.9,17.9-5.1c.6-.2,1.1-.6,1.3-1.3.3-1-.3-2-1.3-2.3l-17.9-5.1-5.1-17.9c-.2-.6-.6-1.1-1.3-1.3-1-.3-2,.3-2.3,1.3h0Z"/>
        <path class="st0" d="M606.2,993.4l-5.1,17.9-17.9,5.1c-.6.2-1.1.6-1.3,1.3-.3,1,.3,2,1.3,2.3l17.9,5.1,5.1,17.9c.2.6.6,1.1,1.3,1.3,1,.3,2-.3,2.3-1.3l5.1-17.9,17.9-5.1c.6-.2,1.1-.6,1.3-1.3.3-1-.3-2-1.3-2.3l-17.9-5.1-5.1-17.9c-.2-.6-.6-1.1-1.3-1.3-1-.3-2,.3-2.3,1.3h0Z"/>
        <path class="st0" d="M447.5,993.4l-5.1,17.9-17.9,5.1c-.6.2-1.1.6-1.3,1.3-.3,1,.3,2,1.3,2.3l17.9,5.1,5.1,17.9c.2.6.6,1.1,1.3,1.3,1,.3,2-.3,2.3-1.3l5.1-17.9,17.9-5.1c.6-.2,1.1-.6,1.3-1.3.3-1-.3-2-1.3-2.3l-17.9-5.1-5.1-17.9c-.2-.6-.6-1.1-1.3-1.3-1-.3-2,.3-2.3,1.3h0Z"/>
        <path class="st0" d="M870.7,941.2l-5.1,17.9-17.9,5.1c-.6.2-1.1.6-1.3,1.3-.3,1,.3,2,1.3,2.3l17.9,5.1,5.1,17.9c.2.6.6,1.1,1.3,1.3,1,.3,2-.3,2.3-1.3l5.1-17.9,17.9-5.1c.6-.2,1.1-.6,1.3-1.3.3-1-.3-2-1.3-2.3l-17.9-5.1-5.1-17.9c-.2-.6-.6-1.1-1.3-1.3-1-.3-2,.3-2.3,1.3h0Z"/>
        <path class="st0" d="M764.9,941.2l-5.1,17.9-17.9,5.1c-.6.2-1.1.6-1.3,1.3-.3,1,.3,2,1.3,2.3l17.9,5.1,5.1,17.9c.2.6.6,1.1,1.3,1.3,1,.3,2-.3,2.3-1.3l5.1-17.9,17.9-5.1c.6-.2,1.1-.6,1.3-1.3.3-1-.3-2-1.3-2.3l-17.9-5.1-5.1-17.9c-.2-.6-.6-1.1-1.3-1.3-1-.3-2,.3-2.3,1.3h0Z"/>
        <path class="st0" d="M712,941.2l-5.1,17.9-17.9,5.1c-.6.2-1.1.6-1.3,1.3-.3,1,.3,2,1.3,2.3l17.9,5.1,5.1,17.9c.2.6.6,1.1,1.3,1.3,1,.3,2-.3,2.3-1.3l5.1-17.9,17.9-5.1c.6-.2,1.1-.6,1.3-1.3.3-1-.3-2-1.3-2.3l-17.9-5.1-5.1-17.9c-.2-.6-.6-1.1-1.3-1.3-1-.3-2,.3-2.3,1.3h0Z"/>
        <path class="st0" d="M659.1,941.2l-5.1,17.9-17.9,5.1c-.6.2-1.1.6-1.3,1.3-.3,1,.3,2,1.3,2.3l17.9,5.1,5.1,17.9c.2.6.6,1.1,1.3,1.3,1,.3,2-.3,2.3-1.3l5.1-17.9,17.9-5.1c.6-.2,1.1-.6,1.3-1.3.3-1-.3-2-1.3-2.3l-17.9-5.1-5.1-17.9c-.2-.6-.6-1.1-1.3-1.3-1-.3-2,.3-2.3,1.3h0Z"/>
        <path class="st0" d="M606.2,941.2l-5.1,17.9-17.9,5.1c-.6.2-1.1.6-1.3,1.3-.3,1,.3,2,1.3,2.3l17.9,5.1,5.1,17.9c.2.6.6,1.1,1.3,1.3,1,.3,2-.3,2.3-1.3l5.1-17.9,17.9-5.1c.6-.2,1.1-.6,1.3-1.3.3-1-.3-2-1.3-2.3l-17.9-5.1-5.1-17.9c-.2-.6-.6-1.1-1.3-1.3-1-.3-2,.3-2.3,1.3h0Z"/>
        <path class="st0" d="M553.3,941.2l-5.1,17.9-17.9,5.1c-.6.2-1.1.6-1.3,1.3-.3,1,.3,2,1.3,2.3l17.9,5.1,5.1,17.9c.2.6.6,1.1,1.3,1.3,1,.3,2-.3,2.3-1.3l5.1-17.9,17.9-5.1c.6-.2,1.1-.6,1.3-1.3.3-1-.3-2-1.3-2.3l-17.9-5.1-5.1-17.9c-.2-.6-.6-1.1-1.3-1.3-1-.3-2,.3-2.3,1.3h0Z"/>
        <path class="st0" d="M447.5,941.2l-5.1,17.9-17.9,5.1c-.6.2-1.1.6-1.3,1.3-.3,1,.3,2,1.3,2.3l17.9,5.1,5.1,17.9c.2.6.6,1.1,1.3,1.3,1,.3,2-.3,2.3-1.3l5.1-17.9,17.9-5.1c.6-.2,1.1-.6,1.3-1.3.3-1-.3-2-1.3-2.3l-17.9-5.1-5.1-17.9c-.2-.6-.6-1.1-1.3-1.3-1-.3-2,.3-2.3,1.3h0Z"/>
        <path class="st0" d="M870.7,889l-5.1,17.9-17.9,5.1c-.6.2-1.1.6-1.3,1.3-.3,1,.3,2,1.3,2.3l17.9,5.1,5.1,17.9c.2.6.6,1.1,1.3,1.3,1,.3,2-.3,2.3-1.3l5.1-17.9,17.9-5.1c.6-.2,1.1-.6,1.3-1.3.3-1-.3-2-1.3-2.3l-17.9-5.1-5.1-17.9c-.2-.6-.6-1.1-1.3-1.3-1-.3-2,.3-2.3,1.3h0Z"/>
        <path class="st0" d="M817.8,889l-5.1,17.9-17.9,5.1c-.6.2-1.1.6-1.3,1.3-.3,1,.3,2,1.3,2.3l17.9,5.1,5.1,17.9c.2.6.6,1.1,1.3,1.3,1,.3,2-.3,2.3-1.3l5.1-17.9,17.9-5.1c.6-.2,1.1-.6,1.3-1.3.3-1-.3-2-1.3-2.3l-17.9-5.1-5.1-17.9c-.2-.6-.6-1.1-1.3-1.3-1-.3-2,.3-2.3,1.3h0Z"/>
        <path class="st0" d="M500.4,889l-5.1,17.9-17.9,5.1c-.6.2-1.1.6-1.3,1.3-.3,1,.3,2,1.3,2.3l17.9,5.1,5.1,17.9c.2.6.6,1.1,1.3,1.3,1,.3,2-.3,2.3-1.3l5.1-17.9,17.9-5.1c.6-.2,1.1-.6,1.3-1.3.3-1-.3-2-1.3-2.3l-17.9-5.1-5.1-17.9c-.2-.6-.6-1.1-1.3-1.3-1-.3-2,.3-2.3,1.3h0Z"/>
        <path class="st0" d="M447.5,889l-5.1,17.9-17.9,5.1c-.6.2-1.1.6-1.3,1.3-.3,1,.3,2,1.3,2.3l17.9,5.1,5.1,17.9c.2.6.6,1.1,1.3,1.3,1,.3,2-.3,2.3-1.3l5.1-17.9,17.9-5.1c.6-.2,1.1-.6,1.3-1.3.3-1-.3-2-1.3-2.3l-17.9-5.1-5.1-17.9c-.2-.6-.6-1.1-1.3-1.3-1-.3-2,.3-2.3,1.3h0Z"/>
        <path class="st0" d="M1082.3,836.8l-5.1,17.9-17.9,5.1c-.6.2-1.1.6-1.3,1.3-.3,1,.3,2,1.3,2.3l17.9,5.1,5.1,17.9c.2.6.6,1.1,1.3,1.3,1,.3,2-.3,2.3-1.3l5.1-17.9,17.9-5.1c.6-.2,1.1-.6,1.3-1.3.3-1-.3-2-1.3-2.3l-17.9-5.1-5.1-17.9c-.2-.6-.6-1.1-1.3-1.3-1-.3-2,.3-2.3,1.3h0Z"/>
        <path class="st0" d="M1029.4,836.8l-5.1,17.9-17.9,5.1c-.6.2-1.1.6-1.3,1.3-.3,1,.3,2,1.3,2.3l17.9,5.1,5.1,17.9c.2.6.6,1.1,1.3,1.3,1,.3,2-.3,2.3-1.3l5.1-17.9,17.9-5.1c.6-.2,1.1-.6,1.3-1.3.3-1-.3-2-1.3-2.3l-17.9-5.1-5.1-17.9c-.2-.6-.6-1.1-1.3-1.3-1-.3-2,.3-2.3,1.3h0Z"/>
        <path class="st0" d="M976.5,836.8l-5.1,17.9-17.9,5.1c-.6.2-1.1.6-1.3,1.3-.3,1,.3,2,1.3,2.3l17.9,5.1,5.1,17.9c.2.6.6,1.1,1.3,1.3,1,.3,2-.3,2.3-1.3l5.1-17.9,17.9-5.1c.6-.2,1.1-.6,1.3-1.3.3-1-.3-2-1.3-2.3l-17.9-5.1-5.1-17.9c-.2-.6-.6-1.1-1.3-1.3-1-.3-2,.3-2.3,1.3h0Z"/>
        <path class="st0" d="M923.6,836.8l-5.1,17.9-17.9,5.1c-.6.2-1.1.6-1.3,1.3-.3,1,.3,2,1.3,2.3l17.9,5.1,5.1,17.9c.2.6.6,1.1,1.3,1.3,1,.3,2-.3,2.3-1.3l5.1-17.9,17.9-5.1c.6-.2,1.1-.6,1.3-1.3.3-1-.3-2-1.3-2.3l-17.9-5.1-5.1-17.9c-.2-.6-.6-1.1-1.3-1.3-1-.3-2,.3-2.3,1.3h0Z"/>
        <path class="st0" d="M817.8,836.8l-5.1,17.9-17.9,5.1c-.6.2-1.1.6-1.3,1.3-.3,1,.3,2,1.3,2.3l17.9,5.1,5.1,17.9c.2.6.6,1.1,1.3,1.3,1,.3,2-.3,2.3-1.3l5.1-17.9,17.9-5.1c.6-.2,1.1-.6,1.3-1.3.3-1-.3-2-1.3-2.3l-17.9-5.1-5.1-17.9c-.2-.6-.6-1.1-1.3-1.3-1-.3-2,.3-2.3,1.3h0Z"/>
        <path class="st0" d="M500.4,836.8l-5.1,17.9-17.9,5.1c-.6.2-1.1.6-1.3,1.3-.3,1,.3,2,1.3,2.3l17.9,5.1,5.1,17.9c.2.6.6,1.1,1.3,1.3,1,.3,2-.3,2.3-1.3l5.1-17.9,17.9-5.1c.6-.2,1.1-.6,1.3-1.3.3-1-.3-2-1.3-2.3l-17.9-5.1-5.1-17.9c-.2-.6-.6-1.1-1.3-1.3-1-.3-2,.3-2.3,1.3h0Z"/>
        <path class="st0" d="M394.6,836.8l-5.1,17.9-17.9,5.1c-.6.2-1.1.6-1.3,1.3-.3,1,.3,2,1.3,2.3l17.9,5.1,5.1,17.9c.2.6.6,1.1,1.3,1.3,1,.3,2-.3,2.3-1.3l5.1-17.9,17.9-5.1c.6-.2,1.1-.6,1.3-1.3.3-1-.3-2-1.3-2.3l-17.9-5.1-5.1-17.9c-.2-.6-.6-1.1-1.3-1.3-1-.3-2,.3-2.3,1.3h0Z"/>
        <path class="st0" d="M341.7,836.8l-5.1,17.9-17.9,5.1c-.6.2-1.1.6-1.3,1.3-.3,1,.3,2,1.3,2.3l17.9,5.1,5.1,17.9c.2.6.6,1.1,1.3,1.3,1,.3,2-.3,2.3-1.3l5.1-17.9,17.9-5.1c.6-.2,1.1-.6,1.3-1.3.3-1-.3-2-1.3-2.3l-17.9-5.1-5.1-17.9c-.2-.6-.6-1.1-1.3-1.3-1-.3-2,.3-2.3,1.3h0Z"/>
        <path class="st0" d="M288.8,836.8l-5.1,17.9-17.9,5.1c-.6.2-1.1.6-1.3,1.3-.3,1,.3,2,1.3,2.3l17.9,5.1,5.1,17.9c.2.6.6,1.1,1.3,1.3,1,.3,2-.3,2.3-1.3l5.1-17.9,17.9-5.1c.6-.2,1.1-.6,1.3-1.3.3-1-.3-2-1.3-2.3l-17.9-5.1-5.1-17.9c-.2-.6-.6-1.1-1.3-1.3-1-.3-2,.3-2.3,1.3h0Z"/>
        <path class="st0" d="M235.9,836.8l-5.1,17.9-17.9,5.1c-.6.2-1.1.6-1.3,1.3-.3,1,.3,2,1.3,2.3l17.9,5.1,5.1,17.9c.2.6.6,1.1,1.3,1.3,1,.3,2-.3,2.3-1.3l5.1-17.9,17.9-5.1c.6-.2,1.1-.6,1.3-1.3.3-1-.3-2-1.3-2.3l-17.9-5.1-5.1-17.9c-.2-.6-.6-1.1-1.3-1.3-1-.3-2,.3-2.3,1.3h0Z"/>
        <path class="st0" d="M1135.2,784.5l-5.1,17.9-17.9,5.1c-.6.2-1.1.6-1.3,1.3-.3,1,.3,2,1.3,2.3l17.9,5.1,5.1,17.9c.2.6.6,1.1,1.3,1.3,1,.3,2-.3,2.3-1.3l5.1-17.9,17.9-5.1c.6-.2,1.1-.6,1.3-1.3.3-1-.3-2-1.3-2.3l-17.9-5.1-5.1-17.9c-.2-.6-.6-1.1-1.3-1.3-1-.3-2,.3-2.3,1.3h0Z"/>
        <path class="st0" d="M1082.3,784.5l-5.1,17.9-17.9,5.1c-.6.2-1.1.6-1.3,1.3-.3,1,.3,2,1.3,2.3l17.9,5.1,5.1,17.9c.2.6.6,1.1,1.3,1.3,1,.3,2-.3,2.3-1.3l5.1-17.9,17.9-5.1c.6-.2,1.1-.6,1.3-1.3.3-1-.3-2-1.3-2.3l-17.9-5.1-5.1-17.9c-.2-.6-.6-1.1-1.3-1.3-1-.3-2,.3-2.3,1.3h0Z"/>
        <path class="st0" d="M923.6,784.5l-5.1,17.9-17.9,5.1c-.6.2-1.1.6-1.3,1.3-.3,1,.3,2,1.3,2.3l17.9,5.1,5.1,17.9c.2.6.6,1.1,1.3,1.3,1,.3,2-.3,2.3-1.3l5.1-17.9,17.9-5.1c.6-.2,1.1-.6,1.3-1.3.3-1-.3-2-1.3-2.3l-17.9-5.1-5.1-17.9c-.2-.6-.6-1.1-1.3-1.3-1-.3-2,.3-2.3,1.3h0Z"/>
        <path class="st0" d="M870.7,784.5l-5.1,17.9-17.9,5.1c-.6.2-1.1.6-1.3,1.3-.3,1,.3,2,1.3,2.3l17.9,5.1,5.1,17.9c.2.6.6,1.1,1.3,1.3,1,.3,2-.3,2.3-1.3l5.1-17.9,17.9-5.1c.6-.2,1.1-.6,1.3-1.3.3-1-.3-2-1.3-2.3l-17.9-5.1-5.1-17.9c-.2-.6-.6-1.1-1.3-1.3-1-.3-2,.3-2.3,1.3h0Z"/>
        <path class="st0" d="M447.5,784.5l-5.1,17.9-17.9,5.1c-.6.2-1.1.6-1.3,1.3-.3,1,.3,2,1.3,2.3l17.9,5.1,5.1,17.9c.2.6.6,1.1,1.3,1.3,1,.3,2-.3,2.3-1.3l5.1-17.9,17.9-5.1c.6-.2,1.1-.6,1.3-1.3.3-1-.3-2-1.3-2.3l-17.9-5.1-5.1-17.9c-.2-.6-.6-1.1-1.3-1.3-1-.3-2,.3-2.3,1.3h0Z"/>
        <path class="st0" d="M394.6,784.5l-5.1,17.9-17.9,5.1c-.6.2-1.1.6-1.3,1.3-.3,1,.3,2,1.3,2.3l17.9,5.1,5.1,17.9c.2.6.6,1.1,1.3,1.3,1,.3,2-.3,2.3-1.3l5.1-17.9,17.9-5.1c.6-.2,1.1-.6,1.3-1.3.3-1-.3-2-1.3-2.3l-17.9-5.1-5.1-17.9c-.2-.6-.6-1.1-1.3-1.3-1-.3-2,.3-2.3,1.3h0Z"/>
        <path class="st0" d="M235.9,784.5l-5.1,17.9-17.9,5.1c-.6.2-1.1.6-1.3,1.3-.3,1,.3,2,1.3,2.3l17.9,5.1,5.1,17.9c.2.6.6,1.1,1.3,1.3,1,.3,2-.3,2.3-1.3l5.1-17.9,17.9-5.1c.6-.2,1.1-.6,1.3-1.3.3-1-.3-2-1.3-2.3l-17.9-5.1-5.1-17.9c-.2-.6-.6-1.1-1.3-1.3-1-.3-2,.3-2.3,1.3h0Z"/>
        <path class="st0" d="M183,784.5l-5.1,17.9-17.9,5.1c-.6.2-1.1.6-1.3,1.3-.3,1,.3,2,1.3,2.3l17.9,5.1,5.1,17.9c.2.6.6,1.1,1.3,1.3,1,.3,2-.3,2.3-1.3l5.1-17.9,17.9-5.1c.6-.2,1.1-.6,1.3-1.3.3-1-.3-2-1.3-2.3l-17.9-5.1-5.1-17.9c-.2-.6-.6-1.1-1.3-1.3-1-.3-2,.3-2.3,1.3h0Z"/>
        <path class="st0" d="M1188.1,732.3l-5.1,17.9-17.9,5.1c-.6.2-1.1.6-1.3,1.3-.3,1,.3,2,1.3,2.3l17.9,5.1,5.1,17.9c.2.6.6,1.1,1.3,1.3,1,.3,2-.3,2.3-1.3l5.1-17.9,17.9-5.1c.6-.2,1.1-.6,1.3-1.3.3-1-.3-2-1.3-2.3l-17.9-5.1-5.1-17.9c-.2-.6-.6-1.1-1.3-1.3-1-.3-2,.3-2.3,1.3h0Z"/>
        <path class="st0" d="M1135.2,732.3l-5.1,17.9-17.9,5.1c-.6.2-1.1.6-1.3,1.3-.3,1,.3,2,1.3,2.3l17.9,5.1,5.1,17.9c.2.6.6,1.1,1.3,1.3,1,.3,2-.3,2.3-1.3l5.1-17.9,17.9-5.1c.6-.2,1.1-.6,1.3-1.3.3-1-.3-2-1.3-2.3l-17.9-5.1-5.1-17.9c-.2-.6-.6-1.1-1.3-1.3-1-.3-2,.3-2.3,1.3h0Z"/>
        <path class="st0" d="M712,732.3l-5.1,17.9-17.9,5.1c-.6.2-1.1.6-1.3,1.3-.3,1,.3,2,1.3,2.3l17.9,5.1,5.1,17.9c.2.6.6,1.1,1.3,1.3,1,.3,2-.3,2.3-1.3l5.1-17.9,17.9-5.1c.6-.2,1.1-.6,1.3-1.3.3-1-.3-2-1.3-2.3l-17.9-5.1-5.1-17.9c-.2-.6-.6-1.1-1.3-1.3-1-.3-2,.3-2.3,1.3h0Z"/>
        <path class="st0" d="M659.1,732.3l-5.1,17.9-17.9,5.1c-.6.2-1.1.6-1.3,1.3-.3,1,.3,2,1.3,2.3l17.9,5.1,5.1,17.9c.2.6.6,1.1,1.3,1.3,1,.3,2-.3,2.3-1.3l5.1-17.9,17.9-5.1c.6-.2,1.1-.6,1.3-1.3.3-1-.3-2-1.3-2.3l-17.9-5.1-5.1-17.9c-.2-.6-.6-1.1-1.3-1.3-1-.3-2,.3-2.3,1.3h0Z"/>
        <path class="st0" d="M606.2,732.3l-5.1,17.9-17.9,5.1c-.6.2-1.1.6-1.3,1.3-.3,1,.3,2,1.3,2.3l17.9,5.1,5.1,17.9c.2.6.6,1.1,1.3,1.3,1,.3,2-.3,2.3-1.3l5.1-17.9,17.9-5.1c.6-.2,1.1-.6,1.3-1.3.3-1-.3-2-1.3-2.3l-17.9-5.1-5.1-17.9c-.2-.6-.6-1.1-1.3-1.3-1-.3-2,.3-2.3,1.3h0Z"/>
        <path class="st0" d="M341.7,732.3l-5.1,17.9-17.9,5.1c-.6.2-1.1.6-1.3,1.3-.3,1,.3,2,1.3,2.3l17.9,5.1,5.1,17.9c.2.6.6,1.1,1.3,1.3,1,.3,2-.3,2.3-1.3l5.1-17.9,17.9-5.1c.6-.2,1.1-.6,1.3-1.3.3-1-.3-2-1.3-2.3l-17.9-5.1-5.1-17.9c-.2-.6-.6-1.1-1.3-1.3-1-.3-2,.3-2.3,1.3h0Z"/>
        <path class="st0" d="M183,732.3l-5.1,17.9-17.9,5.1c-.6.2-1.1.6-1.3,1.3-.3,1,.3,2,1.3,2.3l17.9,5.1,5.1,17.9c.2.6.6,1.1,1.3,1.3,1,.3,2-.3,2.3-1.3l5.1-17.9,17.9-5.1c.6-.2,1.1-.6,1.3-1.3.3-1-.3-2-1.3-2.3l-17.9-5.1-5.1-17.9c-.2-.6-.6-1.1-1.3-1.3-1-.3-2,.3-2.3,1.3h0Z"/>
        <path class="st0" d="M130.1,732.3l-5.1,17.9-17.9,5.1c-.6.2-1.1.6-1.3,1.3-.3,1,.3,2,1.3,2.3l17.9,5.1,5.1,17.9c.2.6.6,1.1,1.3,1.3,1,.3,2-.3,2.3-1.3l5.1-17.9,17.9-5.1c.6-.2,1.1-.6,1.3-1.3.3-1-.3-2-1.3-2.3l-17.9-5.1-5.1-17.9c-.2-.6-.6-1.1-1.3-1.3-1-.3-2,.3-2.3,1.3h0Z"/>
        <path class="st0" d="M1241,680.1l-5.1,17.9-17.9,5.1c-.6.2-1.1.6-1.3,1.3-.3,1,.3,2,1.3,2.3l17.9,5.1,5.1,17.9c.2.6.6,1.1,1.3,1.3,1,.3,2-.3,2.3-1.3l5.1-17.9,17.9-5.1c.6-.2,1.1-.6,1.3-1.3.3-1-.3-2-1.3-2.3l-17.9-5.1-5.1-17.9c-.2-.6-.6-1.1-1.3-1.3-1-.3-2,.3-2.3,1.3h0Z"/>
        <path class="st0" d="M1188.1,680.1l-5.1,17.9-17.9,5.1c-.6.2-1.1.6-1.3,1.3-.3,1,.3,2,1.3,2.3l17.9,5.1,5.1,17.9c.2.6.6,1.1,1.3,1.3,1,.3,2-.3,2.3-1.3l5.1-17.9,17.9-5.1c.6-.2,1.1-.6,1.3-1.3.3-1-.3-2-1.3-2.3l-17.9-5.1-5.1-17.9c-.2-.6-.6-1.1-1.3-1.3-1-.3-2,.3-2.3,1.3h0Z"/>
        <path class="st0" d="M1029.4,680.1l-5.1,17.9-17.9,5.1c-.6.2-1.1.6-1.3,1.3-.3,1,.3,2,1.3,2.3l17.9,5.1,5.1,17.9c.2.6.6,1.1,1.3,1.3,1,.3,2-.3,2.3-1.3l5.1-17.9,17.9-5.1c.6-.2,1.1-.6,1.3-1.3.3-1-.3-2-1.3-2.3l-17.9-5.1-5.1-17.9c-.2-.6-.6-1.1-1.3-1.3-1-.3-2,.3-2.3,1.3h0Z"/>
        <path class="st0" d="M976.5,680.1l-5.1,17.9-17.9,5.1c-.6.2-1.1.6-1.3,1.3-.3,1,.3,2,1.3,2.3l17.9,5.1,5.1,17.9c.2.6.6,1.1,1.3,1.3,1,.3,2-.3,2.3-1.3l5.1-17.9,17.9-5.1c.6-.2,1.1-.6,1.3-1.3.3-1-.3-2-1.3-2.3l-17.9-5.1-5.1-17.9c-.2-.6-.6-1.1-1.3-1.3-1-.3-2,.3-2.3,1.3h0Z"/>
        <path class="st0" d="M976.5,732.3l-5.1,17.9-17.9,5.1c-.6.2-1.1.6-1.3,1.3-.3,1,.3,2,1.3,2.3l17.9,5.1,5.1,17.9c.2.6.6,1.1,1.3,1.3,1,.3,2-.3,2.3-1.3l5.1-17.9,17.9-5.1c.6-.2,1.1-.6,1.3-1.3.3-1-.3-2-1.3-2.3l-17.9-5.1-5.1-17.9c-.2-.6-.6-1.1-1.3-1.3-1-.3-2,.3-2.3,1.3h0Z"/>
        <path class="st0" d="M764.9,680.1l-5.1,17.9-17.9,5.1c-.6.2-1.1.6-1.3,1.3-.3,1,.3,2,1.3,2.3l17.9,5.1,5.1,17.9c.2.6.6,1.1,1.3,1.3,1,.3,2-.3,2.3-1.3l5.1-17.9,17.9-5.1c.6-.2,1.1-.6,1.3-1.3.3-1-.3-2-1.3-2.3l-17.9-5.1-5.1-17.9c-.2-.6-.6-1.1-1.3-1.3-1-.3-2,.3-2.3,1.3h0Z"/>
        <path class="st0" d="M712,680.1l-5.1,17.9-17.9,5.1c-.6.2-1.1.6-1.3,1.3-.3,1,.3,2,1.3,2.3l17.9,5.1,5.1,17.9c.2.6.6,1.1,1.3,1.3,1,.3,2-.3,2.3-1.3l5.1-17.9,17.9-5.1c.6-.2,1.1-.6,1.3-1.3.3-1-.3-2-1.3-2.3l-17.9-5.1-5.1-17.9c-.2-.6-.6-1.1-1.3-1.3-1-.3-2,.3-2.3,1.3h0Z"/>
        <path class="st0" d="M659.1,680.1l-5.1,17.9-17.9,5.1c-.6.2-1.1.6-1.3,1.3-.3,1,.3,2,1.3,2.3l17.9,5.1,5.1,17.9c.2.6.6,1.1,1.3,1.3,1,.3,2-.3,2.3-1.3l5.1-17.9,17.9-5.1c.6-.2,1.1-.6,1.3-1.3.3-1-.3-2-1.3-2.3l-17.9-5.1-5.1-17.9c-.2-.6-.6-1.1-1.3-1.3-1-.3-2,.3-2.3,1.3h0Z"/>
        <path class="st0" d="M606.2,680.1l-5.1,17.9-17.9,5.1c-.6.2-1.1.6-1.3,1.3-.3,1,.3,2,1.3,2.3l17.9,5.1,5.1,17.9c.2.6.6,1.1,1.3,1.3,1,.3,2-.3,2.3-1.3l5.1-17.9,17.9-5.1c.6-.2,1.1-.6,1.3-1.3.3-1-.3-2-1.3-2.3l-17.9-5.1-5.1-17.9c-.2-.6-.6-1.1-1.3-1.3-1-.3-2,.3-2.3,1.3h0Z"/>
        <path class="st0" d="M553.3,680.1l-5.1,17.9-17.9,5.1c-.6.2-1.1.6-1.3,1.3-.3,1,.3,2,1.3,2.3l17.9,5.1,5.1,17.9c.2.6.6,1.1,1.3,1.3,1,.3,2-.3,2.3-1.3l5.1-17.9,17.9-5.1c.6-.2,1.1-.6,1.3-1.3.3-1-.3-2-1.3-2.3l-17.9-5.1-5.1-17.9c-.2-.6-.6-1.1-1.3-1.3-1-.3-2,.3-2.3,1.3h0Z"/>
        <path class="st0" d="M341.7,680.1l-5.1,17.9-17.9,5.1c-.6.2-1.1.6-1.3,1.3-.3,1,.3,2,1.3,2.3l17.9,5.1,5.1,17.9c.2.6.6,1.1,1.3,1.3,1,.3,2-.3,2.3-1.3l5.1-17.9,17.9-5.1c.6-.2,1.1-.6,1.3-1.3.3-1-.3-2-1.3-2.3l-17.9-5.1-5.1-17.9c-.2-.6-.6-1.1-1.3-1.3-1-.3-2,.3-2.3,1.3h0Z"/>
        <path class="st0" d="M288.8,680.1l-5.1,17.9-17.9,5.1c-.6.2-1.1.6-1.3,1.3-.3,1,.3,2,1.3,2.3l17.9,5.1,5.1,17.9c.2.6.6,1.1,1.3,1.3,1,.3,2-.3,2.3-1.3l5.1-17.9,17.9-5.1c.6-.2,1.1-.6,1.3-1.3.3-1-.3-2-1.3-2.3l-17.9-5.1-5.1-17.9c-.2-.6-.6-1.1-1.3-1.3-1-.3-2,.3-2.3,1.3h0Z"/>
        <path class="st0" d="M130.1,680.1l-5.1,17.9-17.9,5.1c-.6.2-1.1.6-1.3,1.3-.3,1,.3,2,1.3,2.3l17.9,5.1,5.1,17.9c.2.6.6,1.1,1.3,1.3,1,.3,2-.3,2.3-1.3l5.1-17.9,17.9-5.1c.6-.2,1.1-.6,1.3-1.3.3-1-.3-2-1.3-2.3l-17.9-5.1-5.1-17.9c-.2-.6-.6-1.1-1.3-1.3-1-.3-2,.3-2.3,1.3h0Z"/>
        <path class="st0" d="M77.2,680.1l-5.1,17.9-17.9,5.1c-.6.2-1.1.6-1.3,1.3-.3,1,.3,2,1.3,2.3l17.9,5.1,5.1,17.9c.2.6.6,1.1,1.3,1.3,1,.3,2-.3,2.3-1.3l5.1-17.9,17.9-5.1c.6-.2,1.1-.6,1.3-1.3.3-1-.3-2-1.3-2.3l-17.9-5.1-5.1-17.9c-.2-.6-.6-1.1-1.3-1.3-1-.3-2,.3-2.3,1.3h0Z"/>
        <path class="st0" d="M1293.9,627.9l-5.1,17.9-17.9,5.1c-.6.2-1.1.6-1.3,1.3-.3,1,.3,2,1.3,2.3l17.9,5.1,5.1,17.9c.2.6.6,1.1,1.3,1.3,1,.3,2-.3,2.3-1.3l5.1-17.9,17.9-5.1c.6-.2,1.1-.6,1.3-1.3.3-1-.3-2-1.3-2.3l-17.9-5.1-5.1-17.9c-.2-.6-.6-1.1-1.3-1.3-1-.3-2,.3-2.3,1.3h0Z"/>
        <path class="st0" d="M1241,627.9l-5.1,17.9-17.9,5.1c-.6.2-1.1.6-1.3,1.3-.3,1,.3,2,1.3,2.3l17.9,5.1,5.1,17.9c.2.6.6,1.1,1.3,1.3,1,.3,2-.3,2.3-1.3l5.1-17.9,17.9-5.1c.6-.2,1.1-.6,1.3-1.3.3-1-.3-2-1.3-2.3l-17.9-5.1-5.1-17.9c-.2-.6-.6-1.1-1.3-1.3-1-.3-2,.3-2.3,1.3h0Z"/>
        <path class="st0" d="M1082.3,627.9l-5.1,17.9-17.9,5.1c-.6.2-1.1.6-1.3,1.3-.3,1,.3,2,1.3,2.3l17.9,5.1,5.1,17.9c.2.6.6,1.1,1.3,1.3,1,.3,2-.3,2.3-1.3l5.1-17.9,17.9-5.1c.6-.2,1.1-.6,1.3-1.3.3-1-.3-2-1.3-2.3l-17.9-5.1-5.1-17.9c-.2-.6-.6-1.1-1.3-1.3-1-.3-2,.3-2.3,1.3h0Z"/>
        <path class="st0" d="M1029.4,627.9l-5.1,17.9-17.9,5.1c-.6.2-1.1.6-1.3,1.3-.3,1,.3,2,1.3,2.3l17.9,5.1,5.1,17.9c.2.6.6,1.1,1.3,1.3,1,.3,2-.3,2.3-1.3l5.1-17.9,17.9-5.1c.6-.2,1.1-.6,1.3-1.3.3-1-.3-2-1.3-2.3l-17.9-5.1-5.1-17.9c-.2-.6-.6-1.1-1.3-1.3-1-.3-2,.3-2.3,1.3h0Z"/>
        <path class="st0" d="M976.5,627.9l-5.1,17.9-17.9,5.1c-.6.2-1.1.6-1.3,1.3-.3,1,.3,2,1.3,2.3l17.9,5.1,5.1,17.9c.2.6.6,1.1,1.3,1.3,1,.3,2-.3,2.3-1.3l5.1-17.9,17.9-5.1c.6-.2,1.1-.6,1.3-1.3.3-1-.3-2-1.3-2.3l-17.9-5.1-5.1-17.9c-.2-.6-.6-1.1-1.3-1.3-1-.3-2,.3-2.3,1.3h0Z"/>
        <path class="st0" d="M764.9,627.9l-5.1,17.9-17.9,5.1c-.6.2-1.1.6-1.3,1.3-.3,1,.3,2,1.3,2.3l17.9,5.1,5.1,17.9c.2.6.6,1.1,1.3,1.3,1,.3,2-.3,2.3-1.3l5.1-17.9,17.9-5.1c.6-.2,1.1-.6,1.3-1.3.3-1-.3-2-1.3-2.3l-17.9-5.1-5.1-17.9c-.2-.6-.6-1.1-1.3-1.3-1-.3-2,.3-2.3,1.3h0Z"/>
        <path class="st0" d="M712,627.9l-5.1,17.9-17.9,5.1c-.6.2-1.1.6-1.3,1.3-.3,1,.3,2,1.3,2.3l17.9,5.1,5.1,17.9c.2.6.6,1.1,1.3,1.3,1,.3,2-.3,2.3-1.3l5.1-17.9,17.9-5.1c.6-.2,1.1-.6,1.3-1.3.3-1-.3-2-1.3-2.3l-17.9-5.1-5.1-17.9c-.2-.6-.6-1.1-1.3-1.3-1-.3-2,.3-2.3,1.3h0Z"/>
        <path class="st0" d="M659.1,627.9l-5.1,17.9-17.9,5.1c-.6.2-1.1.6-1.3,1.3-.3,1,.3,2,1.3,2.3l17.9,5.1,5.1,17.9c.2.6.6,1.1,1.3,1.3,1,.3,2-.3,2.3-1.3l5.1-17.9,17.9-5.1c.6-.2,1.1-.6,1.3-1.3.3-1-.3-2-1.3-2.3l-17.9-5.1-5.1-17.9c-.2-.6-.6-1.1-1.3-1.3-1-.3-2,.3-2.3,1.3h0Z"/>
        <path class="st0" d="M606.2,627.9l-5.1,17.9-17.9,5.1c-.6.2-1.1.6-1.3,1.3-.3,1,.3,2,1.3,2.3l17.9,5.1,5.1,17.9c.2.6.6,1.1,1.3,1.3,1,.3,2-.3,2.3-1.3l5.1-17.9,17.9-5.1c.6-.2,1.1-.6,1.3-1.3.3-1-.3-2-1.3-2.3l-17.9-5.1-5.1-17.9c-.2-.6-.6-1.1-1.3-1.3-1-.3-2,.3-2.3,1.3h0Z"/>
        <path class="st0" d="M553.3,627.9l-5.1,17.9-17.9,5.1c-.6.2-1.1.6-1.3,1.3-.3,1,.3,2,1.3,2.3l17.9,5.1,5.1,17.9c.2.6.6,1.1,1.3,1.3,1,.3,2-.3,2.3-1.3l5.1-17.9,17.9-5.1c.6-.2,1.1-.6,1.3-1.3.3-1-.3-2-1.3-2.3l-17.9-5.1-5.1-17.9c-.2-.6-.6-1.1-1.3-1.3-1-.3-2,.3-2.3,1.3h0Z"/>
        <path class="st0" d="M500.4,627.9l-5.1,17.9-17.9,5.1c-.6.2-1.1.6-1.3,1.3-.3,1,.3,2,1.3,2.3l17.9,5.1,5.1,17.9c.2.6.6,1.1,1.3,1.3,1,.3,2-.3,2.3-1.3l5.1-17.9,17.9-5.1c.6-.2,1.1-.6,1.3-1.3.3-1-.3-2-1.3-2.3l-17.9-5.1-5.1-17.9c-.2-.6-.6-1.1-1.3-1.3-1-.3-2,.3-2.3,1.3h0Z"/>
        <path class="st0" d="M817.8,627.9l-5.1,17.9-17.9,5.1c-.6.2-1.1.6-1.3,1.3-.3,1,.3,2,1.3,2.3l17.9,5.1,5.1,17.9c.2.6.6,1.1,1.3,1.3,1,.3,2-.3,2.3-1.3l5.1-17.9,17.9-5.1c.6-.2,1.1-.6,1.3-1.3.3-1-.3-2-1.3-2.3l-17.9-5.1-5.1-17.9c-.2-.6-.6-1.1-1.3-1.3-1-.3-2,.3-2.3,1.3h0Z"/>
        <path class="st0" d="M659.1,471.3l-5.1,17.9-17.9,5.1c-.6.2-1.1.6-1.3,1.3-.3,1,.3,2,1.3,2.3l17.9,5.1,5.1,17.9c.2.6.6,1.1,1.3,1.3,1,.3,2-.3,2.3-1.3l5.1-17.9,17.9-5.1c.6-.2,1.1-.6,1.3-1.3.3-1-.3-2-1.3-2.3l-17.9-5.1-5.1-17.9c-.2-.6-.6-1.1-1.3-1.3-1-.3-2,.3-2.3,1.3h0Z"/>
        <path class="st0" d="M659.1,784.5l-5.1,17.9-17.9,5.1c-.6.2-1.1.6-1.3,1.3-.3,1,.3,2,1.3,2.3l17.9,5.1,5.1,17.9c.2.6.6,1.1,1.3,1.3,1,.3,2-.3,2.3-1.3l5.1-17.9,17.9-5.1c.6-.2,1.1-.6,1.3-1.3.3-1-.3-2-1.3-2.3l-17.9-5.1-5.1-17.9c-.2-.6-.6-1.1-1.3-1.3-1-.3-2,.3-2.3,1.3h0Z"/>
        <path class="st0" d="M341.7,627.9l-5.1,17.9-17.9,5.1c-.6.2-1.1.6-1.3,1.3-.3,1,.3,2,1.3,2.3l17.9,5.1,5.1,17.9c.2.6.6,1.1,1.3,1.3,1,.3,2-.3,2.3-1.3l5.1-17.9,17.9-5.1c.6-.2,1.1-.6,1.3-1.3.3-1-.3-2-1.3-2.3l-17.9-5.1-5.1-17.9c-.2-.6-.6-1.1-1.3-1.3-1-.3-2,.3-2.3,1.3h0Z"/>
        <path class="st0" d="M288.8,627.9l-5.1,17.9-17.9,5.1c-.6.2-1.1.6-1.3,1.3-.3,1,.3,2,1.3,2.3l17.9,5.1,5.1,17.9c.2.6.6,1.1,1.3,1.3,1,.3,2-.3,2.3-1.3l5.1-17.9,17.9-5.1c.6-.2,1.1-.6,1.3-1.3.3-1-.3-2-1.3-2.3l-17.9-5.1-5.1-17.9c-.2-.6-.6-1.1-1.3-1.3-1-.3-2,.3-2.3,1.3h0Z"/>
        <path class="st0" d="M235.9,627.9l-5.1,17.9-17.9,5.1c-.6.2-1.1.6-1.3,1.3-.3,1,.3,2,1.3,2.3l17.9,5.1,5.1,17.9c.2.6.6,1.1,1.3,1.3,1,.3,2-.3,2.3-1.3l5.1-17.9,17.9-5.1c.6-.2,1.1-.6,1.3-1.3.3-1-.3-2-1.3-2.3l-17.9-5.1-5.1-17.9c-.2-.6-.6-1.1-1.3-1.3-1-.3-2,.3-2.3,1.3h0Z"/>
        <path class="st0" d="M77.2,627.9l-5.1,17.9-17.9,5.1c-.6.2-1.1.6-1.3,1.3-.3,1,.3,2,1.3,2.3l17.9,5.1,5.1,17.9c.2.6.6,1.1,1.3,1.3,1,.3,2-.3,2.3-1.3l5.1-17.9,17.9-5.1c.6-.2,1.1-.6,1.3-1.3.3-1-.3-2-1.3-2.3l-17.9-5.1-5.1-17.9c-.2-.6-.6-1.1-1.3-1.3-1-.3-2,.3-2.3,1.3h0Z"/>
        <path class="st0" d="M24.3,627.9l-5.1,17.9-17.9,5.1c-.6.2-1.1.6-1.3,1.3-.3,1,.3,2,1.3,2.3l17.9,5.1,5.1,17.9c.2.6.6,1.1,1.3,1.3,1,.3,2-.3,2.3-1.3l5.1-17.9,17.9-5.1c.6-.2,1.1-.6,1.3-1.3.3-1-.3-2-1.3-2.3l-17.9-5.1-5.1-17.9c-.2-.6-.6-1.1-1.3-1.3-1-.3-2,.3-2.3,1.3h0Z"/>
        <path class="st0" d="M1241,575.7l-5.1,17.9-17.9,5.1c-.6.2-1.1.6-1.3,1.3-.3,1,.3,2,1.3,2.3l17.9,5.1,5.1,17.9c.2.6.6,1.1,1.3,1.3,1,.3,2-.3,2.3-1.3l5.1-17.9,17.9-5.1c.6-.2,1.1-.6,1.3-1.3.3-1-.3-2-1.3-2.3l-17.9-5.1-5.1-17.9c-.2-.6-.6-1.1-1.3-1.3-1-.3-2,.3-2.3,1.3h0Z"/>
        <path class="st0" d="M1188.1,575.7l-5.1,17.9-17.9,5.1c-.6.2-1.1.6-1.3,1.3-.3,1,.3,2,1.3,2.3l17.9,5.1,5.1,17.9c.2.6.6,1.1,1.3,1.3,1,.3,2-.3,2.3-1.3l5.1-17.9,17.9-5.1c.6-.2,1.1-.6,1.3-1.3.3-1-.3-2-1.3-2.3l-17.9-5.1-5.1-17.9c-.2-.6-.6-1.1-1.3-1.3-1-.3-2,.3-2.3,1.3h0Z"/>
        <path class="st0" d="M1029.4,575.7l-5.1,17.9-17.9,5.1c-.6.2-1.1.6-1.3,1.3-.3,1,.3,2,1.3,2.3l17.9,5.1,5.1,17.9c.2.6.6,1.1,1.3,1.3,1,.3,2-.3,2.3-1.3l5.1-17.9,17.9-5.1c.6-.2,1.1-.6,1.3-1.3.3-1-.3-2-1.3-2.3l-17.9-5.1-5.1-17.9c-.2-.6-.6-1.1-1.3-1.3-1-.3-2,.3-2.3,1.3h0Z"/>
        <path class="st0" d="M976.5,575.7l-5.1,17.9-17.9,5.1c-.6.2-1.1.6-1.3,1.3-.3,1,.3,2,1.3,2.3l17.9,5.1,5.1,17.9c.2.6.6,1.1,1.3,1.3,1,.3,2-.3,2.3-1.3l5.1-17.9,17.9-5.1c.6-.2,1.1-.6,1.3-1.3.3-1-.3-2-1.3-2.3l-17.9-5.1-5.1-17.9c-.2-.6-.6-1.1-1.3-1.3-1-.3-2,.3-2.3,1.3h0Z"/>
        <path class="st0" d="M976.5,523.5l-5.1,17.9-17.9,5.1c-.6.2-1.1.6-1.3,1.3-.3,1,.3,2,1.3,2.3l17.9,5.1,5.1,17.9c.2.6.6,1.1,1.3,1.3,1,.3,2-.3,2.3-1.3l5.1-17.9,17.9-5.1c.6-.2,1.1-.6,1.3-1.3.3-1-.3-2-1.3-2.3l-17.9-5.1-5.1-17.9c-.2-.6-.6-1.1-1.3-1.3-1-.3-2,.3-2.3,1.3h0Z"/>
        <path class="st0" d="M764.9,575.7l-5.1,17.9-17.9,5.1c-.6.2-1.1.6-1.3,1.3-.3,1,.3,2,1.3,2.3l17.9,5.1,5.1,17.9c.2.6.6,1.1,1.3,1.3,1,.3,2-.3,2.3-1.3l5.1-17.9,17.9-5.1c.6-.2,1.1-.6,1.3-1.3.3-1-.3-2-1.3-2.3l-17.9-5.1-5.1-17.9c-.2-.6-.6-1.1-1.3-1.3-1-.3-2,.3-2.3,1.3h0Z"/>
        <path class="st0" d="M712,575.7l-5.1,17.9-17.9,5.1c-.6.2-1.1.6-1.3,1.3-.3,1,.3,2,1.3,2.3l17.9,5.1,5.1,17.9c.2.6.6,1.1,1.3,1.3,1,.3,2-.3,2.3-1.3l5.1-17.9,17.9-5.1c.6-.2,1.1-.6,1.3-1.3.3-1-.3-2-1.3-2.3l-17.9-5.1-5.1-17.9c-.2-.6-.6-1.1-1.3-1.3-1-.3-2,.3-2.3,1.3h0Z"/>
        <path class="st0" d="M659.1,575.7l-5.1,17.9-17.9,5.1c-.6.2-1.1.6-1.3,1.3-.3,1,.3,2,1.3,2.3l17.9,5.1,5.1,17.9c.2.6.6,1.1,1.3,1.3,1,.3,2-.3,2.3-1.3l5.1-17.9,17.9-5.1c.6-.2,1.1-.6,1.3-1.3.3-1-.3-2-1.3-2.3l-17.9-5.1-5.1-17.9c-.2-.6-.6-1.1-1.3-1.3-1-.3-2,.3-2.3,1.3h0Z"/>
        <path class="st0" d="M606.2,575.7l-5.1,17.9-17.9,5.1c-.6.2-1.1.6-1.3,1.3-.3,1,.3,2,1.3,2.3l17.9,5.1,5.1,17.9c.2.6.6,1.1,1.3,1.3,1,.3,2-.3,2.3-1.3l5.1-17.9,17.9-5.1c.6-.2,1.1-.6,1.3-1.3.3-1-.3-2-1.3-2.3l-17.9-5.1-5.1-17.9c-.2-.6-.6-1.1-1.3-1.3-1-.3-2,.3-2.3,1.3h0Z"/>
        <path class="st0" d="M553.3,575.7l-5.1,17.9-17.9,5.1c-.6.2-1.1.6-1.3,1.3-.3,1,.3,2,1.3,2.3l17.9,5.1,5.1,17.9c.2.6.6,1.1,1.3,1.3,1,.3,2-.3,2.3-1.3l5.1-17.9,17.9-5.1c.6-.2,1.1-.6,1.3-1.3.3-1-.3-2-1.3-2.3l-17.9-5.1-5.1-17.9c-.2-.6-.6-1.1-1.3-1.3-1-.3-2,.3-2.3,1.3h0Z"/>
        <path class="st0" d="M341.7,575.7l-5.1,17.9-17.9,5.1c-.6.2-1.1.6-1.3,1.3-.3,1,.3,2,1.3,2.3l17.9,5.1,5.1,17.9c.2.6.6,1.1,1.3,1.3,1,.3,2-.3,2.3-1.3l5.1-17.9,17.9-5.1c.6-.2,1.1-.6,1.3-1.3.3-1-.3-2-1.3-2.3l-17.9-5.1-5.1-17.9c-.2-.6-.6-1.1-1.3-1.3-1-.3-2,.3-2.3,1.3h0Z"/>
        <path class="st0" d="M288.8,575.7l-5.1,17.9-17.9,5.1c-.6.2-1.1.6-1.3,1.3-.3,1,.3,2,1.3,2.3l17.9,5.1,5.1,17.9c.2.6.6,1.1,1.3,1.3,1,.3,2-.3,2.3-1.3l5.1-17.9,17.9-5.1c.6-.2,1.1-.6,1.3-1.3.3-1-.3-2-1.3-2.3l-17.9-5.1-5.1-17.9c-.2-.6-.6-1.1-1.3-1.3-1-.3-2,.3-2.3,1.3h0Z"/>
        <path class="st0" d="M130.1,575.7l-5.1,17.9-17.9,5.1c-.6.2-1.1.6-1.3,1.3-.3,1,.3,2,1.3,2.3l17.9,5.1,5.1,17.9c.2.6.6,1.1,1.3,1.3,1,.3,2-.3,2.3-1.3l5.1-17.9,17.9-5.1c.6-.2,1.1-.6,1.3-1.3.3-1-.3-2-1.3-2.3l-17.9-5.1-5.1-17.9c-.2-.6-.6-1.1-1.3-1.3-1-.3-2,.3-2.3,1.3h0Z"/>
        <path class="st0" d="M77.2,575.7l-5.1,17.9-17.9,5.1c-.6.2-1.1.6-1.3,1.3-.3,1,.3,2,1.3,2.3l17.9,5.1,5.1,17.9c.2.6.6,1.1,1.3,1.3,1,.3,2-.3,2.3-1.3l5.1-17.9,17.9-5.1c.6-.2,1.1-.6,1.3-1.3.3-1-.3-2-1.3-2.3l-17.9-5.1-5.1-17.9c-.2-.6-.6-1.1-1.3-1.3-1-.3-2,.3-2.3,1.3h0Z"/>
        <path class="st0" d="M1188.1,523.5l-5.1,17.9-17.9,5.1c-.6.2-1.1.6-1.3,1.3-.3,1,.3,2,1.3,2.3l17.9,5.1,5.1,17.9c.2.6.6,1.1,1.3,1.3,1,.3,2-.3,2.3-1.3l5.1-17.9,17.9-5.1c.6-.2,1.1-.6,1.3-1.3.3-1-.3-2-1.3-2.3l-17.9-5.1-5.1-17.9c-.2-.6-.6-1.1-1.3-1.3-1-.3-2,.3-2.3,1.3h0Z"/>
        <path class="st0" d="M1135.2,523.5l-5.1,17.9-17.9,5.1c-.6.2-1.1.6-1.3,1.3-.3,1,.3,2,1.3,2.3l17.9,5.1,5.1,17.9c.2.6.6,1.1,1.3,1.3,1,.3,2-.3,2.3-1.3l5.1-17.9,17.9-5.1c.6-.2,1.1-.6,1.3-1.3.3-1-.3-2-1.3-2.3l-17.9-5.1-5.1-17.9c-.2-.6-.6-1.1-1.3-1.3-1-.3-2,.3-2.3,1.3h0Z"/>
        <path class="st0" d="M712,523.5l-5.1,17.9-17.9,5.1c-.6.2-1.1.6-1.3,1.3-.3,1,.3,2,1.3,2.3l17.9,5.1,5.1,17.9c.2.6.6,1.1,1.3,1.3,1,.3,2-.3,2.3-1.3l5.1-17.9,17.9-5.1c.6-.2,1.1-.6,1.3-1.3.3-1-.3-2-1.3-2.3l-17.9-5.1-5.1-17.9c-.2-.6-.6-1.1-1.3-1.3-1-.3-2,.3-2.3,1.3h0Z"/>
        <path class="st0" d="M659.1,523.5l-5.1,17.9-17.9,5.1c-.6.2-1.1.6-1.3,1.3-.3,1,.3,2,1.3,2.3l17.9,5.1,5.1,17.9c.2.6.6,1.1,1.3,1.3,1,.3,2-.3,2.3-1.3l5.1-17.9,17.9-5.1c.6-.2,1.1-.6,1.3-1.3.3-1-.3-2-1.3-2.3l-17.9-5.1-5.1-17.9c-.2-.6-.6-1.1-1.3-1.3-1-.3-2,.3-2.3,1.3h0Z"/>
        <path class="st0" d="M606.2,523.5l-5.1,17.9-17.9,5.1c-.6.2-1.1.6-1.3,1.3-.3,1,.3,2,1.3,2.3l17.9,5.1,5.1,17.9c.2.6.6,1.1,1.3,1.3,1,.3,2-.3,2.3-1.3l5.1-17.9,17.9-5.1c.6-.2,1.1-.6,1.3-1.3.3-1-.3-2-1.3-2.3l-17.9-5.1-5.1-17.9c-.2-.6-.6-1.1-1.3-1.3-1-.3-2,.3-2.3,1.3h0Z"/>
        <path class="st0" d="M341.7,523.5l-5.1,17.9-17.9,5.1c-.6.2-1.1.6-1.3,1.3-.3,1,.3,2,1.3,2.3l17.9,5.1,5.1,17.9c.2.6.6,1.1,1.3,1.3,1,.3,2-.3,2.3-1.3l5.1-17.9,17.9-5.1c.6-.2,1.1-.6,1.3-1.3.3-1-.3-2-1.3-2.3l-17.9-5.1-5.1-17.9c-.2-.6-.6-1.1-1.3-1.3-1-.3-2,.3-2.3,1.3h0Z"/>
        <path class="st0" d="M183,523.5l-5.1,17.9-17.9,5.1c-.6.2-1.1.6-1.3,1.3-.3,1,.3,2,1.3,2.3l17.9,5.1,5.1,17.9c.2.6.6,1.1,1.3,1.3,1,.3,2-.3,2.3-1.3l5.1-17.9,17.9-5.1c.6-.2,1.1-.6,1.3-1.3.3-1-.3-2-1.3-2.3l-17.9-5.1-5.1-17.9c-.2-.6-.6-1.1-1.3-1.3-1-.3-2,.3-2.3,1.3h0Z"/>
        <path class="st0" d="M130.1,523.5l-5.1,17.9-17.9,5.1c-.6.2-1.1.6-1.3,1.3-.3,1,.3,2,1.3,2.3l17.9,5.1,5.1,17.9c.2.6.6,1.1,1.3,1.3,1,.3,2-.3,2.3-1.3l5.1-17.9,17.9-5.1c.6-.2,1.1-.6,1.3-1.3.3-1-.3-2-1.3-2.3l-17.9-5.1-5.1-17.9c-.2-.6-.6-1.1-1.3-1.3-1-.3-2,.3-2.3,1.3h0Z"/>
        <path class="st0" d="M1135.2,471.3l-5.1,17.9-17.9,5.1c-.6.2-1.1.6-1.3,1.3-.3,1,.3,2,1.3,2.3l17.9,5.1,5.1,17.9c.2.6.6,1.1,1.3,1.3,1,.3,2-.3,2.3-1.3l5.1-17.9,17.9-5.1c.6-.2,1.1-.6,1.3-1.3.3-1-.3-2-1.3-2.3l-17.9-5.1-5.1-17.9c-.2-.6-.6-1.1-1.3-1.3-1-.3-2,.3-2.3,1.3h0Z"/>
        <path class="st0" d="M1082.3,471.3l-5.1,17.9-17.9,5.1c-.6.2-1.1.6-1.3,1.3-.3,1,.3,2,1.3,2.3l17.9,5.1,5.1,17.9c.2.6.6,1.1,1.3,1.3,1,.3,2-.3,2.3-1.3l5.1-17.9,17.9-5.1c.6-.2,1.1-.6,1.3-1.3.3-1-.3-2-1.3-2.3l-17.9-5.1-5.1-17.9c-.2-.6-.6-1.1-1.3-1.3-1-.3-2,.3-2.3,1.3h0Z"/>
        <path class="st0" d="M923.6,471.3l-5.1,17.9-17.9,5.1c-.6.2-1.1.6-1.3,1.3-.3,1,.3,2,1.3,2.3l17.9,5.1,5.1,17.9c.2.6.6,1.1,1.3,1.3,1,.3,2-.3,2.3-1.3l5.1-17.9,17.9-5.1c.6-.2,1.1-.6,1.3-1.3.3-1-.3-2-1.3-2.3l-17.9-5.1-5.1-17.9c-.2-.6-.6-1.1-1.3-1.3-1-.3-2,.3-2.3,1.3h0Z"/>
        <path class="st0" d="M870.7,471.3l-5.1,17.9-17.9,5.1c-.6.2-1.1.6-1.3,1.3-.3,1,.3,2,1.3,2.3l17.9,5.1,5.1,17.9c.2.6.6,1.1,1.3,1.3,1,.3,2-.3,2.3-1.3l5.1-17.9,17.9-5.1c.6-.2,1.1-.6,1.3-1.3.3-1-.3-2-1.3-2.3l-17.9-5.1-5.1-17.9c-.2-.6-.6-1.1-1.3-1.3-1-.3-2,.3-2.3,1.3h0Z"/>
        <path class="st0" d="M447.5,471.3l-5.1,17.9-17.9,5.1c-.6.2-1.1.6-1.3,1.3-.3,1,.3,2,1.3,2.3l17.9,5.1,5.1,17.9c.2.6.6,1.1,1.3,1.3,1,.3,2-.3,2.3-1.3l5.1-17.9,17.9-5.1c.6-.2,1.1-.6,1.3-1.3.3-1-.3-2-1.3-2.3l-17.9-5.1-5.1-17.9c-.2-.6-.6-1.1-1.3-1.3-1-.3-2,.3-2.3,1.3h0Z"/>
        <path class="st0" d="M394.6,471.3l-5.1,17.9-17.9,5.1c-.6.2-1.1.6-1.3,1.3-.3,1,.3,2,1.3,2.3l17.9,5.1,5.1,17.9c.2.6.6,1.1,1.3,1.3,1,.3,2-.3,2.3-1.3l5.1-17.9,17.9-5.1c.6-.2,1.1-.6,1.3-1.3.3-1-.3-2-1.3-2.3l-17.9-5.1-5.1-17.9c-.2-.6-.6-1.1-1.3-1.3-1-.3-2,.3-2.3,1.3h0Z"/>
        <path class="st0" d="M235.9,471.3l-5.1,17.9-17.9,5.1c-.6.2-1.1.6-1.3,1.3-.3,1,.3,2,1.3,2.3l17.9,5.1,5.1,17.9c.2.6.6,1.1,1.3,1.3,1,.3,2-.3,2.3-1.3l5.1-17.9,17.9-5.1c.6-.2,1.1-.6,1.3-1.3.3-1-.3-2-1.3-2.3l-17.9-5.1-5.1-17.9c-.2-.6-.6-1.1-1.3-1.3-1-.3-2,.3-2.3,1.3h0Z"/>
        <path class="st0" d="M183,471.3l-5.1,17.9-17.9,5.1c-.6.2-1.1.6-1.3,1.3-.3,1,.3,2,1.3,2.3l17.9,5.1,5.1,17.9c.2.6.6,1.1,1.3,1.3,1,.3,2-.3,2.3-1.3l5.1-17.9,17.9-5.1c.6-.2,1.1-.6,1.3-1.3.3-1-.3-2-1.3-2.3l-17.9-5.1-5.1-17.9c-.2-.6-.6-1.1-1.3-1.3-1-.3-2,.3-2.3,1.3h0Z"/>
        <path class="st0" d="M1082.3,419l-5.1,17.9-17.9,5.1c-.6.2-1.1.6-1.3,1.3-.3,1,.3,2,1.3,2.3l17.9,5.1,5.1,17.9c.2.6.6,1.1,1.3,1.3,1,.3,2-.3,2.3-1.3l5.1-17.9,17.9-5.1c.6-.2,1.1-.6,1.3-1.3.3-1-.3-2-1.3-2.3l-17.9-5.1-5.1-17.9c-.2-.6-.6-1.1-1.3-1.3-1-.3-2,.3-2.3,1.3h0Z"/>
        <path class="st0" d="M1029.4,419l-5.1,17.9-17.9,5.1c-.6.2-1.1.6-1.3,1.3-.3,1,.3,2,1.3,2.3l17.9,5.1,5.1,17.9c.2.6.6,1.1,1.3,1.3,1,.3,2-.3,2.3-1.3l5.1-17.9,17.9-5.1c.6-.2,1.1-.6,1.3-1.3.3-1-.3-2-1.3-2.3l-17.9-5.1-5.1-17.9c-.2-.6-.6-1.1-1.3-1.3-1-.3-2,.3-2.3,1.3h0Z"/>
        <path class="st0" d="M976.5,419l-5.1,17.9-17.9,5.1c-.6.2-1.1.6-1.3,1.3-.3,1,.3,2,1.3,2.3l17.9,5.1,5.1,17.9c.2.6.6,1.1,1.3,1.3,1,.3,2-.3,2.3-1.3l5.1-17.9,17.9-5.1c.6-.2,1.1-.6,1.3-1.3.3-1-.3-2-1.3-2.3l-17.9-5.1-5.1-17.9c-.2-.6-.6-1.1-1.3-1.3-1-.3-2,.3-2.3,1.3h0Z"/>
        <path class="st0" d="M923.6,419l-5.1,17.9-17.9,5.1c-.6.2-1.1.6-1.3,1.3-.3,1,.3,2,1.3,2.3l17.9,5.1,5.1,17.9c.2.6.6,1.1,1.3,1.3,1,.3,2-.3,2.3-1.3l5.1-17.9,17.9-5.1c.6-.2,1.1-.6,1.3-1.3.3-1-.3-2-1.3-2.3l-17.9-5.1-5.1-17.9c-.2-.6-.6-1.1-1.3-1.3-1-.3-2,.3-2.3,1.3h0Z"/>
        <path class="st0" d="M817.8,419l-5.1,17.9-17.9,5.1c-.6.2-1.1.6-1.3,1.3-.3,1,.3,2,1.3,2.3l17.9,5.1,5.1,17.9c.2.6.6,1.1,1.3,1.3,1,.3,2-.3,2.3-1.3l5.1-17.9,17.9-5.1c.6-.2,1.1-.6,1.3-1.3.3-1-.3-2-1.3-2.3l-17.9-5.1-5.1-17.9c-.2-.6-.6-1.1-1.3-1.3-1-.3-2,.3-2.3,1.3h0Z"/>
        <path class="st0" d="M764.9,314.6l-5.1,17.9-17.9,5.1c-.6.2-1.1.6-1.3,1.3-.3,1,.3,2,1.3,2.3l17.9,5.1,5.1,17.9c.2.6.6,1.1,1.3,1.3,1,.3,2-.3,2.3-1.3l5.1-17.9,17.9-5.1c.6-.2,1.1-.6,1.3-1.3.3-1-.3-2-1.3-2.3l-17.9-5.1-5.1-17.9c-.2-.6-.6-1.1-1.3-1.3-1-.3-2,.3-2.3,1.3h0Z"/>
        <path class="st0" d="M500.4,419l-5.1,17.9-17.9,5.1c-.6.2-1.1.6-1.3,1.3-.3,1,.3,2,1.3,2.3l17.9,5.1,5.1,17.9c.2.6.6,1.1,1.3,1.3,1,.3,2-.3,2.3-1.3l5.1-17.9,17.9-5.1c.6-.2,1.1-.6,1.3-1.3.3-1-.3-2-1.3-2.3l-17.9-5.1-5.1-17.9c-.2-.6-.6-1.1-1.3-1.3-1-.3-2,.3-2.3,1.3h0Z"/>
        <path class="st0" d="M500.4,471.3l-5.1,17.9-17.9,5.1c-.6.2-1.1.6-1.3,1.3-.3,1,.3,2,1.3,2.3l17.9,5.1,5.1,17.9c.2.6.6,1.1,1.3,1.3,1,.3,2-.3,2.3-1.3l5.1-17.9,17.9-5.1c.6-.2,1.1-.6,1.3-1.3.3-1-.3-2-1.3-2.3l-17.9-5.1-5.1-17.9c-.2-.6-.6-1.1-1.3-1.3-1-.3-2,.3-2.3,1.3h0Z"/>
        <path class="st0" d="M817.8,471.3l-5.1,17.9-17.9,5.1c-.6.2-1.1.6-1.3,1.3-.3,1,.3,2,1.3,2.3l17.9,5.1,5.1,17.9c.2.6.6,1.1,1.3,1.3,1,.3,2-.3,2.3-1.3l5.1-17.9,17.9-5.1c.6-.2,1.1-.6,1.3-1.3.3-1-.3-2-1.3-2.3l-17.9-5.1-5.1-17.9c-.2-.6-.6-1.1-1.3-1.3-1-.3-2,.3-2.3,1.3h0Z"/>
        <path class="st0" d="M500.4,784.5l-5.1,17.9-17.9,5.1c-.6.2-1.1.6-1.3,1.3-.3,1,.3,2,1.3,2.3l17.9,5.1,5.1,17.9c.2.6.6,1.1,1.3,1.3,1,.3,2-.3,2.3-1.3l5.1-17.9,17.9-5.1c.6-.2,1.1-.6,1.3-1.3.3-1-.3-2-1.3-2.3l-17.9-5.1-5.1-17.9c-.2-.6-.6-1.1-1.3-1.3-1-.3-2,.3-2.3,1.3h0Z"/>
        <path class="st0" d="M817.8,784.5l-5.1,17.9-17.9,5.1c-.6.2-1.1.6-1.3,1.3-.3,1,.3,2,1.3,2.3l17.9,5.1,5.1,17.9c.2.6.6,1.1,1.3,1.3,1,.3,2-.3,2.3-1.3l5.1-17.9,17.9-5.1c.6-.2,1.1-.6,1.3-1.3.3-1-.3-2-1.3-2.3l-17.9-5.1-5.1-17.9c-.2-.6-.6-1.1-1.3-1.3-1-.3-2,.3-2.3,1.3h0Z"/>
        <path class="st0" d="M394.6,419l-5.1,17.9-17.9,5.1c-.6.2-1.1.6-1.3,1.3-.3,1,.3,2,1.3,2.3l17.9,5.1,5.1,17.9c.2.6.6,1.1,1.3,1.3,1,.3,2-.3,2.3-1.3l5.1-17.9,17.9-5.1c.6-.2,1.1-.6,1.3-1.3.3-1-.3-2-1.3-2.3l-17.9-5.1-5.1-17.9c-.2-.6-.6-1.1-1.3-1.3-1-.3-2,.3-2.3,1.3h0Z"/>
        <path class="st0" d="M341.7,419l-5.1,17.9-17.9,5.1c-.6.2-1.1.6-1.3,1.3-.3,1,.3,2,1.3,2.3l17.9,5.1,5.1,17.9c.2.6.6,1.1,1.3,1.3,1,.3,2-.3,2.3-1.3l5.1-17.9,17.9-5.1c.6-.2,1.1-.6,1.3-1.3.3-1-.3-2-1.3-2.3l-17.9-5.1-5.1-17.9c-.2-.6-.6-1.1-1.3-1.3-1-.3-2,.3-2.3,1.3h0Z"/>
        <path class="st0" d="M288.8,419l-5.1,17.9-17.9,5.1c-.6.2-1.1.6-1.3,1.3-.3,1,.3,2,1.3,2.3l17.9,5.1,5.1,17.9c.2.6.6,1.1,1.3,1.3,1,.3,2-.3,2.3-1.3l5.1-17.9,17.9-5.1c.6-.2,1.1-.6,1.3-1.3.3-1-.3-2-1.3-2.3l-17.9-5.1-5.1-17.9c-.2-.6-.6-1.1-1.3-1.3-1-.3-2,.3-2.3,1.3h0Z"/>
        <path class="st0" d="M235.9,419l-5.1,17.9-17.9,5.1c-.6.2-1.1.6-1.3,1.3-.3,1,.3,2,1.3,2.3l17.9,5.1,5.1,17.9c.2.6.6,1.1,1.3,1.3,1,.3,2-.3,2.3-1.3l5.1-17.9,17.9-5.1c.6-.2,1.1-.6,1.3-1.3.3-1-.3-2-1.3-2.3l-17.9-5.1-5.1-17.9c-.2-.6-.6-1.1-1.3-1.3-1-.3-2,.3-2.3,1.3h0Z"/>
        <path class="st0" d="M870.7,366.8l-5.1,17.9-17.9,5.1c-.6.2-1.1.6-1.3,1.3-.3,1,.3,2,1.3,2.3l17.9,5.1,5.1,17.9c.2.6.6,1.1,1.3,1.3,1,.3,2-.3,2.3-1.3l5.1-17.9,17.9-5.1c.6-.2,1.1-.6,1.3-1.3.3-1-.3-2-1.3-2.3l-17.9-5.1-5.1-17.9c-.2-.6-.6-1.1-1.3-1.3-1-.3-2,.3-2.3,1.3h0Z"/>
        <path class="st0" d="M817.8,366.8l-5.1,17.9-17.9,5.1c-.6.2-1.1.6-1.3,1.3-.3,1,.3,2,1.3,2.3l17.9,5.1,5.1,17.9c.2.6.6,1.1,1.3,1.3,1,.3,2-.3,2.3-1.3l5.1-17.9,17.9-5.1c.6-.2,1.1-.6,1.3-1.3.3-1-.3-2-1.3-2.3l-17.9-5.1-5.1-17.9c-.2-.6-.6-1.1-1.3-1.3-1-.3-2,.3-2.3,1.3h0Z"/>
        <path class="st0" d="M500.4,366.8l-5.1,17.9-17.9,5.1c-.6.2-1.1.6-1.3,1.3-.3,1,.3,2,1.3,2.3l17.9,5.1,5.1,17.9c.2.6.6,1.1,1.3,1.3,1,.3,2-.3,2.3-1.3l5.1-17.9,17.9-5.1c.6-.2,1.1-.6,1.3-1.3.3-1-.3-2-1.3-2.3l-17.9-5.1-5.1-17.9c-.2-.6-.6-1.1-1.3-1.3-1-.3-2,.3-2.3,1.3h0Z"/>
        <path class="st0" d="M447.5,366.8l-5.1,17.9-17.9,5.1c-.6.2-1.1.6-1.3,1.3-.3,1,.3,2,1.3,2.3l17.9,5.1,5.1,17.9c.2.6.6,1.1,1.3,1.3,1,.3,2-.3,2.3-1.3l5.1-17.9,17.9-5.1c.6-.2,1.1-.6,1.3-1.3.3-1-.3-2-1.3-2.3l-17.9-5.1-5.1-17.9c-.2-.6-.6-1.1-1.3-1.3-1-.3-2,.3-2.3,1.3h0Z"/>
        <path class="st0" d="M870.7,314.6l-5.1,17.9-17.9,5.1c-.6.2-1.1.6-1.3,1.3-.3,1,.3,2,1.3,2.3l17.9,5.1,5.1,17.9c.2.6.6,1.1,1.3,1.3,1,.3,2-.3,2.3-1.3l5.1-17.9,17.9-5.1c.6-.2,1.1-.6,1.3-1.3.3-1-.3-2-1.3-2.3l-17.9-5.1-5.1-17.9c-.2-.6-.6-1.1-1.3-1.3-1-.3-2,.3-2.3,1.3h0Z"/>
        <path class="st0" d="M712,314.6l-5.1,17.9-17.9,5.1c-.6.2-1.1.6-1.3,1.3-.3,1,.3,2,1.3,2.3l17.9,5.1,5.1,17.9c.2.6.6,1.1,1.3,1.3,1,.3,2-.3,2.3-1.3l5.1-17.9,17.9-5.1c.6-.2,1.1-.6,1.3-1.3.3-1-.3-2-1.3-2.3l-17.9-5.1-5.1-17.9c-.2-.6-.6-1.1-1.3-1.3-1-.3-2,.3-2.3,1.3h0Z"/>
        <path class="st0" d="M659.1,314.6l-5.1,17.9-17.9,5.1c-.6.2-1.1.6-1.3,1.3-.3,1,.3,2,1.3,2.3l17.9,5.1,5.1,17.9c.2.6.6,1.1,1.3,1.3,1,.3,2-.3,2.3-1.3l5.1-17.9,17.9-5.1c.6-.2,1.1-.6,1.3-1.3.3-1-.3-2-1.3-2.3l-17.9-5.1-5.1-17.9c-.2-.6-.6-1.1-1.3-1.3-1-.3-2,.3-2.3,1.3h0Z"/>
        <path class="st0" d="M606.2,314.6l-5.1,17.9-17.9,5.1c-.6.2-1.1.6-1.3,1.3-.3,1,.3,2,1.3,2.3l17.9,5.1,5.1,17.9c.2.6.6,1.1,1.3,1.3,1,.3,2-.3,2.3-1.3l5.1-17.9,17.9-5.1c.6-.2,1.1-.6,1.3-1.3.3-1-.3-2-1.3-2.3l-17.9-5.1-5.1-17.9c-.2-.6-.6-1.1-1.3-1.3-1-.3-2,.3-2.3,1.3h0Z"/>
        <path class="st0" d="M553.3,314.6l-5.1,17.9-17.9,5.1c-.6.2-1.1.6-1.3,1.3-.3,1,.3,2,1.3,2.3l17.9,5.1,5.1,17.9c.2.6.6,1.1,1.3,1.3,1,.3,2-.3,2.3-1.3l5.1-17.9,17.9-5.1c.6-.2,1.1-.6,1.3-1.3.3-1-.3-2-1.3-2.3l-17.9-5.1-5.1-17.9c-.2-.6-.6-1.1-1.3-1.3-1-.3-2,.3-2.3,1.3h0Z"/>
        <path class="st0" d="M447.5,314.6l-5.1,17.9-17.9,5.1c-.6.2-1.1.6-1.3,1.3-.3,1,.3,2,1.3,2.3l17.9,5.1,5.1,17.9c.2.6.6,1.1,1.3,1.3,1,.3,2-.3,2.3-1.3l5.1-17.9,17.9-5.1c.6-.2,1.1-.6,1.3-1.3.3-1-.3-2-1.3-2.3l-17.9-5.1-5.1-17.9c-.2-.6-.6-1.1-1.3-1.3-1-.3-2,.3-2.3,1.3h0Z"/>
        <path class="st0" d="M870.7,262.4l-5.1,17.9-17.9,5.1c-.6.2-1.1.6-1.3,1.3-.3,1,.3,2,1.3,2.3l17.9,5.1,5.1,17.9c.2.6.6,1.1,1.3,1.3,1,.3,2-.3,2.3-1.3l5.1-17.9,17.9-5.1c.6-.2,1.1-.6,1.3-1.3.3-1-.3-2-1.3-2.3l-17.9-5.1-5.1-17.9c-.2-.6-.6-1.1-1.3-1.3-1-.3-2,.3-2.3,1.3h0Z"/>
        <path class="st0" d="M712,262.4l-5.1,17.9-17.9,5.1c-.6.2-1.1.6-1.3,1.3-.3,1,.3,2,1.3,2.3l17.9,5.1,5.1,17.9c.2.6.6,1.1,1.3,1.3,1,.3,2-.3,2.3-1.3l5.1-17.9,17.9-5.1c.6-.2,1.1-.6,1.3-1.3.3-1-.3-2-1.3-2.3l-17.9-5.1-5.1-17.9c-.2-.6-.6-1.1-1.3-1.3-1-.3-2,.3-2.3,1.3h0Z"/>
        <path class="st0" d="M659.1,262.4l-5.1,17.9-17.9,5.1c-.6.2-1.1.6-1.3,1.3-.3,1,.3,2,1.3,2.3l17.9,5.1,5.1,17.9c.2.6.6,1.1,1.3,1.3,1,.3,2-.3,2.3-1.3l5.1-17.9,17.9-5.1c.6-.2,1.1-.6,1.3-1.3.3-1-.3-2-1.3-2.3l-17.9-5.1-5.1-17.9c-.2-.6-.6-1.1-1.3-1.3-1-.3-2,.3-2.3,1.3h0Z"/>
        <path class="st0" d="M606.2,262.4l-5.1,17.9-17.9,5.1c-.6.2-1.1.6-1.3,1.3-.3,1,.3,2,1.3,2.3l17.9,5.1,5.1,17.9c.2.6.6,1.1,1.3,1.3,1,.3,2-.3,2.3-1.3l5.1-17.9,17.9-5.1c.6-.2,1.1-.6,1.3-1.3.3-1-.3-2-1.3-2.3l-17.9-5.1-5.1-17.9c-.2-.6-.6-1.1-1.3-1.3-1-.3-2,.3-2.3,1.3h0Z"/>
        <path class="st0" d="M447.5,262.4l-5.1,17.9-17.9,5.1c-.6.2-1.1.6-1.3,1.3-.3,1,.3,2,1.3,2.3l17.9,5.1,5.1,17.9c.2.6.6,1.1,1.3,1.3,1,.3,2-.3,2.3-1.3l5.1-17.9,17.9-5.1c.6-.2,1.1-.6,1.3-1.3.3-1-.3-2-1.3-2.3l-17.9-5.1-5.1-17.9c-.2-.6-.6-1.1-1.3-1.3-1-.3-2,.3-2.3,1.3h0Z"/>
        <path class="st0" d="M870.7,210.2l-5.1,17.9-17.9,5.1c-.6.2-1.1.6-1.3,1.3-.3,1,.3,2,1.3,2.3l17.9,5.1,5.1,17.9c.2.6.6,1.1,1.3,1.3,1,.3,2-.3,2.3-1.3l5.1-17.9,17.9-5.1c.6-.2,1.1-.6,1.3-1.3.3-1-.3-2-1.3-2.3l-17.9-5.1-5.1-17.9c-.2-.6-.6-1.1-1.3-1.3-1-.3-2,.3-2.3,1.3h0Z"/>
        <path class="st0" d="M817.8,210.2l-5.1,17.9-17.9,5.1c-.6.2-1.1.6-1.3,1.3-.3,1,.3,2,1.3,2.3l17.9,5.1,5.1,17.9c.2.6.6,1.1,1.3,1.3,1,.3,2-.3,2.3-1.3l5.1-17.9,17.9-5.1c.6-.2,1.1-.6,1.3-1.3.3-1-.3-2-1.3-2.3l-17.9-5.1-5.1-17.9c-.2-.6-.6-1.1-1.3-1.3-1-.3-2,.3-2.3,1.3h0Z"/>
        <path class="st0" d="M659.1,210.2l-5.1,17.9-17.9,5.1c-.6.2-1.1.6-1.3,1.3-.3,1,.3,2,1.3,2.3l17.9,5.1,5.1,17.9c.2.6.6,1.1,1.3,1.3,1,.3,2-.3,2.3-1.3l5.1-17.9,17.9-5.1c.6-.2,1.1-.6,1.3-1.3.3-1-.3-2-1.3-2.3l-17.9-5.1-5.1-17.9c-.2-.6-.6-1.1-1.3-1.3-1-.3-2,.3-2.3,1.3h0Z"/>
        <path class="st0" d="M500.4,210.2l-5.1,17.9-17.9,5.1c-.6.2-1.1.6-1.3,1.3-.3,1,.3,2,1.3,2.3l17.9,5.1,5.1,17.9c.2.6.6,1.1,1.3,1.3,1,.3,2-.3,2.3-1.3l5.1-17.9,17.9-5.1c.6-.2,1.1-.6,1.3-1.3.3-1-.3-2-1.3-2.3l-17.9-5.1-5.1-17.9c-.2-.6-.6-1.1-1.3-1.3-1-.3-2,.3-2.3,1.3h0Z"/>
        <path class="st0" d="M447.5,210.2l-5.1,17.9-17.9,5.1c-.6.2-1.1.6-1.3,1.3-.3,1,.3,2,1.3,2.3l17.9,5.1,5.1,17.9c.2.6.6,1.1,1.3,1.3,1,.3,2-.3,2.3-1.3l5.1-17.9,17.9-5.1c.6-.2,1.1-.6,1.3-1.3.3-1-.3-2-1.3-2.3l-17.9-5.1-5.1-17.9c-.2-.6-.6-1.1-1.3-1.3-1-.3-2,.3-2.3,1.3h0Z"/>
        <path class="st0" d="M817.8,158l-5.1,17.9-17.9,5.1c-.6.2-1.1.6-1.3,1.3-.3,1,.3,2,1.3,2.3l17.9,5.1,5.1,17.9c.2.6.6,1.1,1.3,1.3,1,.3,2-.3,2.3-1.3l5.1-17.9,17.9-5.1c.6-.2,1.1-.6,1.3-1.3.3-1-.3-2-1.3-2.3l-17.9-5.1-5.1-17.9c-.2-.6-.6-1.1-1.3-1.3-1-.3-2,.3-2.3,1.3h0Z"/>
        <path class="st0" d="M764.9,158l-5.1,17.9-17.9,5.1c-.6.2-1.1.6-1.3,1.3-.3,1,.3,2,1.3,2.3l17.9,5.1,5.1,17.9c.2.6.6,1.1,1.3,1.3,1,.3,2-.3,2.3-1.3l5.1-17.9,17.9-5.1c.6-.2,1.1-.6,1.3-1.3.3-1-.3-2-1.3-2.3l-17.9-5.1-5.1-17.9c-.2-.6-.6-1.1-1.3-1.3-1-.3-2,.3-2.3,1.3h0Z"/>
        <path class="st0" d="M553.3,158l-5.1,17.9-17.9,5.1c-.6.2-1.1.6-1.3,1.3-.3,1,.3,2,1.3,2.3l17.9,5.1,5.1,17.9c.2.6.6,1.1,1.3,1.3,1,.3,2-.3,2.3-1.3l5.1-17.9,17.9-5.1c.6-.2,1.1-.6,1.3-1.3.3-1-.3-2-1.3-2.3l-17.9-5.1-5.1-17.9c-.2-.6-.6-1.1-1.3-1.3-1-.3-2,.3-2.3,1.3h0Z"/>
        <path class="st0" d="M500.4,158l-5.1,17.9-17.9,5.1c-.6.2-1.1.6-1.3,1.3-.3,1,.3,2,1.3,2.3l17.9,5.1,5.1,17.9c.2.6.6,1.1,1.3,1.3,1,.3,2-.3,2.3-1.3l5.1-17.9,17.9-5.1c.6-.2,1.1-.6,1.3-1.3.3-1-.3-2-1.3-2.3l-17.9-5.1-5.1-17.9c-.2-.6-.6-1.1-1.3-1.3-1-.3-2,.3-2.3,1.3h0Z"/>
        <path class="st0" d="M764.9,105.8l-5.1,17.9-17.9,5.1c-.6.2-1.1.6-1.3,1.3-.3,1,.3,2,1.3,2.3l17.9,5.1,5.1,17.9c.2.6.6,1.1,1.3,1.3,1,.3,2-.3,2.3-1.3l5.1-17.9,17.9-5.1c.6-.2,1.1-.6,1.3-1.3.3-1-.3-2-1.3-2.3l-17.9-5.1-5.1-17.9c-.2-.6-.6-1.1-1.3-1.3-1-.3-2,.3-2.3,1.3h0Z"/>
        <path class="st0" d="M712,105.8l-5.1,17.9-17.9,5.1c-.6.2-1.1.6-1.3,1.3-.3,1,.3,2,1.3,2.3l17.9,5.1,5.1,17.9c.2.6.6,1.1,1.3,1.3,1,.3,2-.3,2.3-1.3l5.1-17.9,17.9-5.1c.6-.2,1.1-.6,1.3-1.3.3-1-.3-2-1.3-2.3l-17.9-5.1-5.1-17.9c-.2-.6-.6-1.1-1.3-1.3-1-.3-2,.3-2.3,1.3h0Z"/>
        <path class="st0" d="M606.2,105.8l-5.1,17.9-17.9,5.1c-.6.2-1.1.6-1.3,1.3-.3,1,.3,2,1.3,2.3l17.9,5.1,5.1,17.9c.2.6.6,1.1,1.3,1.3,1,.3,2-.3,2.3-1.3l5.1-17.9,17.9-5.1c.6-.2,1.1-.6,1.3-1.3.3-1-.3-2-1.3-2.3l-17.9-5.1-5.1-17.9c-.2-.6-.6-1.1-1.3-1.3-1-.3-2,.3-2.3,1.3h0Z"/>
        <path class="st0" d="M553.3,105.8l-5.1,17.9-17.9,5.1c-.6.2-1.1.6-1.3,1.3-.3,1,.3,2,1.3,2.3l17.9,5.1,5.1,17.9c.2.6.6,1.1,1.3,1.3,1,.3,2-.3,2.3-1.3l5.1-17.9,17.9-5.1c.6-.2,1.1-.6,1.3-1.3.3-1-.3-2-1.3-2.3l-17.9-5.1-5.1-17.9c-.2-.6-.6-1.1-1.3-1.3-1-.3-2,.3-2.3,1.3h0Z"/>
        <path class="st0" d="M712,53.5l-5.1,17.9-17.9,5.1c-.6.2-1.1.6-1.3,1.3-.3,1,.3,2,1.3,2.3l17.9,5.1,5.1,17.9c.2.6.6,1.1,1.3,1.3,1,.3,2-.3,2.3-1.3l5.1-17.9,17.9-5.1c.6-.2,1.1-.6,1.3-1.3.3-1-.3-2-1.3-2.3l-17.9-5.1-5.1-17.9c-.2-.6-.6-1.1-1.3-1.3-1-.3-2,.3-2.3,1.3h0Z"/>
        <path class="st0" d="M659.1,53.5l-5.1,17.9-17.9,5.1c-.6.2-1.1.6-1.3,1.3-.3,1,.3,2,1.3,2.3l17.9,5.1,5.1,17.9c.2.6.6,1.1,1.3,1.3,1,.3,2-.3,2.3-1.3l5.1-17.9,17.9-5.1c.6-.2,1.1-.6,1.3-1.3.3-1-.3-2-1.3-2.3l-17.9-5.1-5.1-17.9c-.2-.6-.6-1.1-1.3-1.3-1-.3-2,.3-2.3,1.3h0Z"/>
        <path class="st0" d="M606.2,53.5l-5.1,17.9-17.9,5.1c-.6.2-1.1.6-1.3,1.3-.3,1,.3,2,1.3,2.3l17.9,5.1,5.1,17.9c.2.6.6,1.1,1.3,1.3,1,.3,2-.3,2.3-1.3l5.1-17.9,17.9-5.1c.6-.2,1.1-.6,1.3-1.3.3-1-.3-2-1.3-2.3l-17.9-5.1-5.1-17.9c-.2-.6-.6-1.1-1.3-1.3-1-.3-2,.3-2.3,1.3h0Z"/>
        <path class="st0" d="M659.1,1.3l-5.1,17.9-17.9,5.1c-.6.2-1.1.6-1.3,1.3-.3,1,.3,2,1.3,2.3l17.9,5.1,5.1,17.9c.2.6.6,1.1,1.3,1.3,1,.3,2-.3,2.3-1.3l5.1-17.9,17.9-5.1c.6-.2,1.1-.6,1.3-1.3.3-1-.3-2-1.3-2.3l-17.9-5.1-5.1-17.9c-.2-.6-.6-1.1-1.3-1.3-1-.3-2,.3-2.3,1.3h0Z"/>
      </g>
    </g>
  </g>
</svg>