<?xml version="1.0" encoding="UTF-8"?>
<svg id="Layer_2" data-name="Layer 2" xmlns="http://www.w3.org/2000/svg" viewBox="0 0 1321.82 1305.36">
  <defs>
    <style>
      .cls-1 {
        fill: #fff;
      }
    </style>
  </defs>
  <g id="Layer_1-2" data-name="Layer 1">
    <g>
      <path class="cls-1" d="M659.14,1254.48l-5.11,17.88-17.89,5.11c-.59.17-1.08.63-1.26,1.26-.28.98.29,2,1.26,2.28l17.89,5.11,5.11,17.9c.17.59.63,1.08,1.26,1.26.98.28,2-.29,2.28-1.26l5.11-17.9,17.89-5.11c.59-.17,1.08-.63,1.26-1.26.28-.98-.29-1.99-1.26-2.27l-17.89-5.11-5.11-17.88c-.17-.59-.63-1.08-1.26-1.27-.98-.28-2,.29-2.27,1.27Z"/>
      <path class="cls-1" d="M712.04,1202.27l-5.11,17.88-17.89,5.11c-.59.17-1.08.63-1.26,1.26-.28.98.29,2,1.26,2.28l17.89,5.11,5.11,17.9c.17.59.63,1.08,1.26,1.26.98.28,2-.29,2.28-1.26l5.11-17.9,17.89-5.11c.59-.17,1.08-.63,1.26-1.26.28-.98-.29-1.99-1.26-2.27l-17.89-5.11-5.11-17.88c-.17-.59-.63-1.08-1.26-1.27-.98-.28-2,.29-2.27,1.27Z"/>
      <path class="cls-1" d="M659.14,1202.27l-5.11,17.88-17.89,5.11c-.59.17-1.08.63-1.26,1.26-.28.98.29,2,1.26,2.28l17.89,5.11,5.11,17.9c.17.59.63,1.08,1.26,1.26.98.28,2-.29,2.28-1.26l5.11-17.9,17.89-5.11c.59-.17,1.08-.63,1.26-1.26.28-.98-.29-1.99-1.26-2.27l-17.89-5.11-5.11-17.88c-.17-.59-.63-1.08-1.26-1.27-.98-.28-2,.29-2.27,1.27Z"/>
      <path class="cls-1" d="M606.24,1202.27l-5.11,17.88-17.89,5.11c-.59.17-1.08.63-1.26,1.26-.28.98.29,2,1.26,2.28l17.89,5.11,5.11,17.9c.17.59.63,1.08,1.26,1.26.98.28,2-.29,2.28-1.26l5.11-17.9,17.89-5.11c.59-.17,1.08-.63,1.26-1.26.28-.98-.29-1.99-1.26-2.27l-17.89-5.11-5.11-17.88c-.17-.59-.63-1.08-1.26-1.27-.98-.28-2,.29-2.27,1.27Z"/>
      <path class="cls-1" d="M764.94,1150.06l-5.11,17.88-17.89,5.11c-.59.17-1.08.63-1.26,1.26-.28.98.29,2,1.26,2.28l17.89,5.11,5.11,17.9c.17.59.63,1.08,1.26,1.26.98.28,2-.29,2.28-1.26l5.11-17.9,17.89-5.11c.59-.17,1.08-.63,1.26-1.26.28-.98-.29-1.99-1.26-2.27l-17.89-5.11-5.11-17.88c-.17-.59-.63-1.08-1.26-1.27-.98-.28-2,.29-2.27,1.27Z"/>
      <path class="cls-1" d="M712.04,1150.06l-5.11,17.88-17.89,5.11c-.59.17-1.08.63-1.26,1.26-.28.98.29,2,1.26,2.28l17.89,5.11,5.11,17.9c.17.59.63,1.08,1.26,1.26.98.28,2-.29,2.28-1.26l5.11-17.9,17.89-5.11c.59-.17,1.08-.63,1.26-1.26.28-.98-.29-1.99-1.26-2.27l-17.89-5.11-5.11-17.88c-.17-.59-.63-1.08-1.26-1.27-.98-.28-2,.29-2.27,1.27Z"/>
      <path class="cls-1" d="M606.24,1150.06l-5.11,17.88-17.89,5.11c-.59.17-1.08.63-1.26,1.26-.28.98.29,2,1.26,2.28l17.89,5.11,5.11,17.9c.17.59.63,1.08,1.26,1.26.98.28,2-.29,2.28-1.26l5.11-17.9,17.89-5.11c.59-.17,1.08-.63,1.26-1.26.28-.98-.29-1.99-1.26-2.27l-17.89-5.11-5.11-17.88c-.17-.59-.63-1.08-1.26-1.27-.98-.28-2,.29-2.27,1.27Z"/>
      <path class="cls-1" d="M553.34,1150.06l-5.11,17.88-17.89,5.11c-.59.17-1.08.63-1.26,1.26-.28.98.29,2,1.26,2.28l17.89,5.11,5.11,17.9c.17.59.63,1.08,1.26,1.26.98.28,2-.29,2.28-1.26l5.11-17.9,17.89-5.11c.59-.17,1.08-.63,1.26-1.26.28-.98-.29-1.99-1.26-2.27l-17.89-5.11-5.11-17.88c-.17-.59-.63-1.08-1.26-1.27-.98-.28-2,.29-2.27,1.27Z"/>
      <path class="cls-1" d="M817.84,1097.84l-5.11,17.88-17.89,5.11c-.59.17-1.08.63-1.26,1.26-.28.98.29,2,1.26,2.28l17.89,5.11,5.11,17.9c.17.59.63,1.08,1.26,1.26.98.28,2-.29,2.28-1.26l5.11-17.9,17.89-5.11c.59-.17,1.08-.63,1.26-1.26.28-.98-.29-1.99-1.26-2.27l-17.89-5.11-5.11-17.88c-.17-.59-.63-1.08-1.26-1.27-.98-.28-2,.29-2.27,1.27Z"/>
      <path class="cls-1" d="M764.94,1097.84l-5.11,17.88-17.89,5.11c-.59.17-1.08.63-1.26,1.26-.28.98.29,2,1.26,2.28l17.89,5.11,5.11,17.9c.17.59.63,1.08,1.26,1.26.98.28,2-.29,2.28-1.26l5.11-17.9,17.89-5.11c.59-.17,1.08-.63,1.26-1.26.28-.98-.29-1.99-1.26-2.27l-17.89-5.11-5.11-17.88c-.17-.59-.63-1.08-1.26-1.27-.98-.28-2,.29-2.27,1.27Z"/>
      <path class="cls-1" d="M553.34,1097.84l-5.11,17.88-17.89,5.11c-.59.17-1.08.63-1.26,1.26-.28.98.29,2,1.26,2.28l17.89,5.11,5.11,17.9c.17.59.63,1.08,1.26,1.26.98.28,2-.29,2.28-1.26l5.11-17.9,17.89-5.11c.59-.17,1.08-.63,1.26-1.26.28-.98-.29-1.99-1.26-2.27l-17.89-5.11-5.11-17.88c-.17-.59-.63-1.08-1.26-1.27-.98-.28-2,.29-2.27,1.27Z"/>
      <path class="cls-1" d="M500.44,1097.84l-5.11,17.88-17.89,5.11c-.59.17-1.08.63-1.26,1.26-.28.98.29,2,1.26,2.28l17.89,5.11,5.11,17.9c.17.59.63,1.08,1.26,1.26.98.28,2-.29,2.28-1.26l5.11-17.9,17.89-5.11c.59-.17,1.08-.63,1.26-1.26.28-.98-.29-1.99-1.26-2.27l-17.89-5.11-5.11-17.88c-.17-.59-.63-1.08-1.26-1.27-.98-.28-2,.29-2.27,1.27Z"/>
      <path class="cls-1" d="M870.74,1045.63l-5.11,17.88-17.89,5.11c-.59.17-1.08.63-1.26,1.26-.28.98.29,2,1.26,2.28l17.89,5.11,5.11,17.9c.17.59.63,1.08,1.26,1.26.98.28,2-.29,2.28-1.26l5.11-17.9,17.89-5.11c.59-.17,1.08-.63,1.26-1.26.28-.98-.29-1.99-1.26-2.27l-17.89-5.11-5.11-17.88c-.17-.59-.63-1.08-1.26-1.27-.98-.28-2,.29-2.27,1.27Z"/>
      <path class="cls-1" d="M817.84,1045.63l-5.11,17.88-17.89,5.11c-.59.17-1.08.63-1.26,1.26-.28.98.29,2,1.26,2.28l17.89,5.11,5.11,17.9c.17.59.63,1.08,1.26,1.26.98.28,2-.29,2.28-1.26l5.11-17.9,17.89-5.11c.59-.17,1.08-.63,1.26-1.26.28-.98-.29-1.99-1.26-2.27l-17.89-5.11-5.11-17.88c-.17-.59-.63-1.08-1.26-1.27-.98-.28-2,.29-2.27,1.27Z"/>
      <path class="cls-1" d="M659.14,1045.63l-5.11,17.88-17.89,5.11c-.59.17-1.08.63-1.26,1.26-.28.98.29,2,1.26,2.28l17.89,5.11,5.11,17.9c.17.59.63,1.08,1.26,1.26.98.28,2-.29,2.28-1.26l5.11-17.9,17.89-5.11c.59-.17,1.08-.63,1.26-1.26.28-.98-.29-1.99-1.26-2.27l-17.89-5.11-5.11-17.88c-.17-.59-.63-1.08-1.26-1.27-.98-.28-2,.29-2.27,1.27Z"/>
      <path class="cls-1" d="M500.44,1045.63l-5.11,17.88-17.89,5.11c-.59.17-1.08.63-1.26,1.26-.28.98.29,2,1.26,2.28l17.89,5.11,5.11,17.9c.17.59.63,1.08,1.26,1.26.98.28,2-.29,2.28-1.26l5.11-17.9,17.89-5.11c.59-.17,1.08-.63,1.26-1.26.28-.98-.29-1.99-1.26-2.27l-17.89-5.11-5.11-17.88c-.17-.59-.63-1.08-1.26-1.27-.98-.28-2,.29-2.27,1.27Z"/>
      <path class="cls-1" d="M447.54,1045.63l-5.11,17.88-17.89,5.11c-.59.17-1.08.63-1.26,1.26-.28.98.29,2,1.26,2.28l17.89,5.11,5.11,17.9c.17.59.63,1.08,1.26,1.26.98.28,2-.29,2.28-1.26l5.11-17.9,17.89-5.11c.59-.17,1.08-.63,1.26-1.26.28-.98-.29-1.99-1.26-2.27l-17.89-5.11-5.11-17.88c-.17-.59-.63-1.08-1.26-1.27-.98-.28-2,.29-2.27,1.27Z"/>
      <path class="cls-1" d="M870.74,993.41l-5.11,17.88-17.89,5.11c-.59.17-1.08.63-1.26,1.26-.28.98.29,2,1.26,2.28l17.89,5.11,5.11,17.9c.17.59.63,1.08,1.26,1.26.98.28,2-.29,2.28-1.26l5.11-17.9,17.89-5.11c.59-.17,1.08-.63,1.26-1.26.28-.98-.29-1.99-1.26-2.27l-17.89-5.11-5.11-17.88c-.17-.59-.63-1.08-1.26-1.27-.98-.28-2,.29-2.27,1.27Z"/>
      <path class="cls-1" d="M712.04,993.41l-5.11,17.88-17.89,5.11c-.59.17-1.08.63-1.26,1.26-.28.98.29,2,1.26,2.28l17.89,5.11,5.11,17.9c.17.59.63,1.08,1.26,1.26.98.28,2-.29,2.28-1.26l5.11-17.9,17.89-5.11c.59-.17,1.08-.63,1.26-1.26.28-.98-.29-1.99-1.26-2.27l-17.89-5.11-5.11-17.88c-.17-.59-.63-1.08-1.26-1.27-.98-.28-2,.29-2.27,1.27Z"/>
      <path class="cls-1" d="M659.14,993.41l-5.11,17.88-17.89,5.11c-.59.17-1.08.63-1.26,1.26-.28.98.29,2,1.26,2.28l17.89,5.11,5.11,17.9c.17.59.63,1.08,1.26,1.26.98.28,2-.29,2.28-1.26l5.11-17.9,17.89-5.11c.59-.17,1.08-.63,1.26-1.26.28-.98-.29-1.99-1.26-2.27l-17.89-5.11-5.11-17.88c-.17-.59-.63-1.08-1.26-1.27-.98-.28-2,.29-2.27,1.27Z"/>
      <path class="cls-1" d="M606.24,993.41l-5.11,17.88-17.89,5.11c-.59.17-1.08.63-1.26,1.26-.28.98.29,2,1.26,2.28l17.89,5.11,5.11,17.9c.17.59.63,1.08,1.26,1.26.98.28,2-.29,2.28-1.26l5.11-17.9,17.89-5.11c.59-.17,1.08-.63,1.26-1.26.28-.98-.29-1.99-1.26-2.27l-17.89-5.11-5.11-17.88c-.17-.59-.63-1.08-1.26-1.27-.98-.28-2,.29-2.27,1.27Z"/>
      <path class="cls-1" d="M447.54,993.41l-5.11,17.88-17.89,5.11c-.59.17-1.08.63-1.26,1.26-.28.98.29,2,1.26,2.28l17.89,5.11,5.11,17.9c.17.59.63,1.08,1.26,1.26.98.28,2-.29,2.28-1.26l5.11-17.9,17.89-5.11c.59-.17,1.08-.63,1.26-1.26.28-.98-.29-1.99-1.26-2.27l-17.89-5.11-5.11-17.88c-.17-.59-.63-1.08-1.26-1.27-.98-.28-2,.29-2.27,1.27Z"/>
      <path class="cls-1" d="M870.74,941.2l-5.11,17.88-17.89,5.11c-.59.17-1.08.63-1.26,1.26-.28.98.29,2,1.26,2.28l17.89,5.11,5.11,17.9c.17.59.63,1.08,1.26,1.26.98.28,2-.29,2.28-1.26l5.11-17.9,17.89-5.11c.59-.17,1.08-.63,1.26-1.26.28-.98-.29-1.99-1.26-2.27l-17.89-5.11-5.11-17.88c-.17-.59-.63-1.08-1.26-1.27-.98-.28-2,.29-2.27,1.27Z"/>
      <path class="cls-1" d="M764.94,941.2l-5.11,17.88-17.89,5.11c-.59.17-1.08.63-1.26,1.26-.28.98.29,2,1.26,2.28l17.89,5.11,5.11,17.9c.17.59.63,1.08,1.26,1.26.98.28,2-.29,2.28-1.26l5.11-17.9,17.89-5.11c.59-.17,1.08-.63,1.26-1.26.28-.98-.29-1.99-1.26-2.27l-17.89-5.11-5.11-17.88c-.17-.59-.63-1.08-1.26-1.27-.98-.28-2,.29-2.27,1.27Z"/>
      <path class="cls-1" d="M712.04,941.2l-5.11,17.88-17.89,5.11c-.59.17-1.08.63-1.26,1.26-.28.98.29,2,1.26,2.28l17.89,5.11,5.11,17.9c.17.59.63,1.08,1.26,1.26.98.28,2-.29,2.28-1.26l5.11-17.9,17.89-5.11c.59-.17,1.08-.63,1.26-1.26.28-.98-.29-1.99-1.26-2.27l-17.89-5.11-5.11-17.88c-.17-.59-.63-1.08-1.26-1.27-.98-.28-2,.29-2.27,1.27Z"/>
      <path class="cls-1" d="M659.14,941.2l-5.11,17.88-17.89,5.11c-.59.17-1.08.63-1.26,1.26-.28.98.29,2,1.26,2.28l17.89,5.11,5.11,17.9c.17.59.63,1.08,1.26,1.26.98.28,2-.29,2.28-1.26l5.11-17.9,17.89-5.11c.59-.17,1.08-.63,1.26-1.26.28-.98-.29-1.99-1.26-2.27l-17.89-5.11-5.11-17.88c-.17-.59-.63-1.08-1.26-1.27-.98-.28-2,.29-2.27,1.27Z"/>
      <path class="cls-1" d="M606.24,941.2l-5.11,17.88-17.89,5.11c-.59.17-1.08.63-1.26,1.26-.28.98.29,2,1.26,2.28l17.89,5.11,5.11,17.9c.17.59.63,1.08,1.26,1.26.98.28,2-.29,2.28-1.26l5.11-17.9,17.89-5.11c.59-.17,1.08-.63,1.26-1.26.28-.98-.29-1.99-1.26-2.27l-17.89-5.11-5.11-17.88c-.17-.59-.63-1.08-1.26-1.27-.98-.28-2,.29-2.27,1.27Z"/>
      <path class="cls-1" d="M553.34,941.2l-5.11,17.88-17.89,5.11c-.59.17-1.08.63-1.26,1.26-.28.98.29,2,1.26,2.28l17.89,5.11,5.11,17.9c.17.59.63,1.08,1.26,1.26.98.28,2-.29,2.28-1.26l5.11-17.9,17.89-5.11c.59-.17,1.08-.63,1.26-1.26.28-.98-.29-1.99-1.26-2.27l-17.89-5.11-5.11-17.88c-.17-.59-.63-1.08-1.26-1.27-.98-.28-2,.29-2.27,1.27Z"/>
      <path class="cls-1" d="M447.54,941.2l-5.11,17.88-17.89,5.11c-.59.17-1.08.63-1.26,1.26-.28.98.29,2,1.26,2.28l17.89,5.11,5.11,17.9c.17.59.63,1.08,1.26,1.26.98.28,2-.29,2.28-1.26l5.11-17.9,17.89-5.11c.59-.17,1.08-.63,1.26-1.26.28-.98-.29-1.99-1.26-2.27l-17.89-5.11-5.11-17.88c-.17-.59-.63-1.08-1.26-1.27-.98-.28-2,.29-2.27,1.27Z"/>
      <path class="cls-1" d="M870.74,888.98l-5.11,17.88-17.89,5.11c-.59.17-1.08.63-1.26,1.26-.28.98.29,2,1.26,2.28l17.89,5.11,5.11,17.9c.17.59.63,1.08,1.26,1.26.98.28,2-.29,2.28-1.26l5.11-17.9,17.89-5.11c.59-.17,1.08-.63,1.26-1.26.28-.98-.29-1.99-1.26-2.27l-17.89-5.11-5.11-17.88c-.17-.59-.63-1.08-1.26-1.27-.98-.28-2,.29-2.27,1.27Z"/>
      <path class="cls-1" d="M817.84,888.98l-5.11,17.88-17.89,5.11c-.59.17-1.08.63-1.26,1.26-.28.98.29,2,1.26,2.28l17.89,5.11,5.11,17.9c.17.59.63,1.08,1.26,1.26.98.28,2-.29,2.28-1.26l5.11-17.9,17.89-5.11c.59-.17,1.08-.63,1.26-1.26.28-.98-.29-1.99-1.26-2.27l-17.89-5.11-5.11-17.88c-.17-.59-.63-1.08-1.26-1.27-.98-.28-2,.29-2.27,1.27Z"/>
      <path class="cls-1" d="M500.44,888.98l-5.11,17.88-17.89,5.11c-.59.17-1.08.63-1.26,1.26-.28.98.29,2,1.26,2.28l17.89,5.11,5.11,17.9c.17.59.63,1.08,1.26,1.26.98.28,2-.29,2.28-1.26l5.11-17.9,17.89-5.11c.59-.17,1.08-.63,1.26-1.26.28-.98-.29-1.99-1.26-2.27l-17.89-5.11-5.11-17.88c-.17-.59-.63-1.08-1.26-1.27-.98-.28-2,.29-2.27,1.27Z"/>
      <path class="cls-1" d="M447.54,888.98l-5.11,17.88-17.89,5.11c-.59.17-1.08.63-1.26,1.26-.28.98.29,2,1.26,2.28l17.89,5.11,5.11,17.9c.17.59.63,1.08,1.26,1.26.98.28,2-.29,2.28-1.26l5.11-17.9,17.89-5.11c.59-.17,1.08-.63,1.26-1.26.28-.98-.29-1.99-1.26-2.27l-17.89-5.11-5.11-17.88c-.17-.59-.63-1.08-1.26-1.27-.98-.28-2,.29-2.27,1.27Z"/>
      <path class="cls-1" d="M1082.34,836.77l-5.11,17.88-17.89,5.11c-.59.17-1.08.63-1.26,1.26-.28.98.29,2,1.26,2.28l17.89,5.11,5.11,17.9c.17.59.63,1.08,1.26,1.26.98.28,2-.29,2.28-1.26l5.11-17.9,17.89-5.11c.59-.17,1.08-.63,1.26-1.26.28-.98-.29-1.99-1.26-2.27l-17.89-5.11-5.11-17.88c-.17-.59-.63-1.08-1.26-1.27-.98-.28-2,.29-2.27,1.27Z"/>
      <path class="cls-1" d="M1029.44,836.77l-5.11,17.88-17.89,5.11c-.59.17-1.08.63-1.26,1.26-.28.98.29,2,1.26,2.28l17.89,5.11,5.11,17.9c.17.59.63,1.08,1.26,1.26.98.28,2-.29,2.28-1.26l5.11-17.9,17.89-5.11c.59-.17,1.08-.63,1.26-1.26.28-.98-.29-1.99-1.26-2.27l-17.89-5.11-5.11-17.88c-.17-.59-.63-1.08-1.26-1.27-.98-.28-2,.29-2.27,1.27Z"/>
      <path class="cls-1" d="M976.54,836.77l-5.11,17.88-17.89,5.11c-.59.17-1.08.63-1.26,1.26-.28.98.29,2,1.26,2.28l17.89,5.11,5.11,17.9c.17.59.63,1.08,1.26,1.26.98.28,2-.29,2.28-1.26l5.11-17.9,17.89-5.11c.59-.17,1.08-.63,1.26-1.26.28-.98-.29-1.99-1.26-2.27l-17.89-5.11-5.11-17.88c-.17-.59-.63-1.08-1.26-1.27-.98-.28-2,.29-2.27,1.27Z"/>
      <path class="cls-1" d="M923.64,836.77l-5.11,17.88-17.89,5.11c-.59.17-1.08.63-1.26,1.26-.28.98.29,2,1.26,2.28l17.89,5.11,5.11,17.9c.17.59.63,1.08,1.26,1.26.98.28,2-.29,2.28-1.26l5.11-17.9,17.89-5.11c.59-.17,1.08-.63,1.26-1.26.28-.98-.29-1.99-1.26-2.27l-17.89-5.11-5.11-17.88c-.17-.59-.63-1.08-1.26-1.27-.98-.28-2,.29-2.27,1.27Z"/>
      <path class="cls-1" d="M817.84,836.77l-5.11,17.88-17.89,5.11c-.59.17-1.08.63-1.26,1.26-.28.98.29,2,1.26,2.28l17.89,5.11,5.11,17.9c.17.59.63,1.08,1.26,1.26.98.28,2-.29,2.28-1.26l5.11-17.9,17.89-5.11c.59-.17,1.08-.63,1.26-1.26.28-.98-.29-1.99-1.26-2.27l-17.89-5.11-5.11-17.88c-.17-.59-.63-1.08-1.26-1.27-.98-.28-2,.29-2.27,1.27Z"/>
      <path class="cls-1" d="M394.64,836.77l-5.11,17.88-17.89,5.11c-.59.17-1.08.63-1.26,1.26-.28.98.29,2,1.26,2.28l17.89,5.11,5.11,17.9c.17.59.63,1.08,1.26,1.26.98.28,2-.29,2.28-1.26l5.11-17.9,17.89-5.11c.59-.17,1.08-.63,1.26-1.26.28-.98-.29-1.99-1.26-2.27l-17.89-5.11-5.11-17.88c-.17-.59-.63-1.08-1.26-1.27-.98-.28-2,.29-2.27,1.27Z"/>
      <path class="cls-1" d="M341.74,836.77l-5.11,17.88-17.89,5.11c-.59.17-1.08.63-1.26,1.26-.28.98.29,2,1.26,2.28l17.89,5.11,5.11,17.9c.17.59.63,1.08,1.26,1.26.98.28,2-.29,2.28-1.26l5.11-17.9,17.89-5.11c.59-.17,1.08-.63,1.26-1.26.28-.98-.29-1.99-1.26-2.27l-17.89-5.11-5.11-17.88c-.17-.59-.63-1.08-1.26-1.27-.98-.28-2,.29-2.27,1.27Z"/>
      <path class="cls-1" d="M288.84,836.77l-5.11,17.88-17.89,5.11c-.59.17-1.08.63-1.26,1.26-.28.98.29,2,1.26,2.28l17.89,5.11,5.11,17.9c.17.59.63,1.08,1.26,1.26.98.28,2-.29,2.28-1.26l5.11-17.9,17.89-5.11c.59-.17,1.08-.63,1.26-1.26.28-.98-.29-1.99-1.26-2.27l-17.89-5.11-5.11-17.88c-.17-.59-.63-1.08-1.26-1.27-.98-.28-2,.29-2.27,1.27Z"/>
      <path class="cls-1" d="M235.94,836.77l-5.11,17.88-17.89,5.11c-.59.17-1.08.63-1.26,1.26-.28.98.29,2,1.26,2.28l17.89,5.11,5.11,17.9c.17.59.63,1.08,1.26,1.26.98.28,2-.29,2.28-1.26l5.11-17.9,17.89-5.11c.59-.17,1.08-.63,1.26-1.26.28-.98-.29-1.99-1.26-2.27l-17.89-5.11-5.11-17.88c-.17-.59-.63-1.08-1.26-1.27-.98-.28-2,.29-2.27,1.27Z"/>
      <path class="cls-1" d="M1135.24,784.55l-5.11,17.88-17.89,5.11c-.59.17-1.08.63-1.26,1.26-.28.98.29,2,1.26,2.28l17.89,5.11,5.11,17.9c.17.59.63,1.08,1.26,1.26.98.28,2-.29,2.28-1.26l5.11-17.9,17.89-5.11c.59-.17,1.08-.63,1.26-1.26.28-.98-.29-1.99-1.26-2.27l-17.89-5.11-5.11-17.88c-.17-.59-.63-1.08-1.26-1.27-.98-.28-2,.29-2.27,1.27Z"/>
      <path class="cls-1" d="M1082.34,784.55l-5.11,17.88-17.89,5.11c-.59.17-1.08.63-1.26,1.26-.28.98.29,2,1.26,2.28l17.89,5.11,5.11,17.9c.17.59.63,1.08,1.26,1.26.98.28,2-.29,2.28-1.26l5.11-17.9,17.89-5.11c.59-.17,1.08-.63,1.26-1.26.28-.98-.29-1.99-1.26-2.27l-17.89-5.11-5.11-17.88c-.17-.59-.63-1.08-1.26-1.27-.98-.28-2,.29-2.27,1.27Z"/>
      <path class="cls-1" d="M923.64,784.55l-5.11,17.88-17.89,5.11c-.59.17-1.08.63-1.26,1.26-.28.98.29,2,1.26,2.28l17.89,5.11,5.11,17.9c.17.59.63,1.08,1.26,1.26.98.28,2-.29,2.28-1.26l5.11-17.9,17.89-5.11c.59-.17,1.08-.63,1.26-1.26.28-.98-.29-1.99-1.26-2.27l-17.89-5.11-5.11-17.88c-.17-.59-.63-1.08-1.26-1.27-.98-.28-2,.29-2.27,1.27Z"/>
      <path class="cls-1" d="M870.74,784.55l-5.11,17.88-17.89,5.11c-.59.17-1.08.63-1.26,1.26-.28.98.29,2,1.26,2.28l17.89,5.11,5.11,17.9c.17.59.63,1.08,1.26,1.26.98.28,2-.29,2.28-1.26l5.11-17.9,17.89-5.11c.59-.17,1.08-.63,1.26-1.26.28-.98-.29-1.99-1.26-2.27l-17.89-5.11-5.11-17.88c-.17-.59-.63-1.08-1.26-1.27-.98-.28-2,.29-2.27,1.27Z"/>
      <path class="cls-1" d="M447.54,784.55l-5.11,17.88-17.89,5.11c-.59.17-1.08.63-1.26,1.26-.28.98.29,2,1.26,2.28l17.89,5.11,5.11,17.9c.17.59.63,1.08,1.26,1.26.98.28,2-.29,2.28-1.26l5.11-17.9,17.89-5.11c.59-.17,1.08-.63,1.26-1.26.28-.98-.29-1.99-1.26-2.27l-17.89-5.11-5.11-17.88c-.17-.59-.63-1.08-1.26-1.27-.98-.28-2,.29-2.27,1.27Z"/>
      <path class="cls-1" d="M394.64,784.55l-5.11,17.88-17.89,5.11c-.59.17-1.08.63-1.26,1.26-.28.98.29,2,1.26,2.28l17.89,5.11,5.11,17.9c.17.59.63,1.08,1.26,1.26.98.28,2-.29,2.28-1.26l5.11-17.9,17.89-5.11c.59-.17,1.08-.63,1.26-1.26.28-.98-.29-1.99-1.26-2.27l-17.89-5.11-5.11-17.88c-.17-.59-.63-1.08-1.26-1.27-.98-.28-2,.29-2.27,1.27Z"/>
      <path class="cls-1" d="M235.94,784.55l-5.11,17.88-17.89,5.11c-.59.17-1.08.63-1.26,1.26-.28.98.29,2,1.26,2.28l17.89,5.11,5.11,17.9c.17.59.63,1.08,1.26,1.26.98.28,2-.29,2.28-1.26l5.11-17.9,17.89-5.11c.59-.17,1.08-.63,1.26-1.26.28-.98-.29-1.99-1.26-2.27l-17.89-5.11-5.11-17.88c-.17-.59-.63-1.08-1.26-1.27-.98-.28-2,.29-2.27,1.27Z"/>
      <path class="cls-1" d="M183.04,784.55l-5.11,17.88-17.89,5.11c-.59.17-1.08.63-1.26,1.26-.28.98.29,2,1.26,2.28l17.89,5.11,5.11,17.9c.17.59.63,1.08,1.26,1.26.98.28,2-.29,2.28-1.26l5.11-17.9,17.89-5.11c.59-.17,1.08-.63,1.26-1.26.28-.98-.29-1.99-1.26-2.27l-17.89-5.11-5.11-17.88c-.17-.59-.63-1.08-1.26-1.27-.98-.28-2,.29-2.27,1.27Z"/>
      <path class="cls-1" d="M1188.14,732.34l-5.11,17.88-17.89,5.11c-.59.17-1.08.63-1.26,1.26-.28.98.29,2,1.26,2.28l17.89,5.11,5.11,17.9c.17.59.63,1.08,1.26,1.26.98.28,2-.29,2.28-1.26l5.11-17.9,17.89-5.11c.59-.17,1.08-.63,1.26-1.26.28-.98-.29-1.99-1.26-2.27l-17.89-5.11-5.11-17.88c-.17-.59-.63-1.08-1.26-1.27-.98-.28-2,.29-2.27,1.27Z"/>
      <path class="cls-1" d="M1135.24,732.34l-5.11,17.88-17.89,5.11c-.59.17-1.08.63-1.26,1.26-.28.98.29,2,1.26,2.28l17.89,5.11,5.11,17.9c.17.59.63,1.08,1.26,1.26.98.28,2-.29,2.28-1.26l5.11-17.9,17.89-5.11c.59-.17,1.08-.63,1.26-1.26.28-.98-.29-1.99-1.26-2.27l-17.89-5.11-5.11-17.88c-.17-.59-.63-1.08-1.26-1.27-.98-.28-2,.29-2.27,1.27Z"/>
      <path class="cls-1" d="M341.74,732.34l-5.11,17.88-17.89,5.11c-.59.17-1.08.63-1.26,1.26-.28.98.29,2,1.26,2.28l17.89,5.11,5.11,17.9c.17.59.63,1.08,1.26,1.26.98.28,2-.29,2.28-1.26l5.11-17.9,17.89-5.11c.59-.17,1.08-.63,1.26-1.26.28-.98-.29-1.99-1.26-2.27l-17.89-5.11-5.11-17.88c-.17-.59-.63-1.08-1.26-1.27-.98-.28-2,.29-2.27,1.27Z"/>
      <path class="cls-1" d="M183.04,732.34l-5.11,17.88-17.89,5.11c-.59.17-1.08.63-1.26,1.26-.28.98.29,2,1.26,2.28l17.89,5.11,5.11,17.9c.17.59.63,1.08,1.26,1.26.98.28,2-.29,2.28-1.26l5.11-17.9,17.89-5.11c.59-.17,1.08-.63,1.26-1.26.28-.98-.29-1.99-1.26-2.27l-17.89-5.11-5.11-17.88c-.17-.59-.63-1.08-1.26-1.27-.98-.28-2,.29-2.27,1.27Z"/>
      <path class="cls-1" d="M130.14,732.34l-5.11,17.88-17.89,5.11c-.59.17-1.08.63-1.26,1.26-.28.98.29,2,1.26,2.28l17.89,5.11,5.11,17.9c.17.59.63,1.08,1.26,1.26.98.28,2-.29,2.28-1.26l5.11-17.9,17.89-5.11c.59-.17,1.08-.63,1.26-1.26.28-.98-.29-1.99-1.26-2.27l-17.89-5.11-5.11-17.88c-.17-.59-.63-1.08-1.26-1.27-.98-.28-2,.29-2.27,1.27Z"/>
      <path class="cls-1" d="M1241.04,680.12l-5.11,17.88-17.89,5.11c-.59.17-1.08.63-1.26,1.26-.28.98.29,2,1.26,2.28l17.89,5.11,5.11,17.9c.17.59.63,1.08,1.26,1.26.98.28,2-.29,2.28-1.26l5.11-17.9,17.89-5.11c.59-.17,1.08-.63,1.26-1.26.28-.98-.29-1.99-1.26-2.27l-17.89-5.11-5.11-17.88c-.17-.59-.63-1.08-1.26-1.27-.98-.28-2,.29-2.27,1.27Z"/>
      <path class="cls-1" d="M1188.14,680.12l-5.11,17.88-17.89,5.11c-.59.17-1.08.63-1.26,1.26-.28.98.29,2,1.26,2.28l17.89,5.11,5.11,17.9c.17.59.63,1.08,1.26,1.26.98.28,2-.29,2.28-1.26l5.11-17.9,17.89-5.11c.59-.17,1.08-.63,1.26-1.26.28-.98-.29-1.99-1.26-2.27l-17.89-5.11-5.11-17.88c-.17-.59-.63-1.08-1.26-1.27-.98-.28-2,.29-2.27,1.27Z"/>
      <path class="cls-1" d="M1029.44,680.12l-5.11,17.88-17.89,5.11c-.59.17-1.08.63-1.26,1.26-.28.98.29,2,1.26,2.28l17.89,5.11,5.11,17.9c.17.59.63,1.08,1.26,1.26.98.28,2-.29,2.28-1.26l5.11-17.9,17.89-5.11c.59-.17,1.08-.63,1.26-1.26.28-.98-.29-1.99-1.26-2.27l-17.89-5.11-5.11-17.88c-.17-.59-.63-1.08-1.26-1.27-.98-.28-2,.29-2.27,1.27Z"/>
      <path class="cls-1" d="M976.54,680.12l-5.11,17.88-17.89,5.11c-.59.17-1.08.63-1.26,1.26-.28.98.29,2,1.26,2.28l17.89,5.11,5.11,17.9c.17.59.63,1.08,1.26,1.26.98.28,2-.29,2.28-1.26l5.11-17.9,17.89-5.11c.59-.17,1.08-.63,1.26-1.26.28-.98-.29-1.99-1.26-2.27l-17.89-5.11-5.11-17.88c-.17-.59-.63-1.08-1.26-1.27-.98-.28-2,.29-2.27,1.27Z"/>
      <path class="cls-1" d="M976.54,732.34l-5.11,17.88-17.89,5.11c-.59.17-1.08.63-1.26,1.26-.28.98.29,2,1.26,2.28l17.89,5.11,5.11,17.9c.17.59.63,1.08,1.26,1.26.98.28,2-.29,2.28-1.26l5.11-17.9,17.89-5.11c.59-.17,1.08-.63,1.26-1.26.28-.98-.29-1.99-1.26-2.27l-17.89-5.11-5.11-17.88c-.17-.59-.63-1.08-1.26-1.27-.98-.28-2,.29-2.27,1.27Z"/>
      <path class="cls-1" d="M341.74,680.12l-5.11,17.88-17.89,5.11c-.59.17-1.08.63-1.26,1.26-.28.98.29,2,1.26,2.28l17.89,5.11,5.11,17.9c.17.59.63,1.08,1.26,1.26.98.28,2-.29,2.28-1.26l5.11-17.9,17.89-5.11c.59-.17,1.08-.63,1.26-1.26.28-.98-.29-1.99-1.26-2.27l-17.89-5.11-5.11-17.88c-.17-.59-.63-1.08-1.26-1.27-.98-.28-2,.29-2.27,1.27Z"/>
      <path class="cls-1" d="M288.84,680.12l-5.11,17.88-17.89,5.11c-.59.17-1.08.63-1.26,1.26-.28.98.29,2,1.26,2.28l17.89,5.11,5.11,17.9c.17.59.63,1.08,1.26,1.26.98.28,2-.29,2.28-1.26l5.11-17.9,17.89-5.11c.59-.17,1.08-.63,1.26-1.26.28-.98-.29-1.99-1.26-2.27l-17.89-5.11-5.11-17.88c-.17-.59-.63-1.08-1.26-1.27-.98-.28-2,.29-2.27,1.27Z"/>
      <path class="cls-1" d="M130.14,680.12l-5.11,17.88-17.89,5.11c-.59.17-1.08.63-1.26,1.26-.28.98.29,2,1.26,2.28l17.89,5.11,5.11,17.9c.17.59.63,1.08,1.26,1.26.98.28,2-.29,2.28-1.26l5.11-17.9,17.89-5.11c.59-.17,1.08-.63,1.26-1.26.28-.98-.29-1.99-1.26-2.27l-17.89-5.11-5.11-17.88c-.17-.59-.63-1.08-1.26-1.27-.98-.28-2,.29-2.27,1.27Z"/>
      <path class="cls-1" d="M77.24,680.12l-5.11,17.88-17.89,5.11c-.59.17-1.08.63-1.26,1.26-.28.98.29,2,1.26,2.28l17.89,5.11,5.11,17.9c.17.59.63,1.08,1.26,1.26.98.28,2-.29,2.28-1.26l5.11-17.9,17.89-5.11c.59-.17,1.08-.63,1.26-1.26.28-.98-.29-1.99-1.26-2.27l-17.89-5.11-5.11-17.88c-.17-.59-.63-1.08-1.26-1.27-.98-.28-2,.29-2.27,1.27Z"/>
      <path class="cls-1" d="M1293.94,627.91l-5.11,17.88-17.89,5.11c-.59.17-1.08.63-1.26,1.26-.28.98.29,2,1.26,2.28l17.89,5.11,5.11,17.9c.17.59.63,1.08,1.26,1.26.98.28,2-.29,2.28-1.26l5.11-17.9,17.89-5.11c.59-.17,1.08-.63,1.26-1.26.28-.98-.29-1.99-1.26-2.27l-17.89-5.11-5.11-17.88c-.17-.59-.63-1.08-1.26-1.27-.98-.28-2,.29-2.27,1.27Z"/>
      <path class="cls-1" d="M1241.04,627.91l-5.11,17.88-17.89,5.11c-.59.17-1.08.63-1.26,1.26-.28.98.29,2,1.26,2.28l17.89,5.11,5.11,17.9c.17.59.63,1.08,1.26,1.26.98.28,2-.29,2.28-1.26l5.11-17.9,17.89-5.11c.59-.17,1.08-.63,1.26-1.26.28-.98-.29-1.99-1.26-2.27l-17.89-5.11-5.11-17.88c-.17-.59-.63-1.08-1.26-1.27-.98-.28-2,.29-2.27,1.27Z"/>
      <path class="cls-1" d="M1082.34,627.91l-5.11,17.88-17.89,5.11c-.59.17-1.08.63-1.26,1.26-.28.98.29,2,1.26,2.28l17.89,5.11,5.11,17.9c.17.59.63,1.08,1.26,1.26.98.28,2-.29,2.28-1.26l5.11-17.9,17.89-5.11c.59-.17,1.08-.63,1.26-1.26.28-.98-.29-1.99-1.26-2.27l-17.89-5.11-5.11-17.88c-.17-.59-.63-1.08-1.26-1.27-.98-.28-2,.29-2.27,1.27Z"/>
      <path class="cls-1" d="M1029.44,627.91l-5.11,17.88-17.89,5.11c-.59.17-1.08.63-1.26,1.26-.28.98.29,2,1.26,2.28l17.89,5.11,5.11,17.9c.17.59.63,1.08,1.26,1.26.98.28,2-.29,2.28-1.26l5.11-17.9,17.89-5.11c.59-.17,1.08-.63,1.26-1.26.28-.98-.29-1.99-1.26-2.27l-17.89-5.11-5.11-17.88c-.17-.59-.63-1.08-1.26-1.27-.98-.28-2,.29-2.27,1.27Z"/>
      <path class="cls-1" d="M976.54,627.91l-5.11,17.88-17.89,5.11c-.59.17-1.08.63-1.26,1.26-.28.98.29,2,1.26,2.28l17.89,5.11,5.11,17.9c.17.59.63,1.08,1.26,1.26.98.28,2-.29,2.28-1.26l5.11-17.9,17.89-5.11c.59-.17,1.08-.63,1.26-1.26.28-.98-.29-1.99-1.26-2.27l-17.89-5.11-5.11-17.88c-.17-.59-.63-1.08-1.26-1.27-.98-.28-2,.29-2.27,1.27Z"/>
      <path class="cls-1" d="M341.74,627.91l-5.11,17.88-17.89,5.11c-.59.17-1.08.63-1.26,1.26-.28.98.29,2,1.26,2.28l17.89,5.11,5.11,17.9c.17.59.63,1.08,1.26,1.26.98.28,2-.29,2.28-1.26l5.11-17.9,17.89-5.11c.59-.17,1.08-.63,1.26-1.26.28-.98-.29-1.99-1.26-2.27l-17.89-5.11-5.11-17.88c-.17-.59-.63-1.08-1.26-1.27-.98-.28-2,.29-2.27,1.27Z"/>
      <path class="cls-1" d="M288.84,627.91l-5.11,17.88-17.89,5.11c-.59.17-1.08.63-1.26,1.26-.28.98.29,2,1.26,2.28l17.89,5.11,5.11,17.9c.17.59.63,1.08,1.26,1.26.98.28,2-.29,2.28-1.26l5.11-17.9,17.89-5.11c.59-.17,1.08-.63,1.26-1.26.28-.98-.29-1.99-1.26-2.27l-17.89-5.11-5.11-17.88c-.17-.59-.63-1.08-1.26-1.27-.98-.28-2,.29-2.27,1.27Z"/>
      <path class="cls-1" d="M235.94,627.91l-5.11,17.88-17.89,5.11c-.59.17-1.08.63-1.26,1.26-.28.98.29,2,1.26,2.28l17.89,5.11,5.11,17.9c.17.59.63,1.08,1.26,1.26.98.28,2-.29,2.28-1.26l5.11-17.9,17.89-5.11c.59-.17,1.08-.63,1.26-1.26.28-.98-.29-1.99-1.26-2.27l-17.89-5.11-5.11-17.88c-.17-.59-.63-1.08-1.26-1.27-.98-.28-2,.29-2.27,1.27Z"/>
      <path class="cls-1" d="M77.24,627.91l-5.11,17.88-17.89,5.11c-.59.17-1.08.63-1.26,1.26-.28.98.29,2,1.26,2.28l17.89,5.11,5.11,17.9c.17.59.63,1.08,1.26,1.26.98.28,2-.29,2.28-1.26l5.11-17.9,17.89-5.11c.59-.17,1.08-.63,1.26-1.26.28-.98-.29-1.99-1.26-2.27l-17.89-5.11-5.11-17.88c-.17-.59-.63-1.08-1.26-1.27-.98-.28-2,.29-2.27,1.27Z"/>
      <path class="cls-1" d="M24.34,627.91l-5.11,17.88-17.89,5.11c-.59.17-1.08.63-1.26,1.26-.28.98.29,2,1.26,2.28l17.89,5.11,5.11,17.9c.17.59.63,1.08,1.26,1.26.98.28,2-.29,2.28-1.26l5.11-17.9,17.89-5.11c.59-.17,1.08-.63,1.26-1.26.28-.98-.29-1.99-1.26-2.27l-17.89-5.11-5.11-17.88c-.17-.59-.63-1.08-1.26-1.27-.98-.28-2,.29-2.27,1.27Z"/>
      <path class="cls-1" d="M1241.04,575.7l-5.11,17.88-17.89,5.11c-.59.17-1.08.63-1.26,1.26-.28.98.29,2,1.26,2.28l17.89,5.11,5.11,17.9c.17.59.63,1.08,1.26,1.26.98.28,2-.29,2.28-1.26l5.11-17.9,17.89-5.11c.59-.17,1.08-.63,1.26-1.26.28-.98-.29-1.99-1.26-2.27l-17.89-5.11-5.11-17.88c-.17-.59-.63-1.08-1.26-1.27-.98-.28-2,.29-2.27,1.27Z"/>
      <path class="cls-1" d="M1188.14,575.7l-5.11,17.88-17.89,5.11c-.59.17-1.08.63-1.26,1.26-.28.98.29,2,1.26,2.28l17.89,5.11,5.11,17.9c.17.59.63,1.08,1.26,1.26.98.28,2-.29,2.28-1.26l5.11-17.9,17.89-5.11c.59-.17,1.08-.63,1.26-1.26.28-.98-.29-1.99-1.26-2.27l-17.89-5.11-5.11-17.88c-.17-.59-.63-1.08-1.26-1.27-.98-.28-2,.29-2.27,1.27Z"/>
      <path class="cls-1" d="M1029.44,575.7l-5.11,17.88-17.89,5.11c-.59.17-1.08.63-1.26,1.26-.28.98.29,2,1.26,2.28l17.89,5.11,5.11,17.9c.17.59.63,1.08,1.26,1.26.98.28,2-.29,2.28-1.26l5.11-17.9,17.89-5.11c.59-.17,1.08-.63,1.26-1.26.28-.98-.29-1.99-1.26-2.27l-17.89-5.11-5.11-17.88c-.17-.59-.63-1.08-1.26-1.27-.98-.28-2,.29-2.27,1.27Z"/>
      <path class="cls-1" d="M976.54,575.7l-5.11,17.88-17.89,5.11c-.59.17-1.08.63-1.26,1.26-.28.98.29,2,1.26,2.28l17.89,5.11,5.11,17.9c.17.59.63,1.08,1.26,1.26.98.28,2-.29,2.28-1.26l5.11-17.9,17.89-5.11c.59-.17,1.08-.63,1.26-1.26.28-.98-.29-1.99-1.26-2.27l-17.89-5.11-5.11-17.88c-.17-.59-.63-1.08-1.26-1.27-.98-.28-2,.29-2.27,1.27Z"/>
      <path class="cls-1" d="M976.54,523.48l-5.11,17.88-17.89,5.11c-.59.17-1.08.63-1.26,1.26-.28.98.29,2,1.26,2.28l17.89,5.11,5.11,17.9c.17.59.63,1.08,1.26,1.26.98.28,2-.29,2.28-1.26l5.11-17.9,17.89-5.11c.59-.17,1.08-.63,1.26-1.26.28-.98-.29-1.99-1.26-2.27l-17.89-5.11-5.11-17.88c-.17-.59-.63-1.08-1.26-1.27-.98-.28-2,.29-2.27,1.27Z"/>
      <path class="cls-1" d="M341.74,575.7l-5.11,17.88-17.89,5.11c-.59.17-1.08.63-1.26,1.26-.28.98.29,2,1.26,2.28l17.89,5.11,5.11,17.9c.17.59.63,1.08,1.26,1.26.98.28,2-.29,2.28-1.26l5.11-17.9,17.89-5.11c.59-.17,1.08-.63,1.26-1.26.28-.98-.29-1.99-1.26-2.27l-17.89-5.11-5.11-17.88c-.17-.59-.63-1.08-1.26-1.27-.98-.28-2,.29-2.27,1.27Z"/>
      <path class="cls-1" d="M288.84,575.7l-5.11,17.88-17.89,5.11c-.59.17-1.08.63-1.26,1.26-.28.98.29,2,1.26,2.28l17.89,5.11,5.11,17.9c.17.59.63,1.08,1.26,1.26.98.28,2-.29,2.28-1.26l5.11-17.9,17.89-5.11c.59-.17,1.08-.63,1.26-1.26.28-.98-.29-1.99-1.26-2.27l-17.89-5.11-5.11-17.88c-.17-.59-.63-1.08-1.26-1.27-.98-.28-2,.29-2.27,1.27Z"/>
      <path class="cls-1" d="M130.14,575.7l-5.11,17.88-17.89,5.11c-.59.17-1.08.63-1.26,1.26-.28.98.29,2,1.26,2.28l17.89,5.11,5.11,17.9c.17.59.63,1.08,1.26,1.26.98.28,2-.29,2.28-1.26l5.11-17.9,17.89-5.11c.59-.17,1.08-.63,1.26-1.26.28-.98-.29-1.99-1.26-2.27l-17.89-5.11-5.11-17.88c-.17-.59-.63-1.08-1.26-1.27-.98-.28-2,.29-2.27,1.27Z"/>
      <path class="cls-1" d="M77.24,575.7l-5.11,17.88-17.89,5.11c-.59.17-1.08.63-1.26,1.26-.28.98.29,2,1.26,2.28l17.89,5.11,5.11,17.9c.17.59.63,1.08,1.26,1.26.98.28,2-.29,2.28-1.26l5.11-17.9,17.89-5.11c.59-.17,1.08-.63,1.26-1.26.28-.98-.29-1.99-1.26-2.27l-17.89-5.11-5.11-17.88c-.17-.59-.63-1.08-1.26-1.27-.98-.28-2,.29-2.27,1.27Z"/>
      <path class="cls-1" d="M1188.14,523.48l-5.11,17.88-17.89,5.11c-.59.17-1.08.63-1.26,1.26-.28.98.29,2,1.26,2.28l17.89,5.11,5.11,17.9c.17.59.63,1.08,1.26,1.26.98.28,2-.29,2.28-1.26l5.11-17.9,17.89-5.11c.59-.17,1.08-.63,1.26-1.26.28-.98-.29-1.99-1.26-2.27l-17.89-5.11-5.11-17.88c-.17-.59-.63-1.08-1.26-1.27-.98-.28-2,.29-2.27,1.27Z"/>
      <path class="cls-1" d="M1135.24,523.48l-5.11,17.88-17.89,5.11c-.59.17-1.08.63-1.26,1.26-.28.98.29,2,1.26,2.28l17.89,5.11,5.11,17.9c.17.59.63,1.08,1.26,1.26.98.28,2-.29,2.28-1.26l5.11-17.9,17.89-5.11c.59-.17,1.08-.63,1.26-1.26.28-.98-.29-1.99-1.26-2.27l-17.89-5.11-5.11-17.88c-.17-.59-.63-1.08-1.26-1.27-.98-.28-2,.29-2.27,1.27Z"/>
      <path class="cls-1" d="M341.74,523.48l-5.11,17.88-17.89,5.11c-.59.17-1.08.63-1.26,1.26-.28.98.29,2,1.26,2.28l17.89,5.11,5.11,17.9c.17.59.63,1.08,1.26,1.26.98.28,2-.29,2.28-1.26l5.11-17.9,17.89-5.11c.59-.17,1.08-.63,1.26-1.26.28-.98-.29-1.99-1.26-2.27l-17.89-5.11-5.11-17.88c-.17-.59-.63-1.08-1.26-1.27-.98-.28-2,.29-2.27,1.27Z"/>
      <path class="cls-1" d="M183.04,523.48l-5.11,17.88-17.89,5.11c-.59.17-1.08.63-1.26,1.26-.28.98.29,2,1.26,2.28l17.89,5.11,5.11,17.9c.17.59.63,1.08,1.26,1.26.98.28,2-.29,2.28-1.26l5.11-17.9,17.89-5.11c.59-.17,1.08-.63,1.26-1.26.28-.98-.29-1.99-1.26-2.27l-17.89-5.11-5.11-17.88c-.17-.59-.63-1.08-1.26-1.27-.98-.28-2,.29-2.27,1.27Z"/>
      <path class="cls-1" d="M130.14,523.48l-5.11,17.88-17.89,5.11c-.59.17-1.08.63-1.26,1.26-.28.98.29,2,1.26,2.28l17.89,5.11,5.11,17.9c.17.59.63,1.08,1.26,1.26.98.28,2-.29,2.28-1.26l5.11-17.9,17.89-5.11c.59-.17,1.08-.63,1.26-1.26.28-.98-.29-1.99-1.26-2.27l-17.89-5.11-5.11-17.88c-.17-.59-.63-1.08-1.26-1.27-.98-.28-2,.29-2.27,1.27Z"/>
      <path class="cls-1" d="M1135.24,471.27l-5.11,17.88-17.89,5.11c-.59.17-1.08.63-1.26,1.26-.28.98.29,2,1.26,2.28l17.89,5.11,5.11,17.9c.17.59.63,1.08,1.26,1.26.98.28,2-.29,2.28-1.26l5.11-17.9,17.89-5.11c.59-.17,1.08-.63,1.26-1.26.28-.98-.29-1.99-1.26-2.27l-17.89-5.11-5.11-17.88c-.17-.59-.63-1.08-1.26-1.27-.98-.28-2,.29-2.27,1.27Z"/>
      <path class="cls-1" d="M1082.34,471.27l-5.11,17.88-17.89,5.11c-.59.17-1.08.63-1.26,1.26-.28.98.29,2,1.26,2.28l17.89,5.11,5.11,17.9c.17.59.63,1.08,1.26,1.26.98.28,2-.29,2.28-1.26l5.11-17.9,17.89-5.11c.59-.17,1.08-.63,1.26-1.26.28-.98-.29-1.99-1.26-2.27l-17.89-5.11-5.11-17.88c-.17-.59-.63-1.08-1.26-1.27-.98-.28-2,.29-2.27,1.27Z"/>
      <path class="cls-1" d="M923.64,471.27l-5.11,17.88-17.89,5.11c-.59.17-1.08.63-1.26,1.26-.28.98.29,2,1.26,2.28l17.89,5.11,5.11,17.9c.17.59.63,1.08,1.26,1.26.98.28,2-.29,2.28-1.26l5.11-17.9,17.89-5.11c.59-.17,1.08-.63,1.26-1.26.28-.98-.29-1.99-1.26-2.27l-17.89-5.11-5.11-17.88c-.17-.59-.63-1.08-1.26-1.27-.98-.28-2,.29-2.27,1.27Z"/>
      <path class="cls-1" d="M870.74,471.27l-5.11,17.88-17.89,5.11c-.59.17-1.08.63-1.26,1.26-.28.98.29,2,1.26,2.28l17.89,5.11,5.11,17.9c.17.59.63,1.08,1.26,1.26.98.28,2-.29,2.28-1.26l5.11-17.9,17.89-5.11c.59-.17,1.08-.63,1.26-1.26.28-.98-.29-1.99-1.26-2.27l-17.89-5.11-5.11-17.88c-.17-.59-.63-1.08-1.26-1.27-.98-.28-2,.29-2.27,1.27Z"/>
      <path class="cls-1" d="M447.54,471.27l-5.11,17.88-17.89,5.11c-.59.17-1.08.63-1.26,1.26-.28.98.29,2,1.26,2.28l17.89,5.11,5.11,17.9c.17.59.63,1.08,1.26,1.26.98.28,2-.29,2.28-1.26l5.11-17.9,17.89-5.11c.59-.17,1.08-.63,1.26-1.26.28-.98-.29-1.99-1.26-2.27l-17.89-5.11-5.11-17.88c-.17-.59-.63-1.08-1.26-1.27-.98-.28-2,.29-2.27,1.27Z"/>
      <path class="cls-1" d="M394.64,471.27l-5.11,17.88-17.89,5.11c-.59.17-1.08.63-1.26,1.26-.28.98.29,2,1.26,2.28l17.89,5.11,5.11,17.9c.17.59.63,1.08,1.26,1.26.98.28,2-.29,2.28-1.26l5.11-17.9,17.89-5.11c.59-.17,1.08-.63,1.26-1.26.28-.98-.29-1.99-1.26-2.27l-17.89-5.11-5.11-17.88c-.17-.59-.63-1.08-1.26-1.27-.98-.28-2,.29-2.27,1.27Z"/>
      <path class="cls-1" d="M235.94,471.27l-5.11,17.88-17.89,5.11c-.59.17-1.08.63-1.26,1.26-.28.98.29,2,1.26,2.28l17.89,5.11,5.11,17.9c.17.59.63,1.08,1.26,1.26.98.28,2-.29,2.28-1.26l5.11-17.9,17.89-5.11c.59-.17,1.08-.63,1.26-1.26.28-.98-.29-1.99-1.26-2.27l-17.89-5.11-5.11-17.88c-.17-.59-.63-1.08-1.26-1.27-.98-.28-2,.29-2.27,1.27Z"/>
      <path class="cls-1" d="M183.04,471.27l-5.11,17.88-17.89,5.11c-.59.17-1.08.63-1.26,1.26-.28.98.29,2,1.26,2.28l17.89,5.11,5.11,17.9c.17.59.63,1.08,1.26,1.26.98.28,2-.29,2.28-1.26l5.11-17.9,17.89-5.11c.59-.17,1.08-.63,1.26-1.26.28-.98-.29-1.99-1.26-2.27l-17.89-5.11-5.11-17.88c-.17-.59-.63-1.08-1.26-1.27-.98-.28-2,.29-2.27,1.27Z"/>
      <path class="cls-1" d="M1082.34,419.05l-5.11,17.88-17.89,5.11c-.59.17-1.08.63-1.26,1.26-.28.98.29,2,1.26,2.28l17.89,5.11,5.11,17.9c.17.59.63,1.08,1.26,1.26.98.28,2-.29,2.28-1.26l5.11-17.9,17.89-5.11c.59-.17,1.08-.63,1.26-1.26.28-.98-.29-1.99-1.26-2.27l-17.89-5.11-5.11-17.88c-.17-.59-.63-1.08-1.26-1.27-.98-.28-2,.29-2.27,1.27Z"/>
      <path class="cls-1" d="M1029.44,419.05l-5.11,17.88-17.89,5.11c-.59.17-1.08.63-1.26,1.26-.28.98.29,2,1.26,2.28l17.89,5.11,5.11,17.9c.17.59.63,1.08,1.26,1.26.98.28,2-.29,2.28-1.26l5.11-17.9,17.89-5.11c.59-.17,1.08-.63,1.26-1.26.28-.98-.29-1.99-1.26-2.27l-17.89-5.11-5.11-17.88c-.17-.59-.63-1.08-1.26-1.27-.98-.28-2,.29-2.27,1.27Z"/>
      <path class="cls-1" d="M976.54,419.05l-5.11,17.88-17.89,5.11c-.59.17-1.08.63-1.26,1.26-.28.98.29,2,1.26,2.28l17.89,5.11,5.11,17.9c.17.59.63,1.08,1.26,1.26.98.28,2-.29,2.28-1.26l5.11-17.9,17.89-5.11c.59-.17,1.08-.63,1.26-1.26.28-.98-.29-1.99-1.26-2.27l-17.89-5.11-5.11-17.88c-.17-.59-.63-1.08-1.26-1.27-.98-.28-2,.29-2.27,1.27Z"/>
      <path class="cls-1" d="M923.64,419.05l-5.11,17.88-17.89,5.11c-.59.17-1.08.63-1.26,1.26-.28.98.29,2,1.26,2.28l17.89,5.11,5.11,17.9c.17.59.63,1.08,1.26,1.26.98.28,2-.29,2.28-1.26l5.11-17.9,17.89-5.11c.59-.17,1.08-.63,1.26-1.26.28-.98-.29-1.99-1.26-2.27l-17.89-5.11-5.11-17.88c-.17-.59-.63-1.08-1.26-1.27-.98-.28-2,.29-2.27,1.27Z"/>
      <path class="cls-1" d="M817.84,419.05l-5.11,17.88-17.89,5.11c-.59.17-1.08.63-1.26,1.26-.28.98.29,2,1.26,2.28l17.89,5.11,5.11,17.9c.17.59.63,1.08,1.26,1.26.98.28,2-.29,2.28-1.26l5.11-17.9,17.89-5.11c.59-.17,1.08-.63,1.26-1.26.28-.98-.29-1.99-1.26-2.27l-17.89-5.11-5.11-17.88c-.17-.59-.63-1.08-1.26-1.27-.98-.28-2,.29-2.27,1.27Z"/>
      <path class="cls-1" d="M764.94,314.62l-5.11,17.88-17.89,5.11c-.59.17-1.08.63-1.26,1.26-.28.98.29,2,1.26,2.28l17.89,5.11,5.11,17.9c.17.59.63,1.08,1.26,1.26.98.28,2-.29,2.28-1.26l5.11-17.9,17.89-5.11c.59-.17,1.08-.63,1.26-1.26.28-.98-.29-1.99-1.26-2.27l-17.89-5.11-5.11-17.88c-.17-.59-.63-1.08-1.26-1.27-.98-.28-2,.29-2.27,1.27Z"/>
      <path class="cls-1" d="M500.44,419.05l-5.11,17.88-17.89,5.11c-.59.17-1.08.63-1.26,1.26-.28.98.29,2,1.26,2.28l17.89,5.11,5.11,17.9c.17.59.63,1.08,1.26,1.26.98.28,2-.29,2.28-1.26l5.11-17.9,17.89-5.11c.59-.17,1.08-.63,1.26-1.26.28-.98-.29-1.99-1.26-2.27l-17.89-5.11-5.11-17.88c-.17-.59-.63-1.08-1.26-1.27-.98-.28-2,.29-2.27,1.27Z"/>
      <path class="cls-1" d="M500.44,471.27l-5.11,17.88-17.89,5.11c-.59.17-1.08.63-1.26,1.26-.28.98.29,2,1.26,2.28l17.89,5.11,5.11,17.9c.17.59.63,1.08,1.26,1.26.98.28,2-.29,2.28-1.26l5.11-17.9,17.89-5.11c.59-.17,1.08-.63,1.26-1.26.28-.98-.29-1.99-1.26-2.27l-17.89-5.11-5.11-17.88c-.17-.59-.63-1.08-1.26-1.27-.98-.28-2,.29-2.27,1.27Z"/>
      <path class="cls-1" d="M817.84,471.27l-5.11,17.88-17.89,5.11c-.59.17-1.08.63-1.26,1.26-.28.98.29,2,1.26,2.28l17.89,5.11,5.11,17.9c.17.59.63,1.08,1.26,1.26.98.28,2-.29,2.28-1.26l5.11-17.9,17.89-5.11c.59-.17,1.08-.63,1.26-1.26.28-.98-.29-1.99-1.26-2.27l-17.89-5.11-5.11-17.88c-.17-.59-.63-1.08-1.26-1.27-.98-.28-2,.29-2.27,1.27Z"/>
      <path class="cls-1" d="M817.84,784.55l-5.11,17.88-17.89,5.11c-.59.17-1.08.63-1.26,1.26-.28.98.29,2,1.26,2.28l17.89,5.11,5.11,17.9c.17.59.63,1.08,1.26,1.26.98.28,2-.29,2.28-1.26l5.11-17.9,17.89-5.11c.59-.17,1.08-.63,1.26-1.26.28-.98-.29-1.99-1.26-2.27l-17.89-5.11-5.11-17.88c-.17-.59-.63-1.08-1.26-1.27-.98-.28-2,.29-2.27,1.27Z"/>
      <path class="cls-1" d="M394.64,419.05l-5.11,17.88-17.89,5.11c-.59.17-1.08.63-1.26,1.26-.28.98.29,2,1.26,2.28l17.89,5.11,5.11,17.9c.17.59.63,1.08,1.26,1.26.98.28,2-.29,2.28-1.26l5.11-17.9,17.89-5.11c.59-.17,1.08-.63,1.26-1.26.28-.98-.29-1.99-1.26-2.27l-17.89-5.11-5.11-17.88c-.17-.59-.63-1.08-1.26-1.27-.98-.28-2,.29-2.27,1.27Z"/>
      <path class="cls-1" d="M341.74,419.05l-5.11,17.88-17.89,5.11c-.59.17-1.08.63-1.26,1.26-.28.98.29,2,1.26,2.28l17.89,5.11,5.11,17.9c.17.59.63,1.08,1.26,1.26.98.28,2-.29,2.28-1.26l5.11-17.9,17.89-5.11c.59-.17,1.08-.63,1.26-1.26.28-.98-.29-1.99-1.26-2.27l-17.89-5.11-5.11-17.88c-.17-.59-.63-1.08-1.26-1.27-.98-.28-2,.29-2.27,1.27Z"/>
      <path class="cls-1" d="M288.84,419.05l-5.11,17.88-17.89,5.11c-.59.17-1.08.63-1.26,1.26-.28.98.29,2,1.26,2.28l17.89,5.11,5.11,17.9c.17.59.63,1.08,1.26,1.26.98.28,2-.29,2.28-1.26l5.11-17.9,17.89-5.11c.59-.17,1.08-.63,1.26-1.26.28-.98-.29-1.99-1.26-2.27l-17.89-5.11-5.11-17.88c-.17-.59-.63-1.08-1.26-1.27-.98-.28-2,.29-2.27,1.27Z"/>
      <path class="cls-1" d="M235.94,419.05l-5.11,17.88-17.89,5.11c-.59.17-1.08.63-1.26,1.26-.28.98.29,2,1.26,2.28l17.89,5.11,5.11,17.9c.17.59.63,1.08,1.26,1.26.98.28,2-.29,2.28-1.26l5.11-17.9,17.89-5.11c.59-.17,1.08-.63,1.26-1.26.28-.98-.29-1.99-1.26-2.27l-17.89-5.11-5.11-17.88c-.17-.59-.63-1.08-1.26-1.27-.98-.28-2,.29-2.27,1.27Z"/>
      <path class="cls-1" d="M870.74,366.84l-5.11,17.88-17.89,5.11c-.59.17-1.08.63-1.26,1.26-.28.98.29,2,1.26,2.28l17.89,5.11,5.11,17.9c.17.59.63,1.08,1.26,1.26.98.28,2-.29,2.28-1.26l5.11-17.9,17.89-5.11c.59-.17,1.08-.63,1.26-1.26.28-.98-.29-1.99-1.26-2.27l-17.89-5.11-5.11-17.88c-.17-.59-.63-1.08-1.26-1.27-.98-.28-2,.29-2.27,1.27Z"/>
      <path class="cls-1" d="M817.84,366.84l-5.11,17.88-17.89,5.11c-.59.17-1.08.63-1.26,1.26-.28.98.29,2,1.26,2.28l17.89,5.11,5.11,17.9c.17.59.63,1.08,1.26,1.26.98.28,2-.29,2.28-1.26l5.11-17.9,17.89-5.11c.59-.17,1.08-.63,1.26-1.26.28-.98-.29-1.99-1.26-2.27l-17.89-5.11-5.11-17.88c-.17-.59-.63-1.08-1.26-1.27-.98-.28-2,.29-2.27,1.27Z"/>
      <path class="cls-1" d="M500.44,366.84l-5.11,17.88-17.89,5.11c-.59.17-1.08.63-1.26,1.26-.28.98.29,2,1.26,2.28l17.89,5.11,5.11,17.9c.17.59.63,1.08,1.26,1.26.98.28,2-.29,2.28-1.26l5.11-17.9,17.89-5.11c.59-.17,1.08-.63,1.26-1.26.28-.98-.29-1.99-1.26-2.27l-17.89-5.11-5.11-17.88c-.17-.59-.63-1.08-1.26-1.27-.98-.28-2,.29-2.27,1.27Z"/>
      <path class="cls-1" d="M447.54,366.84l-5.11,17.88-17.89,5.11c-.59.17-1.08.63-1.26,1.26-.28.98.29,2,1.26,2.28l17.89,5.11,5.11,17.9c.17.59.63,1.08,1.26,1.26.98.28,2-.29,2.28-1.26l5.11-17.9,17.89-5.11c.59-.17,1.08-.63,1.26-1.26.28-.98-.29-1.99-1.26-2.27l-17.89-5.11-5.11-17.88c-.17-.59-.63-1.08-1.26-1.27-.98-.28-2,.29-2.27,1.27Z"/>
      <path class="cls-1" d="M870.74,314.62l-5.11,17.88-17.89,5.11c-.59.17-1.08.63-1.26,1.26-.28.98.29,2,1.26,2.28l17.89,5.11,5.11,17.9c.17.59.63,1.08,1.26,1.26.98.28,2-.29,2.28-1.26l5.11-17.9,17.89-5.11c.59-.17,1.08-.63,1.26-1.26.28-.98-.29-1.99-1.26-2.27l-17.89-5.11-5.11-17.88c-.17-.59-.63-1.08-1.26-1.27-.98-.28-2,.29-2.27,1.27Z"/>
      <path class="cls-1" d="M712.04,314.62l-5.11,17.88-17.89,5.11c-.59.17-1.08.63-1.26,1.26-.28.98.29,2,1.26,2.28l17.89,5.11,5.11,17.9c.17.59.63,1.08,1.26,1.26.98.28,2-.29,2.28-1.26l5.11-17.9,17.89-5.11c.59-.17,1.08-.63,1.26-1.26.28-.98-.29-1.99-1.26-2.27l-17.89-5.11-5.11-17.88c-.17-.59-.63-1.08-1.26-1.27-.98-.28-2,.29-2.27,1.27Z"/>
      <path class="cls-1" d="M659.14,314.62l-5.11,17.88-17.89,5.11c-.59.17-1.08.63-1.26,1.26-.28.98.29,2,1.26,2.28l17.89,5.11,5.11,17.9c.17.59.63,1.08,1.26,1.26.98.28,2-.29,2.28-1.26l5.11-17.9,17.89-5.11c.59-.17,1.08-.63,1.26-1.26.28-.98-.29-1.99-1.26-2.27l-17.89-5.11-5.11-17.88c-.17-.59-.63-1.08-1.26-1.27-.98-.28-2,.29-2.27,1.27Z"/>
      <path class="cls-1" d="M606.24,314.62l-5.11,17.88-17.89,5.11c-.59.17-1.08.63-1.26,1.26-.28.98.29,2,1.26,2.28l17.89,5.11,5.11,17.9c.17.59.63,1.08,1.26,1.26.98.28,2-.29,2.28-1.26l5.11-17.9,17.89-5.11c.59-.17,1.08-.63,1.26-1.26.28-.98-.29-1.99-1.26-2.27l-17.89-5.11-5.11-17.88c-.17-.59-.63-1.08-1.26-1.27-.98-.28-2,.29-2.27,1.27Z"/>
      <path class="cls-1" d="M553.34,314.62l-5.11,17.88-17.89,5.11c-.59.17-1.08.63-1.26,1.26-.28.98.29,2,1.26,2.28l17.89,5.11,5.11,17.9c.17.59.63,1.08,1.26,1.26.98.28,2-.29,2.28-1.26l5.11-17.9,17.89-5.11c.59-.17,1.08-.63,1.26-1.26.28-.98-.29-1.99-1.26-2.27l-17.89-5.11-5.11-17.88c-.17-.59-.63-1.08-1.26-1.27-.98-.28-2,.29-2.27,1.27Z"/>
      <path class="cls-1" d="M447.54,314.62l-5.11,17.88-17.89,5.11c-.59.17-1.08.63-1.26,1.26-.28.98.29,2,1.26,2.28l17.89,5.11,5.11,17.9c.17.59.63,1.08,1.26,1.26.98.28,2-.29,2.28-1.26l5.11-17.9,17.89-5.11c.59-.17,1.08-.63,1.26-1.26.28-.98-.29-1.99-1.26-2.27l-17.89-5.11-5.11-17.88c-.17-.59-.63-1.08-1.26-1.27-.98-.28-2,.29-2.27,1.27Z"/>
      <path class="cls-1" d="M870.74,262.41l-5.11,17.88-17.89,5.11c-.59.17-1.08.63-1.26,1.26-.28.98.29,2,1.26,2.28l17.89,5.11,5.11,17.9c.17.59.63,1.08,1.26,1.26.98.28,2-.29,2.28-1.26l5.11-17.9,17.89-5.11c.59-.17,1.08-.63,1.26-1.26.28-.98-.29-1.99-1.26-2.27l-17.89-5.11-5.11-17.88c-.17-.59-.63-1.08-1.26-1.27-.98-.28-2,.29-2.27,1.27Z"/>
      <path class="cls-1" d="M712.04,262.41l-5.11,17.88-17.89,5.11c-.59.17-1.08.63-1.26,1.26-.28.98.29,2,1.26,2.28l17.89,5.11,5.11,17.9c.17.59.63,1.08,1.26,1.26.98.28,2-.29,2.28-1.26l5.11-17.9,17.89-5.11c.59-.17,1.08-.63,1.26-1.26.28-.98-.29-1.99-1.26-2.27l-17.89-5.11-5.11-17.88c-.17-.59-.63-1.08-1.26-1.27-.98-.28-2,.29-2.27,1.27Z"/>
      <path class="cls-1" d="M659.14,262.41l-5.11,17.88-17.89,5.11c-.59.17-1.08.63-1.26,1.26-.28.98.29,2,1.26,2.28l17.89,5.11,5.11,17.9c.17.59.63,1.08,1.26,1.26.98.28,2-.29,2.28-1.26l5.11-17.9,17.89-5.11c.59-.17,1.08-.63,1.26-1.26.28-.98-.29-1.99-1.26-2.27l-17.89-5.11-5.11-17.88c-.17-.59-.63-1.08-1.26-1.27-.98-.28-2,.29-2.27,1.27Z"/>
      <path class="cls-1" d="M606.24,262.41l-5.11,17.88-17.89,5.11c-.59.17-1.08.63-1.26,1.26-.28.98.29,2,1.26,2.28l17.89,5.11,5.11,17.9c.17.59.63,1.08,1.26,1.26.98.28,2-.29,2.28-1.26l5.11-17.9,17.89-5.11c.59-.17,1.08-.63,1.26-1.26.28-.98-.29-1.99-1.26-2.27l-17.89-5.11-5.11-17.88c-.17-.59-.63-1.08-1.26-1.27-.98-.28-2,.29-2.27,1.27Z"/>
      <path class="cls-1" d="M447.54,262.41l-5.11,17.88-17.89,5.11c-.59.17-1.08.63-1.26,1.26-.28.98.29,2,1.26,2.28l17.89,5.11,5.11,17.9c.17.59.63,1.08,1.26,1.26.98.28,2-.29,2.28-1.26l5.11-17.9,17.89-5.11c.59-.17,1.08-.63,1.26-1.26.28-.98-.29-1.99-1.26-2.27l-17.89-5.11-5.11-17.88c-.17-.59-.63-1.08-1.26-1.27-.98-.28-2,.29-2.27,1.27Z"/>
      <path class="cls-1" d="M870.74,210.19l-5.11,17.88-17.89,5.11c-.59.17-1.08.63-1.26,1.26-.28.98.29,2,1.26,2.28l17.89,5.11,5.11,17.9c.17.59.63,1.08,1.26,1.26.98.28,2-.29,2.28-1.26l5.11-17.9,17.89-5.11c.59-.17,1.08-.63,1.26-1.26.28-.98-.29-1.99-1.26-2.27l-17.89-5.11-5.11-17.88c-.17-.59-.63-1.08-1.26-1.27-.98-.28-2,.29-2.27,1.27Z"/>
      <path class="cls-1" d="M817.84,210.19l-5.11,17.88-17.89,5.11c-.59.17-1.08.63-1.26,1.26-.28.98.29,2,1.26,2.28l17.89,5.11,5.11,17.9c.17.59.63,1.08,1.26,1.26.98.28,2-.29,2.28-1.26l5.11-17.9,17.89-5.11c.59-.17,1.08-.63,1.26-1.26.28-.98-.29-1.99-1.26-2.27l-17.89-5.11-5.11-17.88c-.17-.59-.63-1.08-1.26-1.27-.98-.28-2,.29-2.27,1.27Z"/>
      <path class="cls-1" d="M659.14,210.19l-5.11,17.88-17.89,5.11c-.59.17-1.08.63-1.26,1.26-.28.98.29,2,1.26,2.28l17.89,5.11,5.11,17.9c.17.59.63,1.08,1.26,1.26.98.28,2-.29,2.28-1.26l5.11-17.9,17.89-5.11c.59-.17,1.08-.63,1.26-1.26.28-.98-.29-1.99-1.26-2.27l-17.89-5.11-5.11-17.88c-.17-.59-.63-1.08-1.26-1.27-.98-.28-2,.29-2.27,1.27Z"/>
      <path class="cls-1" d="M500.44,210.19l-5.11,17.88-17.89,5.11c-.59.17-1.08.63-1.26,1.26-.28.98.29,2,1.26,2.28l17.89,5.11,5.11,17.9c.17.59.63,1.08,1.26,1.26.98.28,2-.29,2.28-1.26l5.11-17.9,17.89-5.11c.59-.17,1.08-.63,1.26-1.26.28-.98-.29-1.99-1.26-2.27l-17.89-5.11-5.11-17.88c-.17-.59-.63-1.08-1.26-1.27-.98-.28-2,.29-2.27,1.27Z"/>
      <path class="cls-1" d="M447.54,210.19l-5.11,17.88-17.89,5.11c-.59.17-1.08.63-1.26,1.26-.28.98.29,2,1.26,2.28l17.89,5.11,5.11,17.9c.17.59.63,1.08,1.26,1.26.98.28,2-.29,2.28-1.26l5.11-17.9,17.89-5.11c.59-.17,1.08-.63,1.26-1.26.28-.98-.29-1.99-1.26-2.27l-17.89-5.11-5.11-17.88c-.17-.59-.63-1.08-1.26-1.27-.98-.28-2,.29-2.27,1.27Z"/>
      <path class="cls-1" d="M817.84,157.98l-5.11,17.88-17.89,5.11c-.59.17-1.08.63-1.26,1.26-.28.98.29,2,1.26,2.28l17.89,5.11,5.11,17.9c.17.59.63,1.08,1.26,1.26.98.28,2-.29,2.28-1.26l5.11-17.9,17.89-5.11c.59-.17,1.08-.63,1.26-1.26.28-.98-.29-1.99-1.26-2.27l-17.89-5.11-5.11-17.88c-.17-.59-.63-1.08-1.26-1.27-.98-.28-2,.29-2.27,1.27Z"/>
      <path class="cls-1" d="M764.94,157.98l-5.11,17.88-17.89,5.11c-.59.17-1.08.63-1.26,1.26-.28.98.29,2,1.26,2.28l17.89,5.11,5.11,17.9c.17.59.63,1.08,1.26,1.26.98.28,2-.29,2.28-1.26l5.11-17.9,17.89-5.11c.59-.17,1.08-.63,1.26-1.26.28-.98-.29-1.99-1.26-2.27l-17.89-5.11-5.11-17.88c-.17-.59-.63-1.08-1.26-1.27-.98-.28-2,.29-2.27,1.27Z"/>
      <path class="cls-1" d="M553.34,157.98l-5.11,17.88-17.89,5.11c-.59.17-1.08.63-1.26,1.26-.28.98.29,2,1.26,2.28l17.89,5.11,5.11,17.9c.17.59.63,1.08,1.26,1.26.98.28,2-.29,2.28-1.26l5.11-17.9,17.89-5.11c.59-.17,1.08-.63,1.26-1.26.28-.98-.29-1.99-1.26-2.27l-17.89-5.11-5.11-17.88c-.17-.59-.63-1.08-1.26-1.27-.98-.28-2,.29-2.27,1.27Z"/>
      <path class="cls-1" d="M500.44,157.98l-5.11,17.88-17.89,5.11c-.59.17-1.08.63-1.26,1.26-.28.98.29,2,1.26,2.28l17.89,5.11,5.11,17.9c.17.59.63,1.08,1.26,1.26.98.28,2-.29,2.28-1.26l5.11-17.9,17.89-5.11c.59-.17,1.08-.63,1.26-1.26.28-.98-.29-1.99-1.26-2.27l-17.89-5.11-5.11-17.88c-.17-.59-.63-1.08-1.26-1.27-.98-.28-2,.29-2.27,1.27Z"/>
      <path class="cls-1" d="M764.94,105.77l-5.11,17.88-17.89,5.11c-.59.17-1.08.63-1.26,1.26-.28.98.29,2,1.26,2.28l17.89,5.11,5.11,17.9c.17.59.63,1.08,1.26,1.26.98.28,2-.29,2.28-1.26l5.11-17.9,17.89-5.11c.59-.17,1.08-.63,1.26-1.26.28-.98-.29-1.99-1.26-2.27l-17.89-5.11-5.11-17.88c-.17-.59-.63-1.08-1.26-1.27-.98-.28-2,.29-2.27,1.27Z"/>
      <path class="cls-1" d="M712.04,105.77l-5.11,17.88-17.89,5.11c-.59.17-1.08.63-1.26,1.26-.28.98.29,2,1.26,2.28l17.89,5.11,5.11,17.9c.17.59.63,1.08,1.26,1.26.98.28,2-.29,2.28-1.26l5.11-17.9,17.89-5.11c.59-.17,1.08-.63,1.26-1.26.28-.98-.29-1.99-1.26-2.27l-17.89-5.11-5.11-17.88c-.17-.59-.63-1.08-1.26-1.27-.98-.28-2,.29-2.27,1.27Z"/>
      <path class="cls-1" d="M606.24,105.77l-5.11,17.88-17.89,5.11c-.59.17-1.08.63-1.26,1.26-.28.98.29,2,1.26,2.28l17.89,5.11,5.11,17.9c.17.59.63,1.08,1.26,1.26.98.28,2-.29,2.28-1.26l5.11-17.9,17.89-5.11c.59-.17,1.08-.63,1.26-1.26.28-.98-.29-1.99-1.26-2.27l-17.89-5.11-5.11-17.88c-.17-.59-.63-1.08-1.26-1.27-.98-.28-2,.29-2.27,1.27Z"/>
      <path class="cls-1" d="M553.34,105.77l-5.11,17.88-17.89,5.11c-.59.17-1.08.63-1.26,1.26-.28.98.29,2,1.26,2.28l17.89,5.11,5.11,17.9c.17.59.63,1.08,1.26,1.26.98.28,2-.29,2.28-1.26l5.11-17.9,17.89-5.11c.59-.17,1.08-.63,1.26-1.26.28-.98-.29-1.99-1.26-2.27l-17.89-5.11-5.11-17.88c-.17-.59-.63-1.08-1.26-1.27-.98-.28-2,.29-2.27,1.27Z"/>
      <path class="cls-1" d="M712.04,53.55l-5.11,17.88-17.89,5.11c-.59.17-1.08.63-1.26,1.26-.28.98.29,2,1.26,2.28l17.89,5.11,5.11,17.9c.17.59.63,1.08,1.26,1.26.98.28,2-.29,2.28-1.26l5.11-17.9,17.89-5.11c.59-.17,1.08-.63,1.26-1.26.28-.98-.29-1.99-1.26-2.27l-17.89-5.11-5.11-17.88c-.17-.59-.63-1.08-1.26-1.27-.98-.28-2,.29-2.27,1.27Z"/>
      <path class="cls-1" d="M659.14,53.55l-5.11,17.88-17.89,5.11c-.59.17-1.08.63-1.26,1.26-.28.98.29,2,1.26,2.28l17.89,5.11,5.11,17.9c.17.59.63,1.08,1.26,1.26.98.28,2-.29,2.28-1.26l5.11-17.9,17.89-5.11c.59-.17,1.08-.63,1.26-1.26.28-.98-.29-1.99-1.26-2.27l-17.89-5.11-5.11-17.88c-.17-.59-.63-1.08-1.26-1.27-.98-.28-2,.29-2.27,1.27Z"/>
      <path class="cls-1" d="M606.24,53.55l-5.11,17.88-17.89,5.11c-.59.17-1.08.63-1.26,1.26-.28.98.29,2,1.26,2.28l17.89,5.11,5.11,17.9c.17.59.63,1.08,1.26,1.26.98.28,2-.29,2.28-1.26l5.11-17.9,17.89-5.11c.59-.17,1.08-.63,1.26-1.26.28-.98-.29-1.99-1.26-2.27l-17.89-5.11-5.11-17.88c-.17-.59-.63-1.08-1.26-1.27-.98-.28-2,.29-2.27,1.27Z"/>
      <path class="cls-1" d="M659.14,1.34l-5.11,17.88-17.89,5.11c-.59.17-1.08.63-1.26,1.26-.28.98.29,2,1.26,2.28l17.89,5.11,5.11,17.9c.17.59.63,1.08,1.26,1.26.98.28,2-.29,2.28-1.26l5.11-17.9,17.89-5.11c.59-.17,1.08-.63,1.26-1.26.28-.98-.29-1.99-1.26-2.27l-17.89-5.11-5.11-17.88c-.17-.59-.63-1.08-1.26-1.27-.98-.28-2,.29-2.27,1.27Z"/>
      <g>
        <path class="cls-1" d="M659.57,411.13h3.93c.06.95.17,1.82.17,2.7.08,19.7.07,39.4.25,59.1.25,27.61.58,55.22,1,82.83.3,19.79.72,39.57,1.22,59.35.75,29.92,1.55,59.84,2.44,89.76.72,24.24,1.51,48.47,2.45,72.7,1.49,38.51,3.13,77.02,4.69,115.53.06,1.5,0,3,0,4.66h-27.11c7.82-162.09,11.15-324.17,10.96-486.64Z"/>
        <path class="cls-1" d="M743.6,898.02c-8.68-10.02-15.82-20.34-22.08-31.28-15.45-27-25.04-56.16-31.66-86.38-6.44-29.4-9.8-59.2-11.77-89.2-2.28-34.78-2.21-69.6-1.52-104.41.65-32.96,2.08-65.9,3.14-98.86.35-10.85.59-21.69.88-32.74h4.07c0,3.65.05,7.37,0,11.08-.18,12.08-.41,24.15-.6,36.23-.41,26.39-1.31,52.78-1.09,79.16.23,28.09,1.18,56.2,2.47,84.26,1.11,24.23,4.18,48.3,8.66,72.16,6.41,34.15,16.05,67.19,33.56,97.53,6.92,12,14.97,23.18,24.64,33.14,1.42,1.46,1.63,2.68.89,4.53-3.2,8.06-6.26,16.18-9.58,24.79Z"/>
        <path class="cls-1" d="M639.06,482.24h4.11c0,5.12-.09,10.25.01,15.37.71,34.29,1.52,68.59,2.19,102.88.71,36.15-.05,72.25-3.13,108.29-3.06,35.86-8.53,71.29-19.44,105.7-9.01,28.44-21.52,55.11-40.33,78.53-1.26,1.58-2.58,3.11-4.17,5.02-2.53-6.57-4.47-13-7.44-18.91-2.99-5.95-2.04-9.81,2.56-14.84,18.42-20.14,30.37-44.15,39.43-69.67,9.02-25.42,14.61-51.65,18.44-78.3,4.45-30.98,6.88-62.14,7.28-93.41.45-35.23.35-70.48.47-105.71.04-11.55,0-23.1,0-34.96Z"/>
        <path class="cls-1" d="M743.53,827.06c-9.93-12.82-17-26.56-22.73-41.04-8.77-22.16-14.25-45.19-18.18-68.62-5.05-30.06-7.87-60.35-8.6-90.8-.62-26.07-.76-52.15-.84-78.23-.04-12.37.57-24.75.88-37.12.02-.59.06-1.17.11-1.9h5.72c0,5.7.03,11.33,0,16.95-.11,16.94-.54,33.89-.29,50.83.42,28.84,2.89,57.54,7.32,86.04,5.78,37.16,14.28,73.59,29.91,108.02,4.37,9.62,9.48,18.83,16,27.2.5.65.84,1.89.57,2.61-3.14,8.53-6.42,17.01-9.87,26.06Z"/>
        <path class="cls-1" d="M578.47,827.57c-3.65-9.6-6.94-18.19-10.15-26.82-.21-.57.02-1.57.42-2.07,19.79-24.47,31.06-52.98,39.31-82.88,7.25-26.28,11.7-53.09,13.42-80.26,1.29-20.44,1.9-40.94,2.23-61.42.2-12.55-.71-25.12-1.12-37.9h6.37c.16,5.05.4,10.17.46,15.29.21,19.79.71,39.59.46,59.38-.49,38.48-2.8,76.84-10.21,114.71-5.65,28.88-13.92,56.87-28.74,82.55-3.69,6.39-7.96,12.45-12.44,19.41Z"/>
      </g>
    </g>
  </g>
</svg>